<?xml version="1.0" encoding="utf-8" standalone="no"?>
<!DOCTYPE svg PUBLIC "-//W3C//DTD SVG 1.1//EN"
  "http://www.w3.org/Graphics/SVG/1.1/DTD/svg11.dtd">
<svg xmlns:xlink="http://www.w3.org/1999/xlink" width="576pt" height="576pt" viewBox="0 0 576 576" xmlns="http://www.w3.org/2000/svg" version="1.1">
 <metadata>
  <rdf:RDF xmlns:dc="http://purl.org/dc/elements/1.1/" xmlns:cc="http://creativecommons.org/ns#" xmlns:rdf="http://www.w3.org/1999/02/22-rdf-syntax-ns#">
   <cc:Work>
    <dc:type rdf:resource="http://purl.org/dc/dcmitype/StillImage"/>
    <dc:date>2024-08-08T13:53:35.011653</dc:date>
    <dc:format>image/svg+xml</dc:format>
    <dc:creator>
     <cc:Agent>
      <dc:title>Matplotlib v3.8.4, https://matplotlib.org/</dc:title>
     </cc:Agent>
    </dc:creator>
   </cc:Work>
  </rdf:RDF>
 </metadata>
 <defs>
  <style type="text/css">*{stroke-linejoin: round; stroke-linecap: butt}</style>
 </defs>
 <g id="figure_1">
  <g id="patch_1">
   <path d="M 0 576 
L 576 576 
L 576 0 
L 0 0 
z
" style="fill: #ffffff"/>
  </g>
  <g id="axes_1">
   <g id="patch_2">
    <path d="M 341.318831 119.571355 
C 333.807673 117.54924 326.171648 116.02331 318.460206 115.003449 
C 310.748764 113.983587 302.978589 113.472 295.2 113.472 
L 295.2 184.4352 
C 299.867153 184.4352 304.529259 184.742152 309.156124 185.354069 
C 313.782989 185.965986 318.364604 186.881544 322.871299 188.094813 
z
" style="fill: #ff4500; stroke: #ffffff; stroke-linejoin: miter"/>
   </g>
   <g id="patch_3">
    <path d="M 462.160994 230.899795 
C 452.488648 203.975838 436.445711 179.78679 415.405068 160.402645 
C 394.364425 141.0185 368.943886 127.00843 341.318831 119.571355 
L 322.871299 188.094813 
C 339.446332 192.557058 354.698655 200.9631 367.323041 212.593587 
C 379.947427 224.224074 389.573189 238.737503 395.376596 254.891877 
z
" style="fill: #ff8c00; stroke: #ffffff; stroke-linejoin: miter"/>
   </g>
   <g id="patch_4">
    <path d="M 464.346076 237.371089 
C 464.002701 236.285654 463.648887 235.203549 463.284681 234.124925 
C 462.920475 233.046301 462.545896 231.971208 462.160994 230.899795 
L 395.376596 254.891877 
C 395.607537 255.534725 395.832285 256.179781 396.050809 256.826955 
C 396.269332 257.47413 396.481621 258.123393 396.687645 258.774654 
z
" style="fill: #ff4500; stroke: #ffffff; stroke-linejoin: miter"/>
   </g>
   <g id="patch_5">
    <path d="M 469.968434 321.369224 
C 472.40592 307.397219 473.15913 293.183189 472.211918 279.031826 
C 471.264706 264.880464 468.623889 250.893611 464.346076 237.371089 
L 396.687645 258.774654 
C 399.254334 266.888167 400.838824 275.280278 401.407151 283.771096 
C 401.975478 292.261913 401.523552 300.790331 400.061061 309.173535 
z
" style="fill: #ff8c00; stroke: #ffffff; stroke-linejoin: miter"/>
   </g>
   <g id="patch_6">
    <path d="M 389.615964 441.077284 
C 410.641761 427.860195 428.659798 410.374169 442.500934 389.753826 
C 456.342069 369.133483 465.700313 345.834684 469.968434 321.369224 
L 400.061061 309.173535 
C 397.500188 323.85281 391.885241 337.83209 383.58056 350.204295 
C 375.275879 362.576501 364.465057 373.068117 351.849579 380.99837 
z
" style="fill: #ff4500; stroke: #ffffff; stroke-linejoin: miter"/>
   </g>
   <g id="patch_7">
    <path d="M 234.159699 124.303651 
C 210.813 132.858824 189.52358 146.227478 171.676112 163.54011 
C 153.828645 180.852741 139.81864 201.725692 130.557315 224.801375 
C 121.29599 247.877059 116.988581 272.644105 117.915245 297.491652 
C 118.841908 322.339199 124.982109 346.716612 135.936484 369.038372 
C 146.89086 391.360132 162.416656 411.131575 181.504067 427.066759 
C 200.591477 443.001942 222.817515 454.747732 246.736587 461.540177 
C 270.655659 468.332622 295.737704 470.021198 320.351376 466.496078 
C 344.965048 462.970958 368.564892 454.310261 389.615964 441.077284 
L 351.849579 380.99837 
C 339.218935 388.938157 325.059029 394.134575 310.290826 396.249647 
C 295.522623 398.364719 280.473395 397.351573 266.121952 393.276106 
C 251.770509 389.200639 238.434886 382.153165 226.98244 372.592055 
C 215.529994 363.030945 206.214516 351.168079 199.641891 337.775023 
C 193.069265 324.381967 189.385145 309.75552 188.829147 294.846991 
C 188.273149 279.938463 190.857594 265.078235 196.414389 251.232825 
C 201.971184 237.387415 210.377187 224.863645 221.085667 214.476066 
C 231.794148 204.088487 244.5678 196.067294 258.575819 190.934191 
z
" style="fill: #ff8c00; stroke: #ffffff; stroke-linejoin: miter"/>
   </g>
   <g id="patch_8">
    <path d="M 237.621368 123.075651 
C 237.042323 123.274338 236.464311 123.476021 235.887355 123.680692 
C 235.310399 123.885363 234.734505 124.093019 234.159699 124.303651 
L 258.575819 190.934191 
C 258.920703 190.807811 259.266239 190.683218 259.612413 190.560415 
C 259.958587 190.437613 260.305394 190.316603 260.652821 190.197391 
z
" style="fill: #ff4500; stroke: #ffffff; stroke-linejoin: miter"/>
   </g>
   <g id="patch_9">
    <path d="M 295.199988 113.472 
C 285.420992 113.472001 275.658717 114.280551 266.012972 115.889384 
C 256.367226 117.498216 246.870995 119.90183 237.621368 123.075651 
L 260.652821 190.197391 
C 266.202597 188.293098 271.900336 186.85093 277.687783 185.88563 
C 283.47523 184.92033 289.332595 184.4352 295.199993 184.4352 
z
" style="fill: #ff8c00; stroke: #ffffff; stroke-linejoin: miter"/>
   </g>
   <g id="patch_10">
    <path d="M 395.376595 254.891875 
C 387.966517 234.26517 374.363556 216.421977 356.436209 203.813232 
C 338.508863 191.204486 317.11735 184.4352 295.2 184.4352 
L 295.2 255.3984 
C 302.505783 255.3984 309.636288 257.654829 315.61207 261.857744 
C 321.587852 266.060659 326.122172 272.00839 328.592198 278.883958 
z
" style="fill: #00ced1; stroke: #ffffff; stroke-linejoin: miter"/>
   </g>
   <g id="patch_11">
    <path d="M 400.061061 309.173534 
C 401.641398 300.11482 402.041252 290.889391 401.250624 281.727913 
C 400.459995 272.566436 398.48553 263.545908 395.376595 254.891875 
L 328.592198 278.883958 
C 329.62851 281.768636 330.286665 284.775479 330.550208 287.829304 
C 330.813751 290.88313 330.680466 293.958273 330.153687 296.977845 
z
" style="fill: #00ced1; stroke: #ffffff; stroke-linejoin: miter"/>
   </g>
   <g id="patch_12">
    <path d="M 258.575837 190.934184 
C 241.034526 197.362025 225.490686 208.295972 213.512735 222.632757 
C 201.534783 236.969543 193.539613 254.210176 190.333961 272.615027 
C 187.128308 291.019877 188.823745 309.948366 195.249197 327.490552 
C 201.67465 345.032738 212.60648 360.578067 226.941634 372.557971 
C 241.276788 384.537874 258.516332 392.535392 276.920746 395.743551 
C 295.32516 398.95171 314.253879 397.258851 331.79694 390.835787 
C 349.340001 384.412724 364.886819 373.483011 376.868675 359.149488 
C 388.85053 344.815966 396.850395 327.577511 400.061061 309.173534 
L 330.153687 296.977845 
C 329.083465 303.112504 326.416843 308.858655 322.422892 313.636496 
C 318.42894 318.414337 313.246667 322.057575 307.39898 324.198596 
C 301.551293 326.339617 295.24172 326.903903 289.106915 325.834517 
C 282.972111 324.765131 277.225596 322.099291 272.447211 318.10599 
C 267.668827 314.112689 264.024883 308.930913 261.883066 303.083517 
C 259.741248 297.236122 259.176103 290.926626 260.244654 284.791676 
C 261.313204 278.656725 263.978261 272.909848 267.970912 268.130919 
C 271.963562 263.351991 277.144842 259.707342 282.991946 257.564728 
z
" style="fill: #00ced1; stroke: #ffffff; stroke-linejoin: miter"/>
   </g>
   <g id="patch_13">
    <path d="M 295.200012 184.4352 
C 288.964639 184.435199 282.741307 184.983086 276.601847 186.072538 
C 270.462387 187.161989 264.43051 188.788797 258.575837 190.934184 
L 282.991946 257.564728 
C 284.943503 256.849599 286.954129 256.30733 289.000616 255.944179 
C 291.047102 255.581029 293.121546 255.3984 295.200004 255.3984 
z
" style="fill: #00ced1; stroke: #ffffff; stroke-linejoin: miter"/>
   </g>
   <g id="matplotlib.axis_1"/>
   <g id="matplotlib.axis_2"/>
   <g id="text_1">
    <!-- INP -->
    <g style="fill: #ffffff" transform="translate(334.519328 245.671635) rotate(-54.880333) scale(0.14 -0.14)">
     <defs>
      <path id="DejaVuSans-49" d="M 628 4666 
L 1259 4666 
L 1259 0 
L 628 0 
L 628 4666 
z
" transform="scale(0.015625)"/>
      <path id="DejaVuSans-4e" d="M 628 4666 
L 1478 4666 
L 3547 763 
L 3547 4666 
L 4159 4666 
L 4159 0 
L 3309 0 
L 1241 3903 
L 1241 0 
L 628 0 
L 628 4666 
z
" transform="scale(0.015625)"/>
      <path id="DejaVuSans-50" d="M 1259 4147 
L 1259 2394 
L 2053 2394 
Q 2494 2394 2734 2622 
Q 2975 2850 2975 3272 
Q 2975 3691 2734 3919 
Q 2494 4147 2053 4147 
L 1259 4147 
z
M 628 4666 
L 2053 4666 
Q 2838 4666 3239 4311 
Q 3641 3956 3641 3272 
Q 3641 2581 3239 2228 
Q 2838 1875 2053 1875 
L 1259 1875 
L 1259 0 
L 628 0 
L 628 4666 
z
" transform="scale(0.015625)"/>
     </defs>
     <use xlink:href="#DejaVuSans-49"/>
     <use xlink:href="#DejaVuSans-4e" x="29.492188"/>
     <use xlink:href="#DejaVuSans-50" x="104.296875"/>
    </g>
   </g>
   <g id="text_2">
    <!-- LX -->
    <g style="fill: #ffffff" transform="translate(349.139947 283.403176) rotate(-4.932361) scale(0.14 -0.14)">
     <defs>
      <path id="DejaVuSans-4c" d="M 628 4666 
L 1259 4666 
L 1259 531 
L 3531 531 
L 3531 0 
L 628 0 
L 628 4666 
z
" transform="scale(0.015625)"/>
      <path id="DejaVuSans-58" d="M 403 4666 
L 1081 4666 
L 2241 2931 
L 3406 4666 
L 4084 4666 
L 2584 2425 
L 4184 0 
L 3506 0 
L 2194 1984 
L 872 0 
L 191 0 
L 1856 2491 
L 403 4666 
z
" transform="scale(0.015625)"/>
     </defs>
     <use xlink:href="#DejaVuSans-4c"/>
     <use xlink:href="#DejaVuSans-58" x="55.712891"/>
    </g>
   </g>
   <g id="text_3">
    <!-- SNP -->
    <g style="fill: #ffffff" transform="translate(241.007776 359.874635) rotate(-50.11446) scale(0.14 -0.14)">
     <defs>
      <path id="DejaVuSans-53" d="M 3425 4513 
L 3425 3897 
Q 3066 4069 2747 4153 
Q 2428 4238 2131 4238 
Q 1616 4238 1336 4038 
Q 1056 3838 1056 3469 
Q 1056 3159 1242 3001 
Q 1428 2844 1947 2747 
L 2328 2669 
Q 3034 2534 3370 2195 
Q 3706 1856 3706 1288 
Q 3706 609 3251 259 
Q 2797 -91 1919 -91 
Q 1588 -91 1214 -16 
Q 841 59 441 206 
L 441 856 
Q 825 641 1194 531 
Q 1563 422 1919 422 
Q 2459 422 2753 634 
Q 3047 847 3047 1241 
Q 3047 1584 2836 1778 
Q 2625 1972 2144 2069 
L 1759 2144 
Q 1053 2284 737 2584 
Q 422 2884 422 3419 
Q 422 4038 858 4394 
Q 1294 4750 2059 4750 
Q 2388 4750 2728 4690 
Q 3069 4631 3425 4513 
z
" transform="scale(0.015625)"/>
     </defs>
     <use xlink:href="#DejaVuSans-53"/>
     <use xlink:href="#DejaVuSans-4e" x="63.476562"/>
     <use xlink:href="#DejaVuSans-50" x="138.28125"/>
    </g>
   </g>
   <g id="text_4">
    <!-- VMNP -->
    <g style="fill: #ffffff" transform="translate(268.338034 198.020068) rotate(-280.062428) scale(0.14 -0.14)">
     <defs>
      <path id="DejaVuSans-56" d="M 1831 0 
L 50 4666 
L 709 4666 
L 2188 738 
L 3669 4666 
L 4325 4666 
L 2547 0 
L 1831 0 
z
" transform="scale(0.015625)"/>
      <path id="DejaVuSans-4d" d="M 628 4666 
L 1569 4666 
L 2759 1491 
L 3956 4666 
L 4897 4666 
L 4897 0 
L 4281 0 
L 4281 4097 
L 3078 897 
L 2444 897 
L 1241 4097 
L 1241 0 
L 628 0 
L 628 4666 
z
" transform="scale(0.015625)"/>
     </defs>
     <use xlink:href="#DejaVuSans-56"/>
     <use xlink:href="#DejaVuSans-4d" x="68.408203"/>
     <use xlink:href="#DejaVuSans-4e" x="154.6875"/>
     <use xlink:href="#DejaVuSans-50" x="229.492188"/>
    </g>
   </g>
   <g id="legend_1">
    <g id="patch_14">
     <path d="M 382.120938 137.768125 
L 509.96 137.768125 
Q 511.96 137.768125 511.96 135.768125 
L 511.96 76.12 
Q 511.96 74.12 509.96 74.12 
L 382.120938 74.12 
Q 380.120938 74.12 380.120938 76.12 
L 380.120938 135.768125 
Q 380.120938 137.768125 382.120938 137.768125 
z
" style="fill: #ffffff; opacity: 0.8; stroke: #cccccc; stroke-linejoin: miter"/>
    </g>
    <g id="text_5">
     <!-- Legend -->
     <g transform="translate(423.997969 87.238125) scale(0.12 -0.12)">
      <defs>
       <path id="DejaVuSans-65" d="M 3597 1894 
L 3597 1613 
L 953 1613 
Q 991 1019 1311 708 
Q 1631 397 2203 397 
Q 2534 397 2845 478 
Q 3156 559 3463 722 
L 3463 178 
Q 3153 47 2828 -22 
Q 2503 -91 2169 -91 
Q 1331 -91 842 396 
Q 353 884 353 1716 
Q 353 2575 817 3079 
Q 1281 3584 2069 3584 
Q 2775 3584 3186 3129 
Q 3597 2675 3597 1894 
z
M 3022 2063 
Q 3016 2534 2758 2815 
Q 2500 3097 2075 3097 
Q 1594 3097 1305 2825 
Q 1016 2553 972 2059 
L 3022 2063 
z
" transform="scale(0.015625)"/>
       <path id="DejaVuSans-67" d="M 2906 1791 
Q 2906 2416 2648 2759 
Q 2391 3103 1925 3103 
Q 1463 3103 1205 2759 
Q 947 2416 947 1791 
Q 947 1169 1205 825 
Q 1463 481 1925 481 
Q 2391 481 2648 825 
Q 2906 1169 2906 1791 
z
M 3481 434 
Q 3481 -459 3084 -895 
Q 2688 -1331 1869 -1331 
Q 1566 -1331 1297 -1286 
Q 1028 -1241 775 -1147 
L 775 -588 
Q 1028 -725 1275 -790 
Q 1522 -856 1778 -856 
Q 2344 -856 2625 -561 
Q 2906 -266 2906 331 
L 2906 616 
Q 2728 306 2450 153 
Q 2172 0 1784 0 
Q 1141 0 747 490 
Q 353 981 353 1791 
Q 353 2603 747 3093 
Q 1141 3584 1784 3584 
Q 2172 3584 2450 3431 
Q 2728 3278 2906 2969 
L 2906 3500 
L 3481 3500 
L 3481 434 
z
" transform="scale(0.015625)"/>
       <path id="DejaVuSans-6e" d="M 3513 2113 
L 3513 0 
L 2938 0 
L 2938 2094 
Q 2938 2591 2744 2837 
Q 2550 3084 2163 3084 
Q 1697 3084 1428 2787 
Q 1159 2491 1159 1978 
L 1159 0 
L 581 0 
L 581 3500 
L 1159 3500 
L 1159 2956 
Q 1366 3272 1645 3428 
Q 1925 3584 2291 3584 
Q 2894 3584 3203 3211 
Q 3513 2838 3513 2113 
z
" transform="scale(0.015625)"/>
       <path id="DejaVuSans-64" d="M 2906 2969 
L 2906 4863 
L 3481 4863 
L 3481 0 
L 2906 0 
L 2906 525 
Q 2725 213 2448 61 
Q 2172 -91 1784 -91 
Q 1150 -91 751 415 
Q 353 922 353 1747 
Q 353 2572 751 3078 
Q 1150 3584 1784 3584 
Q 2172 3584 2448 3432 
Q 2725 3281 2906 2969 
z
M 947 1747 
Q 947 1113 1208 752 
Q 1469 391 1925 391 
Q 2381 391 2643 752 
Q 2906 1113 2906 1747 
Q 2906 2381 2643 2742 
Q 2381 3103 1925 3103 
Q 1469 3103 1208 2742 
Q 947 2381 947 1747 
z
" transform="scale(0.015625)"/>
      </defs>
      <use xlink:href="#DejaVuSans-4c"/>
      <use xlink:href="#DejaVuSans-65" x="53.962891"/>
      <use xlink:href="#DejaVuSans-67" x="115.486328"/>
      <use xlink:href="#DejaVuSans-65" x="178.962891"/>
      <use xlink:href="#DejaVuSans-6e" x="240.486328"/>
      <use xlink:href="#DejaVuSans-64" x="303.865234"/>
     </g>
    </g>
    <g id="patch_15">
     <path d="M 384.120938 102.332188 
L 404.120938 102.332188 
L 404.120938 95.332188 
L 384.120938 95.332188 
z
" style="fill: #ff4500; stroke: #ffffff; stroke-linejoin: miter"/>
    </g>
    <g id="text_6">
     <!-- Known Celltypes -->
     <g transform="translate(412.120938 102.332188) scale(0.1 -0.1)">
      <defs>
       <path id="DejaVuSans-4b" d="M 628 4666 
L 1259 4666 
L 1259 2694 
L 3353 4666 
L 4166 4666 
L 1850 2491 
L 4331 0 
L 3500 0 
L 1259 2247 
L 1259 0 
L 628 0 
L 628 4666 
z
" transform="scale(0.015625)"/>
       <path id="DejaVuSans-6f" d="M 1959 3097 
Q 1497 3097 1228 2736 
Q 959 2375 959 1747 
Q 959 1119 1226 758 
Q 1494 397 1959 397 
Q 2419 397 2687 759 
Q 2956 1122 2956 1747 
Q 2956 2369 2687 2733 
Q 2419 3097 1959 3097 
z
M 1959 3584 
Q 2709 3584 3137 3096 
Q 3566 2609 3566 1747 
Q 3566 888 3137 398 
Q 2709 -91 1959 -91 
Q 1206 -91 779 398 
Q 353 888 353 1747 
Q 353 2609 779 3096 
Q 1206 3584 1959 3584 
z
" transform="scale(0.015625)"/>
       <path id="DejaVuSans-77" d="M 269 3500 
L 844 3500 
L 1563 769 
L 2278 3500 
L 2956 3500 
L 3675 769 
L 4391 3500 
L 4966 3500 
L 4050 0 
L 3372 0 
L 2619 2869 
L 1863 0 
L 1184 0 
L 269 3500 
z
" transform="scale(0.015625)"/>
       <path id="DejaVuSans-20" transform="scale(0.015625)"/>
       <path id="DejaVuSans-43" d="M 4122 4306 
L 4122 3641 
Q 3803 3938 3442 4084 
Q 3081 4231 2675 4231 
Q 1875 4231 1450 3742 
Q 1025 3253 1025 2328 
Q 1025 1406 1450 917 
Q 1875 428 2675 428 
Q 3081 428 3442 575 
Q 3803 722 4122 1019 
L 4122 359 
Q 3791 134 3420 21 
Q 3050 -91 2638 -91 
Q 1578 -91 968 557 
Q 359 1206 359 2328 
Q 359 3453 968 4101 
Q 1578 4750 2638 4750 
Q 3056 4750 3426 4639 
Q 3797 4528 4122 4306 
z
" transform="scale(0.015625)"/>
       <path id="DejaVuSans-6c" d="M 603 4863 
L 1178 4863 
L 1178 0 
L 603 0 
L 603 4863 
z
" transform="scale(0.015625)"/>
       <path id="DejaVuSans-74" d="M 1172 4494 
L 1172 3500 
L 2356 3500 
L 2356 3053 
L 1172 3053 
L 1172 1153 
Q 1172 725 1289 603 
Q 1406 481 1766 481 
L 2356 481 
L 2356 0 
L 1766 0 
Q 1100 0 847 248 
Q 594 497 594 1153 
L 594 3053 
L 172 3053 
L 172 3500 
L 594 3500 
L 594 4494 
L 1172 4494 
z
" transform="scale(0.015625)"/>
       <path id="DejaVuSans-79" d="M 2059 -325 
Q 1816 -950 1584 -1140 
Q 1353 -1331 966 -1331 
L 506 -1331 
L 506 -850 
L 844 -850 
Q 1081 -850 1212 -737 
Q 1344 -625 1503 -206 
L 1606 56 
L 191 3500 
L 800 3500 
L 1894 763 
L 2988 3500 
L 3597 3500 
L 2059 -325 
z
" transform="scale(0.015625)"/>
       <path id="DejaVuSans-70" d="M 1159 525 
L 1159 -1331 
L 581 -1331 
L 581 3500 
L 1159 3500 
L 1159 2969 
Q 1341 3281 1617 3432 
Q 1894 3584 2278 3584 
Q 2916 3584 3314 3078 
Q 3713 2572 3713 1747 
Q 3713 922 3314 415 
Q 2916 -91 2278 -91 
Q 1894 -91 1617 61 
Q 1341 213 1159 525 
z
M 3116 1747 
Q 3116 2381 2855 2742 
Q 2594 3103 2138 3103 
Q 1681 3103 1420 2742 
Q 1159 2381 1159 1747 
Q 1159 1113 1420 752 
Q 1681 391 2138 391 
Q 2594 391 2855 752 
Q 3116 1113 3116 1747 
z
" transform="scale(0.015625)"/>
       <path id="DejaVuSans-73" d="M 2834 3397 
L 2834 2853 
Q 2591 2978 2328 3040 
Q 2066 3103 1784 3103 
Q 1356 3103 1142 2972 
Q 928 2841 928 2578 
Q 928 2378 1081 2264 
Q 1234 2150 1697 2047 
L 1894 2003 
Q 2506 1872 2764 1633 
Q 3022 1394 3022 966 
Q 3022 478 2636 193 
Q 2250 -91 1575 -91 
Q 1294 -91 989 -36 
Q 684 19 347 128 
L 347 722 
Q 666 556 975 473 
Q 1284 391 1588 391 
Q 1994 391 2212 530 
Q 2431 669 2431 922 
Q 2431 1156 2273 1281 
Q 2116 1406 1581 1522 
L 1381 1569 
Q 847 1681 609 1914 
Q 372 2147 372 2553 
Q 372 3047 722 3315 
Q 1072 3584 1716 3584 
Q 2034 3584 2315 3537 
Q 2597 3491 2834 3397 
z
" transform="scale(0.015625)"/>
      </defs>
      <use xlink:href="#DejaVuSans-4b"/>
      <use xlink:href="#DejaVuSans-6e" x="65.576172"/>
      <use xlink:href="#DejaVuSans-6f" x="128.955078"/>
      <use xlink:href="#DejaVuSans-77" x="190.136719"/>
      <use xlink:href="#DejaVuSans-6e" x="271.923828"/>
      <use xlink:href="#DejaVuSans-20" x="335.302734"/>
      <use xlink:href="#DejaVuSans-43" x="367.089844"/>
      <use xlink:href="#DejaVuSans-65" x="436.914062"/>
      <use xlink:href="#DejaVuSans-6c" x="498.4375"/>
      <use xlink:href="#DejaVuSans-6c" x="526.220703"/>
      <use xlink:href="#DejaVuSans-74" x="554.003906"/>
      <use xlink:href="#DejaVuSans-79" x="593.212891"/>
      <use xlink:href="#DejaVuSans-70" x="652.392578"/>
      <use xlink:href="#DejaVuSans-65" x="715.869141"/>
      <use xlink:href="#DejaVuSans-73" x="777.392578"/>
     </g>
    </g>
    <g id="patch_16">
     <path d="M 384.120938 117.010313 
L 404.120938 117.010313 
L 404.120938 110.010313 
L 384.120938 110.010313 
z
" style="fill: #ff8c00; stroke: #ffffff; stroke-linejoin: miter"/>
    </g>
    <g id="text_7">
     <!-- Unknown Celltypes -->
     <g transform="translate(412.120938 117.010313) scale(0.1 -0.1)">
      <defs>
       <path id="DejaVuSans-55" d="M 556 4666 
L 1191 4666 
L 1191 1831 
Q 1191 1081 1462 751 
Q 1734 422 2344 422 
Q 2950 422 3222 751 
Q 3494 1081 3494 1831 
L 3494 4666 
L 4128 4666 
L 4128 1753 
Q 4128 841 3676 375 
Q 3225 -91 2344 -91 
Q 1459 -91 1007 375 
Q 556 841 556 1753 
L 556 4666 
z
" transform="scale(0.015625)"/>
       <path id="DejaVuSans-6b" d="M 581 4863 
L 1159 4863 
L 1159 1991 
L 2875 3500 
L 3609 3500 
L 1753 1863 
L 3688 0 
L 2938 0 
L 1159 1709 
L 1159 0 
L 581 0 
L 581 4863 
z
" transform="scale(0.015625)"/>
      </defs>
      <use xlink:href="#DejaVuSans-55"/>
      <use xlink:href="#DejaVuSans-6e" x="73.193359"/>
      <use xlink:href="#DejaVuSans-6b" x="136.572266"/>
      <use xlink:href="#DejaVuSans-6e" x="194.482422"/>
      <use xlink:href="#DejaVuSans-6f" x="257.861328"/>
      <use xlink:href="#DejaVuSans-77" x="319.042969"/>
      <use xlink:href="#DejaVuSans-6e" x="400.830078"/>
      <use xlink:href="#DejaVuSans-20" x="464.208984"/>
      <use xlink:href="#DejaVuSans-43" x="495.996094"/>
      <use xlink:href="#DejaVuSans-65" x="565.820312"/>
      <use xlink:href="#DejaVuSans-6c" x="627.34375"/>
      <use xlink:href="#DejaVuSans-6c" x="655.126953"/>
      <use xlink:href="#DejaVuSans-74" x="682.910156"/>
      <use xlink:href="#DejaVuSans-79" x="722.119141"/>
      <use xlink:href="#DejaVuSans-70" x="781.298828"/>
      <use xlink:href="#DejaVuSans-65" x="844.775391"/>
      <use xlink:href="#DejaVuSans-73" x="906.298828"/>
     </g>
    </g>
    <g id="patch_17">
     <path d="M 384.120938 131.688438 
L 404.120938 131.688438 
L 404.120938 124.688438 
L 384.120938 124.688438 
z
" style="fill: #00ced1; stroke: #ffffff; stroke-linejoin: miter"/>
    </g>
    <g id="text_8">
     <!-- ROI -->
     <g transform="translate(412.120938 131.688438) scale(0.1 -0.1)">
      <defs>
       <path id="DejaVuSans-52" d="M 2841 2188 
Q 3044 2119 3236 1894 
Q 3428 1669 3622 1275 
L 4263 0 
L 3584 0 
L 2988 1197 
Q 2756 1666 2539 1819 
Q 2322 1972 1947 1972 
L 1259 1972 
L 1259 0 
L 628 0 
L 628 4666 
L 2053 4666 
Q 2853 4666 3247 4331 
Q 3641 3997 3641 3322 
Q 3641 2881 3436 2590 
Q 3231 2300 2841 2188 
z
M 1259 4147 
L 1259 2491 
L 2053 2491 
Q 2509 2491 2742 2702 
Q 2975 2913 2975 3322 
Q 2975 3731 2742 3939 
Q 2509 4147 2053 4147 
L 1259 4147 
z
" transform="scale(0.015625)"/>
       <path id="DejaVuSans-4f" d="M 2522 4238 
Q 1834 4238 1429 3725 
Q 1025 3213 1025 2328 
Q 1025 1447 1429 934 
Q 1834 422 2522 422 
Q 3209 422 3611 934 
Q 4013 1447 4013 2328 
Q 4013 3213 3611 3725 
Q 3209 4238 2522 4238 
z
M 2522 4750 
Q 3503 4750 4090 4092 
Q 4678 3434 4678 2328 
Q 4678 1225 4090 567 
Q 3503 -91 2522 -91 
Q 1538 -91 948 565 
Q 359 1222 359 2328 
Q 359 3434 948 4092 
Q 1538 4750 2522 4750 
z
" transform="scale(0.015625)"/>
      </defs>
      <use xlink:href="#DejaVuSans-52"/>
      <use xlink:href="#DejaVuSans-4f" x="69.482422"/>
      <use xlink:href="#DejaVuSans-49" x="148.193359"/>
     </g>
    </g>
   </g>
  </g>
  <g id="text_9">
   <!-- Cell Type Breakdown by ROI -->
   <g transform="translate(203.874375 20.638125) scale(0.12 -0.12)">
    <defs>
     <path id="DejaVuSans-54" d="M -19 4666 
L 3928 4666 
L 3928 4134 
L 2272 4134 
L 2272 0 
L 1638 0 
L 1638 4134 
L -19 4134 
L -19 4666 
z
" transform="scale(0.015625)"/>
     <path id="DejaVuSans-42" d="M 1259 2228 
L 1259 519 
L 2272 519 
Q 2781 519 3026 730 
Q 3272 941 3272 1375 
Q 3272 1813 3026 2020 
Q 2781 2228 2272 2228 
L 1259 2228 
z
M 1259 4147 
L 1259 2741 
L 2194 2741 
Q 2656 2741 2882 2914 
Q 3109 3088 3109 3444 
Q 3109 3797 2882 3972 
Q 2656 4147 2194 4147 
L 1259 4147 
z
M 628 4666 
L 2241 4666 
Q 2963 4666 3353 4366 
Q 3744 4066 3744 3513 
Q 3744 3084 3544 2831 
Q 3344 2578 2956 2516 
Q 3422 2416 3680 2098 
Q 3938 1781 3938 1306 
Q 3938 681 3513 340 
Q 3088 0 2303 0 
L 628 0 
L 628 4666 
z
" transform="scale(0.015625)"/>
     <path id="DejaVuSans-72" d="M 2631 2963 
Q 2534 3019 2420 3045 
Q 2306 3072 2169 3072 
Q 1681 3072 1420 2755 
Q 1159 2438 1159 1844 
L 1159 0 
L 581 0 
L 581 3500 
L 1159 3500 
L 1159 2956 
Q 1341 3275 1631 3429 
Q 1922 3584 2338 3584 
Q 2397 3584 2469 3576 
Q 2541 3569 2628 3553 
L 2631 2963 
z
" transform="scale(0.015625)"/>
     <path id="DejaVuSans-61" d="M 2194 1759 
Q 1497 1759 1228 1600 
Q 959 1441 959 1056 
Q 959 750 1161 570 
Q 1363 391 1709 391 
Q 2188 391 2477 730 
Q 2766 1069 2766 1631 
L 2766 1759 
L 2194 1759 
z
M 3341 1997 
L 3341 0 
L 2766 0 
L 2766 531 
Q 2569 213 2275 61 
Q 1981 -91 1556 -91 
Q 1019 -91 701 211 
Q 384 513 384 1019 
Q 384 1609 779 1909 
Q 1175 2209 1959 2209 
L 2766 2209 
L 2766 2266 
Q 2766 2663 2505 2880 
Q 2244 3097 1772 3097 
Q 1472 3097 1187 3025 
Q 903 2953 641 2809 
L 641 3341 
Q 956 3463 1253 3523 
Q 1550 3584 1831 3584 
Q 2591 3584 2966 3190 
Q 3341 2797 3341 1997 
z
" transform="scale(0.015625)"/>
     <path id="DejaVuSans-62" d="M 3116 1747 
Q 3116 2381 2855 2742 
Q 2594 3103 2138 3103 
Q 1681 3103 1420 2742 
Q 1159 2381 1159 1747 
Q 1159 1113 1420 752 
Q 1681 391 2138 391 
Q 2594 391 2855 752 
Q 3116 1113 3116 1747 
z
M 1159 2969 
Q 1341 3281 1617 3432 
Q 1894 3584 2278 3584 
Q 2916 3584 3314 3078 
Q 3713 2572 3713 1747 
Q 3713 922 3314 415 
Q 2916 -91 2278 -91 
Q 1894 -91 1617 61 
Q 1341 213 1159 525 
L 1159 0 
L 581 0 
L 581 4863 
L 1159 4863 
L 1159 2969 
z
" transform="scale(0.015625)"/>
    </defs>
    <use xlink:href="#DejaVuSans-43"/>
    <use xlink:href="#DejaVuSans-65" x="69.824219"/>
    <use xlink:href="#DejaVuSans-6c" x="131.347656"/>
    <use xlink:href="#DejaVuSans-6c" x="159.130859"/>
    <use xlink:href="#DejaVuSans-20" x="186.914062"/>
    <use xlink:href="#DejaVuSans-54" x="218.701172"/>
    <use xlink:href="#DejaVuSans-79" x="264.160156"/>
    <use xlink:href="#DejaVuSans-70" x="323.339844"/>
    <use xlink:href="#DejaVuSans-65" x="386.816406"/>
    <use xlink:href="#DejaVuSans-20" x="448.339844"/>
    <use xlink:href="#DejaVuSans-42" x="480.126953"/>
    <use xlink:href="#DejaVuSans-72" x="548.730469"/>
    <use xlink:href="#DejaVuSans-65" x="587.59375"/>
    <use xlink:href="#DejaVuSans-61" x="649.117188"/>
    <use xlink:href="#DejaVuSans-6b" x="710.396484"/>
    <use xlink:href="#DejaVuSans-64" x="768.306641"/>
    <use xlink:href="#DejaVuSans-6f" x="831.783203"/>
    <use xlink:href="#DejaVuSans-77" x="892.964844"/>
    <use xlink:href="#DejaVuSans-6e" x="974.751953"/>
    <use xlink:href="#DejaVuSans-20" x="1038.130859"/>
    <use xlink:href="#DejaVuSans-62" x="1069.917969"/>
    <use xlink:href="#DejaVuSans-79" x="1133.394531"/>
    <use xlink:href="#DejaVuSans-20" x="1192.574219"/>
    <use xlink:href="#DejaVuSans-52" x="1224.361328"/>
    <use xlink:href="#DejaVuSans-4f" x="1293.84375"/>
    <use xlink:href="#DejaVuSans-49" x="1372.554688"/>
   </g>
  </g>
 </g>
</svg>
