<svg version="1.1" xmlns="http://www.w3.org/2000/svg" width="600" height="700"><defs><clipPath id="ddAlrKSHEfAk"><path fill="none" stroke="none" d="M 54.5 37.5 L 570.5 37.5 L 570.5 643.5 L 54.5 643.5 L 54.5 37.5 Z"/></clipPath><clipPath id="yzuJvoKxaLsq"><path fill="none" stroke="none" d="M 54.5 37.5 L 570.5 37.5 L 570.5 643.5 L 54.5 643.5 L 54.5 37.5 Z"/></clipPath><clipPath id="GbLULoSsTOTM"><path fill="none" stroke="none" d="M 54.5 37.5 L 570.5 37.5 L 570.5 643.5 L 54.5 643.5 L 54.5 37.5 Z"/></clipPath><clipPath id="JwCXOsdrIAoU"><path fill="none" stroke="none" d="M 54.5 37.5 L 570.5 37.5 L 570.5 643.5 L 54.5 643.5 L 54.5 37.5 Z"/></clipPath></defs><path fill="rgb(255,255,255)" stroke="none" paint-order="stroke" d="M 0.5 0.5 L 600.5 0.5 L 600.5 700.5 L 0.5 700.5 L 0.5 0.5 Z" fill-opacity="1"/><rect fill="#FFFFFF" stroke="none" x="54" y="37" width="516" height="606" transform="matrix(1, 0, 0, 1, 0.5, 0.5)"/><path fill="rgb(255,255,255)" stroke="none" paint-order="stroke" d="M 54.5 37.5 L 570.5 37.5 L 570.5 643.5 L 54.5 643.5 L 54.5 37.5 Z" fill-opacity="1"/><path fill="none" stroke="rgb(229,229,229)" paint-order="fill" d="M 54.5 37.5 L 570.5 37.5 L 570.5 643.5 L 54.5 643.5 L 54.5 37.5 Z" stroke-opacity="1" stroke-linejoin="bevel" stroke-miterlimit="10"/><path fill="none" stroke="rgb(229,229,229)" paint-order="fill" d="M 106.5 643.5 L 106.5 37.5 M 209.5 643.5 L 209.5 37.5 M 312.5 643.5 L 312.5 37.5 M 415.5 643.5 L 415.5 37.5" stroke-opacity="1" stroke-linejoin="bevel" stroke-miterlimit="10" clip-path="url(#ddAlrKSHEfAk)"/><path fill="none" stroke="rgb(229,229,229)" paint-order="fill" d="M 54.5 593.5 L 570.5 593.5 M 54.5 492.5 L 570.5 492.5 M 54.5 290.5 L 570.5 290.5 M 54.5 189.5 L 570.5 189.5 M 54.5 88.5 L 570.5 88.5" stroke-opacity="1" stroke-linejoin="bevel" stroke-miterlimit="10" clip-path="url(#yzuJvoKxaLsq)"/><path fill="rgb(31,119,180)" stroke="rgb(31,119,180)" paint-order="fill" d="M 65.63168334960938 578.5654907226562 L 146.5683135986328 578.5654907226562 L 146.5683135986328 607.4344501495361 L 65.63168334960938 607.4344501495361 L 65.63168334960938 578.5654907226562 Z" fill-opacity="1" clip-path="url(#GbLULoSsTOTM)" stroke-opacity="1" stroke-linejoin="bevel" stroke-miterlimit="10"/><path fill="rgb(31,119,180)" stroke="rgb(31,119,180)" paint-order="fill" d="M 282.7626647949219 581.1298217773438 L 342.237361907959 581.1298217773438 L 342.237361907959 604.8701992034912 L 282.7626647949219 604.8701992034912 L 282.7626647949219 581.1298217773438 Z" fill-opacity="1" clip-path="url(#GbLULoSsTOTM)" stroke-opacity="1" stroke-linejoin="bevel" stroke-miterlimit="10"/><path fill="rgb(31,119,180)" stroke="rgb(31,119,180)" paint-order="fill" d="M 475.87353515625 581.7915649414062 L 561.9264602661133 581.7915649414062 L 561.9264602661133 604.2084369659424 L 475.87353515625 604.2084369659424 L 475.87353515625 581.7915649414062 Z" fill-opacity="1" clip-path="url(#GbLULoSsTOTM)" stroke-opacity="1" stroke-linejoin="bevel" stroke-miterlimit="10"/><path fill="rgb(31,119,180)" stroke="rgb(31,119,180)" paint-order="fill" d="M 184.15872192382812 583.5286865234375 L 234.44127655029297 583.5286865234375 L 234.44127655029297 602.471357345581 L 184.15872192382812 602.471357345581 L 184.15872192382812 583.5286865234375 Z" fill-opacity="1" clip-path="url(#GbLULoSsTOTM)" stroke-opacity="1" stroke-linejoin="bevel" stroke-miterlimit="10"/><path fill="rgb(31,119,180)" stroke="rgb(31,119,180)" paint-order="fill" d="M 369.0404357910156 589.4844360351562 L 462.35958099365234 589.4844360351562 L 462.35958099365234 596.5155582427979 L 369.0404357910156 596.5155582427979 L 369.0404357910156 589.4844360351562 Z" fill-opacity="1" clip-path="url(#GbLULoSsTOTM)" stroke-opacity="1" stroke-linejoin="bevel" stroke-miterlimit="10"/><path fill="rgb(31,119,180)" stroke="rgb(31,119,180)" paint-order="fill" d="M 95.77999877929688 475.89068603515625 L 116.41999816894531 475.89068603515625 L 116.41999816894531 508.10932540893555 L 95.77999877929688 508.10932540893555 L 95.77999877929688 475.89068603515625 Z" fill-opacity="1" clip-path="url(#GbLULoSsTOTM)" stroke-opacity="1" stroke-linejoin="bevel" stroke-miterlimit="10"/><path fill="rgb(31,119,180)" stroke="rgb(31,119,180)" paint-order="fill" d="M 312.29278564453125 491.63800048828125 L 312.7072434723377 491.63800048828125 L 312.7072434723377 492.36201483011246 L 312.29278564453125 492.36201483011246 L 312.29278564453125 491.63800048828125 Z" fill-opacity="1" clip-path="url(#GbLULoSsTOTM)" stroke-opacity="1" stroke-linejoin="bevel" stroke-miterlimit="10"/><path fill="rgb(31,119,180)" stroke="rgb(31,119,180)" paint-order="fill" d="M 518.7412109375 491.8190002441406 L 519.0587494075298 491.8190002441406 L 519.0587494075298 492.18100741505623 L 518.7412109375 492.18100741505623 L 518.7412109375 491.8190002441406 Z" fill-opacity="1" clip-path="url(#GbLULoSsTOTM)" stroke-opacity="1" stroke-linejoin="bevel" stroke-miterlimit="10"/><path fill="rgb(31,119,180)" stroke="rgb(31,119,180)" paint-order="fill" d="M 189.53829956054688 459.4193420410156 L 229.06170272827148 459.4193420410156 L 229.06170272827148 524.5806350708008 L 189.53829956054688 524.5806350708008 L 189.53829956054688 459.4193420410156 Z" fill-opacity="1" clip-path="url(#GbLULoSsTOTM)" stroke-opacity="1" stroke-linejoin="bevel" stroke-miterlimit="10"/><path fill="rgb(31,119,180)" stroke="rgb(31,119,180)" paint-order="fill" d="M 411.8574523925781 490.73297119140625 L 419.54255867004395 490.73297119140625 L 419.54255867004395 493.2670214176178 L 411.8574523925781 493.2670214176178 L 411.8574523925781 490.73297119140625 Z" fill-opacity="1" clip-path="url(#GbLULoSsTOTM)" stroke-opacity="1" stroke-linejoin="bevel" stroke-miterlimit="10"/><path fill="rgb(31,119,180)" stroke="rgb(31,119,180)" paint-order="fill" d="M 105.52022552490234 385.95001220703125 L 106.67977607250214 385.95001220703125 L 106.67977607250214 396.050012588501 L 105.52022552490234 396.050012588501 L 105.52022552490234 385.95001220703125 Z" fill-opacity="1" clip-path="url(#GbLULoSsTOTM)" stroke-opacity="1" stroke-linejoin="bevel" stroke-miterlimit="10"/><path fill="rgb(31,119,180)" stroke="rgb(31,119,180)" paint-order="fill" d="M 518.4237060546875 387.9700012207031 L 519.3763214349747 387.9700012207031 L 519.3763214349747 394.03000116348267 L 518.4237060546875 394.03000116348267 L 518.4237060546875 387.9700012207031 Z" fill-opacity="1" clip-path="url(#GbLULoSsTOTM)" stroke-opacity="1" stroke-linejoin="bevel" stroke-miterlimit="10"/><path fill="rgb(31,119,180)" stroke="rgb(31,119,180)" paint-order="fill" d="M 204.68893432617188 348.5799865722656 L 213.9110622406006 348.5799865722656 L 213.9110622406006 433.41998291015625 L 204.68893432617188 433.41998291015625 L 204.68893432617188 348.5799865722656 Z" fill-opacity="1" clip-path="url(#GbLULoSsTOTM)" stroke-opacity="1" stroke-linejoin="bevel" stroke-miterlimit="10"/><path fill="rgb(31,119,180)" stroke="rgb(31,119,180)" paint-order="fill" d="M 105.86808776855469 86.19642639160156 L 106.3319079875946 86.19642639160156 L 106.3319079875946 89.80356931686401 L 105.86808776855469 89.80356931686401 L 105.86808776855469 86.19642639160156 Z" fill-opacity="1" clip-path="url(#GbLULoSsTOTM)" stroke-opacity="1" stroke-linejoin="bevel" stroke-miterlimit="10"/><path fill="rgb(31,119,180)" stroke="rgb(31,119,180)" paint-order="fill" d="M 311.8783264160156 82.58928680419922 L 313.12169992923737 82.58928680419922 L 313.12169992923737 93.41071510314941 L 311.8783264160156 93.41071510314941 L 311.8783264160156 82.58928680419922 Z" fill-opacity="1" clip-path="url(#GbLULoSsTOTM)" stroke-opacity="1" stroke-linejoin="bevel" stroke-miterlimit="10"/><path fill="rgb(31,119,180)" stroke="rgb(31,119,180)" paint-order="fill" d="M 511.9141540527344 48.32143020629883 L 525.8858461380005 48.32143020629883 L 525.8858461380005 127.67856979370117 L 511.9141540527344 127.67856979370117 L 511.9141540527344 48.32143020629883 Z" fill-opacity="1" clip-path="url(#GbLULoSsTOTM)" stroke-opacity="1" stroke-linejoin="bevel" stroke-miterlimit="10"/><path fill="rgb(31,119,180)" stroke="rgb(31,119,180)" paint-order="fill" d="M 208.86085510253906 84.39286041259766 L 209.73915296792984 84.39286041259766 L 209.73915296792984 91.60714626312256 L 208.86085510253906 91.60714626312256 L 208.86085510253906 84.39286041259766 Z" fill-opacity="1" clip-path="url(#GbLULoSsTOTM)" stroke-opacity="1" stroke-linejoin="bevel" stroke-miterlimit="10"/><path fill="rgb(31,119,180)" stroke="rgb(31,119,180)" paint-order="fill" d="M 292.5024108886719 242.6868896484375 L 332.4975929260254 242.6868896484375 L 332.4975929260254 337.31310272216797 L 292.5024108886719 337.31310272216797 L 292.5024108886719 242.6868896484375 Z" fill-opacity="1" clip-path="url(#GbLULoSsTOTM)" stroke-opacity="1" stroke-linejoin="bevel" stroke-miterlimit="10"/><path fill="rgb(31,119,180)" stroke="rgb(31,119,180)" paint-order="fill" d="M 207.87277221679688 286.8131103515625 L 210.72724032402039 286.8131103515625 L 210.72724032402039 293.1868968009949 L 207.87277221679688 293.1868968009949 L 207.87277221679688 286.8131103515625 Z" fill-opacity="1" clip-path="url(#GbLULoSsTOTM)" stroke-opacity="1" stroke-linejoin="bevel" stroke-miterlimit="10"/><path fill="rgb(31,119,180)" stroke="rgb(31,119,180)" paint-order="fill" d="M 311.4638671875 163.75 L 313.53615641593933 163.75 L 313.53615641593933 214.25 L 311.4638671875 214.25 L 311.4638671875 163.75 Z" fill-opacity="1" clip-path="url(#GbLULoSsTOTM)" stroke-opacity="1" stroke-linejoin="bevel" stroke-miterlimit="10"/><path fill="rgb(31,119,180)" stroke="rgb(31,119,180)" paint-order="fill" d="M 517.9473876953125 173.85000610351562 L 519.8526184558868 173.85000610351562 L 519.8526184558868 204.15000534057617 L 517.9473876953125 204.15000534057617 L 517.9473876953125 173.85000610351562 Z" fill-opacity="1" clip-path="url(#GbLULoSsTOTM)" stroke-opacity="1" stroke-linejoin="bevel" stroke-miterlimit="10"/><path fill="rgb(31,119,180)" stroke="rgb(31,119,180)" paint-order="fill" d="M 209.08042907714844 183.9499969482422 L 209.51957800984383 183.9499969482422 L 209.51957800984383 194.0499973297119 L 209.08042907714844 194.0499973297119 L 209.08042907714844 183.9499969482422 Z" fill-opacity="1" clip-path="url(#GbLULoSsTOTM)" stroke-opacity="1" stroke-linejoin="bevel" stroke-miterlimit="10"/><path fill="rgb(31,119,180)" stroke="rgb(31,119,180)" paint-order="fill" d="M 414.6021423339844 183.9499969482422 L 416.7978870868683 183.9499969482422 L 416.7978870868683 194.0499973297119 L 414.6021423339844 194.0499973297119 L 414.6021423339844 183.9499969482422 Z" fill-opacity="1" clip-path="url(#GbLULoSsTOTM)" stroke-opacity="1" stroke-linejoin="bevel" stroke-miterlimit="10"/><path fill="none" stroke="rgb(0,0,0)" paint-order="fill" d="M 54.5 643.5 L 570.5 643.5" stroke-opacity="1" stroke-linejoin="bevel" stroke-miterlimit="10"/><path fill="none" stroke="rgb(0,0,0)" paint-order="fill" d="M 106.5 649.5 L 106.5 641.5 M 209.5 649.5 L 209.5 641.5 M 312.5 649.5 L 312.5 641.5 M 415.5 649.5 L 415.5 641.5 M 518.5 649.5 L 518.5 641.5" stroke-opacity="1" stroke-linejoin="bevel" stroke-miterlimit="10"/><path fill="none" stroke="rgb(0,0,0)" paint-order="fill" d="" stroke-opacity="1" stroke-linejoin="bevel" stroke-miterlimit="10"/><text fill="rgb(68,68,68)" stroke="none" font-family="helvetica" font-size="14pt" font-style="normal" font-weight="normal" text-decoration="normal" x="100.38333177566528" y="667.4490966796875" text-anchor="start" dominant-baseline="alphabetic" transform="matrix(1, 0, 0, 1, 0.5, 0.5)" fill-opacity="1">1</text><text fill="none" stroke="rgb(0,0,0)" font-family="helvetica" font-size="14pt" font-style="normal" font-weight="normal" text-decoration="normal" x="100.38333177566528" y="667.4490966796875" text-anchor="start" dominant-baseline="alphabetic" transform="matrix(1, 0, 0, 1, 0.5, 0.5)" stroke-opacity="0" stroke-linejoin="bevel" stroke-miterlimit="10">1</text><text fill="rgb(68,68,68)" stroke="none" font-family="helvetica" font-size="14pt" font-style="normal" font-weight="normal" text-decoration="normal" x="203.583336353302" y="667.4490966796875" text-anchor="start" dominant-baseline="alphabetic" transform="matrix(1, 0, 0, 1, 0.5, 0.5)" fill-opacity="1">2</text><text fill="none" stroke="rgb(0,0,0)" font-family="helvetica" font-size="14pt" font-style="normal" font-weight="normal" text-decoration="normal" x="203.583336353302" y="667.4490966796875" text-anchor="start" dominant-baseline="alphabetic" transform="matrix(1, 0, 0, 1, 0.5, 0.5)" stroke-opacity="0" stroke-linejoin="bevel" stroke-miterlimit="10">2</text><text fill="rgb(68,68,68)" stroke="none" font-family="helvetica" font-size="14pt" font-style="normal" font-weight="normal" text-decoration="normal" x="306.7833333015442" y="667.4490966796875" text-anchor="start" dominant-baseline="alphabetic" transform="matrix(1, 0, 0, 1, 0.5, 0.5)" fill-opacity="1">3</text><text fill="none" stroke="rgb(0,0,0)" font-family="helvetica" font-size="14pt" font-style="normal" font-weight="normal" text-decoration="normal" x="306.7833333015442" y="667.4490966796875" text-anchor="start" dominant-baseline="alphabetic" transform="matrix(1, 0, 0, 1, 0.5, 0.5)" stroke-opacity="0" stroke-linejoin="bevel" stroke-miterlimit="10">3</text><text fill="rgb(68,68,68)" stroke="none" font-family="helvetica" font-size="14pt" font-style="normal" font-weight="normal" text-decoration="normal" x="409.98334550857544" y="667.4490966796875" text-anchor="start" dominant-baseline="alphabetic" transform="matrix(1, 0, 0, 1, 0.5, 0.5)" fill-opacity="1">4</text><text fill="none" stroke="rgb(0,0,0)" font-family="helvetica" font-size="14pt" font-style="normal" font-weight="normal" text-decoration="normal" x="409.98334550857544" y="667.4490966796875" text-anchor="start" dominant-baseline="alphabetic" transform="matrix(1, 0, 0, 1, 0.5, 0.5)" stroke-opacity="0" stroke-linejoin="bevel" stroke-miterlimit="10">4</text><text fill="rgb(68,68,68)" stroke="none" font-family="helvetica" font-size="14pt" font-style="normal" font-weight="normal" text-decoration="normal" x="513.1833577156067" y="667.4490966796875" text-anchor="start" dominant-baseline="alphabetic" transform="matrix(1, 0, 0, 1, 0.5, 0.5)" fill-opacity="1">5</text><text fill="none" stroke="rgb(0,0,0)" font-family="helvetica" font-size="14pt" font-style="normal" font-weight="normal" text-decoration="normal" x="513.1833577156067" y="667.4490966796875" text-anchor="start" dominant-baseline="alphabetic" transform="matrix(1, 0, 0, 1, 0.5, 0.5)" stroke-opacity="0" stroke-linejoin="bevel" stroke-miterlimit="10">5</text><text fill="rgb(68,68,68)" stroke="none" font-family="helvetica" font-size="16pt" font-style="italic" font-weight="normal" text-decoration="normal" x="137.1999969482422" y="692.4490966796875" text-anchor="start" dominant-baseline="alphabetic" transform="matrix(1, 0, 0, 1, 0.5, 0.5)" fill-opacity="1">Coarse module in oviINr connectome</text><text fill="none" stroke="rgb(0,0,0)" font-family="helvetica" font-size="16pt" font-style="italic" font-weight="normal" text-decoration="normal" x="137.1999969482422" y="692.4490966796875" text-anchor="start" dominant-baseline="alphabetic" transform="matrix(1, 0, 0, 1, 0.5, 0.5)" stroke-opacity="0" stroke-linejoin="bevel" stroke-miterlimit="10">Coarse module in oviINr connectome</text><path fill="none" stroke="rgb(0,0,0)" paint-order="fill" d="M 54.5 643.5 L 54.5 37.5" stroke-opacity="1" stroke-linejoin="bevel" stroke-miterlimit="10"/><path fill="none" stroke="rgb(0,0,0)" paint-order="fill" d="M 48.5 593.5 L 56.5 593.5 M 48.5 492.5 L 56.5 492.5 M 48.5 391.5 L 56.5 391.5 M 48.5 290.5 L 56.5 290.5 M 48.5 189.5 L 56.5 189.5 M 48.5 88.5 L 56.5 88.5" stroke-opacity="1" stroke-linejoin="bevel" stroke-miterlimit="10"/><path fill="none" stroke="rgb(0,0,0)" paint-order="fill" d="" stroke-opacity="1" stroke-linejoin="bevel" stroke-miterlimit="10"/><text fill="rgb(68,68,68)" stroke="none" font-family="helvetica" font-size="14pt" font-style="normal" font-weight="normal" text-decoration="normal" x="32.56666660308838" y="599.2245483398438" text-anchor="start" dominant-baseline="alphabetic" transform="matrix(1, 0, 0, 1, 0.5, 0.5)" fill-opacity="1">3</text><text fill="none" stroke="rgb(0,0,0)" font-family="helvetica" font-size="14pt" font-style="normal" font-weight="normal" text-decoration="normal" x="32.56666660308838" y="599.2245483398438" text-anchor="start" dominant-baseline="alphabetic" transform="matrix(1, 0, 0, 1, 0.5, 0.5)" stroke-opacity="0" stroke-linejoin="bevel" stroke-miterlimit="10">3</text><text fill="rgb(68,68,68)" stroke="none" font-family="helvetica" font-size="14pt" font-style="normal" font-weight="normal" text-decoration="normal" x="32.56666660308838" y="498.22454833984375" text-anchor="start" dominant-baseline="alphabetic" transform="matrix(1, 0, 0, 1, 0.5, 0.5)" fill-opacity="1">1</text><text fill="none" stroke="rgb(0,0,0)" font-family="helvetica" font-size="14pt" font-style="normal" font-weight="normal" text-decoration="normal" x="32.56666660308838" y="498.22454833984375" text-anchor="start" dominant-baseline="alphabetic" transform="matrix(1, 0, 0, 1, 0.5, 0.5)" stroke-opacity="0" stroke-linejoin="bevel" stroke-miterlimit="10">1</text><text fill="rgb(68,68,68)" stroke="none" font-family="helvetica" font-size="14pt" font-style="normal" font-weight="normal" text-decoration="normal" x="32.56666660308838" y="397.22454833984375" text-anchor="start" dominant-baseline="alphabetic" transform="matrix(1, 0, 0, 1, 0.5, 0.5)" fill-opacity="1">6</text><text fill="none" stroke="rgb(0,0,0)" font-family="helvetica" font-size="14pt" font-style="normal" font-weight="normal" text-decoration="normal" x="32.56666660308838" y="397.22454833984375" text-anchor="start" dominant-baseline="alphabetic" transform="matrix(1, 0, 0, 1, 0.5, 0.5)" stroke-opacity="0" stroke-linejoin="bevel" stroke-miterlimit="10">6</text><text fill="rgb(68,68,68)" stroke="none" font-family="helvetica" font-size="14pt" font-style="normal" font-weight="normal" text-decoration="normal" x="32.56666660308838" y="296.22454833984375" text-anchor="start" dominant-baseline="alphabetic" transform="matrix(1, 0, 0, 1, 0.5, 0.5)" fill-opacity="1">2</text><text fill="none" stroke="rgb(0,0,0)" font-family="helvetica" font-size="14pt" font-style="normal" font-weight="normal" text-decoration="normal" x="32.56666660308838" y="296.22454833984375" text-anchor="start" dominant-baseline="alphabetic" transform="matrix(1, 0, 0, 1, 0.5, 0.5)" stroke-opacity="0" stroke-linejoin="bevel" stroke-miterlimit="10">2</text><text fill="rgb(68,68,68)" stroke="none" font-family="helvetica" font-size="14pt" font-style="normal" font-weight="normal" text-decoration="normal" x="32.56666660308838" y="195.22454833984375" text-anchor="start" dominant-baseline="alphabetic" transform="matrix(1, 0, 0, 1, 0.5, 0.5)" fill-opacity="1">5</text><text fill="none" stroke="rgb(0,0,0)" font-family="helvetica" font-size="14pt" font-style="normal" font-weight="normal" text-decoration="normal" x="32.56666660308838" y="195.22454833984375" text-anchor="start" dominant-baseline="alphabetic" transform="matrix(1, 0, 0, 1, 0.5, 0.5)" stroke-opacity="0" stroke-linejoin="bevel" stroke-miterlimit="10">5</text><text fill="rgb(68,68,68)" stroke="none" font-family="helvetica" font-size="14pt" font-style="normal" font-weight="normal" text-decoration="normal" x="32.56666660308838" y="94.22454833984375" text-anchor="start" dominant-baseline="alphabetic" transform="matrix(1, 0, 0, 1, 0.5, 0.5)" fill-opacity="1">4</text><text fill="none" stroke="rgb(0,0,0)" font-family="helvetica" font-size="14pt" font-style="normal" font-weight="normal" text-decoration="normal" x="32.56666660308838" y="94.22454833984375" text-anchor="start" dominant-baseline="alphabetic" transform="matrix(1, 0, 0, 1, 0.5, 0.5)" stroke-opacity="0" stroke-linejoin="bevel" stroke-miterlimit="10">4</text><text fill="rgb(68,68,68)" stroke="none" font-family="helvetica" font-size="16pt" font-style="italic" font-weight="normal" text-decoration="normal" x="-176.81666469573975" y="335" text-anchor="start" dominant-baseline="alphabetic" transform="matrix(6.123233995736766e-17, -1, 1, 6.123233995736766e-17, -314.9333333969116, 365.0666666030884)" fill-opacity="1">Coarse module in whole brain connectome</text><text fill="none" stroke="rgb(0,0,0)" font-family="helvetica" font-size="16pt" font-style="italic" font-weight="normal" text-decoration="normal" x="-176.81666469573975" y="335" text-anchor="start" dominant-baseline="alphabetic" transform="matrix(6.123233995736766e-17, -1, 1, 6.123233995736766e-17, -314.9333333969116, 365.0666666030884)" stroke-opacity="0" stroke-linejoin="bevel" stroke-miterlimit="10">Coarse module in whole brain connectome</text><text fill="rgb(68,68,68)" stroke="none" font-family="helvetica" font-size="18pt" font-style="normal" font-weight="bold" text-decoration="normal" x="54" y="26" text-anchor="start" dominant-baseline="alphabetic" transform="matrix(1, 0, 0, 1, 0.5, 0.5)" fill-opacity="1">Joint Marginal Distribution of Coarse Modules</text><text fill="none" stroke="rgb(0,0,0)" font-family="helvetica" font-size="18pt" font-style="normal" font-weight="bold" text-decoration="normal" x="54" y="26" text-anchor="start" dominant-baseline="alphabetic" transform="matrix(1, 0, 0, 1, 0.5, 0.5)" stroke-opacity="0" stroke-miterlimit="10" stroke-dasharray="">Joint Marginal Distribution of Coarse Modules</text></svg>