<?xml version="1.0" encoding="utf-8" standalone="no"?>
<!DOCTYPE svg PUBLIC "-//W3C//DTD SVG 1.1//EN"
  "http://www.w3.org/Graphics/SVG/1.1/DTD/svg11.dtd">
<svg xmlns:xlink="http://www.w3.org/1999/xlink" width="1080pt" height="720pt" viewBox="0 0 1080 720" xmlns="http://www.w3.org/2000/svg" version="1.1">
 <metadata>
  <rdf:RDF xmlns:dc="http://purl.org/dc/elements/1.1/" xmlns:cc="http://creativecommons.org/ns#" xmlns:rdf="http://www.w3.org/1999/02/22-rdf-syntax-ns#">
   <cc:Work>
    <dc:type rdf:resource="http://purl.org/dc/dcmitype/StillImage"/>
    <dc:date>2024-08-08T13:43:56.447171</dc:date>
    <dc:format>image/svg+xml</dc:format>
    <dc:creator>
     <cc:Agent>
      <dc:title>Matplotlib v3.8.4, https://matplotlib.org/</dc:title>
     </cc:Agent>
    </dc:creator>
   </cc:Work>
  </rdf:RDF>
 </metadata>
 <defs>
  <style type="text/css">*{stroke-linejoin: round; stroke-linecap: butt}</style>
 </defs>
 <g id="figure_1">
  <g id="patch_1">
   <path d="M 0 720 
L 1080 720 
L 1080 0 
L 0 0 
z
" style="fill: #ffffff"/>
  </g>
  <g id="axes_1">
   <g id="patch_2">
    <path d="M 351.635294 212.4 
C 351.635294 203.190858 350.275418 194.031986 347.599723 185.220122 
C 344.924028 176.408257 340.961728 168.039604 335.841195 160.385295 
C 330.720662 152.730987 324.4978 145.874589 317.374222 140.038243 
C 310.250645 134.201896 302.304124 129.449318 293.792117 125.934487 
C 285.280111 122.419655 276.295548 120.180944 267.129519 119.290884 
C 257.96349 118.400825 248.716064 118.869134 239.686848 120.680639 
C 230.657632 122.492144 221.945201 125.627069 213.831829 129.983844 
C 205.718457 134.34062 198.292721 139.871681 191.795207 146.397829 
C 185.297692 152.923976 179.799336 160.373961 175.478278 168.506412 
C 171.157219 176.638862 168.060635 185.364993 166.288849 194.402087 
C 164.517063 203.439181 164.08942 212.688577 165.019775 221.850604 
C 165.95013 231.012631 168.228325 239.987263 171.78055 248.483732 
C 175.332775 256.980202 180.120249 264.905748 185.987862 272.003594 
C 191.855475 279.101439 198.739169 285.294093 206.415919 290.38092 
C 214.092668 295.467747 222.478664 299.393212 231.302208 302.030134 
C 240.125753 304.667057 249.290515 305.986648 258.499569 305.946154 
L 258.088235 212.4 
z
" style="fill: #6495ed"/>
   </g>
   <g id="patch_3">
    <path d="M 258.499569 305.946154 
C 274.500976 305.875794 290.219881 301.700949 304.147468 293.822351 
C 318.075056 285.943753 329.750973 274.621815 338.054479 260.9433 
L 258.088235 212.4 
z
" style="fill: #008000"/>
   </g>
   <g id="patch_4">
    <path d="M 338.054479 260.9433 
C 339.929389 257.854728 341.623789 254.660124 343.129159 251.375549 
C 344.63453 248.090975 345.948344 244.721943 347.063998 241.285392 
L 258.088235 212.4 
z
" style="fill: #b22222"/>
   </g>
   <g id="patch_5">
    <path d="M 347.063998 241.285392 
C 347.961245 238.5216 348.72923 235.717502 349.365455 232.882221 
C 350.00168 230.046941 350.505454 227.183555 350.875138 224.30138 
L 258.088235 212.4 
z
" style="fill: #ffa500"/>
   </g>
   <g id="patch_6">
    <path d="M 350.875138 224.30138 
C 351.034777 223.056789 351.169357 221.809113 351.278799 220.559107 
C 351.388241 219.309102 351.472521 218.057022 351.531589 216.803626 
L 258.088235 212.4 
z
" style="fill: #8a2be2"/>
   </g>
   <g id="patch_7">
    <path d="M 351.531589 216.803626 
C 351.55184 216.373895 351.569127 215.944031 351.583448 215.514062 
C 351.597769 215.084093 351.609124 214.654031 351.617512 214.223906 
L 258.088235 212.4 
z
" style="fill: #bc8f8f"/>
   </g>
   <g id="patch_8">
    <path d="M 351.617512 214.223906 
C 351.623439 213.919962 351.627885 213.615991 351.630848 213.312004 
C 351.633812 213.008016 351.635294 212.704016 351.635294 212.400015 
L 258.088235 212.4 
z
" style="fill: #000080"/>
   </g>
   <g id="matplotlib.axis_1"/>
   <g id="matplotlib.axis_2"/>
   <g id="text_1">
    <!-- SNP -->
    <g transform="translate(153.390904 144.212612) scale(0.16 -0.16)">
     <defs>
      <path id="DejaVuSans-53" d="M 3425 4513 
L 3425 3897 
Q 3066 4069 2747 4153 
Q 2428 4238 2131 4238 
Q 1616 4238 1336 4038 
Q 1056 3838 1056 3469 
Q 1056 3159 1242 3001 
Q 1428 2844 1947 2747 
L 2328 2669 
Q 3034 2534 3370 2195 
Q 3706 1856 3706 1288 
Q 3706 609 3251 259 
Q 2797 -91 1919 -91 
Q 1588 -91 1214 -16 
Q 841 59 441 206 
L 441 856 
Q 825 641 1194 531 
Q 1563 422 1919 422 
Q 2459 422 2753 634 
Q 3047 847 3047 1241 
Q 3047 1584 2836 1778 
Q 2625 1972 2144 2069 
L 1759 2144 
Q 1053 2284 737 2584 
Q 422 2884 422 3419 
Q 422 4038 858 4394 
Q 1294 4750 2059 4750 
Q 2388 4750 2728 4690 
Q 3069 4631 3425 4513 
z
" transform="scale(0.015625)"/>
      <path id="DejaVuSans-4e" d="M 628 4666 
L 1478 4666 
L 3547 763 
L 3547 4666 
L 4159 4666 
L 4159 0 
L 3309 0 
L 1241 3903 
L 1241 0 
L 628 0 
L 628 4666 
z
" transform="scale(0.015625)"/>
      <path id="DejaVuSans-50" d="M 1259 4147 
L 1259 2394 
L 2053 2394 
Q 2494 2394 2734 2622 
Q 2975 2850 2975 3272 
Q 2975 3691 2734 3919 
Q 2494 4147 2053 4147 
L 1259 4147 
z
M 628 4666 
L 2053 4666 
Q 2838 4666 3239 4311 
Q 3641 3956 3641 3272 
Q 3641 2581 3239 2228 
Q 2838 1875 2053 1875 
L 1259 1875 
L 1259 0 
L 628 0 
L 628 4666 
z
" transform="scale(0.015625)"/>
     </defs>
     <use xlink:href="#DejaVuSans-53"/>
     <use xlink:href="#DejaVuSans-4e" x="63.476562"/>
     <use xlink:href="#DejaVuSans-50" x="138.28125"/>
    </g>
   </g>
   <g id="text_2">
    <!-- 75.1% -->
    <g transform="translate(192.898668 177.213697) scale(0.16 -0.16)">
     <defs>
      <path id="DejaVuSans-37" d="M 525 4666 
L 3525 4666 
L 3525 4397 
L 1831 0 
L 1172 0 
L 2766 4134 
L 525 4134 
L 525 4666 
z
" transform="scale(0.015625)"/>
      <path id="DejaVuSans-35" d="M 691 4666 
L 3169 4666 
L 3169 4134 
L 1269 4134 
L 1269 2991 
Q 1406 3038 1543 3061 
Q 1681 3084 1819 3084 
Q 2600 3084 3056 2656 
Q 3513 2228 3513 1497 
Q 3513 744 3044 326 
Q 2575 -91 1722 -91 
Q 1428 -91 1123 -41 
Q 819 9 494 109 
L 494 744 
Q 775 591 1075 516 
Q 1375 441 1709 441 
Q 2250 441 2565 725 
Q 2881 1009 2881 1497 
Q 2881 1984 2565 2268 
Q 2250 2553 1709 2553 
Q 1456 2553 1204 2497 
Q 953 2441 691 2322 
L 691 4666 
z
" transform="scale(0.015625)"/>
      <path id="DejaVuSans-2e" d="M 684 794 
L 1344 794 
L 1344 0 
L 684 0 
L 684 794 
z
" transform="scale(0.015625)"/>
      <path id="DejaVuSans-31" d="M 794 531 
L 1825 531 
L 1825 4091 
L 703 3866 
L 703 4441 
L 1819 4666 
L 2450 4666 
L 2450 531 
L 3481 531 
L 3481 0 
L 794 0 
L 794 531 
z
" transform="scale(0.015625)"/>
      <path id="DejaVuSans-25" d="M 4653 2053 
Q 4381 2053 4226 1822 
Q 4072 1591 4072 1178 
Q 4072 772 4226 539 
Q 4381 306 4653 306 
Q 4919 306 5073 539 
Q 5228 772 5228 1178 
Q 5228 1588 5073 1820 
Q 4919 2053 4653 2053 
z
M 4653 2450 
Q 5147 2450 5437 2106 
Q 5728 1763 5728 1178 
Q 5728 594 5436 251 
Q 5144 -91 4653 -91 
Q 4153 -91 3862 251 
Q 3572 594 3572 1178 
Q 3572 1766 3864 2108 
Q 4156 2450 4653 2450 
z
M 1428 4353 
Q 1159 4353 1004 4120 
Q 850 3888 850 3481 
Q 850 3069 1003 2837 
Q 1156 2606 1428 2606 
Q 1700 2606 1854 2837 
Q 2009 3069 2009 3481 
Q 2009 3884 1853 4118 
Q 1697 4353 1428 4353 
z
M 4250 4750 
L 4750 4750 
L 1831 -91 
L 1331 -91 
L 4250 4750 
z
M 1428 4750 
Q 1922 4750 2215 4408 
Q 2509 4066 2509 3481 
Q 2509 2891 2217 2550 
Q 1925 2209 1428 2209 
Q 931 2209 642 2551 
Q 353 2894 353 3481 
Q 353 4063 643 4406 
Q 934 4750 1428 4750 
z
" transform="scale(0.015625)"/>
     </defs>
     <use xlink:href="#DejaVuSans-37"/>
     <use xlink:href="#DejaVuSans-35" x="63.623047"/>
     <use xlink:href="#DejaVuSans-2e" x="127.246094"/>
     <use xlink:href="#DejaVuSans-31" x="159.033203"/>
     <use xlink:href="#DejaVuSans-25" x="222.65625"/>
    </g>
   </g>
   <g id="text_3">
    <!-- INP -->
    <g transform="translate(308.753392 306.379586) scale(0.16 -0.16)">
     <defs>
      <path id="DejaVuSans-49" d="M 628 4666 
L 1259 4666 
L 1259 0 
L 628 0 
L 628 4666 
z
" transform="scale(0.015625)"/>
     </defs>
     <use xlink:href="#DejaVuSans-49"/>
     <use xlink:href="#DejaVuSans-4e" x="29.492188"/>
     <use xlink:href="#DejaVuSans-50" x="104.296875"/>
    </g>
   </g>
   <g id="text_4">
    <!-- 16.2% -->
    <g transform="translate(260.310025 265.668411) scale(0.16 -0.16)">
     <defs>
      <path id="DejaVuSans-36" d="M 2113 2584 
Q 1688 2584 1439 2293 
Q 1191 2003 1191 1497 
Q 1191 994 1439 701 
Q 1688 409 2113 409 
Q 2538 409 2786 701 
Q 3034 994 3034 1497 
Q 3034 2003 2786 2293 
Q 2538 2584 2113 2584 
z
M 3366 4563 
L 3366 3988 
Q 3128 4100 2886 4159 
Q 2644 4219 2406 4219 
Q 1781 4219 1451 3797 
Q 1122 3375 1075 2522 
Q 1259 2794 1537 2939 
Q 1816 3084 2150 3084 
Q 2853 3084 3261 2657 
Q 3669 2231 3669 1497 
Q 3669 778 3244 343 
Q 2819 -91 2113 -91 
Q 1303 -91 875 529 
Q 447 1150 447 2328 
Q 447 3434 972 4092 
Q 1497 4750 2381 4750 
Q 2619 4750 2861 4703 
Q 3103 4656 3366 4563 
z
" transform="scale(0.015625)"/>
      <path id="DejaVuSans-32" d="M 1228 531 
L 3431 531 
L 3431 0 
L 469 0 
L 469 531 
Q 828 903 1448 1529 
Q 2069 2156 2228 2338 
Q 2531 2678 2651 2914 
Q 2772 3150 2772 3378 
Q 2772 3750 2511 3984 
Q 2250 4219 1831 4219 
Q 1534 4219 1204 4116 
Q 875 4013 500 3803 
L 500 4441 
Q 881 4594 1212 4672 
Q 1544 4750 1819 4750 
Q 2544 4750 2975 4387 
Q 3406 4025 3406 3419 
Q 3406 3131 3298 2873 
Q 3191 2616 2906 2266 
Q 2828 2175 2409 1742 
Q 1991 1309 1228 531 
z
" transform="scale(0.015625)"/>
     </defs>
     <use xlink:href="#DejaVuSans-31"/>
     <use xlink:href="#DejaVuSans-36" x="63.623047"/>
     <use xlink:href="#DejaVuSans-2e" x="127.246094"/>
     <use xlink:href="#DejaVuSans-32" x="159.033203"/>
     <use xlink:href="#DejaVuSans-25" x="222.65625"/>
    </g>
   </g>
   <g id="text_5">
    <!-- VMNP -->
    <g transform="translate(351.633252 259.688104) scale(0.16 -0.16)">
     <defs>
      <path id="DejaVuSans-56" d="M 1831 0 
L 50 4666 
L 709 4666 
L 2188 738 
L 3669 4666 
L 4325 4666 
L 2547 0 
L 1831 0 
z
" transform="scale(0.015625)"/>
      <path id="DejaVuSans-4d" d="M 628 4666 
L 1569 4666 
L 2759 1491 
L 3956 4666 
L 4897 4666 
L 4897 0 
L 4281 0 
L 4281 4097 
L 3078 897 
L 2444 897 
L 1241 4097 
L 1241 0 
L 628 0 
L 628 4666 
z
" transform="scale(0.015625)"/>
     </defs>
     <use xlink:href="#DejaVuSans-56"/>
     <use xlink:href="#DejaVuSans-4d" x="68.408203"/>
     <use xlink:href="#DejaVuSans-4e" x="154.6875"/>
     <use xlink:href="#DejaVuSans-50" x="229.492188"/>
    </g>
   </g>
   <g id="text_6">
    <!-- 3.7% -->
    <g transform="translate(288.78904 240.20033) scale(0.16 -0.16)">
     <defs>
      <path id="DejaVuSans-33" d="M 2597 2516 
Q 3050 2419 3304 2112 
Q 3559 1806 3559 1356 
Q 3559 666 3084 287 
Q 2609 -91 1734 -91 
Q 1441 -91 1130 -33 
Q 819 25 488 141 
L 488 750 
Q 750 597 1062 519 
Q 1375 441 1716 441 
Q 2309 441 2620 675 
Q 2931 909 2931 1356 
Q 2931 1769 2642 2001 
Q 2353 2234 1838 2234 
L 1294 2234 
L 1294 2753 
L 1863 2753 
Q 2328 2753 2575 2939 
Q 2822 3125 2822 3475 
Q 2822 3834 2567 4026 
Q 2313 4219 1838 4219 
Q 1578 4219 1281 4162 
Q 984 4106 628 3988 
L 628 4550 
Q 988 4650 1302 4700 
Q 1616 4750 1894 4750 
Q 2613 4750 3031 4423 
Q 3450 4097 3450 3541 
Q 3450 3153 3228 2886 
Q 3006 2619 2597 2516 
z
" transform="scale(0.015625)"/>
     </defs>
     <use xlink:href="#DejaVuSans-33"/>
     <use xlink:href="#DejaVuSans-2e" x="63.623047"/>
     <use xlink:href="#DejaVuSans-37" x="95.410156"/>
     <use xlink:href="#DejaVuSans-25" x="159.033203"/>
    </g>
   </g>
   <g id="text_7">
    <!-- VLNP -->
    <g transform="translate(358.493177 239.345443) scale(0.16 -0.16)">
     <defs>
      <path id="DejaVuSans-4c" d="M 628 4666 
L 1259 4666 
L 1259 531 
L 3531 531 
L 3531 0 
L 628 0 
L 628 4666 
z
" transform="scale(0.015625)"/>
     </defs>
     <use xlink:href="#DejaVuSans-56"/>
     <use xlink:href="#DejaVuSans-4c" x="68.408203"/>
     <use xlink:href="#DejaVuSans-4e" x="124.121094"/>
     <use xlink:href="#DejaVuSans-50" x="198.925781"/>
    </g>
   </g>
   <g id="text_8">
    <!-- 3.0% -->
    <g transform="translate(292.530817 229.104333) scale(0.16 -0.16)">
     <defs>
      <path id="DejaVuSans-30" d="M 2034 4250 
Q 1547 4250 1301 3770 
Q 1056 3291 1056 2328 
Q 1056 1369 1301 889 
Q 1547 409 2034 409 
Q 2525 409 2770 889 
Q 3016 1369 3016 2328 
Q 3016 3291 2770 3770 
Q 2525 4250 2034 4250 
z
M 2034 4750 
Q 2819 4750 3233 4129 
Q 3647 3509 3647 2328 
Q 3647 1150 3233 529 
Q 2819 -91 2034 -91 
Q 1250 -91 836 529 
Q 422 1150 422 2328 
Q 422 3509 836 4129 
Q 1250 4750 2034 4750 
z
" transform="scale(0.015625)"/>
     </defs>
     <use xlink:href="#DejaVuSans-33"/>
     <use xlink:href="#DejaVuSans-2e" x="63.623047"/>
     <use xlink:href="#DejaVuSans-30" x="95.410156"/>
     <use xlink:href="#DejaVuSans-25" x="159.033203"/>
    </g>
   </g>
   <g id="text_9">
    <!-- LX -->
    <g transform="translate(360.597855 225.790018) scale(0.16 -0.16)">
     <defs>
      <path id="DejaVuSans-58" d="M 403 4666 
L 1081 4666 
L 2241 2931 
L 3406 4666 
L 4084 4666 
L 2584 2425 
L 4184 0 
L 3506 0 
L 2194 1984 
L 872 0 
L 191 0 
L 1856 2491 
L 403 4666 
z
" transform="scale(0.015625)"/>
     </defs>
     <use xlink:href="#DejaVuSans-4c"/>
     <use xlink:href="#DejaVuSans-58" x="55.712891"/>
    </g>
   </g>
   <g id="text_10">
    <!-- 1.3% -->
    <g transform="translate(293.678824 221.710464) scale(0.16 -0.16)">
     <use xlink:href="#DejaVuSans-31"/>
     <use xlink:href="#DejaVuSans-2e" x="63.623047"/>
     <use xlink:href="#DejaVuSans-33" x="95.410156"/>
     <use xlink:href="#DejaVuSans-25" x="159.033203"/>
    </g>
   </g>
   <g id="text_11">
    <!-- Module 1 -->
    <g transform="translate(216.774017 83.311765) scale(0.18 -0.18)">
     <defs>
      <path id="DejaVuSans-6f" d="M 1959 3097 
Q 1497 3097 1228 2736 
Q 959 2375 959 1747 
Q 959 1119 1226 758 
Q 1494 397 1959 397 
Q 2419 397 2687 759 
Q 2956 1122 2956 1747 
Q 2956 2369 2687 2733 
Q 2419 3097 1959 3097 
z
M 1959 3584 
Q 2709 3584 3137 3096 
Q 3566 2609 3566 1747 
Q 3566 888 3137 398 
Q 2709 -91 1959 -91 
Q 1206 -91 779 398 
Q 353 888 353 1747 
Q 353 2609 779 3096 
Q 1206 3584 1959 3584 
z
" transform="scale(0.015625)"/>
      <path id="DejaVuSans-64" d="M 2906 2969 
L 2906 4863 
L 3481 4863 
L 3481 0 
L 2906 0 
L 2906 525 
Q 2725 213 2448 61 
Q 2172 -91 1784 -91 
Q 1150 -91 751 415 
Q 353 922 353 1747 
Q 353 2572 751 3078 
Q 1150 3584 1784 3584 
Q 2172 3584 2448 3432 
Q 2725 3281 2906 2969 
z
M 947 1747 
Q 947 1113 1208 752 
Q 1469 391 1925 391 
Q 2381 391 2643 752 
Q 2906 1113 2906 1747 
Q 2906 2381 2643 2742 
Q 2381 3103 1925 3103 
Q 1469 3103 1208 2742 
Q 947 2381 947 1747 
z
" transform="scale(0.015625)"/>
      <path id="DejaVuSans-75" d="M 544 1381 
L 544 3500 
L 1119 3500 
L 1119 1403 
Q 1119 906 1312 657 
Q 1506 409 1894 409 
Q 2359 409 2629 706 
Q 2900 1003 2900 1516 
L 2900 3500 
L 3475 3500 
L 3475 0 
L 2900 0 
L 2900 538 
Q 2691 219 2414 64 
Q 2138 -91 1772 -91 
Q 1169 -91 856 284 
Q 544 659 544 1381 
z
M 1991 3584 
L 1991 3584 
z
" transform="scale(0.015625)"/>
      <path id="DejaVuSans-6c" d="M 603 4863 
L 1178 4863 
L 1178 0 
L 603 0 
L 603 4863 
z
" transform="scale(0.015625)"/>
      <path id="DejaVuSans-65" d="M 3597 1894 
L 3597 1613 
L 953 1613 
Q 991 1019 1311 708 
Q 1631 397 2203 397 
Q 2534 397 2845 478 
Q 3156 559 3463 722 
L 3463 178 
Q 3153 47 2828 -22 
Q 2503 -91 2169 -91 
Q 1331 -91 842 396 
Q 353 884 353 1716 
Q 353 2575 817 3079 
Q 1281 3584 2069 3584 
Q 2775 3584 3186 3129 
Q 3597 2675 3597 1894 
z
M 3022 2063 
Q 3016 2534 2758 2815 
Q 2500 3097 2075 3097 
Q 1594 3097 1305 2825 
Q 1016 2553 972 2059 
L 3022 2063 
z
" transform="scale(0.015625)"/>
      <path id="DejaVuSans-20" transform="scale(0.015625)"/>
     </defs>
     <use xlink:href="#DejaVuSans-4d"/>
     <use xlink:href="#DejaVuSans-6f" x="86.279297"/>
     <use xlink:href="#DejaVuSans-64" x="147.460938"/>
     <use xlink:href="#DejaVuSans-75" x="210.9375"/>
     <use xlink:href="#DejaVuSans-6c" x="274.316406"/>
     <use xlink:href="#DejaVuSans-65" x="302.099609"/>
     <use xlink:href="#DejaVuSans-20" x="363.623047"/>
     <use xlink:href="#DejaVuSans-31" x="395.410156"/>
    </g>
   </g>
   <g id="text_12">
    <!-- a. -->
    <g transform="translate(135 83.311765) scale(0.16 -0.16)">
     <defs>
      <path id="DejaVuSans-Bold-61" d="M 2106 1575 
Q 1756 1575 1579 1456 
Q 1403 1338 1403 1106 
Q 1403 894 1545 773 
Q 1688 653 1941 653 
Q 2256 653 2472 879 
Q 2688 1106 2688 1447 
L 2688 1575 
L 2106 1575 
z
M 3816 1997 
L 3816 0 
L 2688 0 
L 2688 519 
Q 2463 200 2181 54 
Q 1900 -91 1497 -91 
Q 953 -91 614 226 
Q 275 544 275 1050 
Q 275 1666 698 1953 
Q 1122 2241 2028 2241 
L 2688 2241 
L 2688 2328 
Q 2688 2594 2478 2717 
Q 2269 2841 1825 2841 
Q 1466 2841 1156 2769 
Q 847 2697 581 2553 
L 581 3406 
Q 941 3494 1303 3539 
Q 1666 3584 2028 3584 
Q 2975 3584 3395 3211 
Q 3816 2838 3816 1997 
z
" transform="scale(0.015625)"/>
      <path id="DejaVuSans-Bold-2e" d="M 653 1209 
L 1778 1209 
L 1778 0 
L 653 0 
L 653 1209 
z
" transform="scale(0.015625)"/>
     </defs>
     <use xlink:href="#DejaVuSans-Bold-61"/>
     <use xlink:href="#DejaVuSans-Bold-2e" x="67.480469"/>
    </g>
   </g>
  </g>
  <g id="axes_2">
   <g id="patch_9">
    <path d="M 647.047059 212.4 
C 647.047059 196.146982 642.81132 180.171117 634.758927 166.053058 
C 626.706534 151.935 615.112112 140.156243 601.122814 131.882177 
C 587.133517 123.608112 571.226446 119.120925 554.97545 118.864577 
C 538.724453 118.60823 522.683768 122.591467 508.440461 130.420184 
L 553.5 212.4 
z
" style="fill: #b22222"/>
   </g>
   <g id="patch_10">
    <path d="M 508.440461 130.420184 
C 488.646872 141.299569 473.447904 158.987817 465.671808 180.193466 
C 457.895712 201.399114 458.056715 224.719853 466.124858 245.816115 
L 553.5 212.4 
z
" style="fill: #008000"/>
   </g>
   <g id="patch_11">
    <path d="M 466.124858 245.816115 
C 473.25898 264.470138 486.182777 280.358163 502.993463 291.14098 
C 519.80415 301.923797 539.634129 307.044906 559.563815 305.750321 
L 553.5 212.4 
z
" style="fill: #8a2be2"/>
   </g>
   <g id="patch_12">
    <path d="M 559.563815 305.750321 
C 575.574306 304.710317 591.051222 299.56866 604.501266 290.821446 
C 617.951309 282.074231 628.927527 270.012133 636.370874 255.798969 
L 553.5 212.4 
z
" style="fill: #6495ed"/>
   </g>
   <g id="patch_13">
    <path d="M 636.370874 255.798969 
C 638.302376 252.110741 639.985505 248.297679 641.40903 244.385225 
C 642.832556 240.47277 643.993305 236.469643 644.883533 232.402553 
L 553.5 212.4 
z
" style="fill: #ffa500"/>
   </g>
   <g id="patch_14">
    <path d="M 644.883533 232.402553 
C 645.161453 231.132847 645.412881 229.857487 645.637653 228.577303 
C 645.862424 227.29712 646.060491 226.01239 646.231723 224.723952 
L 553.5 212.4 
z
" style="fill: #da70d6"/>
   </g>
   <g id="patch_15">
    <path d="M 646.231723 224.723952 
C 646.392341 223.515377 646.529317 222.303778 646.642572 221.089849 
C 646.755827 219.875919 646.84534 218.659892 646.911058 217.442463 
L 553.5 212.4 
z
" style="fill: #fa8072"/>
   </g>
   <g id="patch_16">
    <path d="M 646.911058 217.442463 
C 646.925407 217.17666 646.93862 216.910797 646.950699 216.644882 
C 646.962778 216.378966 646.973722 216.113 646.98353 215.846991 
L 553.5 212.4 
z
"/>
   </g>
   <g id="patch_17">
    <path d="M 646.98353 215.846991 
C 646.992197 215.611951 646.999977 215.37688 647.006871 215.141782 
C 647.013764 214.906685 647.019771 214.671562 647.024891 214.436418 
L 553.5 212.4 
z
" style="fill: #000080"/>
   </g>
   <g id="patch_18">
    <path d="M 647.024891 214.436418 
C 647.029059 214.244984 647.03264 214.053538 647.035632 213.862082 
C 647.038625 213.670626 647.04103 213.479161 647.042847 213.28769 
L 553.5 212.4 
z
" style="fill: #bc8f8f"/>
   </g>
   <g id="patch_19">
    <path d="M 647.042847 213.28769 
C 647.044251 213.139744 647.045304 212.991795 647.046006 212.843844 
C 647.046708 212.695893 647.047059 212.54794 647.047059 212.399988 
L 553.5 212.4 
z
" style="fill: #808080"/>
   </g>
   <g id="matplotlib.axis_3"/>
   <g id="matplotlib.axis_4"/>
   <g id="text_13">
    <!-- VMNP -->
    <g transform="translate(605.885096 128.245395) scale(0.16 -0.16)">
     <use xlink:href="#DejaVuSans-56"/>
     <use xlink:href="#DejaVuSans-4d" x="68.408203"/>
     <use xlink:href="#DejaVuSans-4e" x="154.6875"/>
     <use xlink:href="#DejaVuSans-50" x="229.492188"/>
    </g>
   </g>
   <g id="text_14">
    <!-- 33.0% -->
    <g transform="translate(556.659939 168.504306) scale(0.16 -0.16)">
     <use xlink:href="#DejaVuSans-33"/>
     <use xlink:href="#DejaVuSans-33" x="63.623047"/>
     <use xlink:href="#DejaVuSans-2e" x="127.246094"/>
     <use xlink:href="#DejaVuSans-30" x="159.033203"/>
     <use xlink:href="#DejaVuSans-25" x="222.65625"/>
    </g>
   </g>
   <g id="text_15">
    <!-- INP -->
    <g transform="translate(430.551488 181.387812) scale(0.16 -0.16)">
     <use xlink:href="#DejaVuSans-49"/>
     <use xlink:href="#DejaVuSans-4e" x="29.492188"/>
     <use xlink:href="#DejaVuSans-50" x="104.296875"/>
    </g>
   </g>
   <g id="text_16">
    <!-- 22.8% -->
    <g transform="translate(475.389335 197.491079) scale(0.16 -0.16)">
     <defs>
      <path id="DejaVuSans-38" d="M 2034 2216 
Q 1584 2216 1326 1975 
Q 1069 1734 1069 1313 
Q 1069 891 1326 650 
Q 1584 409 2034 409 
Q 2484 409 2743 651 
Q 3003 894 3003 1313 
Q 3003 1734 2745 1975 
Q 2488 2216 2034 2216 
z
M 1403 2484 
Q 997 2584 770 2862 
Q 544 3141 544 3541 
Q 544 4100 942 4425 
Q 1341 4750 2034 4750 
Q 2731 4750 3128 4425 
Q 3525 4100 3525 3541 
Q 3525 3141 3298 2862 
Q 3072 2584 2669 2484 
Q 3125 2378 3379 2068 
Q 3634 1759 3634 1313 
Q 3634 634 3220 271 
Q 2806 -91 2034 -91 
Q 1263 -91 848 271 
Q 434 634 434 1313 
Q 434 1759 690 2068 
Q 947 2378 1403 2484 
z
M 1172 3481 
Q 1172 3119 1398 2916 
Q 1625 2713 2034 2713 
Q 2441 2713 2670 2916 
Q 2900 3119 2900 3481 
Q 2900 3844 2670 4047 
Q 2441 4250 2034 4250 
Q 1625 4250 1398 4047 
Q 1172 3844 1172 3481 
z
" transform="scale(0.015625)"/>
     </defs>
     <use xlink:href="#DejaVuSans-32"/>
     <use xlink:href="#DejaVuSans-32" x="63.623047"/>
     <use xlink:href="#DejaVuSans-2e" x="127.246094"/>
     <use xlink:href="#DejaVuSans-38" x="159.033203"/>
     <use xlink:href="#DejaVuSans-25" x="222.65625"/>
    </g>
   </g>
   <g id="text_17">
    <!-- LX -->
    <g transform="translate(478.06781 303.430078) scale(0.16 -0.16)">
     <use xlink:href="#DejaVuSans-4c"/>
     <use xlink:href="#DejaVuSans-58" x="55.712891"/>
    </g>
   </g>
   <g id="text_18">
    <!-- 20.2% -->
    <g transform="translate(497.782328 264.059588) scale(0.16 -0.16)">
     <use xlink:href="#DejaVuSans-32"/>
     <use xlink:href="#DejaVuSans-30" x="63.623047"/>
     <use xlink:href="#DejaVuSans-2e" x="127.246094"/>
     <use xlink:href="#DejaVuSans-32" x="159.033203"/>
     <use xlink:href="#DejaVuSans-25" x="222.65625"/>
    </g>
   </g>
   <g id="text_19">
    <!-- SNP -->
    <g transform="translate(609.601392 303.07859) scale(0.16 -0.16)">
     <use xlink:href="#DejaVuSans-53"/>
     <use xlink:href="#DejaVuSans-4e" x="63.476562"/>
     <use xlink:href="#DejaVuSans-50" x="138.28125"/>
    </g>
   </g>
   <g id="text_20">
    <!-- 16.3% -->
    <g transform="translate(558.687009 263.867867) scale(0.16 -0.16)">
     <use xlink:href="#DejaVuSans-31"/>
     <use xlink:href="#DejaVuSans-36" x="63.623047"/>
     <use xlink:href="#DejaVuSans-2e" x="127.246094"/>
     <use xlink:href="#DejaVuSans-33" x="159.033203"/>
     <use xlink:href="#DejaVuSans-25" x="222.65625"/>
    </g>
   </g>
   <g id="text_21">
    <!-- VLNP -->
    <g transform="translate(650.199933 251.998747) scale(0.16 -0.16)">
     <use xlink:href="#DejaVuSans-56"/>
     <use xlink:href="#DejaVuSans-4c" x="68.408203"/>
     <use xlink:href="#DejaVuSans-4e" x="124.121094"/>
     <use xlink:href="#DejaVuSans-50" x="198.925781"/>
    </g>
   </g>
   <g id="text_22">
    <!-- 4.2% -->
    <g transform="translate(585.921668 236.006135) scale(0.16 -0.16)">
     <defs>
      <path id="DejaVuSans-34" d="M 2419 4116 
L 825 1625 
L 2419 1625 
L 2419 4116 
z
M 2253 4666 
L 3047 4666 
L 3047 1625 
L 3713 1625 
L 3713 1100 
L 3047 1100 
L 3047 0 
L 2419 0 
L 2419 1100 
L 313 1100 
L 313 1709 
L 2253 4666 
z
" transform="scale(0.015625)"/>
     </defs>
     <use xlink:href="#DejaVuSans-34"/>
     <use xlink:href="#DejaVuSans-2e" x="63.623047"/>
     <use xlink:href="#DejaVuSans-32" x="95.410156"/>
     <use xlink:href="#DejaVuSans-25" x="159.033203"/>
    </g>
   </g>
   <g id="text_23">
    <!-- PENP -->
    <g transform="translate(654.851418 234.610034) scale(0.16 -0.16)">
     <defs>
      <path id="DejaVuSans-45" d="M 628 4666 
L 3578 4666 
L 3578 4134 
L 1259 4134 
L 1259 2753 
L 3481 2753 
L 3481 2222 
L 1259 2222 
L 1259 531 
L 3634 531 
L 3634 0 
L 628 0 
L 628 4666 
z
" transform="scale(0.015625)"/>
     </defs>
     <use xlink:href="#DejaVuSans-50"/>
     <use xlink:href="#DejaVuSans-45" x="60.302734"/>
     <use xlink:href="#DejaVuSans-4e" x="123.486328"/>
     <use xlink:href="#DejaVuSans-50" x="198.291016"/>
    </g>
   </g>
   <g id="text_24">
    <!-- 1.3% -->
    <g transform="translate(588.458842 226.521382) scale(0.16 -0.16)">
     <use xlink:href="#DejaVuSans-31"/>
     <use xlink:href="#DejaVuSans-2e" x="63.623047"/>
     <use xlink:href="#DejaVuSans-33" x="95.410156"/>
     <use xlink:href="#DejaVuSans-25" x="159.033203"/>
    </g>
   </g>
   <g id="text_25">
    <!-- CX -->
    <g transform="translate(655.956829 226.373834) scale(0.16 -0.16)">
     <defs>
      <path id="DejaVuSans-43" d="M 4122 4306 
L 4122 3641 
Q 3803 3938 3442 4084 
Q 3081 4231 2675 4231 
Q 1875 4231 1450 3742 
Q 1025 3253 1025 2328 
Q 1025 1406 1450 917 
Q 1875 428 2675 428 
Q 3081 428 3442 575 
Q 3803 722 4122 1019 
L 4122 359 
Q 3791 134 3420 21 
Q 3050 -91 2638 -91 
Q 1578 -91 968 557 
Q 359 1206 359 2328 
Q 359 3453 968 4101 
Q 1578 4750 2638 4750 
Q 3056 4750 3426 4639 
Q 3797 4528 4122 4306 
z
" transform="scale(0.015625)"/>
     </defs>
     <use xlink:href="#DejaVuSans-43"/>
     <use xlink:href="#DejaVuSans-58" x="69.824219"/>
    </g>
   </g>
   <g id="text_26">
    <!-- 1.2% -->
    <g transform="translate(589.061793 222.028909) scale(0.16 -0.16)">
     <use xlink:href="#DejaVuSans-31"/>
     <use xlink:href="#DejaVuSans-2e" x="63.623047"/>
     <use xlink:href="#DejaVuSans-32" x="95.410156"/>
     <use xlink:href="#DejaVuSans-25" x="159.033203"/>
    </g>
   </g>
   <g id="text_27">
    <!-- Module 2 -->
    <g transform="translate(512.185781 83.311765) scale(0.18 -0.18)">
     <use xlink:href="#DejaVuSans-4d"/>
     <use xlink:href="#DejaVuSans-6f" x="86.279297"/>
     <use xlink:href="#DejaVuSans-64" x="147.460938"/>
     <use xlink:href="#DejaVuSans-75" x="210.9375"/>
     <use xlink:href="#DejaVuSans-6c" x="274.316406"/>
     <use xlink:href="#DejaVuSans-65" x="302.099609"/>
     <use xlink:href="#DejaVuSans-20" x="363.623047"/>
     <use xlink:href="#DejaVuSans-32" x="395.410156"/>
    </g>
   </g>
   <g id="text_28">
    <!-- b. -->
    <g transform="translate(430.411765 83.311765) scale(0.16 -0.16)">
     <defs>
      <path id="DejaVuSans-Bold-62" d="M 2400 722 
Q 2759 722 2948 984 
Q 3138 1247 3138 1747 
Q 3138 2247 2948 2509 
Q 2759 2772 2400 2772 
Q 2041 2772 1848 2508 
Q 1656 2244 1656 1747 
Q 1656 1250 1848 986 
Q 2041 722 2400 722 
z
M 1656 2988 
Q 1888 3294 2169 3439 
Q 2450 3584 2816 3584 
Q 3463 3584 3878 3070 
Q 4294 2556 4294 1747 
Q 4294 938 3878 423 
Q 3463 -91 2816 -91 
Q 2450 -91 2169 54 
Q 1888 200 1656 506 
L 1656 0 
L 538 0 
L 538 4863 
L 1656 4863 
L 1656 2988 
z
" transform="scale(0.015625)"/>
     </defs>
     <use xlink:href="#DejaVuSans-Bold-62"/>
     <use xlink:href="#DejaVuSans-Bold-2e" x="71.582031"/>
    </g>
   </g>
  </g>
  <g id="axes_3">
   <g id="patch_20">
    <path d="M 942.458824 212.4 
C 942.458824 197.505718 938.901689 182.824582 932.084351 169.582093 
C 925.267012 156.339603 915.384589 144.914776 903.262013 136.261293 
C 891.139436 127.607809 877.123669 121.973343 862.384669 119.828228 
C 847.645669 117.683112 832.605285 119.088744 818.519005 123.927788 
C 804.432725 128.766832 791.703715 136.900789 781.394523 147.650681 
C 771.085331 158.400574 763.491018 171.458727 759.245515 185.735118 
C 755.000013 200.011509 754.224832 215.097531 756.984681 229.733885 
C 759.744531 244.370239 765.960419 258.138016 775.113479 269.887958 
L 848.911765 212.4 
z
" style="fill: #6495ed"/>
   </g>
   <g id="patch_21">
    <path d="M 775.113479 269.887958 
C 786.923096 285.048166 803.122183 296.207311 821.495502 301.839369 
C 839.868822 307.471428 859.53885 307.307409 877.815696 301.369742 
L 848.911765 212.4 
z
" style="fill: #008000"/>
   </g>
   <g id="patch_22">
    <path d="M 877.815696 301.369742 
C 891.085082 297.058867 903.223498 289.833508 913.339176 280.224485 
C 923.454855 270.615463 931.293859 258.863997 936.280285 245.833424 
L 848.911765 212.4 
z
" style="fill: #fa8072"/>
   </g>
   <g id="patch_23">
    <path d="M 936.280285 245.833424 
C 937.447716 242.782683 938.454557 239.672889 939.29667 236.516822 
C 940.138783 233.360754 940.815013 230.162745 941.32258 226.935937 
L 848.911765 212.4 
z
" style="fill: #8a2be2"/>
   </g>
   <g id="patch_24">
    <path d="M 941.32258 226.935937 
C 941.452351 226.110931 941.571068 225.284224 941.678699 224.456038 
C 941.786331 223.627853 941.882867 222.798263 941.968281 221.967493 
L 848.911765 212.4 
z
" style="fill: #b22222"/>
   </g>
   <g id="patch_25">
    <path d="M 941.968281 221.967493 
C 942.024499 221.4207 942.075897 220.873423 942.122467 220.325724 
C 942.169038 219.778026 942.210781 219.229928 942.247691 218.681494 
L 848.911765 212.4 
z
" style="fill: #ffa500"/>
   </g>
   <g id="patch_26">
    <path d="M 942.247691 218.681494 
C 942.270417 218.34381 942.29131 218.006005 942.31037 217.668095 
C 942.329429 217.330185 942.346655 216.992173 942.362046 216.654076 
L 848.911765 212.4 
z
"/>
   </g>
   <g id="patch_27">
    <path d="M 942.362046 216.654076 
C 942.375005 216.369389 942.386664 216.084644 942.397021 215.799851 
C 942.407379 215.515058 942.416435 215.230218 942.424189 214.945342 
L 848.911765 212.4 
z
" style="fill: #008080"/>
   </g>
   <g id="patch_28">
    <path d="M 942.424189 214.945342 
C 942.430601 214.709772 942.436123 214.474179 942.440754 214.238568 
C 942.445386 214.002957 942.449127 213.767329 942.451978 213.531689 
L 848.911765 212.4 
z
" style="fill: #d2b48c"/>
   </g>
   <g id="patch_29">
    <path d="M 942.451978 213.531689 
C 942.45426 213.343092 942.455971 213.154488 942.457112 212.965881 
C 942.458253 212.777273 942.458823 212.588663 942.458824 212.400051 
L 848.911765 212.4 
z
"/>
   </g>
   <g id="matplotlib.axis_5"/>
   <g id="matplotlib.axis_6"/>
   <g id="text_29">
    <!-- SNP -->
    <g transform="translate(783.704729 119.495566) scale(0.16 -0.16)">
     <use xlink:href="#DejaVuSans-53"/>
     <use xlink:href="#DejaVuSans-4e" x="63.476562"/>
     <use xlink:href="#DejaVuSans-50" x="138.28125"/>
    </g>
   </g>
   <g id="text_30">
    <!-- 60.5% -->
    <g transform="translate(805.262359 163.731673) scale(0.16 -0.16)">
     <use xlink:href="#DejaVuSans-36"/>
     <use xlink:href="#DejaVuSans-30" x="63.623047"/>
     <use xlink:href="#DejaVuSans-2e" x="127.246094"/>
     <use xlink:href="#DejaVuSans-35" x="159.033203"/>
     <use xlink:href="#DejaVuSans-25" x="222.65625"/>
    </g>
   </g>
   <g id="text_31">
    <!-- INP -->
    <g transform="translate(792.416376 315.198306) scale(0.16 -0.16)">
     <use xlink:href="#DejaVuSans-49"/>
     <use xlink:href="#DejaVuSans-4e" x="29.492188"/>
     <use xlink:href="#DejaVuSans-50" x="104.296875"/>
    </g>
   </g>
   <g id="text_32">
    <!-- 19.5% -->
    <g transform="translate(807.048257 270.478622) scale(0.16 -0.16)">
     <defs>
      <path id="DejaVuSans-39" d="M 703 97 
L 703 672 
Q 941 559 1184 500 
Q 1428 441 1663 441 
Q 2288 441 2617 861 
Q 2947 1281 2994 2138 
Q 2813 1869 2534 1725 
Q 2256 1581 1919 1581 
Q 1219 1581 811 2004 
Q 403 2428 403 3163 
Q 403 3881 828 4315 
Q 1253 4750 1959 4750 
Q 2769 4750 3195 4129 
Q 3622 3509 3622 2328 
Q 3622 1225 3098 567 
Q 2575 -91 1691 -91 
Q 1453 -91 1209 -44 
Q 966 3 703 97 
z
M 1959 2075 
Q 2384 2075 2632 2365 
Q 2881 2656 2881 3163 
Q 2881 3666 2632 3958 
Q 2384 4250 1959 4250 
Q 1534 4250 1286 3958 
Q 1038 3666 1038 3163 
Q 1038 2656 1286 2365 
Q 1534 2075 1959 2075 
z
" transform="scale(0.015625)"/>
     </defs>
     <use xlink:href="#DejaVuSans-31"/>
     <use xlink:href="#DejaVuSans-39" x="63.623047"/>
     <use xlink:href="#DejaVuSans-2e" x="127.246094"/>
     <use xlink:href="#DejaVuSans-35" x="159.033203"/>
     <use xlink:href="#DejaVuSans-25" x="222.65625"/>
    </g>
   </g>
   <g id="text_33">
    <!-- CX -->
    <g transform="translate(919.781918 291.421934) scale(0.16 -0.16)">
     <use xlink:href="#DejaVuSans-43"/>
     <use xlink:href="#DejaVuSans-58" x="69.824219"/>
    </g>
   </g>
   <g id="text_34">
    <!-- 14.2% -->
    <g transform="translate(862.154462 257.509691) scale(0.16 -0.16)">
     <use xlink:href="#DejaVuSans-31"/>
     <use xlink:href="#DejaVuSans-34" x="63.623047"/>
     <use xlink:href="#DejaVuSans-2e" x="127.246094"/>
     <use xlink:href="#DejaVuSans-32" x="159.033203"/>
     <use xlink:href="#DejaVuSans-25" x="222.65625"/>
    </g>
   </g>
   <g id="text_35">
    <!-- LX -->
    <g transform="translate(948.335161 243.343504) scale(0.16 -0.16)">
     <use xlink:href="#DejaVuSans-4c"/>
     <use xlink:href="#DejaVuSans-58" x="55.712891"/>
    </g>
   </g>
   <g id="text_36">
    <!-- 3.3% -->
    <g transform="translate(882.818958 231.285093) scale(0.16 -0.16)">
     <use xlink:href="#DejaVuSans-33"/>
     <use xlink:href="#DejaVuSans-2e" x="63.623047"/>
     <use xlink:href="#DejaVuSans-33" x="95.410156"/>
     <use xlink:href="#DejaVuSans-25" x="159.033203"/>
    </g>
   </g>
   <g id="text_37">
    <!-- Module 3 -->
    <g transform="translate(807.597546 83.311765) scale(0.18 -0.18)">
     <use xlink:href="#DejaVuSans-4d"/>
     <use xlink:href="#DejaVuSans-6f" x="86.279297"/>
     <use xlink:href="#DejaVuSans-64" x="147.460938"/>
     <use xlink:href="#DejaVuSans-75" x="210.9375"/>
     <use xlink:href="#DejaVuSans-6c" x="274.316406"/>
     <use xlink:href="#DejaVuSans-65" x="302.099609"/>
     <use xlink:href="#DejaVuSans-20" x="363.623047"/>
     <use xlink:href="#DejaVuSans-33" x="395.410156"/>
    </g>
   </g>
   <g id="text_38">
    <!-- c. -->
    <g transform="translate(725.823529 83.311765) scale(0.16 -0.16)">
     <defs>
      <path id="DejaVuSans-Bold-63" d="M 3366 3391 
L 3366 2478 
Q 3138 2634 2908 2709 
Q 2678 2784 2431 2784 
Q 1963 2784 1702 2511 
Q 1441 2238 1441 1747 
Q 1441 1256 1702 982 
Q 1963 709 2431 709 
Q 2694 709 2930 787 
Q 3166 866 3366 1019 
L 3366 103 
Q 3103 6 2833 -42 
Q 2563 -91 2291 -91 
Q 1344 -91 809 395 
Q 275 881 275 1747 
Q 275 2613 809 3098 
Q 1344 3584 2291 3584 
Q 2566 3584 2833 3536 
Q 3100 3488 3366 3391 
z
" transform="scale(0.015625)"/>
     </defs>
     <use xlink:href="#DejaVuSans-Bold-63"/>
     <use xlink:href="#DejaVuSans-Bold-2e" x="59.277344"/>
    </g>
   </g>
  </g>
  <g id="axes_4">
   <g id="patch_30">
    <path d="M 475.8912 506.52 
C 475.8912 495.949466 474.100005 485.454948 470.593806 475.482849 
C 467.087606 465.51075 461.916832 456.204496 455.30143 447.959943 
C 448.686029 439.71539 440.721147 432.651118 431.745585 427.067618 
C 422.770023 421.484117 412.912874 417.461695 402.593427 415.17145 
C 392.273981 412.881205 381.64066 412.356078 371.14577 413.618407 
C 360.650879 414.880735 350.445366 417.912363 340.963337 422.584335 
C 331.481308 427.256307 322.859142 433.501427 315.463596 441.054049 
C 308.068051 448.606671 302.005494 457.358167 297.533808 466.936278 
C 293.062121 476.514389 290.245619 486.781355 289.204107 497.300454 
C 288.162595 507.819554 288.911053 518.439492 291.417643 528.708533 
C 293.924233 538.977573 298.152904 548.74802 303.923782 557.604269 
C 309.694661 566.460519 316.924745 574.275194 325.306493 580.715886 
C 333.68824 587.156577 343.101097 592.130649 353.144673 595.426523 
C 363.188249 598.722396 373.718088 600.292665 384.286288 600.070538 
C 394.854489 599.848411 405.309049 597.837081 415.205267 594.122104 
C 425.101486 590.407127 434.297027 585.041935 442.400745 578.254744 
L 382.32 506.52 
z
" style="fill: #6495ed"/>
   </g>
   <g id="patch_31">
    <path d="M 442.400745 578.254744 
C 449.007504 572.721317 454.81826 566.301601 459.668041 559.177859 
C 464.517821 552.054116 468.360291 544.294408 471.086358 536.119041 
L 382.32 506.52 
z
" style="fill: #008000"/>
   </g>
   <g id="patch_32">
    <path d="M 471.086358 536.119041 
C 472.083314 533.129209 472.928578 530.090917 473.618918 527.015783 
C 474.309257 523.94065 474.843791 520.832601 475.220475 517.703524 
L 382.32 506.52 
z
" style="fill: #b22222"/>
   </g>
   <g id="patch_33">
    <path d="M 475.220475 517.703524 
C 475.332644 516.77175 475.430788 515.83834 475.514874 514.903613 
C 475.59896 513.968885 475.668979 513.032946 475.724906 512.096112 
L 382.32 506.52 
z
" style="fill: #8a2be2"/>
   </g>
   <g id="patch_34">
    <path d="M 475.724906 512.096112 
C 475.7607 511.496533 475.79072 510.896623 475.814961 510.296466 
C 475.839203 509.696309 475.857665 509.095933 475.870346 508.495421 
L 382.32 506.52 
z
" style="fill: #da70d6"/>
   </g>
   <g id="patch_35">
    <path d="M 475.870346 508.495421 
C 475.877297 508.16623 475.882511 507.837006 475.885986 507.50776 
C 475.889462 507.178515 475.8912 506.849254 475.8912 506.51999 
L 382.32 506.52 
z
" style="fill: #d2b48c"/>
   </g>
   <g id="matplotlib.axis_7"/>
   <g id="matplotlib.axis_8"/>
   <g id="text_39">
    <!-- SNP -->
    <g transform="translate(257.280188 467.392906) scale(0.16 -0.16)">
     <use xlink:href="#DejaVuSans-53"/>
     <use xlink:href="#DejaVuSans-4e" x="63.476562"/>
     <use xlink:href="#DejaVuSans-50" x="138.28125"/>
    </g>
   </g>
   <g id="text_40">
    <!-- 86.1% -->
    <g transform="translate(306.034535 487.184767) scale(0.16 -0.16)">
     <use xlink:href="#DejaVuSans-38"/>
     <use xlink:href="#DejaVuSans-36" x="63.623047"/>
     <use xlink:href="#DejaVuSans-2e" x="127.246094"/>
     <use xlink:href="#DejaVuSans-31" x="159.033203"/>
     <use xlink:href="#DejaVuSans-25" x="222.65625"/>
    </g>
   </g>
   <g id="text_41">
    <!-- INP -->
    <g transform="translate(467.402845 568.858645) scale(0.16 -0.16)">
     <use xlink:href="#DejaVuSans-49"/>
     <use xlink:href="#DejaVuSans-4e" x="29.492188"/>
     <use xlink:href="#DejaVuSans-50" x="104.296875"/>
    </g>
   </g>
   <g id="text_42">
    <!-- 8.8% -->
    <g transform="translate(408.405074 542.529715) scale(0.16 -0.16)">
     <use xlink:href="#DejaVuSans-38"/>
     <use xlink:href="#DejaVuSans-2e" x="63.623047"/>
     <use xlink:href="#DejaVuSans-38" x="95.410156"/>
     <use xlink:href="#DejaVuSans-25" x="159.033203"/>
    </g>
   </g>
   <g id="text_43">
    <!-- VMNP -->
    <g transform="translate(482.748809 533.480362) scale(0.16 -0.16)">
     <use xlink:href="#DejaVuSans-56"/>
     <use xlink:href="#DejaVuSans-4d" x="68.408203"/>
     <use xlink:href="#DejaVuSans-4e" x="154.6875"/>
     <use xlink:href="#DejaVuSans-50" x="229.492188"/>
    </g>
   </g>
   <g id="text_44">
    <!-- 3.2% -->
    <g transform="translate(416.775601 523.23247) scale(0.16 -0.16)">
     <use xlink:href="#DejaVuSans-33"/>
     <use xlink:href="#DejaVuSans-2e" x="63.623047"/>
     <use xlink:href="#DejaVuSans-32" x="95.410156"/>
     <use xlink:href="#DejaVuSans-25" x="159.033203"/>
    </g>
   </g>
   <g id="text_45">
    <!-- Module 4 -->
    <g transform="translate(341.005781 377.4) scale(0.18 -0.18)">
     <use xlink:href="#DejaVuSans-4d"/>
     <use xlink:href="#DejaVuSans-6f" x="86.279297"/>
     <use xlink:href="#DejaVuSans-64" x="147.460938"/>
     <use xlink:href="#DejaVuSans-75" x="210.9375"/>
     <use xlink:href="#DejaVuSans-6c" x="274.316406"/>
     <use xlink:href="#DejaVuSans-65" x="302.099609"/>
     <use xlink:href="#DejaVuSans-20" x="363.623047"/>
     <use xlink:href="#DejaVuSans-34" x="395.410156"/>
    </g>
   </g>
   <g id="text_46">
    <!-- d. -->
    <g transform="translate(259.2 377.4) scale(0.16 -0.16)">
     <defs>
      <path id="DejaVuSans-Bold-64" d="M 2919 2988 
L 2919 4863 
L 4044 4863 
L 4044 0 
L 2919 0 
L 2919 506 
Q 2688 197 2409 53 
Q 2131 -91 1766 -91 
Q 1119 -91 703 423 
Q 288 938 288 1747 
Q 288 2556 703 3070 
Q 1119 3584 1766 3584 
Q 2128 3584 2408 3439 
Q 2688 3294 2919 2988 
z
M 2181 722 
Q 2541 722 2730 984 
Q 2919 1247 2919 1747 
Q 2919 2247 2730 2509 
Q 2541 2772 2181 2772 
Q 1825 2772 1636 2509 
Q 1447 2247 1447 1747 
Q 1447 1247 1636 984 
Q 1825 722 2181 722 
z
" transform="scale(0.015625)"/>
     </defs>
     <use xlink:href="#DejaVuSans-Bold-64"/>
     <use xlink:href="#DejaVuSans-Bold-2e" x="71.582031"/>
    </g>
   </g>
  </g>
  <g id="axes_5">
   <g id="patch_36">
    <path d="M 810.6912 506.52 
C 810.6912 495.275364 808.664265 484.122256 804.707801 473.596657 
C 800.751338 463.071057 794.929756 453.344318 787.52282 444.883871 
C 780.115885 436.423425 771.244177 429.367004 761.33404 424.053715 
C 751.423903 418.740426 740.63667 415.256768 729.490737 413.770152 
C 718.344804 412.283536 707.021623 412.818164 696.065344 415.348344 
C 685.109065 417.878523 674.698054 422.363064 665.332625 428.586456 
C 655.967197 434.809847 647.799817 442.670775 641.222981 451.79147 
C 634.646145 460.912165 629.766922 471.144146 626.819788 481.995702 
C 623.872655 492.847257 622.90559 504.141727 623.965067 515.33634 
C 625.024544 526.530953 628.093315 537.443465 633.023906 547.549459 
C 637.954498 557.655453 644.666641 566.790408 652.837775 574.515331 
C 661.008908 582.240253 670.506009 588.429384 680.872681 592.785296 
C 691.239352 597.141208 702.306829 599.592989 713.543248 600.022814 
C 724.779666 600.45264 736.002102 598.853513 746.671244 595.302281 
C 757.340387 591.751049 767.282547 586.305526 776.01994 579.227404 
C 784.757333 572.149281 792.147717 563.553788 797.835937 553.853994 
L 717.12 506.52 
z
" style="fill: #6495ed"/>
   </g>
   <g id="patch_37">
    <path d="M 797.835937 553.853994 
C 799.84818 550.422632 801.639568 546.866442 803.199194 543.207079 
C 804.75882 539.547716 806.083513 535.79262 807.165205 531.964655 
L 717.12 506.52 
z
" style="fill: #008000"/>
   </g>
   <g id="patch_38">
    <path d="M 807.165205 531.964655 
C 807.503996 530.765721 807.818807 529.560139 808.109451 528.348633 
C 808.400095 527.137126 808.666514 525.919935 808.908548 524.697788 
L 717.12 506.52 
z
" style="fill: #008080"/>
   </g>
   <g id="patch_39">
    <path d="M 808.908548 524.697788 
C 809.116107 523.64972 809.3057 522.598173 809.477244 521.543611 
C 809.648788 520.489049 809.802258 519.431626 809.937585 518.371807 
L 717.12 506.52 
z
" style="fill: #ffa500"/>
   </g>
   <g id="patch_40">
    <path d="M 809.937585 518.371807 
C 810.031396 517.637127 810.116481 516.90136 810.192821 516.16466 
C 810.269161 515.42796 810.336752 514.690379 810.39558 513.952074 
L 717.12 506.52 
z
" style="fill: #b22222"/>
   </g>
   <g id="patch_41">
    <path d="M 810.39558 513.952074 
C 810.440402 513.389536 810.480134 512.826604 810.514772 512.263348 
C 810.54941 511.700091 810.578951 511.136533 810.603393 510.572741 
L 717.12 506.52 
z
"/>
   </g>
   <g id="patch_42">
    <path d="M 810.603393 510.572741 
C 810.621174 510.162596 810.636255 509.752337 810.648636 509.341993 
C 810.661018 508.931648 810.670698 508.521227 810.677677 508.110755 
L 717.12 506.52 
z
" style="fill: #d2b48c"/>
   </g>
   <g id="patch_43">
    <path d="M 810.677677 508.110755 
C 810.682185 507.845654 810.685565 507.580534 810.687819 507.315404 
C 810.690073 507.050274 810.6912 506.785135 810.6912 506.519995 
L 717.12 506.52 
z
"/>
   </g>
   <g id="matplotlib.axis_9"/>
   <g id="matplotlib.axis_10"/>
   <g id="text_47">
    <!-- SNP -->
    <g transform="translate(586.014767 483.958272) scale(0.16 -0.16)">
     <use xlink:href="#DejaVuSans-53"/>
     <use xlink:href="#DejaVuSans-4e" x="63.476562"/>
     <use xlink:href="#DejaVuSans-50" x="138.28125"/>
    </g>
   </g>
   <g id="text_48">
    <!-- 91.6% -->
    <g transform="translate(637.526123 496.220421) scale(0.16 -0.16)">
     <use xlink:href="#DejaVuSans-39"/>
     <use xlink:href="#DejaVuSans-31" x="63.623047"/>
     <use xlink:href="#DejaVuSans-2e" x="127.246094"/>
     <use xlink:href="#DejaVuSans-36" x="159.033203"/>
     <use xlink:href="#DejaVuSans-25" x="222.65625"/>
    </g>
   </g>
   <g id="text_49">
    <!-- INP -->
    <g transform="translate(811.807114 551.290787) scale(0.16 -0.16)">
     <use xlink:href="#DejaVuSans-49"/>
     <use xlink:href="#DejaVuSans-4e" x="29.492188"/>
     <use xlink:href="#DejaVuSans-50" x="104.296875"/>
    </g>
   </g>
   <g id="text_50">
    <!-- 4.1% -->
    <g transform="translate(748.443767 532.947247) scale(0.16 -0.16)">
     <use xlink:href="#DejaVuSans-34"/>
     <use xlink:href="#DejaVuSans-2e" x="63.623047"/>
     <use xlink:href="#DejaVuSans-31" x="95.410156"/>
     <use xlink:href="#DejaVuSans-25" x="159.033203"/>
    </g>
   </g>
   <g id="text_51">
    <!-- LH -->
    <g transform="translate(817.208397 534.946496) scale(0.16 -0.16)">
     <defs>
      <path id="DejaVuSans-48" d="M 628 4666 
L 1259 4666 
L 1259 2753 
L 3553 2753 
L 3553 4666 
L 4184 4666 
L 4184 0 
L 3553 0 
L 3553 2222 
L 1259 2222 
L 1259 0 
L 628 0 
L 628 4666 
z
" transform="scale(0.015625)"/>
     </defs>
     <use xlink:href="#DejaVuSans-4c"/>
     <use xlink:href="#DejaVuSans-48" x="55.712891"/>
    </g>
   </g>
   <g id="text_52">
    <!-- 1.3% -->
    <g transform="translate(751.389921 524.03218) scale(0.16 -0.16)">
     <use xlink:href="#DejaVuSans-31"/>
     <use xlink:href="#DejaVuSans-2e" x="63.623047"/>
     <use xlink:href="#DejaVuSans-33" x="95.410156"/>
     <use xlink:href="#DejaVuSans-25" x="159.033203"/>
    </g>
   </g>
   <g id="text_53">
    <!-- VLNP -->
    <g transform="translate(818.712969 527.460972) scale(0.16 -0.16)">
     <use xlink:href="#DejaVuSans-56"/>
     <use xlink:href="#DejaVuSans-4c" x="68.408203"/>
     <use xlink:href="#DejaVuSans-4e" x="124.121094"/>
     <use xlink:href="#DejaVuSans-50" x="198.925781"/>
    </g>
   </g>
   <g id="text_54">
    <!-- 1.1% -->
    <g transform="translate(752.210597 519.949166) scale(0.16 -0.16)">
     <use xlink:href="#DejaVuSans-31"/>
     <use xlink:href="#DejaVuSans-2e" x="63.623047"/>
     <use xlink:href="#DejaVuSans-31" x="95.410156"/>
     <use xlink:href="#DejaVuSans-25" x="159.033203"/>
    </g>
   </g>
   <g id="text_55">
    <!-- Module 5 -->
    <g transform="translate(675.805781 377.4) scale(0.18 -0.18)">
     <use xlink:href="#DejaVuSans-4d"/>
     <use xlink:href="#DejaVuSans-6f" x="86.279297"/>
     <use xlink:href="#DejaVuSans-64" x="147.460938"/>
     <use xlink:href="#DejaVuSans-75" x="210.9375"/>
     <use xlink:href="#DejaVuSans-6c" x="274.316406"/>
     <use xlink:href="#DejaVuSans-65" x="302.099609"/>
     <use xlink:href="#DejaVuSans-20" x="363.623047"/>
     <use xlink:href="#DejaVuSans-35" x="395.410156"/>
    </g>
   </g>
   <g id="text_56">
    <!-- e. -->
    <g transform="translate(594 377.4) scale(0.16 -0.16)">
     <defs>
      <path id="DejaVuSans-Bold-65" d="M 4031 1759 
L 4031 1441 
L 1416 1441 
Q 1456 1047 1700 850 
Q 1944 653 2381 653 
Q 2734 653 3104 758 
Q 3475 863 3866 1075 
L 3866 213 
Q 3469 63 3072 -14 
Q 2675 -91 2278 -91 
Q 1328 -91 801 392 
Q 275 875 275 1747 
Q 275 2603 792 3093 
Q 1309 3584 2216 3584 
Q 3041 3584 3536 3087 
Q 4031 2591 4031 1759 
z
M 2881 2131 
Q 2881 2450 2695 2645 
Q 2509 2841 2209 2841 
Q 1884 2841 1681 2658 
Q 1478 2475 1428 2131 
L 2881 2131 
z
" transform="scale(0.015625)"/>
     </defs>
     <use xlink:href="#DejaVuSans-Bold-65"/>
     <use xlink:href="#DejaVuSans-Bold-2e" x="67.822266"/>
    </g>
   </g>
  </g>
  <g id="text_57">
   <!-- OviINr Input Connectome -->
   <g transform="translate(413.278125 29.596875) scale(0.2 -0.2)">
    <defs>
     <path id="DejaVuSans-4f" d="M 2522 4238 
Q 1834 4238 1429 3725 
Q 1025 3213 1025 2328 
Q 1025 1447 1429 934 
Q 1834 422 2522 422 
Q 3209 422 3611 934 
Q 4013 1447 4013 2328 
Q 4013 3213 3611 3725 
Q 3209 4238 2522 4238 
z
M 2522 4750 
Q 3503 4750 4090 4092 
Q 4678 3434 4678 2328 
Q 4678 1225 4090 567 
Q 3503 -91 2522 -91 
Q 1538 -91 948 565 
Q 359 1222 359 2328 
Q 359 3434 948 4092 
Q 1538 4750 2522 4750 
z
" transform="scale(0.015625)"/>
     <path id="DejaVuSans-76" d="M 191 3500 
L 800 3500 
L 1894 563 
L 2988 3500 
L 3597 3500 
L 2284 0 
L 1503 0 
L 191 3500 
z
" transform="scale(0.015625)"/>
     <path id="DejaVuSans-69" d="M 603 3500 
L 1178 3500 
L 1178 0 
L 603 0 
L 603 3500 
z
M 603 4863 
L 1178 4863 
L 1178 4134 
L 603 4134 
L 603 4863 
z
" transform="scale(0.015625)"/>
     <path id="DejaVuSans-72" d="M 2631 2963 
Q 2534 3019 2420 3045 
Q 2306 3072 2169 3072 
Q 1681 3072 1420 2755 
Q 1159 2438 1159 1844 
L 1159 0 
L 581 0 
L 581 3500 
L 1159 3500 
L 1159 2956 
Q 1341 3275 1631 3429 
Q 1922 3584 2338 3584 
Q 2397 3584 2469 3576 
Q 2541 3569 2628 3553 
L 2631 2963 
z
" transform="scale(0.015625)"/>
     <path id="DejaVuSans-6e" d="M 3513 2113 
L 3513 0 
L 2938 0 
L 2938 2094 
Q 2938 2591 2744 2837 
Q 2550 3084 2163 3084 
Q 1697 3084 1428 2787 
Q 1159 2491 1159 1978 
L 1159 0 
L 581 0 
L 581 3500 
L 1159 3500 
L 1159 2956 
Q 1366 3272 1645 3428 
Q 1925 3584 2291 3584 
Q 2894 3584 3203 3211 
Q 3513 2838 3513 2113 
z
" transform="scale(0.015625)"/>
     <path id="DejaVuSans-70" d="M 1159 525 
L 1159 -1331 
L 581 -1331 
L 581 3500 
L 1159 3500 
L 1159 2969 
Q 1341 3281 1617 3432 
Q 1894 3584 2278 3584 
Q 2916 3584 3314 3078 
Q 3713 2572 3713 1747 
Q 3713 922 3314 415 
Q 2916 -91 2278 -91 
Q 1894 -91 1617 61 
Q 1341 213 1159 525 
z
M 3116 1747 
Q 3116 2381 2855 2742 
Q 2594 3103 2138 3103 
Q 1681 3103 1420 2742 
Q 1159 2381 1159 1747 
Q 1159 1113 1420 752 
Q 1681 391 2138 391 
Q 2594 391 2855 752 
Q 3116 1113 3116 1747 
z
" transform="scale(0.015625)"/>
     <path id="DejaVuSans-74" d="M 1172 4494 
L 1172 3500 
L 2356 3500 
L 2356 3053 
L 1172 3053 
L 1172 1153 
Q 1172 725 1289 603 
Q 1406 481 1766 481 
L 2356 481 
L 2356 0 
L 1766 0 
Q 1100 0 847 248 
Q 594 497 594 1153 
L 594 3053 
L 172 3053 
L 172 3500 
L 594 3500 
L 594 4494 
L 1172 4494 
z
" transform="scale(0.015625)"/>
     <path id="DejaVuSans-63" d="M 3122 3366 
L 3122 2828 
Q 2878 2963 2633 3030 
Q 2388 3097 2138 3097 
Q 1578 3097 1268 2742 
Q 959 2388 959 1747 
Q 959 1106 1268 751 
Q 1578 397 2138 397 
Q 2388 397 2633 464 
Q 2878 531 3122 666 
L 3122 134 
Q 2881 22 2623 -34 
Q 2366 -91 2075 -91 
Q 1284 -91 818 406 
Q 353 903 353 1747 
Q 353 2603 823 3093 
Q 1294 3584 2113 3584 
Q 2378 3584 2631 3529 
Q 2884 3475 3122 3366 
z
" transform="scale(0.015625)"/>
     <path id="DejaVuSans-6d" d="M 3328 2828 
Q 3544 3216 3844 3400 
Q 4144 3584 4550 3584 
Q 5097 3584 5394 3201 
Q 5691 2819 5691 2113 
L 5691 0 
L 5113 0 
L 5113 2094 
Q 5113 2597 4934 2840 
Q 4756 3084 4391 3084 
Q 3944 3084 3684 2787 
Q 3425 2491 3425 1978 
L 3425 0 
L 2847 0 
L 2847 2094 
Q 2847 2600 2669 2842 
Q 2491 3084 2119 3084 
Q 1678 3084 1418 2786 
Q 1159 2488 1159 1978 
L 1159 0 
L 581 0 
L 581 3500 
L 1159 3500 
L 1159 2956 
Q 1356 3278 1631 3431 
Q 1906 3584 2284 3584 
Q 2666 3584 2933 3390 
Q 3200 3197 3328 2828 
z
" transform="scale(0.015625)"/>
    </defs>
    <use xlink:href="#DejaVuSans-4f"/>
    <use xlink:href="#DejaVuSans-76" x="78.710938"/>
    <use xlink:href="#DejaVuSans-69" x="137.890625"/>
    <use xlink:href="#DejaVuSans-49" x="165.673828"/>
    <use xlink:href="#DejaVuSans-4e" x="195.166016"/>
    <use xlink:href="#DejaVuSans-72" x="269.970703"/>
    <use xlink:href="#DejaVuSans-20" x="311.083984"/>
    <use xlink:href="#DejaVuSans-49" x="342.871094"/>
    <use xlink:href="#DejaVuSans-6e" x="372.363281"/>
    <use xlink:href="#DejaVuSans-70" x="435.742188"/>
    <use xlink:href="#DejaVuSans-75" x="499.21875"/>
    <use xlink:href="#DejaVuSans-74" x="562.597656"/>
    <use xlink:href="#DejaVuSans-20" x="601.806641"/>
    <use xlink:href="#DejaVuSans-43" x="633.59375"/>
    <use xlink:href="#DejaVuSans-6f" x="703.417969"/>
    <use xlink:href="#DejaVuSans-6e" x="764.599609"/>
    <use xlink:href="#DejaVuSans-6e" x="827.978516"/>
    <use xlink:href="#DejaVuSans-65" x="891.357422"/>
    <use xlink:href="#DejaVuSans-63" x="952.880859"/>
    <use xlink:href="#DejaVuSans-74" x="1007.861328"/>
    <use xlink:href="#DejaVuSans-6f" x="1047.070312"/>
    <use xlink:href="#DejaVuSans-6d" x="1108.251953"/>
    <use xlink:href="#DejaVuSans-65" x="1205.664062"/>
   </g>
  </g>
 </g>
</svg>
