<?xml version="1.0" encoding="utf-8" standalone="no"?>
<!DOCTYPE svg PUBLIC "-//W3C//DTD SVG 1.1//EN"
  "http://www.w3.org/Graphics/SVG/1.1/DTD/svg11.dtd">
<svg xmlns:xlink="http://www.w3.org/1999/xlink" width="576pt" height="576pt" viewBox="0 0 576 576" xmlns="http://www.w3.org/2000/svg" version="1.1">
 <metadata>
  <rdf:RDF xmlns:dc="http://purl.org/dc/elements/1.1/" xmlns:cc="http://creativecommons.org/ns#" xmlns:rdf="http://www.w3.org/1999/02/22-rdf-syntax-ns#">
   <cc:Work>
    <dc:type rdf:resource="http://purl.org/dc/dcmitype/StillImage"/>
    <dc:date>2024-08-20T16:26:26.964461</dc:date>
    <dc:format>image/svg+xml</dc:format>
    <dc:creator>
     <cc:Agent>
      <dc:title>Matplotlib v3.8.4, https://matplotlib.org/</dc:title>
     </cc:Agent>
    </dc:creator>
   </cc:Work>
  </rdf:RDF>
 </metadata>
 <defs>
  <style type="text/css">*{stroke-linejoin: round; stroke-linecap: butt}</style>
 </defs>
 <g id="figure_1">
  <g id="patch_1">
   <path d="M 0 576 
L 576 576 
L 576 0 
L 0 0 
z
" style="fill: #ffffff"/>
  </g>
  <g id="axes_1">
   <g id="patch_2">
    <path d="M 341.318831 119.571355 
C 333.807673 117.54924 326.171648 116.02331 318.460206 115.003449 
C 310.748764 113.983587 302.978589 113.472 295.2 113.472 
L 295.2 184.4352 
C 299.867153 184.4352 304.529259 184.742152 309.156124 185.354069 
C 313.782989 185.965986 318.364604 186.881544 322.871299 188.094813 
z
" style="fill: #ff4500; stroke: #ffffff; stroke-linejoin: miter"/>
   </g>
   <g id="patch_3">
    <path d="M 462.160994 230.899795 
C 452.488648 203.975838 436.445711 179.78679 415.405068 160.402645 
C 394.364425 141.0185 368.943886 127.00843 341.318831 119.571355 
L 322.871299 188.094813 
C 339.446332 192.557058 354.698655 200.9631 367.323041 212.593587 
C 379.947427 224.224074 389.573189 238.737503 395.376596 254.891877 
z
" style="fill: #ff8c00; stroke: #ffffff; stroke-linejoin: miter"/>
   </g>
   <g id="patch_4">
    <path d="M 464.346076 237.371089 
C 464.002701 236.285654 463.648887 235.203549 463.284681 234.124925 
C 462.920475 233.046301 462.545896 231.971208 462.160994 230.899795 
L 395.376596 254.891877 
C 395.607537 255.534725 395.832285 256.179781 396.050809 256.826955 
C 396.269332 257.47413 396.481621 258.123393 396.687645 258.774654 
z
" style="fill: #ff4500; stroke: #ffffff; stroke-linejoin: miter"/>
   </g>
   <g id="patch_5">
    <path d="M 469.968434 321.369224 
C 472.40592 307.397219 473.15913 293.183189 472.211918 279.031826 
C 471.264706 264.880464 468.623889 250.893611 464.346076 237.371089 
L 396.687645 258.774654 
C 399.254334 266.888167 400.838824 275.280278 401.407151 283.771096 
C 401.975478 292.261913 401.523552 300.790331 400.061061 309.173535 
z
" style="fill: #ff8c00; stroke: #ffffff; stroke-linejoin: miter"/>
   </g>
   <g id="patch_6">
    <path d="M 389.615964 441.077284 
C 410.641761 427.860195 428.659798 410.374169 442.500934 389.753826 
C 456.342069 369.133483 465.700313 345.834684 469.968434 321.369224 
L 400.061061 309.173535 
C 397.500188 323.85281 391.885241 337.83209 383.58056 350.204295 
C 375.275879 362.576501 364.465057 373.068117 351.849579 380.99837 
z
" style="fill: #ff4500; stroke: #ffffff; stroke-linejoin: miter"/>
   </g>
   <g id="patch_7">
    <path d="M 234.159699 124.303651 
C 210.813 132.858824 189.52358 146.227478 171.676112 163.54011 
C 153.828645 180.852741 139.81864 201.725692 130.557315 224.801375 
C 121.29599 247.877059 116.988581 272.644105 117.915245 297.491652 
C 118.841908 322.339199 124.982109 346.716612 135.936484 369.038372 
C 146.89086 391.360132 162.416656 411.131575 181.504067 427.066759 
C 200.591477 443.001942 222.817515 454.747732 246.736587 461.540177 
C 270.655659 468.332622 295.737704 470.021198 320.351376 466.496078 
C 344.965048 462.970958 368.564892 454.310261 389.615964 441.077284 
L 351.849579 380.99837 
C 339.218935 388.938157 325.059029 394.134575 310.290826 396.249647 
C 295.522623 398.364719 280.473395 397.351573 266.121952 393.276106 
C 251.770509 389.200639 238.434886 382.153165 226.98244 372.592055 
C 215.529994 363.030945 206.214516 351.168079 199.641891 337.775023 
C 193.069265 324.381967 189.385145 309.75552 188.829147 294.846991 
C 188.273149 279.938463 190.857594 265.078235 196.414389 251.232825 
C 201.971184 237.387415 210.377187 224.863645 221.085667 214.476066 
C 231.794148 204.088487 244.5678 196.067294 258.575819 190.934191 
z
" style="fill: #ff8c00; stroke: #ffffff; stroke-linejoin: miter"/>
   </g>
   <g id="patch_8">
    <path d="M 237.621368 123.075651 
C 237.042323 123.274338 236.464311 123.476021 235.887355 123.680692 
C 235.310399 123.885363 234.734505 124.093019 234.159699 124.303651 
L 258.575819 190.934191 
C 258.920703 190.807811 259.266239 190.683218 259.612413 190.560415 
C 259.958587 190.437613 260.305394 190.316603 260.652821 190.197391 
z
" style="fill: #ff4500; stroke: #ffffff; stroke-linejoin: miter"/>
   </g>
   <g id="patch_9">
    <path d="M 295.199988 113.472 
C 285.420992 113.472001 275.658717 114.280551 266.012972 115.889384 
C 256.367226 117.498216 246.870995 119.90183 237.621368 123.075651 
L 260.652821 190.197391 
C 266.202597 188.293098 271.900336 186.85093 277.687783 185.88563 
C 283.47523 184.92033 289.332595 184.4352 295.199993 184.4352 
z
" style="fill: #ff8c00; stroke: #ffffff; stroke-linejoin: miter"/>
   </g>
   <g id="patch_10">
    <path d="M 395.376595 254.891875 
C 387.966517 234.26517 374.363556 216.421977 356.436209 203.813232 
C 338.508863 191.204486 317.11735 184.4352 295.2 184.4352 
L 295.2 255.3984 
C 302.505783 255.3984 309.636288 257.654829 315.61207 261.857744 
C 321.587852 266.060659 326.122172 272.00839 328.592198 278.883958 
z
" style="fill: #00ced1; stroke: #ffffff; stroke-linejoin: miter"/>
   </g>
   <g id="patch_11">
    <path d="M 400.061061 309.173534 
C 401.641398 300.11482 402.041252 290.889391 401.250624 281.727913 
C 400.459995 272.566436 398.48553 263.545908 395.376595 254.891875 
L 328.592198 278.883958 
C 329.62851 281.768636 330.286665 284.775479 330.550208 287.829304 
C 330.813751 290.88313 330.680466 293.958273 330.153687 296.977845 
z
" style="fill: #00ced1; stroke: #ffffff; stroke-linejoin: miter"/>
   </g>
   <g id="patch_12">
    <path d="M 258.575837 190.934184 
C 241.034526 197.362025 225.490686 208.295972 213.512735 222.632757 
C 201.534783 236.969543 193.539613 254.210176 190.333961 272.615027 
C 187.128308 291.019877 188.823745 309.948366 195.249197 327.490552 
C 201.67465 345.032738 212.60648 360.578067 226.941634 372.557971 
C 241.276788 384.537874 258.516332 392.535392 276.920746 395.743551 
C 295.32516 398.95171 314.253879 397.258851 331.79694 390.835787 
C 349.340001 384.412724 364.886819 373.483011 376.868675 359.149488 
C 388.85053 344.815966 396.850395 327.577511 400.061061 309.173534 
L 330.153687 296.977845 
C 329.083465 303.112504 326.416843 308.858655 322.422892 313.636496 
C 318.42894 318.414337 313.246667 322.057575 307.39898 324.198596 
C 301.551293 326.339617 295.24172 326.903903 289.106915 325.834517 
C 282.972111 324.765131 277.225596 322.099291 272.447211 318.10599 
C 267.668827 314.112689 264.024883 308.930913 261.883066 303.083517 
C 259.741248 297.236122 259.176103 290.926626 260.244654 284.791676 
C 261.313204 278.656725 263.978261 272.909848 267.970912 268.130919 
C 271.963562 263.351991 277.144842 259.707342 282.991946 257.564728 
z
" style="fill: #00ced1; stroke: #ffffff; stroke-linejoin: miter"/>
   </g>
   <g id="patch_13">
    <path d="M 295.200012 184.4352 
C 288.964639 184.435199 282.741307 184.983086 276.601847 186.072538 
C 270.462387 187.161989 264.43051 188.788797 258.575837 190.934184 
L 282.991946 257.564728 
C 284.943503 256.849599 286.954129 256.30733 289.000616 255.944179 
C 291.047102 255.581029 293.121546 255.3984 295.200004 255.3984 
z
" style="fill: #00ced1; stroke: #ffffff; stroke-linejoin: miter"/>
   </g>
   <g id="matplotlib.axis_1"/>
   <g id="matplotlib.axis_2"/>
   <g id="text_1">
    <!-- INP -->
    <g style="fill: #ffffff" transform="translate(334.032646 245.667859) rotate(-54.880333) scale(0.14 -0.14)">
     <defs>
      <path id="Helvetica-49" d="M 628 4591 
L 1256 4591 
L 1256 0 
L 628 0 
L 628 4591 
z
" transform="scale(0.015625)"/>
      <path id="Helvetica-4e" d="M 488 4591 
L 1222 4591 
L 3541 872 
L 3541 4591 
L 4131 4591 
L 4131 0 
L 3434 0 
L 1081 3716 
L 1081 0 
L 488 0 
L 488 4591 
z
M 2269 4591 
L 2269 4591 
z
" transform="scale(0.015625)"/>
      <path id="Helvetica-50" d="M 547 4591 
L 2613 4591 
Q 3225 4591 3600 4245 
Q 3975 3900 3975 3275 
Q 3975 2738 3640 2339 
Q 3306 1941 2613 1941 
L 1169 1941 
L 1169 0 
L 547 0 
L 547 4591 
z
M 3347 3272 
Q 3347 3778 2972 3959 
Q 2766 4056 2406 4056 
L 1169 4056 
L 1169 2466 
L 2406 2466 
Q 2825 2466 3086 2644 
Q 3347 2822 3347 3272 
z
" transform="scale(0.015625)"/>
     </defs>
     <use xlink:href="#Helvetica-49"/>
     <use xlink:href="#Helvetica-4e" x="27.783203"/>
     <use xlink:href="#Helvetica-50" x="100"/>
    </g>
   </g>
   <g id="text_2">
    <!-- LX -->
    <g style="fill: #ffffff" transform="translate(349.088789 283.396638) rotate(-4.932361) scale(0.14 -0.14)">
     <defs>
      <path id="Helvetica-4c" d="M 488 4591 
L 1109 4591 
L 1109 547 
L 3434 547 
L 3434 0 
L 488 0 
L 488 4591 
z
" transform="scale(0.015625)"/>
      <path id="Helvetica-58" d="M 881 0 
L 131 0 
L 1775 2353 
L 234 4591 
L 1013 4591 
L 2184 2834 
L 3347 4591 
L 4088 4591 
L 2547 2353 
L 4163 0 
L 3391 0 
L 2153 1888 
L 881 0 
z
" transform="scale(0.015625)"/>
     </defs>
     <use xlink:href="#Helvetica-4c"/>
     <use xlink:href="#Helvetica-58" x="55.615234"/>
    </g>
   </g>
   <g id="text_3">
    <!-- SNP -->
    <g style="fill: #ffffff" transform="translate(240.371504 360.248426) rotate(-50.11446) scale(0.14 -0.14)">
     <defs>
      <path id="Helvetica-53" d="M 894 1481 
Q 916 1091 1078 847 
Q 1388 391 2169 391 
Q 2519 391 2806 491 
Q 3363 684 3363 1184 
Q 3363 1559 3128 1719 
Q 2891 1875 2384 1991 
L 1763 2131 
Q 1153 2269 900 2434 
Q 463 2722 463 3294 
Q 463 3913 891 4309 
Q 1319 4706 2103 4706 
Q 2825 4706 3329 4357 
Q 3834 4009 3834 3244 
L 3250 3244 
Q 3203 3613 3050 3809 
Q 2766 4169 2084 4169 
Q 1534 4169 1293 3937 
Q 1053 3706 1053 3400 
Q 1053 3063 1334 2906 
Q 1519 2806 2169 2656 
L 2813 2509 
Q 3278 2403 3531 2219 
Q 3969 1897 3969 1284 
Q 3969 522 3414 194 
Q 2859 -134 2125 -134 
Q 1269 -134 784 303 
Q 300 738 309 1481 
L 894 1481 
z
M 2150 4716 
L 2150 4716 
z
" transform="scale(0.015625)"/>
     </defs>
     <use xlink:href="#Helvetica-53"/>
     <use xlink:href="#Helvetica-4e" x="66.699219"/>
     <use xlink:href="#Helvetica-50" x="138.916016"/>
    </g>
   </g>
   <g id="text_4">
    <!-- VMNP -->
    <g style="fill: #ffffff" transform="translate(268.945285 198.139537) rotate(-280.062428) scale(0.14 -0.14)">
     <defs>
      <path id="Helvetica-56" d="M 850 4591 
L 2169 681 
L 3472 4591 
L 4169 4591 
L 2494 0 
L 1834 0 
L 163 4591 
L 850 4591 
z
" transform="scale(0.015625)"/>
      <path id="Helvetica-4d" d="M 472 4591 
L 1363 4591 
L 2681 709 
L 3991 4591 
L 4872 4591 
L 4872 0 
L 4281 0 
L 4281 2709 
Q 4281 2850 4287 3175 
Q 4294 3500 4294 3872 
L 2984 0 
L 2369 0 
L 1050 3872 
L 1050 3731 
Q 1050 3563 1058 3217 
Q 1066 2872 1066 2709 
L 1066 0 
L 472 0 
L 472 4591 
z
" transform="scale(0.015625)"/>
     </defs>
     <use xlink:href="#Helvetica-56"/>
     <use xlink:href="#Helvetica-4d" x="66.699219"/>
     <use xlink:href="#Helvetica-4e" x="150"/>
     <use xlink:href="#Helvetica-50" x="222.216797"/>
    </g>
   </g>
   <g id="legend_1">
    <g id="patch_14">
     <path d="M 392.367813 136.694063 
L 509.96 136.694063 
Q 511.96 136.694063 511.96 134.694063 
L 511.96 76.12 
Q 511.96 74.12 509.96 74.12 
L 392.367813 74.12 
Q 390.367813 74.12 390.367813 76.12 
L 390.367813 134.694063 
Q 390.367813 136.694063 392.367813 136.694063 
z
" style="fill: #ffffff; opacity: 0.8; stroke: #cccccc; stroke-linejoin: miter"/>
    </g>
    <g id="text_5">
     <!-- Legend -->
     <g transform="translate(431.144531 86.75625) scale(0.12 -0.12)">
      <defs>
       <path id="Helvetica-65" d="M 1806 3422 
Q 2163 3422 2497 3255 
Q 2831 3088 3006 2822 
Q 3175 2569 3231 2231 
Q 3281 2000 3281 1494 
L 828 1494 
Q 844 984 1069 676 
Q 1294 369 1766 369 
Q 2206 369 2469 659 
Q 2619 828 2681 1050 
L 3234 1050 
Q 3213 866 3089 639 
Q 2966 413 2813 269 
Q 2556 19 2178 -69 
Q 1975 -119 1719 -119 
Q 1094 -119 659 336 
Q 225 791 225 1609 
Q 225 2416 662 2919 
Q 1100 3422 1806 3422 
z
M 2703 1941 
Q 2669 2306 2544 2525 
Q 2313 2931 1772 2931 
Q 1384 2931 1121 2651 
Q 859 2372 844 1941 
L 2703 1941 
z
M 1753 3428 
L 1753 3428 
z
" transform="scale(0.015625)"/>
       <path id="Helvetica-67" d="M 1594 3406 
Q 1988 3406 2281 3213 
Q 2441 3103 2606 2894 
L 2606 3316 
L 3125 3316 
L 3125 272 
Q 3125 -366 2938 -734 
Q 2588 -1416 1616 -1416 
Q 1075 -1416 706 -1173 
Q 338 -931 294 -416 
L 866 -416 
Q 906 -641 1028 -763 
Q 1219 -950 1628 -950 
Q 2275 -950 2475 -494 
Q 2594 -225 2584 466 
Q 2416 209 2178 84 
Q 1941 -41 1550 -41 
Q 1006 -41 598 345 
Q 191 731 191 1622 
Q 191 2463 602 2934 
Q 1013 3406 1594 3406 
z
M 2606 1688 
Q 2606 2309 2350 2609 
Q 2094 2909 1697 2909 
Q 1103 2909 884 2353 
Q 769 2056 769 1575 
Q 769 1009 998 714 
Q 1228 419 1616 419 
Q 2222 419 2469 966 
Q 2606 1275 2606 1688 
z
M 1659 3428 
L 1659 3428 
z
" transform="scale(0.015625)"/>
       <path id="Helvetica-6e" d="M 413 3347 
L 947 3347 
L 947 2872 
Q 1184 3166 1450 3294 
Q 1716 3422 2041 3422 
Q 2753 3422 3003 2925 
Q 3141 2653 3141 2147 
L 3141 0 
L 2569 0 
L 2569 2109 
Q 2569 2416 2478 2603 
Q 2328 2916 1934 2916 
Q 1734 2916 1606 2875 
Q 1375 2806 1200 2600 
Q 1059 2434 1017 2257 
Q 975 2081 975 1753 
L 975 0 
L 413 0 
L 413 3347 
z
M 1734 3428 
L 1734 3428 
z
" transform="scale(0.015625)"/>
       <path id="Helvetica-64" d="M 769 1634 
Q 769 1097 997 734 
Q 1225 372 1728 372 
Q 2119 372 2370 708 
Q 2622 1044 2622 1672 
Q 2622 2306 2362 2611 
Q 2103 2916 1722 2916 
Q 1297 2916 1033 2591 
Q 769 2266 769 1634 
z
M 1616 3406 
Q 2000 3406 2259 3244 
Q 2409 3150 2600 2916 
L 2600 4606 
L 3141 4606 
L 3141 0 
L 2634 0 
L 2634 466 
Q 2438 156 2169 18 
Q 1900 -119 1553 -119 
Q 994 -119 584 351 
Q 175 822 175 1603 
Q 175 2334 548 2870 
Q 922 3406 1616 3406 
z
" transform="scale(0.015625)"/>
      </defs>
      <use xlink:href="#Helvetica-4c"/>
      <use xlink:href="#Helvetica-65" x="55.615234"/>
      <use xlink:href="#Helvetica-67" x="111.230469"/>
      <use xlink:href="#Helvetica-65" x="166.845703"/>
      <use xlink:href="#Helvetica-6e" x="222.460938"/>
      <use xlink:href="#Helvetica-64" x="278.076172"/>
     </g>
    </g>
    <g id="patch_15">
     <path d="M 394.367813 101.78 
L 414.367813 101.78 
L 414.367813 94.78 
L 394.367813 94.78 
z
" style="fill: #ff4500; stroke: #ffffff; stroke-linejoin: miter"/>
    </g>
    <g id="text_6">
     <!-- Known Celltypes -->
     <g transform="translate(422.367813 101.78) scale(0.1 -0.1)">
      <defs>
       <path id="Helvetica-4b" d="M 488 4591 
L 1094 4591 
L 1094 2353 
L 3331 4591 
L 4191 4591 
L 2281 2741 
L 4244 0 
L 3434 0 
L 1828 2303 
L 1094 1600 
L 1094 0 
L 488 0 
L 488 4591 
z
" transform="scale(0.015625)"/>
       <path id="Helvetica-6f" d="M 1741 363 
Q 2300 363 2508 786 
Q 2716 1209 2716 1728 
Q 2716 2197 2566 2491 
Q 2328 2953 1747 2953 
Q 1231 2953 997 2559 
Q 763 2166 763 1609 
Q 763 1075 997 719 
Q 1231 363 1741 363 
z
M 1763 3444 
Q 2409 3444 2856 3012 
Q 3303 2581 3303 1744 
Q 3303 934 2909 406 
Q 2516 -122 1688 -122 
Q 997 -122 590 345 
Q 184 813 184 1600 
Q 184 2444 612 2944 
Q 1041 3444 1763 3444 
z
M 1744 3428 
L 1744 3428 
z
" transform="scale(0.015625)"/>
       <path id="Helvetica-77" d="M 672 3347 
L 1316 709 
L 1969 3347 
L 2600 3347 
L 3256 725 
L 3941 3347 
L 4503 3347 
L 3531 0 
L 2947 0 
L 2266 2591 
L 1606 0 
L 1022 0 
L 56 3347 
L 672 3347 
z
" transform="scale(0.015625)"/>
       <path id="Helvetica-20" transform="scale(0.015625)"/>
       <path id="Helvetica-43" d="M 2422 4716 
Q 3294 4716 3775 4256 
Q 4256 3797 4309 3213 
L 3703 3213 
Q 3600 3656 3292 3915 
Q 2984 4175 2428 4175 
Q 1750 4175 1333 3698 
Q 916 3222 916 2238 
Q 916 1431 1292 929 
Q 1669 428 2416 428 
Q 3103 428 3463 956 
Q 3653 1234 3747 1688 
L 4353 1688 
Q 4272 963 3816 472 
Q 3269 -119 2341 -119 
Q 1541 -119 997 366 
Q 281 1006 281 2344 
Q 281 3359 819 4009 
Q 1400 4716 2422 4716 
z
M 2297 4716 
L 2297 4716 
z
" transform="scale(0.015625)"/>
       <path id="Helvetica-6c" d="M 428 4591 
L 991 4591 
L 991 0 
L 428 0 
L 428 4591 
z
" transform="scale(0.015625)"/>
       <path id="Helvetica-74" d="M 525 4281 
L 1094 4281 
L 1094 3347 
L 1628 3347 
L 1628 2888 
L 1094 2888 
L 1094 703 
Q 1094 528 1213 469 
Q 1278 434 1431 434 
Q 1472 434 1519 436 
Q 1566 438 1628 444 
L 1628 0 
Q 1531 -28 1426 -40 
Q 1322 -53 1200 -53 
Q 806 -53 665 148 
Q 525 350 525 672 
L 525 2888 
L 72 2888 
L 72 3347 
L 525 3347 
L 525 4281 
z
" transform="scale(0.015625)"/>
       <path id="Helvetica-79" d="M 2503 3347 
L 3125 3347 
Q 3006 3025 2597 1878 
Q 2291 1016 2084 472 
Q 1597 -809 1397 -1090 
Q 1197 -1372 709 -1372 
Q 591 -1372 527 -1362 
Q 463 -1353 369 -1328 
L 369 -816 
Q 516 -856 581 -865 
Q 647 -875 697 -875 
Q 853 -875 926 -823 
Q 1000 -772 1050 -697 
Q 1066 -672 1162 -440 
Q 1259 -209 1303 -97 
L 66 3347 
L 703 3347 
L 1600 622 
L 2503 3347 
z
M 1597 3428 
L 1597 3428 
z
" transform="scale(0.015625)"/>
       <path id="Helvetica-70" d="M 1825 378 
Q 2219 378 2480 708 
Q 2741 1038 2741 1694 
Q 2741 2094 2625 2381 
Q 2406 2934 1825 2934 
Q 1241 2934 1025 2350 
Q 909 2038 909 1556 
Q 909 1169 1025 897 
Q 1244 378 1825 378 
z
M 369 3331 
L 916 3331 
L 916 2888 
Q 1084 3116 1284 3241 
Q 1569 3428 1953 3428 
Q 2522 3428 2919 2992 
Q 3316 2556 3316 1747 
Q 3316 653 2744 184 
Q 2381 -113 1900 -113 
Q 1522 -113 1266 53 
Q 1116 147 931 375 
L 931 -1334 
L 369 -1334 
L 369 3331 
z
" transform="scale(0.015625)"/>
       <path id="Helvetica-73" d="M 747 1050 
Q 772 769 888 619 
Q 1100 347 1625 347 
Q 1938 347 2175 483 
Q 2413 619 2413 903 
Q 2413 1119 2222 1231 
Q 2100 1300 1741 1391 
L 1294 1503 
Q 866 1609 663 1741 
Q 300 1969 300 2372 
Q 300 2847 642 3140 
Q 984 3434 1563 3434 
Q 2319 3434 2653 2991 
Q 2863 2709 2856 2384 
L 2325 2384 
Q 2309 2575 2191 2731 
Q 1997 2953 1519 2953 
Q 1200 2953 1036 2831 
Q 872 2709 872 2509 
Q 872 2291 1088 2159 
Q 1213 2081 1456 2022 
L 1828 1931 
Q 2434 1784 2641 1647 
Q 2969 1431 2969 969 
Q 2969 522 2630 197 
Q 2291 -128 1597 -128 
Q 850 -128 539 211 
Q 228 550 206 1050 
L 747 1050 
z
M 1578 3428 
L 1578 3428 
z
" transform="scale(0.015625)"/>
      </defs>
      <use xlink:href="#Helvetica-4b"/>
      <use xlink:href="#Helvetica-6e" x="66.699219"/>
      <use xlink:href="#Helvetica-6f" x="122.314453"/>
      <use xlink:href="#Helvetica-77" x="177.929688"/>
      <use xlink:href="#Helvetica-6e" x="250.146484"/>
      <use xlink:href="#Helvetica-20" x="305.761719"/>
      <use xlink:href="#Helvetica-43" x="333.544922"/>
      <use xlink:href="#Helvetica-65" x="405.761719"/>
      <use xlink:href="#Helvetica-6c" x="461.376953"/>
      <use xlink:href="#Helvetica-6c" x="483.59375"/>
      <use xlink:href="#Helvetica-74" x="505.810547"/>
      <use xlink:href="#Helvetica-79" x="533.59375"/>
      <use xlink:href="#Helvetica-70" x="583.59375"/>
      <use xlink:href="#Helvetica-65" x="639.208984"/>
      <use xlink:href="#Helvetica-73" x="694.824219"/>
     </g>
    </g>
    <g id="patch_16">
     <path d="M 394.367813 116.2925 
L 414.367813 116.2925 
L 414.367813 109.2925 
L 394.367813 109.2925 
z
" style="fill: #ff8c00; stroke: #ffffff; stroke-linejoin: miter"/>
    </g>
    <g id="text_7">
     <!-- Unknown Celltypes -->
     <g transform="translate(422.367813 116.2925) scale(0.1 -0.1)">
      <defs>
       <path id="Helvetica-55" d="M 1163 4591 
L 1163 1753 
Q 1163 1253 1350 922 
Q 1628 422 2288 422 
Q 3078 422 3363 963 
Q 3516 1256 3516 1753 
L 3516 4591 
L 4147 4591 
L 4147 2013 
Q 4147 1166 3919 709 
Q 3500 -122 2338 -122 
Q 1175 -122 759 709 
Q 531 1166 531 2013 
L 531 4591 
L 1163 4591 
z
M 2341 4591 
L 2341 4591 
z
" transform="scale(0.015625)"/>
       <path id="Helvetica-6b" d="M 400 4591 
L 941 4591 
L 941 1925 
L 2384 3347 
L 3103 3347 
L 1822 2094 
L 3175 0 
L 2456 0 
L 1413 1688 
L 941 1256 
L 941 0 
L 400 0 
L 400 4591 
z
" transform="scale(0.015625)"/>
      </defs>
      <use xlink:href="#Helvetica-55"/>
      <use xlink:href="#Helvetica-6e" x="72.216797"/>
      <use xlink:href="#Helvetica-6b" x="127.832031"/>
      <use xlink:href="#Helvetica-6e" x="177.832031"/>
      <use xlink:href="#Helvetica-6f" x="233.447266"/>
      <use xlink:href="#Helvetica-77" x="289.0625"/>
      <use xlink:href="#Helvetica-6e" x="361.279297"/>
      <use xlink:href="#Helvetica-20" x="416.894531"/>
      <use xlink:href="#Helvetica-43" x="444.677734"/>
      <use xlink:href="#Helvetica-65" x="516.894531"/>
      <use xlink:href="#Helvetica-6c" x="572.509766"/>
      <use xlink:href="#Helvetica-6c" x="594.726562"/>
      <use xlink:href="#Helvetica-74" x="616.943359"/>
      <use xlink:href="#Helvetica-79" x="644.726562"/>
      <use xlink:href="#Helvetica-70" x="694.726562"/>
      <use xlink:href="#Helvetica-65" x="750.341797"/>
      <use xlink:href="#Helvetica-73" x="805.957031"/>
     </g>
    </g>
    <g id="patch_17">
     <path d="M 394.367813 130.609688 
L 414.367813 130.609688 
L 414.367813 123.609688 
L 394.367813 123.609688 
z
" style="fill: #00ced1; stroke: #ffffff; stroke-linejoin: miter"/>
    </g>
    <g id="text_8">
     <!-- ROI -->
     <g transform="translate(422.367813 130.609688) scale(0.1 -0.1)">
      <defs>
       <path id="Helvetica-52" d="M 2622 2488 
Q 3059 2488 3314 2663 
Q 3569 2838 3569 3294 
Q 3569 3784 3213 3963 
Q 3022 4056 2703 4056 
L 1184 4056 
L 1184 2488 
L 2622 2488 
z
M 563 4591 
L 2688 4591 
Q 3213 4591 3553 4438 
Q 4200 4144 4200 3353 
Q 4200 2941 4029 2678 
Q 3859 2416 3553 2256 
Q 3822 2147 3958 1969 
Q 4094 1791 4109 1391 
L 4131 775 
Q 4141 513 4175 384 
Q 4231 166 4375 103 
L 4375 0 
L 3613 0 
Q 3581 59 3562 153 
Q 3544 247 3531 516 
L 3494 1281 
Q 3472 1731 3159 1884 
Q 2981 1969 2600 1969 
L 1184 1969 
L 1184 0 
L 563 0 
L 563 4591 
z
" transform="scale(0.015625)"/>
       <path id="Helvetica-4f" d="M 2469 4716 
Q 3684 4716 4269 3934 
Q 4725 3325 4725 2375 
Q 4725 1347 4203 666 
Q 3591 -134 2456 -134 
Q 1397 -134 791 566 
Q 250 1241 250 2272 
Q 250 3203 713 3866 
Q 1306 4716 2469 4716 
z
M 2531 422 
Q 3353 422 3720 1011 
Q 4088 1600 4088 2366 
Q 4088 3175 3664 3669 
Q 3241 4163 2506 4163 
Q 1794 4163 1344 3673 
Q 894 3184 894 2231 
Q 894 1469 1280 945 
Q 1666 422 2531 422 
z
M 2488 4716 
L 2488 4716 
z
" transform="scale(0.015625)"/>
      </defs>
      <use xlink:href="#Helvetica-52"/>
      <use xlink:href="#Helvetica-4f" x="72.216797"/>
      <use xlink:href="#Helvetica-49" x="150"/>
     </g>
    </g>
   </g>
  </g>
  <g id="text_9">
   <!-- Cell Type Breakdown by ROI -->
   <g transform="translate(210.639375 20.3625) scale(0.12 -0.12)">
    <defs>
     <path id="Helvetica-54" d="M 3828 4591 
L 3828 4044 
L 2281 4044 
L 2281 0 
L 1650 0 
L 1650 4044 
L 103 4044 
L 103 4591 
L 3828 4591 
z
" transform="scale(0.015625)"/>
     <path id="Helvetica-42" d="M 2213 2650 
Q 2606 2650 2825 2759 
Q 3169 2931 3169 3378 
Q 3169 3828 2803 3984 
Q 2597 4072 2191 4072 
L 1081 4072 
L 1081 2650 
L 2213 2650 
z
M 2422 531 
Q 2994 531 3238 863 
Q 3391 1072 3391 1369 
Q 3391 1869 2944 2050 
Q 2706 2147 2316 2147 
L 1081 2147 
L 1081 531 
L 2422 531 
z
M 472 4591 
L 2444 4591 
Q 3250 4591 3591 4109 
Q 3791 3825 3791 3453 
Q 3791 3019 3544 2741 
Q 3416 2594 3175 2472 
Q 3528 2338 3703 2169 
Q 4013 1869 4013 1341 
Q 4013 897 3734 538 
Q 3319 0 2413 0 
L 472 0 
L 472 4591 
z
" transform="scale(0.015625)"/>
     <path id="Helvetica-72" d="M 428 3347 
L 963 3347 
L 963 2769 
Q 1028 2938 1284 3180 
Q 1541 3422 1875 3422 
Q 1891 3422 1928 3419 
Q 1966 3416 2056 3406 
L 2056 2813 
Q 2006 2822 1964 2825 
Q 1922 2828 1872 2828 
Q 1447 2828 1219 2554 
Q 991 2281 991 1925 
L 991 0 
L 428 0 
L 428 3347 
z
" transform="scale(0.015625)"/>
     <path id="Helvetica-61" d="M 844 891 
Q 844 647 1022 506 
Q 1200 366 1444 366 
Q 1741 366 2019 503 
Q 2488 731 2488 1250 
L 2488 1703 
Q 2384 1638 2221 1594 
Q 2059 1550 1903 1531 
L 1563 1488 
Q 1256 1447 1103 1359 
Q 844 1213 844 891 
z
M 2206 2028 
Q 2400 2053 2466 2191 
Q 2503 2266 2503 2406 
Q 2503 2694 2298 2823 
Q 2094 2953 1713 2953 
Q 1272 2953 1088 2716 
Q 984 2584 953 2325 
L 428 2325 
Q 444 2944 830 3186 
Q 1216 3428 1725 3428 
Q 2316 3428 2684 3203 
Q 3050 2978 3050 2503 
L 3050 575 
Q 3050 488 3086 434 
Q 3122 381 3238 381 
Q 3275 381 3322 386 
Q 3369 391 3422 400 
L 3422 -16 
Q 3291 -53 3222 -62 
Q 3153 -72 3034 -72 
Q 2744 -72 2613 134 
Q 2544 244 2516 444 
Q 2344 219 2022 53 
Q 1700 -113 1313 -113 
Q 847 -113 551 170 
Q 256 453 256 878 
Q 256 1344 547 1600 
Q 838 1856 1309 1916 
L 2206 2028 
z
M 1741 3428 
L 1741 3428 
z
" transform="scale(0.015625)"/>
     <path id="Helvetica-62" d="M 369 4606 
L 916 4606 
L 916 2941 
Q 1100 3181 1356 3307 
Q 1613 3434 1913 3434 
Q 2538 3434 2927 3004 
Q 3316 2575 3316 1738 
Q 3316 944 2931 419 
Q 2547 -106 1866 -106 
Q 1484 -106 1222 78 
Q 1066 188 888 428 
L 888 0 
L 369 0 
L 369 4606 
z
M 1831 391 
Q 2288 391 2514 753 
Q 2741 1116 2741 1709 
Q 2741 2238 2514 2584 
Q 2288 2931 1847 2931 
Q 1463 2931 1173 2647 
Q 884 2363 884 1709 
Q 884 1238 1003 944 
Q 1225 391 1831 391 
z
" transform="scale(0.015625)"/>
    </defs>
    <use xlink:href="#Helvetica-43"/>
    <use xlink:href="#Helvetica-65" x="72.216797"/>
    <use xlink:href="#Helvetica-6c" x="127.832031"/>
    <use xlink:href="#Helvetica-6c" x="150.048828"/>
    <use xlink:href="#Helvetica-20" x="172.265625"/>
    <use xlink:href="#Helvetica-54" x="200.048828"/>
    <use xlink:href="#Helvetica-79" x="261.132812"/>
    <use xlink:href="#Helvetica-70" x="311.132812"/>
    <use xlink:href="#Helvetica-65" x="366.748047"/>
    <use xlink:href="#Helvetica-20" x="422.363281"/>
    <use xlink:href="#Helvetica-42" x="450.146484"/>
    <use xlink:href="#Helvetica-72" x="516.845703"/>
    <use xlink:href="#Helvetica-65" x="550.146484"/>
    <use xlink:href="#Helvetica-61" x="605.761719"/>
    <use xlink:href="#Helvetica-6b" x="661.376953"/>
    <use xlink:href="#Helvetica-64" x="711.376953"/>
    <use xlink:href="#Helvetica-6f" x="766.992188"/>
    <use xlink:href="#Helvetica-77" x="822.607422"/>
    <use xlink:href="#Helvetica-6e" x="894.824219"/>
    <use xlink:href="#Helvetica-20" x="950.439453"/>
    <use xlink:href="#Helvetica-62" x="978.222656"/>
    <use xlink:href="#Helvetica-79" x="1033.837891"/>
    <use xlink:href="#Helvetica-20" x="1083.837891"/>
    <use xlink:href="#Helvetica-52" x="1111.621094"/>
    <use xlink:href="#Helvetica-4f" x="1183.837891"/>
    <use xlink:href="#Helvetica-49" x="1261.621094"/>
   </g>
  </g>
 </g>
</svg>
