<svg version="1.1" xmlns="http://www.w3.org/2000/svg" width="600" height="700"><defs><clipPath id="NZxexrNfZNLr"><path fill="none" stroke="none" d="M 42.5 26.5 L 570.5 26.5 L 570.5 656.5 L 42.5 656.5 L 42.5 26.5 Z"/></clipPath><clipPath id="pmLoyzdArxqs"><path fill="none" stroke="none" d="M 42.5 26.5 L 570.5 26.5 L 570.5 656.5 L 42.5 656.5 L 42.5 26.5 Z"/></clipPath><clipPath id="cKWsUOxhilhB"><path fill="none" stroke="none" d="M 42.5 26.5 L 570.5 26.5 L 570.5 656.5 L 42.5 656.5 L 42.5 26.5 Z"/></clipPath><clipPath id="rlpBeWtvJzAt"><path fill="none" stroke="none" d="M 42.5 26.5 L 570.5 26.5 L 570.5 656.5 L 42.5 656.5 L 42.5 26.5 Z"/></clipPath></defs><path fill="rgb(255,255,255)" stroke="none" paint-order="stroke" d="M 0.5 0.5 L 600.5 0.5 L 600.5 700.5 L 0.5 700.5 L 0.5 0.5 Z" fill-opacity="1"/><rect fill="#FFFFFF" stroke="none" x="42" y="26" width="528" height="630" transform="matrix(1, 0, 0, 1, 0.5, 0.5)"/><path fill="rgb(255,255,255)" stroke="none" paint-order="stroke" d="M 42.5 26.5 L 570.5 26.5 L 570.5 656.5 L 42.5 656.5 L 42.5 26.5 Z" fill-opacity="1"/><path fill="none" stroke="rgb(229,229,229)" paint-order="fill" d="M 42.5 26.5 L 570.5 26.5 L 570.5 656.5 L 42.5 656.5 L 42.5 26.5 Z" stroke-opacity="1" stroke-linejoin="bevel" stroke-miterlimit="10"/><path fill="none" stroke="rgb(229,229,229)" paint-order="fill" d="M 95.5 656.5 L 95.5 26.5 M 200.5 656.5 L 200.5 26.5 M 306.5 656.5 L 306.5 26.5 M 412.5 656.5 L 412.5 26.5" stroke-opacity="1" stroke-linejoin="bevel" stroke-miterlimit="10" clip-path="url(#NZxexrNfZNLr)"/><path fill="none" stroke="rgb(229,229,229)" paint-order="fill" d="M 42.5 604.5 L 570.5 604.5 M 42.5 499.5 L 570.5 499.5 M 42.5 289.5 L 570.5 289.5 M 42.5 184.5 L 570.5 184.5 M 42.5 79.5 L 570.5 79.5" stroke-opacity="1" stroke-linejoin="bevel" stroke-miterlimit="10" clip-path="url(#pmLoyzdArxqs)"/><path fill="rgb(68,119,170)" stroke="rgb(68,119,170)" paint-order="fill" d="M 53.890560150146484 588.9938354492188 L 136.7094383239746 588.9938354492188 L 136.7094383239746 619.0061206817627 L 53.890560150146484 619.0061206817627 L 53.890560150146484 588.9938354492188 Z" fill-opacity="1" clip-path="url(#cKWsUOxhilhB)" stroke-opacity="1" stroke-linejoin="bevel" stroke-miterlimit="10"/><path fill="rgb(34,136,51)" stroke="rgb(34,136,51)" paint-order="fill" d="M 276.0710754394531 591.6597290039062 L 336.92890548706055 591.6597290039062 L 336.92890548706055 616.3403186798096 L 276.0710754394531 616.3403186798096 L 276.0710754394531 591.6597290039062 Z" fill-opacity="1" clip-path="url(#cKWsUOxhilhB)" stroke-opacity="1" stroke-linejoin="bevel" stroke-miterlimit="10"/><path fill="rgb(102,204,238)" stroke="rgb(102,204,238)" paint-order="fill" d="M 473.67291259765625 592.34765625 L 561.7270660400391 592.34765625 L 561.7270660400391 615.6523246765137 L 473.67291259765625 615.6523246765137 L 473.67291259765625 592.34765625 Z" fill-opacity="1" clip-path="url(#cKWsUOxhilhB)" stroke-opacity="1" stroke-linejoin="bevel" stroke-miterlimit="10"/><path fill="rgb(238,102,119)" stroke="rgb(238,102,119)" paint-order="fill" d="M 175.17404174804688 594.153564453125 L 226.62595748901367 594.153564453125 L 226.62595748901367 613.8464393615723 L 175.17404174804688 613.8464393615723 L 175.17404174804688 594.153564453125 Z" fill-opacity="1" clip-path="url(#cKWsUOxhilhB)" stroke-opacity="1" stroke-linejoin="bevel" stroke-miterlimit="10"/><path fill="rgb(204,187,68)" stroke="rgb(204,187,68)" paint-order="fill" d="M 364.3553161621094 600.34521484375 L 459.8446807861328 600.34521484375 L 459.8446807861328 607.654797077179 L 364.3553161621094 607.654797077179 L 364.3553161621094 600.34521484375 Z" fill-opacity="1" clip-path="url(#cKWsUOxhilhB)" stroke-opacity="1" stroke-linejoin="bevel" stroke-miterlimit="10"/><path fill="rgb(68,119,170)" stroke="rgb(68,119,170)" paint-order="fill" d="M 84.73999786376953 482.252685546875 L 105.85999870300293 482.252685546875 L 105.85999870300293 515.7473106384277 L 84.73999786376953 515.7473106384277 L 84.73999786376953 482.252685546875 Z" fill-opacity="1" clip-path="url(#cKWsUOxhilhB)" stroke-opacity="1" stroke-linejoin="bevel" stroke-miterlimit="10"/><path fill="rgb(34,136,51)" stroke="rgb(34,136,51)" paint-order="fill" d="M 306.2879638671875 498.6236572265625 L 306.7120602428913 498.6236572265625 L 306.7120602428913 499.37634539604187 L 306.2879638671875 499.37634539604187 L 306.2879638671875 498.6236572265625 Z" fill-opacity="1" clip-path="url(#cKWsUOxhilhB)" stroke-opacity="1" stroke-linejoin="bevel" stroke-miterlimit="10"/><path fill="rgb(102,204,238)" stroke="rgb(102,204,238)" paint-order="fill" d="M 517.5375366210938 498.81182861328125 L 517.8624596893787 498.81182861328125 L 517.8624596893787 499.18817269802094 L 517.5375366210938 499.18817269802094 L 517.5375366210938 498.81182861328125 Z" fill-opacity="1" clip-path="url(#cKWsUOxhilhB)" stroke-opacity="1" stroke-linejoin="bevel" stroke-miterlimit="10"/><path fill="rgb(238,102,119)" stroke="rgb(238,102,119)" paint-order="fill" d="M 180.67872619628906 465.1290283203125 L 221.12128067016602 465.1290283203125 L 221.12128067016602 532.870964050293 L 180.67872619628906 532.870964050293 L 180.67872619628906 465.1290283203125 Z" fill-opacity="1" clip-path="url(#cKWsUOxhilhB)" stroke-opacity="1" stroke-linejoin="bevel" stroke-miterlimit="10"/><path fill="rgb(204,187,68)" stroke="rgb(204,187,68)" paint-order="fill" d="M 408.1680908203125 497.68280029296875 L 416.03192043304443 497.68280029296875 L 416.03192043304443 500.31720900535583 L 408.1680908203125 500.31720900535583 L 408.1680908203125 497.68280029296875 Z" fill-opacity="1" clip-path="url(#cKWsUOxhilhB)" stroke-opacity="1" stroke-linejoin="bevel" stroke-miterlimit="10"/><path fill="rgb(68,119,170)" stroke="rgb(68,119,170)" paint-order="fill" d="M 94.70674133300781 388.75 L 95.89325821399689 388.75 L 95.89325821399689 399.25 L 94.70674133300781 399.25 L 94.70674133300781 388.75 Z" fill-opacity="1" clip-path="url(#cKWsUOxhilhB)" stroke-opacity="1" stroke-linejoin="bevel" stroke-miterlimit="10"/><path fill="rgb(102,204,238)" stroke="rgb(102,204,238)" paint-order="fill" d="M 517.2125854492188 390.8500061035156 L 518.187354683876 390.8500061035156 L 518.187354683876 397.1500062942505 L 517.2125854492188 397.1500062942505 L 517.2125854492188 390.8500061035156 Z" fill-opacity="1" clip-path="url(#cKWsUOxhilhB)" stroke-opacity="1" stroke-linejoin="bevel" stroke-miterlimit="10"/><path fill="rgb(238,102,119)" stroke="rgb(238,102,119)" paint-order="fill" d="M 196.18170166015625 349.8999938964844 L 205.6182975769043 349.8999938964844 L 205.6182975769043 438.09999084472656 L 196.18170166015625 438.09999084472656 L 196.18170166015625 349.8999938964844 Z" fill-opacity="1" clip-path="url(#cKWsUOxhilhB)" stroke-opacity="1" stroke-linejoin="bevel" stroke-miterlimit="10"/><path fill="rgb(68,119,170)" stroke="rgb(68,119,170)" paint-order="fill" d="M 95.06269836425781 77.125 L 95.53730511665344 77.125 L 95.53730511665344 80.875 L 95.06269836425781 80.875 L 95.06269836425781 77.125 Z" fill-opacity="1" clip-path="url(#cKWsUOxhilhB)" stroke-opacity="1" stroke-linejoin="bevel" stroke-miterlimit="10"/><path fill="rgb(34,136,51)" stroke="rgb(34,136,51)" paint-order="fill" d="M 305.8638610839844 73.375 L 307.13615024089813 73.375 L 307.13615024089813 84.625 L 305.8638610839844 84.625 L 305.8638610839844 73.375 Z" fill-opacity="1" clip-path="url(#cKWsUOxhilhB)" stroke-opacity="1" stroke-linejoin="bevel" stroke-miterlimit="10"/><path fill="rgb(102,204,238)" stroke="rgb(102,204,238)" paint-order="fill" d="M 510.55169677734375 37.75 L 524.8483123779297 37.75 L 524.8483123779297 120.25 L 510.55169677734375 120.25 L 510.55169677734375 37.75 Z" fill-opacity="1" clip-path="url(#cKWsUOxhilhB)" stroke-opacity="1" stroke-linejoin="bevel" stroke-miterlimit="10"/><path fill="rgb(238,102,119)" stroke="rgb(238,102,119)" paint-order="fill" d="M 200.4506378173828 75.25 L 201.3493612408638 75.25 L 201.3493612408638 82.75 L 200.4506378173828 82.75 L 200.4506378173828 75.25 Z" fill-opacity="1" clip-path="url(#cKWsUOxhilhB)" stroke-opacity="1" stroke-linejoin="bevel" stroke-miterlimit="10"/><path fill="rgb(34,136,51)" stroke="rgb(34,136,51)" paint-order="fill" d="M 286.037353515625 239.8131103515625 L 326.96265411376953 239.8131103515625 L 326.96265411376953 338.18689727783203 L 286.037353515625 338.18689727783203 L 286.037353515625 239.8131103515625 Z" fill-opacity="1" clip-path="url(#cKWsUOxhilhB)" stroke-opacity="1" stroke-linejoin="bevel" stroke-miterlimit="10"/><path fill="rgb(238,102,119)" stroke="rgb(238,102,119)" paint-order="fill" d="M 199.4395751953125 285.6868896484375 L 202.36042618751526 285.6868896484375 L 202.36042618751526 292.3131031990051 L 199.4395751953125 292.3131031990051 L 199.4395751953125 285.6868896484375 Z" fill-opacity="1" clip-path="url(#cKWsUOxhilhB)" stroke-opacity="1" stroke-linejoin="bevel" stroke-miterlimit="10"/><path fill="rgb(34,136,51)" stroke="rgb(34,136,51)" paint-order="fill" d="M 305.43975830078125 157.75 L 307.5602402687073 157.75 L 307.5602402687073 210.25 L 305.43975830078125 210.25 L 305.43975830078125 157.75 Z" fill-opacity="1" clip-path="url(#cKWsUOxhilhB)" stroke-opacity="1" stroke-linejoin="bevel" stroke-miterlimit="10"/><path fill="rgb(102,204,238)" stroke="rgb(102,204,238)" paint-order="fill" d="M 516.7252197265625 168.25 L 518.6747581958771 168.25 L 518.6747581958771 199.75 L 516.7252197265625 199.75 L 516.7252197265625 168.25 Z" fill-opacity="1" clip-path="url(#cKWsUOxhilhB)" stroke-opacity="1" stroke-linejoin="bevel" stroke-miterlimit="10"/><path fill="rgb(238,102,119)" stroke="rgb(238,102,119)" paint-order="fill" d="M 200.67532348632812 178.75 L 201.12468519806862 178.75 L 201.12468519806862 189.25 L 200.67532348632812 189.25 L 200.67532348632812 178.75 Z" fill-opacity="1" clip-path="url(#cKWsUOxhilhB)" stroke-opacity="1" stroke-linejoin="bevel" stroke-miterlimit="10"/><path fill="rgb(204,187,68)" stroke="rgb(204,187,68)" paint-order="fill" d="M 410.9765930175781 178.75 L 413.22340154647827 178.75 L 413.22340154647827 189.25 L 410.9765930175781 189.25 L 410.9765930175781 178.75 Z" fill-opacity="1" clip-path="url(#cKWsUOxhilhB)" stroke-opacity="1" stroke-linejoin="bevel" stroke-miterlimit="10"/><path fill="none" stroke="rgb(0,0,0)" paint-order="fill" d="M 42.5 656.5 L 570.5 656.5" stroke-opacity="1" stroke-linejoin="bevel" stroke-miterlimit="10"/><path fill="none" stroke="rgb(0,0,0)" paint-order="fill" d="M 95.5 662.5 L 95.5 654.5 M 200.5 662.5 L 200.5 654.5 M 306.5 662.5 L 306.5 654.5 M 412.5 662.5 L 412.5 654.5 M 517.5 662.5 L 517.5 654.5" stroke-opacity="1" stroke-linejoin="bevel" stroke-miterlimit="10"/><path fill="none" stroke="rgb(0,0,0)" paint-order="fill" d="" stroke-opacity="1" stroke-linejoin="bevel" stroke-miterlimit="10"/><text fill="rgb(68,68,68)" stroke="none" font-family="helvetica" font-size="11px" font-style="normal" font-weight="normal" text-decoration="normal" x="91.74166965484619" y="674.89013671875" text-anchor="start" dominant-baseline="alphabetic" transform="matrix(1, 0, 0, 1, 0.5, 0.5)" fill-opacity="1">1</text><text fill="none" stroke="rgb(0,0,0)" font-family="helvetica" font-size="11px" font-style="normal" font-weight="normal" text-decoration="normal" x="91.74166965484619" y="674.89013671875" text-anchor="start" dominant-baseline="alphabetic" transform="matrix(1, 0, 0, 1, 0.5, 0.5)" stroke-opacity="0" stroke-linejoin="bevel" stroke-miterlimit="10">1</text><text fill="rgb(68,68,68)" stroke="none" font-family="helvetica" font-size="11px" font-style="normal" font-weight="normal" text-decoration="normal" x="197.34166049957275" y="674.89013671875" text-anchor="start" dominant-baseline="alphabetic" transform="matrix(1, 0, 0, 1, 0.5, 0.5)" fill-opacity="1">2</text><text fill="none" stroke="rgb(0,0,0)" font-family="helvetica" font-size="11px" font-style="normal" font-weight="normal" text-decoration="normal" x="197.34166049957275" y="674.89013671875" text-anchor="start" dominant-baseline="alphabetic" transform="matrix(1, 0, 0, 1, 0.5, 0.5)" stroke-opacity="0" stroke-linejoin="bevel" stroke-miterlimit="10">2</text><text fill="rgb(68,68,68)" stroke="none" font-family="helvetica" font-size="11px" font-style="normal" font-weight="normal" text-decoration="normal" x="302.9416666030884" y="674.89013671875" text-anchor="start" dominant-baseline="alphabetic" transform="matrix(1, 0, 0, 1, 0.5, 0.5)" fill-opacity="1">3</text><text fill="none" stroke="rgb(0,0,0)" font-family="helvetica" font-size="11px" font-style="normal" font-weight="normal" text-decoration="normal" x="302.9416666030884" y="674.89013671875" text-anchor="start" dominant-baseline="alphabetic" transform="matrix(1, 0, 0, 1, 0.5, 0.5)" stroke-opacity="0" stroke-linejoin="bevel" stroke-miterlimit="10">3</text><text fill="rgb(68,68,68)" stroke="none" font-family="helvetica" font-size="11px" font-style="normal" font-weight="normal" text-decoration="normal" x="408.541672706604" y="674.89013671875" text-anchor="start" dominant-baseline="alphabetic" transform="matrix(1, 0, 0, 1, 0.5, 0.5)" fill-opacity="1">4</text><text fill="none" stroke="rgb(0,0,0)" font-family="helvetica" font-size="11px" font-style="normal" font-weight="normal" text-decoration="normal" x="408.541672706604" y="674.89013671875" text-anchor="start" dominant-baseline="alphabetic" transform="matrix(1, 0, 0, 1, 0.5, 0.5)" stroke-opacity="0" stroke-linejoin="bevel" stroke-miterlimit="10">4</text><text fill="rgb(68,68,68)" stroke="none" font-family="helvetica" font-size="11px" font-style="normal" font-weight="normal" text-decoration="normal" x="514.1416788101196" y="674.89013671875" text-anchor="start" dominant-baseline="alphabetic" transform="matrix(1, 0, 0, 1, 0.5, 0.5)" fill-opacity="1">5</text><text fill="none" stroke="rgb(0,0,0)" font-family="helvetica" font-size="11px" font-style="normal" font-weight="normal" text-decoration="normal" x="514.1416788101196" y="674.89013671875" text-anchor="start" dominant-baseline="alphabetic" transform="matrix(1, 0, 0, 1, 0.5, 0.5)" stroke-opacity="0" stroke-linejoin="bevel" stroke-miterlimit="10">5</text><text fill="rgb(68,68,68)" stroke="none" font-family="helvetica" font-size="13px" font-style="italic" font-weight="normal" text-decoration="normal" x="246.0083351135254" y="693.89013671875" text-anchor="start" dominant-baseline="alphabetic" transform="matrix(1, 0, 0, 1, 0.5, 0.5)" fill-opacity="1">Module in 0.0_oviHB</text><text fill="none" stroke="rgb(0,0,0)" font-family="helvetica" font-size="13px" font-style="italic" font-weight="normal" text-decoration="normal" x="246.0083351135254" y="693.89013671875" text-anchor="start" dominant-baseline="alphabetic" transform="matrix(1, 0, 0, 1, 0.5, 0.5)" stroke-opacity="0" stroke-linejoin="bevel" stroke-miterlimit="10">Module in 0.0_oviHB</text><path fill="none" stroke="rgb(0,0,0)" paint-order="fill" d="M 42.5 656.5 L 42.5 26.5" stroke-opacity="1" stroke-linejoin="bevel" stroke-miterlimit="10"/><path fill="none" stroke="rgb(0,0,0)" paint-order="fill" d="M 36.5 604.5 L 44.5 604.5 M 36.5 499.5 L 44.5 499.5 M 36.5 394.5 L 44.5 394.5 M 36.5 289.5 L 44.5 289.5 M 36.5 184.5 L 44.5 184.5 M 36.5 79.5 L 44.5 79.5" stroke-opacity="1" stroke-linejoin="bevel" stroke-miterlimit="10"/><path fill="none" stroke="rgb(0,0,0)" paint-order="fill" d="" stroke-opacity="1" stroke-linejoin="bevel" stroke-miterlimit="10"/><text fill="rgb(68,68,68)" stroke="none" font-family="helvetica" font-size="11px" font-style="normal" font-weight="normal" text-decoration="normal" x="24.883333206176758" y="607.445068359375" text-anchor="start" dominant-baseline="alphabetic" transform="matrix(1, 0, 0, 1, 0.5, 0.5)" fill-opacity="1">3</text><text fill="none" stroke="rgb(0,0,0)" font-family="helvetica" font-size="11px" font-style="normal" font-weight="normal" text-decoration="normal" x="24.883333206176758" y="607.445068359375" text-anchor="start" dominant-baseline="alphabetic" transform="matrix(1, 0, 0, 1, 0.5, 0.5)" stroke-opacity="0" stroke-linejoin="bevel" stroke-miterlimit="10">3</text><text fill="rgb(68,68,68)" stroke="none" font-family="helvetica" font-size="11px" font-style="normal" font-weight="normal" text-decoration="normal" x="24.883333206176758" y="502.445068359375" text-anchor="start" dominant-baseline="alphabetic" transform="matrix(1, 0, 0, 1, 0.5, 0.5)" fill-opacity="1">1</text><text fill="none" stroke="rgb(0,0,0)" font-family="helvetica" font-size="11px" font-style="normal" font-weight="normal" text-decoration="normal" x="24.883333206176758" y="502.445068359375" text-anchor="start" dominant-baseline="alphabetic" transform="matrix(1, 0, 0, 1, 0.5, 0.5)" stroke-opacity="0" stroke-linejoin="bevel" stroke-miterlimit="10">1</text><text fill="rgb(68,68,68)" stroke="none" font-family="helvetica" font-size="11px" font-style="normal" font-weight="normal" text-decoration="normal" x="24.883333206176758" y="397.445068359375" text-anchor="start" dominant-baseline="alphabetic" transform="matrix(1, 0, 0, 1, 0.5, 0.5)" fill-opacity="1">6</text><text fill="none" stroke="rgb(0,0,0)" font-family="helvetica" font-size="11px" font-style="normal" font-weight="normal" text-decoration="normal" x="24.883333206176758" y="397.445068359375" text-anchor="start" dominant-baseline="alphabetic" transform="matrix(1, 0, 0, 1, 0.5, 0.5)" stroke-opacity="0" stroke-linejoin="bevel" stroke-miterlimit="10">6</text><text fill="rgb(68,68,68)" stroke="none" font-family="helvetica" font-size="11px" font-style="normal" font-weight="normal" text-decoration="normal" x="24.883333206176758" y="292.445068359375" text-anchor="start" dominant-baseline="alphabetic" transform="matrix(1, 0, 0, 1, 0.5, 0.5)" fill-opacity="1">2</text><text fill="none" stroke="rgb(0,0,0)" font-family="helvetica" font-size="11px" font-style="normal" font-weight="normal" text-decoration="normal" x="24.883333206176758" y="292.445068359375" text-anchor="start" dominant-baseline="alphabetic" transform="matrix(1, 0, 0, 1, 0.5, 0.5)" stroke-opacity="0" stroke-linejoin="bevel" stroke-miterlimit="10">2</text><text fill="rgb(68,68,68)" stroke="none" font-family="helvetica" font-size="11px" font-style="normal" font-weight="normal" text-decoration="normal" x="24.883333206176758" y="187.445068359375" text-anchor="start" dominant-baseline="alphabetic" transform="matrix(1, 0, 0, 1, 0.5, 0.5)" fill-opacity="1">5</text><text fill="none" stroke="rgb(0,0,0)" font-family="helvetica" font-size="11px" font-style="normal" font-weight="normal" text-decoration="normal" x="24.883333206176758" y="187.445068359375" text-anchor="start" dominant-baseline="alphabetic" transform="matrix(1, 0, 0, 1, 0.5, 0.5)" stroke-opacity="0" stroke-linejoin="bevel" stroke-miterlimit="10">5</text><text fill="rgb(68,68,68)" stroke="none" font-family="helvetica" font-size="11px" font-style="normal" font-weight="normal" text-decoration="normal" x="24.883333206176758" y="82.445068359375" text-anchor="start" dominant-baseline="alphabetic" transform="matrix(1, 0, 0, 1, 0.5, 0.5)" fill-opacity="1">4</text><text fill="none" stroke="rgb(0,0,0)" font-family="helvetica" font-size="11px" font-style="normal" font-weight="normal" text-decoration="normal" x="24.883333206176758" y="82.445068359375" text-anchor="start" dominant-baseline="alphabetic" transform="matrix(1, 0, 0, 1, 0.5, 0.5)" stroke-opacity="0" stroke-linejoin="bevel" stroke-miterlimit="10">4</text><text fill="rgb(68,68,68)" stroke="none" font-family="helvetica" font-size="13px" font-style="italic" font-weight="normal" text-decoration="normal" x="-51.7833309173584" y="338" text-anchor="start" dominant-baseline="alphabetic" transform="matrix(6.123233995736766e-17, -1, 1, 6.123233995736766e-17, -323.61666679382324, 358.38333320617676)" fill-opacity="1">Module in 0.0_wholeHB</text><text fill="none" stroke="rgb(0,0,0)" font-family="helvetica" font-size="13px" font-style="italic" font-weight="normal" text-decoration="normal" x="-51.7833309173584" y="338" text-anchor="start" dominant-baseline="alphabetic" transform="matrix(6.123233995736766e-17, -1, 1, 6.123233995736766e-17, -323.61666679382324, 358.38333320617676)" stroke-opacity="0" stroke-linejoin="bevel" stroke-miterlimit="10">Module in 0.0_wholeHB</text><text fill="rgb(68,68,68)" stroke="none" font-family="helvetica" font-size="13px" font-style="normal" font-weight="bold" text-decoration="normal" x="42" y="18" text-anchor="start" dominant-baseline="alphabetic" transform="matrix(1, 0, 0, 1, 0.5, 0.5)" fill-opacity="1">Module at chi2 = 0.0_wholeHB vs. module at chi1 = 0.0_oviHB</text><text fill="none" stroke="rgb(0,0,0)" font-family="helvetica" font-size="13px" font-style="normal" font-weight="bold" text-decoration="normal" x="42" y="18" text-anchor="start" dominant-baseline="alphabetic" transform="matrix(1, 0, 0, 1, 0.5, 0.5)" stroke-opacity="0" stroke-miterlimit="10" stroke-dasharray="">Module at chi2 = 0.0_wholeHB vs. module at chi1 = 0.0_oviHB</text></svg>