<?xml version="1.0" encoding="utf-8" standalone="no"?>
<!DOCTYPE svg PUBLIC "-//W3C//DTD SVG 1.1//EN"
  "http://www.w3.org/Graphics/SVG/1.1/DTD/svg11.dtd">
<svg xmlns:xlink="http://www.w3.org/1999/xlink" width="1080pt" height="720pt" viewBox="0 0 1080 720" xmlns="http://www.w3.org/2000/svg" version="1.1">
 <metadata>
  <rdf:RDF xmlns:dc="http://purl.org/dc/elements/1.1/" xmlns:cc="http://creativecommons.org/ns#" xmlns:rdf="http://www.w3.org/1999/02/22-rdf-syntax-ns#">
   <cc:Work>
    <dc:type rdf:resource="http://purl.org/dc/dcmitype/StillImage"/>
    <dc:date>2024-08-20T16:00:25.606934</dc:date>
    <dc:format>image/svg+xml</dc:format>
    <dc:creator>
     <cc:Agent>
      <dc:title>Matplotlib v3.8.4, https://matplotlib.org/</dc:title>
     </cc:Agent>
    </dc:creator>
   </cc:Work>
  </rdf:RDF>
 </metadata>
 <defs>
  <style type="text/css">*{stroke-linejoin: round; stroke-linecap: butt}</style>
 </defs>
 <g id="figure_1">
  <g id="patch_1">
   <path d="M 0 720 
L 1080 720 
L 1080 0 
L 0 0 
z
" style="fill: #ffffff"/>
  </g>
  <g id="axes_1">
   <g id="patch_2">
    <path d="M 351.635294 212.4 
C 351.635294 195.074848 346.822301 178.08559 337.735293 163.334753 
C 328.648285 148.583917 315.639615 136.64347 300.166045 128.850553 
C 284.692476 121.057636 267.354002 117.714422 250.092255 119.195298 
C 232.830508 120.676174 216.31482 126.923718 202.394683 137.238305 
C 188.474547 147.552892 177.689721 161.534569 171.247935 177.617613 
C 164.806149 193.700656 162.957185 211.261439 165.908097 228.333435 
C 168.85901 245.40543 176.495376 261.326663 187.962045 274.314212 
C 199.428713 287.30176 214.28106 296.852025 230.855859 301.89553 
L 258.088235 212.4 
z
" style="fill: #6495ed"/>
   </g>
   <g id="patch_3">
    <path d="M 230.855859 301.89553 
C 249.156871 307.4643 268.732992 307.287721 286.930572 301.389729 
C 305.128152 295.491737 321.086018 284.151445 332.640993 268.906093 
L 258.088235 212.4 
z
" style="fill: #008000"/>
   </g>
   <g id="patch_4">
    <path d="M 332.640993 268.906093 
C 335.782156 264.76172 338.572278 260.362629 340.98235 255.754561 
C 343.392421 251.146494 345.41406 246.345476 347.026243 241.40143 
L 258.088235 212.4 
z
" style="fill: #ffa500"/>
   </g>
   <g id="patch_5">
    <path d="M 347.026243 241.40143 
C 348.035051 238.307742 348.881753 235.163524 349.562894 231.981599 
C 350.244035 228.799674 350.758689 225.584375 351.104757 222.348817 
L 258.088235 212.4 
z
" style="fill: #b22222"/>
   </g>
   <g id="patch_6">
    <path d="M 351.104757 222.348817 
C 351.194793 221.507023 351.273398 220.664045 351.340549 219.820117 
C 351.407701 218.976189 351.463393 218.131388 351.507611 217.285948 
L 258.088235 212.4 
z
" style="fill: #8a2be2"/>
   </g>
   <g id="patch_7">
    <path d="M 351.507611 217.285948 
C 351.533293 216.794911 351.555103 216.303679 351.573039 215.812297 
C 351.590975 215.320916 351.605036 214.829401 351.615222 214.337798 
L 258.088235 212.4 
z
" style="fill: #bc8f8f"/>
   </g>
   <g id="patch_8">
    <path d="M 351.615222 214.337798 
C 351.621912 214.014872 351.62693 213.691914 351.630276 213.368937 
C 351.633621 213.045959 351.635294 212.722967 351.635294 212.399972 
L 258.088235 212.4 
z
" style="fill: #000080"/>
   </g>
   <g id="matplotlib.axis_1"/>
   <g id="matplotlib.axis_2"/>
   <g id="text_1">
    <!-- SNP -->
    <g transform="translate(165.050328 134.137135) scale(0.16 -0.16)">
     <defs>
      <path id="DejaVuSans-53" d="M 3425 4513 
L 3425 3897 
Q 3066 4069 2747 4153 
Q 2428 4238 2131 4238 
Q 1616 4238 1336 4038 
Q 1056 3838 1056 3469 
Q 1056 3159 1242 3001 
Q 1428 2844 1947 2747 
L 2328 2669 
Q 3034 2534 3370 2195 
Q 3706 1856 3706 1288 
Q 3706 609 3251 259 
Q 2797 -91 1919 -91 
Q 1588 -91 1214 -16 
Q 841 59 441 206 
L 441 856 
Q 825 641 1194 531 
Q 1563 422 1919 422 
Q 2459 422 2753 634 
Q 3047 847 3047 1241 
Q 3047 1584 2836 1778 
Q 2625 1972 2144 2069 
L 1759 2144 
Q 1053 2284 737 2584 
Q 422 2884 422 3419 
Q 422 4038 858 4394 
Q 1294 4750 2059 4750 
Q 2388 4750 2728 4690 
Q 3069 4631 3425 4513 
z
" transform="scale(0.015625)"/>
      <path id="DejaVuSans-4e" d="M 628 4666 
L 1478 4666 
L 3547 763 
L 3547 4666 
L 4159 4666 
L 4159 0 
L 3309 0 
L 1241 3903 
L 1241 0 
L 628 0 
L 628 4666 
z
" transform="scale(0.015625)"/>
      <path id="DejaVuSans-50" d="M 1259 4147 
L 1259 2394 
L 2053 2394 
Q 2494 2394 2734 2622 
Q 2975 2850 2975 3272 
Q 2975 3691 2734 3919 
Q 2494 4147 2053 4147 
L 1259 4147 
z
M 628 4666 
L 2053 4666 
Q 2838 4666 3239 4311 
Q 3641 3956 3641 3272 
Q 3641 2581 3239 2228 
Q 2838 1875 2053 1875 
L 1259 1875 
L 1259 0 
L 628 0 
L 628 4666 
z
" transform="scale(0.015625)"/>
     </defs>
     <use xlink:href="#DejaVuSans-53"/>
     <use xlink:href="#DejaVuSans-4e" x="63.476562"/>
     <use xlink:href="#DejaVuSans-50" x="138.28125"/>
    </g>
   </g>
   <g id="text_2">
    <!-- 70.3% -->
    <g transform="translate(199.258354 171.717983) scale(0.16 -0.16)">
     <defs>
      <path id="DejaVuSans-37" d="M 525 4666 
L 3525 4666 
L 3525 4397 
L 1831 0 
L 1172 0 
L 2766 4134 
L 525 4134 
L 525 4666 
z
" transform="scale(0.015625)"/>
      <path id="DejaVuSans-30" d="M 2034 4250 
Q 1547 4250 1301 3770 
Q 1056 3291 1056 2328 
Q 1056 1369 1301 889 
Q 1547 409 2034 409 
Q 2525 409 2770 889 
Q 3016 1369 3016 2328 
Q 3016 3291 2770 3770 
Q 2525 4250 2034 4250 
z
M 2034 4750 
Q 2819 4750 3233 4129 
Q 3647 3509 3647 2328 
Q 3647 1150 3233 529 
Q 2819 -91 2034 -91 
Q 1250 -91 836 529 
Q 422 1150 422 2328 
Q 422 3509 836 4129 
Q 1250 4750 2034 4750 
z
" transform="scale(0.015625)"/>
      <path id="DejaVuSans-2e" d="M 684 794 
L 1344 794 
L 1344 0 
L 684 0 
L 684 794 
z
" transform="scale(0.015625)"/>
      <path id="DejaVuSans-33" d="M 2597 2516 
Q 3050 2419 3304 2112 
Q 3559 1806 3559 1356 
Q 3559 666 3084 287 
Q 2609 -91 1734 -91 
Q 1441 -91 1130 -33 
Q 819 25 488 141 
L 488 750 
Q 750 597 1062 519 
Q 1375 441 1716 441 
Q 2309 441 2620 675 
Q 2931 909 2931 1356 
Q 2931 1769 2642 2001 
Q 2353 2234 1838 2234 
L 1294 2234 
L 1294 2753 
L 1863 2753 
Q 2328 2753 2575 2939 
Q 2822 3125 2822 3475 
Q 2822 3834 2567 4026 
Q 2313 4219 1838 4219 
Q 1578 4219 1281 4162 
Q 984 4106 628 3988 
L 628 4550 
Q 988 4650 1302 4700 
Q 1616 4750 1894 4750 
Q 2613 4750 3031 4423 
Q 3450 4097 3450 3541 
Q 3450 3153 3228 2886 
Q 3006 2619 2597 2516 
z
" transform="scale(0.015625)"/>
      <path id="DejaVuSans-25" d="M 4653 2053 
Q 4381 2053 4226 1822 
Q 4072 1591 4072 1178 
Q 4072 772 4226 539 
Q 4381 306 4653 306 
Q 4919 306 5073 539 
Q 5228 772 5228 1178 
Q 5228 1588 5073 1820 
Q 4919 2053 4653 2053 
z
M 4653 2450 
Q 5147 2450 5437 2106 
Q 5728 1763 5728 1178 
Q 5728 594 5436 251 
Q 5144 -91 4653 -91 
Q 4153 -91 3862 251 
Q 3572 594 3572 1178 
Q 3572 1766 3864 2108 
Q 4156 2450 4653 2450 
z
M 1428 4353 
Q 1159 4353 1004 4120 
Q 850 3888 850 3481 
Q 850 3069 1003 2837 
Q 1156 2606 1428 2606 
Q 1700 2606 1854 2837 
Q 2009 3069 2009 3481 
Q 2009 3884 1853 4118 
Q 1697 4353 1428 4353 
z
M 4250 4750 
L 4750 4750 
L 1831 -91 
L 1331 -91 
L 4250 4750 
z
M 1428 4750 
Q 1922 4750 2215 4408 
Q 2509 4066 2509 3481 
Q 2509 2891 2217 2550 
Q 1925 2209 1428 2209 
Q 931 2209 642 2551 
Q 353 2894 353 3481 
Q 353 4063 643 4406 
Q 934 4750 1428 4750 
z
" transform="scale(0.015625)"/>
     </defs>
     <use xlink:href="#DejaVuSans-37"/>
     <use xlink:href="#DejaVuSans-30" x="63.623047"/>
     <use xlink:href="#DejaVuSans-2e" x="127.246094"/>
     <use xlink:href="#DejaVuSans-33" x="159.033203"/>
     <use xlink:href="#DejaVuSans-25" x="222.65625"/>
    </g>
   </g>
   <g id="text_3">
    <!-- INP -->
    <g transform="translate(289.814805 314.703702) scale(0.16 -0.16)">
     <defs>
      <path id="DejaVuSans-49" d="M 628 4666 
L 1259 4666 
L 1259 0 
L 628 0 
L 628 4666 
z
" transform="scale(0.015625)"/>
     </defs>
     <use xlink:href="#DejaVuSans-49"/>
     <use xlink:href="#DejaVuSans-4e" x="29.492188"/>
     <use xlink:href="#DejaVuSans-50" x="104.296875"/>
    </g>
   </g>
   <g id="text_4">
    <!-- 19.4% -->
    <g transform="translate(249.979887 270.208837) scale(0.16 -0.16)">
     <defs>
      <path id="DejaVuSans-31" d="M 794 531 
L 1825 531 
L 1825 4091 
L 703 3866 
L 703 4441 
L 1819 4666 
L 2450 4666 
L 2450 531 
L 3481 531 
L 3481 0 
L 794 0 
L 794 531 
z
" transform="scale(0.015625)"/>
      <path id="DejaVuSans-39" d="M 703 97 
L 703 672 
Q 941 559 1184 500 
Q 1428 441 1663 441 
Q 2288 441 2617 861 
Q 2947 1281 2994 2138 
Q 2813 1869 2534 1725 
Q 2256 1581 1919 1581 
Q 1219 1581 811 2004 
Q 403 2428 403 3163 
Q 403 3881 828 4315 
Q 1253 4750 1959 4750 
Q 2769 4750 3195 4129 
Q 3622 3509 3622 2328 
Q 3622 1225 3098 567 
Q 2575 -91 1691 -91 
Q 1453 -91 1209 -44 
Q 966 3 703 97 
z
M 1959 2075 
Q 2384 2075 2632 2365 
Q 2881 2656 2881 3163 
Q 2881 3666 2632 3958 
Q 2384 4250 1959 4250 
Q 1534 4250 1286 3958 
Q 1038 3666 1038 3163 
Q 1038 2656 1286 2365 
Q 1534 2075 1959 2075 
z
" transform="scale(0.015625)"/>
      <path id="DejaVuSans-34" d="M 2419 4116 
L 825 1625 
L 2419 1625 
L 2419 4116 
z
M 2253 4666 
L 3047 4666 
L 3047 1625 
L 3713 1625 
L 3713 1100 
L 3047 1100 
L 3047 0 
L 2419 0 
L 2419 1100 
L 313 1100 
L 313 1709 
L 2253 4666 
z
" transform="scale(0.015625)"/>
     </defs>
     <use xlink:href="#DejaVuSans-31"/>
     <use xlink:href="#DejaVuSans-39" x="63.623047"/>
     <use xlink:href="#DejaVuSans-2e" x="127.246094"/>
     <use xlink:href="#DejaVuSans-34" x="159.033203"/>
     <use xlink:href="#DejaVuSans-25" x="222.65625"/>
    </g>
   </g>
   <g id="text_5">
    <!-- VLNP -->
    <g transform="translate(349.271761 264.505017) scale(0.16 -0.16)">
     <defs>
      <path id="DejaVuSans-56" d="M 1831 0 
L 50 4666 
L 709 4666 
L 2188 738 
L 3669 4666 
L 4325 4666 
L 2547 0 
L 1831 0 
z
" transform="scale(0.015625)"/>
      <path id="DejaVuSans-4c" d="M 628 4666 
L 1259 4666 
L 1259 531 
L 3531 531 
L 3531 0 
L 628 0 
L 628 4666 
z
" transform="scale(0.015625)"/>
     </defs>
     <use xlink:href="#DejaVuSans-56"/>
     <use xlink:href="#DejaVuSans-4c" x="68.408203"/>
     <use xlink:href="#DejaVuSans-4e" x="124.121094"/>
     <use xlink:href="#DejaVuSans-50" x="198.925781"/>
    </g>
   </g>
   <g id="text_6">
    <!-- 5.3% -->
    <g transform="translate(287.500954 242.827737) scale(0.16 -0.16)">
     <defs>
      <path id="DejaVuSans-35" d="M 691 4666 
L 3169 4666 
L 3169 4134 
L 1269 4134 
L 1269 2991 
Q 1406 3038 1543 3061 
Q 1681 3084 1819 3084 
Q 2600 3084 3056 2656 
Q 3513 2228 3513 1497 
Q 3513 744 3044 326 
Q 2575 -91 1722 -91 
Q 1428 -91 1123 -41 
Q 819 9 494 109 
L 494 744 
Q 775 591 1075 516 
Q 1375 441 1709 441 
Q 2250 441 2565 725 
Q 2881 1009 2881 1497 
Q 2881 1984 2565 2268 
Q 2250 2553 1709 2553 
Q 1456 2553 1204 2497 
Q 953 2441 691 2322 
L 691 4666 
z
" transform="scale(0.015625)"/>
     </defs>
     <use xlink:href="#DejaVuSans-35"/>
     <use xlink:href="#DejaVuSans-2e" x="63.623047"/>
     <use xlink:href="#DejaVuSans-33" x="95.410156"/>
     <use xlink:href="#DejaVuSans-25" x="159.033203"/>
    </g>
   </g>
   <g id="text_7">
    <!-- VMNP -->
    <g transform="translate(358.71036 238.354759) scale(0.16 -0.16)">
     <defs>
      <path id="DejaVuSans-4d" d="M 628 4666 
L 1569 4666 
L 2759 1491 
L 3956 4666 
L 4897 4666 
L 4897 0 
L 4281 0 
L 4281 4097 
L 3078 897 
L 2444 897 
L 1241 4097 
L 1241 0 
L 628 0 
L 628 4666 
z
" transform="scale(0.015625)"/>
     </defs>
     <use xlink:href="#DejaVuSans-56"/>
     <use xlink:href="#DejaVuSans-4d" x="68.408203"/>
     <use xlink:href="#DejaVuSans-4e" x="154.6875"/>
     <use xlink:href="#DejaVuSans-50" x="229.492188"/>
    </g>
   </g>
   <g id="text_8">
    <!-- 3.3% -->
    <g transform="translate(292.649281 228.563959) scale(0.16 -0.16)">
     <use xlink:href="#DejaVuSans-33"/>
     <use xlink:href="#DejaVuSans-2e" x="63.623047"/>
     <use xlink:href="#DejaVuSans-33" x="95.410156"/>
     <use xlink:href="#DejaVuSans-25" x="159.033203"/>
    </g>
   </g>
   <g id="text_9">
    <!-- Module 1 -->
    <g transform="translate(216.774017 83.311765) scale(0.18 -0.18)">
     <defs>
      <path id="DejaVuSans-6f" d="M 1959 3097 
Q 1497 3097 1228 2736 
Q 959 2375 959 1747 
Q 959 1119 1226 758 
Q 1494 397 1959 397 
Q 2419 397 2687 759 
Q 2956 1122 2956 1747 
Q 2956 2369 2687 2733 
Q 2419 3097 1959 3097 
z
M 1959 3584 
Q 2709 3584 3137 3096 
Q 3566 2609 3566 1747 
Q 3566 888 3137 398 
Q 2709 -91 1959 -91 
Q 1206 -91 779 398 
Q 353 888 353 1747 
Q 353 2609 779 3096 
Q 1206 3584 1959 3584 
z
" transform="scale(0.015625)"/>
      <path id="DejaVuSans-64" d="M 2906 2969 
L 2906 4863 
L 3481 4863 
L 3481 0 
L 2906 0 
L 2906 525 
Q 2725 213 2448 61 
Q 2172 -91 1784 -91 
Q 1150 -91 751 415 
Q 353 922 353 1747 
Q 353 2572 751 3078 
Q 1150 3584 1784 3584 
Q 2172 3584 2448 3432 
Q 2725 3281 2906 2969 
z
M 947 1747 
Q 947 1113 1208 752 
Q 1469 391 1925 391 
Q 2381 391 2643 752 
Q 2906 1113 2906 1747 
Q 2906 2381 2643 2742 
Q 2381 3103 1925 3103 
Q 1469 3103 1208 2742 
Q 947 2381 947 1747 
z
" transform="scale(0.015625)"/>
      <path id="DejaVuSans-75" d="M 544 1381 
L 544 3500 
L 1119 3500 
L 1119 1403 
Q 1119 906 1312 657 
Q 1506 409 1894 409 
Q 2359 409 2629 706 
Q 2900 1003 2900 1516 
L 2900 3500 
L 3475 3500 
L 3475 0 
L 2900 0 
L 2900 538 
Q 2691 219 2414 64 
Q 2138 -91 1772 -91 
Q 1169 -91 856 284 
Q 544 659 544 1381 
z
M 1991 3584 
L 1991 3584 
z
" transform="scale(0.015625)"/>
      <path id="DejaVuSans-6c" d="M 603 4863 
L 1178 4863 
L 1178 0 
L 603 0 
L 603 4863 
z
" transform="scale(0.015625)"/>
      <path id="DejaVuSans-65" d="M 3597 1894 
L 3597 1613 
L 953 1613 
Q 991 1019 1311 708 
Q 1631 397 2203 397 
Q 2534 397 2845 478 
Q 3156 559 3463 722 
L 3463 178 
Q 3153 47 2828 -22 
Q 2503 -91 2169 -91 
Q 1331 -91 842 396 
Q 353 884 353 1716 
Q 353 2575 817 3079 
Q 1281 3584 2069 3584 
Q 2775 3584 3186 3129 
Q 3597 2675 3597 1894 
z
M 3022 2063 
Q 3016 2534 2758 2815 
Q 2500 3097 2075 3097 
Q 1594 3097 1305 2825 
Q 1016 2553 972 2059 
L 3022 2063 
z
" transform="scale(0.015625)"/>
      <path id="DejaVuSans-20" transform="scale(0.015625)"/>
     </defs>
     <use xlink:href="#DejaVuSans-4d"/>
     <use xlink:href="#DejaVuSans-6f" x="86.279297"/>
     <use xlink:href="#DejaVuSans-64" x="147.460938"/>
     <use xlink:href="#DejaVuSans-75" x="210.9375"/>
     <use xlink:href="#DejaVuSans-6c" x="274.316406"/>
     <use xlink:href="#DejaVuSans-65" x="302.099609"/>
     <use xlink:href="#DejaVuSans-20" x="363.623047"/>
     <use xlink:href="#DejaVuSans-31" x="395.410156"/>
    </g>
   </g>
   <g id="text_10">
    <!-- a. -->
    <g transform="translate(135 83.311765) scale(0.16 -0.16)">
     <defs>
      <path id="DejaVuSans-Bold-61" d="M 2106 1575 
Q 1756 1575 1579 1456 
Q 1403 1338 1403 1106 
Q 1403 894 1545 773 
Q 1688 653 1941 653 
Q 2256 653 2472 879 
Q 2688 1106 2688 1447 
L 2688 1575 
L 2106 1575 
z
M 3816 1997 
L 3816 0 
L 2688 0 
L 2688 519 
Q 2463 200 2181 54 
Q 1900 -91 1497 -91 
Q 953 -91 614 226 
Q 275 544 275 1050 
Q 275 1666 698 1953 
Q 1122 2241 2028 2241 
L 2688 2241 
L 2688 2328 
Q 2688 2594 2478 2717 
Q 2269 2841 1825 2841 
Q 1466 2841 1156 2769 
Q 847 2697 581 2553 
L 581 3406 
Q 941 3494 1303 3539 
Q 1666 3584 2028 3584 
Q 2975 3584 3395 3211 
Q 3816 2838 3816 1997 
z
" transform="scale(0.015625)"/>
      <path id="DejaVuSans-Bold-2e" d="M 653 1209 
L 1778 1209 
L 1778 0 
L 653 0 
L 653 1209 
z
" transform="scale(0.015625)"/>
     </defs>
     <use xlink:href="#DejaVuSans-Bold-61"/>
     <use xlink:href="#DejaVuSans-Bold-2e" x="67.480469"/>
    </g>
   </g>
  </g>
  <g id="axes_2">
   <g id="patch_9">
    <path d="M 647.047059 212.4 
C 647.047059 197.019489 643.253886 181.873743 636.004639 168.308768 
C 628.755393 154.743793 618.271376 143.173696 605.484304 134.626712 
C 592.697233 126.079728 577.997467 120.816778 562.691376 119.305581 
C 547.385286 117.794384 531.94013 120.081073 517.728523 125.962429 
L 553.5 212.4 
z
" style="fill: #b22222"/>
   </g>
   <g id="patch_10">
    <path d="M 517.728523 125.962429 
C 496.183045 134.878848 478.731015 151.536536 468.821311 172.643594 
C 458.911607 193.750652 457.243048 217.818636 464.145378 240.09122 
L 553.5 212.4 
z
" style="fill: #008000"/>
   </g>
   <g id="patch_11">
    <path d="M 464.145378 240.09122 
C 469.715054 258.063572 480.579564 273.944203 495.312268 285.647799 
C 510.044973 297.351395 527.971495 304.342234 546.737871 305.702336 
L 553.5 212.4 
z
" style="fill: #8a2be2"/>
   </g>
   <g id="patch_12">
    <path d="M 546.737871 305.702336 
C 562.505016 306.845067 578.307522 303.972636 592.663938 297.35433 
C 607.020355 290.736023 619.467582 280.585328 628.838718 267.853852 
L 553.5 212.4 
z
" style="fill: #6495ed"/>
   </g>
   <g id="patch_13">
    <path d="M 628.838718 267.853852 
C 632.405615 263.007923 635.496657 257.829134 638.068858 252.389505 
C 640.641058 246.949876 642.682438 241.274741 644.164609 235.443022 
L 553.5 212.4 
z
" style="fill: #ffa500"/>
   </g>
   <g id="patch_14">
    <path d="M 644.164609 235.443022 
C 644.507051 234.095657 644.819415 232.740827 645.10147 231.379539 
C 645.383524 230.018252 645.635199 228.650847 645.856305 227.278342 
L 553.5 212.4 
z
" style="fill: #da70d6"/>
   </g>
   <g id="patch_15">
    <path d="M 645.856305 227.278342 
C 646.034849 226.170046 646.193428 225.058625 646.331966 223.94462 
C 646.470504 222.830616 646.588979 221.714208 646.687332 220.595939 
L 553.5 212.4 
z
" style="fill: #fa8072"/>
   </g>
   <g id="patch_16">
    <path d="M 646.687332 220.595939 
C 646.715943 220.270631 646.742851 219.945175 646.768054 219.619585 
C 646.793256 219.293995 646.816754 218.968276 646.838546 218.64244 
L 553.5 212.4 
z
" style="fill: #bc8f8f"/>
   </g>
   <g id="patch_17">
    <path d="M 646.838546 218.64244 
C 646.857503 218.35899 646.875169 218.075456 646.891543 217.791845 
C 646.907916 217.508235 646.922998 217.224552 646.936788 216.940804 
L 553.5 212.4 
z
"/>
   </g>
   <g id="patch_18">
    <path d="M 646.936788 216.940804 
C 646.948766 216.694335 646.959768 216.447821 646.969795 216.201265 
C 646.979822 215.95471 646.988874 215.708115 646.996949 215.461488 
L 553.5 212.4 
z
" style="fill: #000080"/>
   </g>
   <g id="patch_19">
    <path d="M 646.996949 215.461488 
C 647.003541 215.260161 647.009484 215.058813 647.014775 214.857447 
C 647.020067 214.656081 647.024708 214.454699 647.028699 214.253303 
L 553.5 212.4 
z
"/>
   </g>
   <g id="patch_20">
    <path d="M 647.028699 214.253303 
C 647.031824 214.095564 647.034551 213.937817 647.036879 213.780063 
C 647.039206 213.62231 647.041134 213.464551 647.042664 213.306788 
L 553.5 212.4 
z
" style="fill: #008080"/>
   </g>
   <g id="patch_21">
    <path d="M 647.042664 213.306788 
C 647.044129 213.15567 647.045227 213.004549 647.04596 212.853426 
C 647.046692 212.702302 647.047059 212.551177 647.047059 212.400052 
L 553.5 212.4 
z
" style="fill: #808080"/>
   </g>
   <g id="matplotlib.axis_3"/>
   <g id="matplotlib.axis_4"/>
   <g id="text_11">
    <!-- VMNP -->
    <g transform="translate(610.682735 131.264383) scale(0.16 -0.16)">
     <use xlink:href="#DejaVuSans-56"/>
     <use xlink:href="#DejaVuSans-4d" x="68.408203"/>
     <use xlink:href="#DejaVuSans-4e" x="154.6875"/>
     <use xlink:href="#DejaVuSans-50" x="229.492188"/>
    </g>
   </g>
   <g id="text_12">
    <!-- 31.2% -->
    <g transform="translate(559.276833 170.151027) scale(0.16 -0.16)">
     <defs>
      <path id="DejaVuSans-32" d="M 1228 531 
L 3431 531 
L 3431 0 
L 469 0 
L 469 531 
Q 828 903 1448 1529 
Q 2069 2156 2228 2338 
Q 2531 2678 2651 2914 
Q 2772 3150 2772 3378 
Q 2772 3750 2511 3984 
Q 2250 4219 1831 4219 
Q 1534 4219 1204 4116 
Q 875 4013 500 3803 
L 500 4441 
Q 881 4594 1212 4672 
Q 1544 4750 1819 4750 
Q 2544 4750 2975 4387 
Q 3406 4025 3406 3419 
Q 3406 3131 3298 2873 
Q 3191 2616 2906 2266 
Q 2828 2175 2409 1742 
Q 1991 1309 1228 531 
z
" transform="scale(0.015625)"/>
     </defs>
     <use xlink:href="#DejaVuSans-33"/>
     <use xlink:href="#DejaVuSans-31" x="63.623047"/>
     <use xlink:href="#DejaVuSans-2e" x="127.246094"/>
     <use xlink:href="#DejaVuSans-32" x="159.033203"/>
     <use xlink:href="#DejaVuSans-25" x="222.65625"/>
    </g>
   </g>
   <g id="text_13">
    <!-- INP -->
    <g transform="translate(434.015942 173.082953) scale(0.16 -0.16)">
     <use xlink:href="#DejaVuSans-49"/>
     <use xlink:href="#DejaVuSans-4e" x="29.492188"/>
     <use xlink:href="#DejaVuSans-50" x="104.296875"/>
    </g>
   </g>
   <g id="text_14">
    <!-- 23.5% -->
    <g transform="translate(477.279037 192.961156) scale(0.16 -0.16)">
     <use xlink:href="#DejaVuSans-32"/>
     <use xlink:href="#DejaVuSans-33" x="63.623047"/>
     <use xlink:href="#DejaVuSans-2e" x="127.246094"/>
     <use xlink:href="#DejaVuSans-35" x="159.033203"/>
     <use xlink:href="#DejaVuSans-25" x="222.65625"/>
    </g>
   </g>
   <g id="text_15">
    <!-- LX -->
    <g transform="translate(469.618495 297.387579) scale(0.16 -0.16)">
     <defs>
      <path id="DejaVuSans-58" d="M 403 4666 
L 1081 4666 
L 2241 2931 
L 3406 4666 
L 4084 4666 
L 2584 2425 
L 4184 0 
L 3506 0 
L 2194 1984 
L 872 0 
L 191 0 
L 1856 2491 
L 403 4666 
z
" transform="scale(0.015625)"/>
     </defs>
     <use xlink:href="#DejaVuSans-4c"/>
     <use xlink:href="#DejaVuSans-58" x="55.712891"/>
    </g>
   </g>
   <g id="text_16">
    <!-- 19.1% -->
    <g transform="translate(493.173611 260.76368) scale(0.16 -0.16)">
     <use xlink:href="#DejaVuSans-31"/>
     <use xlink:href="#DejaVuSans-39" x="63.623047"/>
     <use xlink:href="#DejaVuSans-2e" x="127.246094"/>
     <use xlink:href="#DejaVuSans-31" x="159.033203"/>
     <use xlink:href="#DejaVuSans-25" x="222.65625"/>
    </g>
   </g>
   <g id="text_17">
    <!-- SNP -->
    <g transform="translate(596.580332 310.264763) scale(0.16 -0.16)">
     <use xlink:href="#DejaVuSans-53"/>
     <use xlink:href="#DejaVuSans-4e" x="63.476562"/>
     <use xlink:href="#DejaVuSans-50" x="138.28125"/>
    </g>
   </g>
   <g id="text_18">
    <!-- 16.1% -->
    <g transform="translate(551.584613 267.787598) scale(0.16 -0.16)">
     <defs>
      <path id="DejaVuSans-36" d="M 2113 2584 
Q 1688 2584 1439 2293 
Q 1191 2003 1191 1497 
Q 1191 994 1439 701 
Q 1688 409 2113 409 
Q 2538 409 2786 701 
Q 3034 994 3034 1497 
Q 3034 2003 2786 2293 
Q 2538 2584 2113 2584 
z
M 3366 4563 
L 3366 3988 
Q 3128 4100 2886 4159 
Q 2644 4219 2406 4219 
Q 1781 4219 1451 3797 
Q 1122 3375 1075 2522 
Q 1259 2794 1537 2939 
Q 1816 3084 2150 3084 
Q 2853 3084 3261 2657 
Q 3669 2231 3669 1497 
Q 3669 778 3244 343 
Q 2819 -91 2113 -91 
Q 1303 -91 875 529 
Q 447 1150 447 2328 
Q 447 3434 972 4092 
Q 1497 4750 2381 4750 
Q 2619 4750 2861 4703 
Q 3103 4656 3366 4563 
z
" transform="scale(0.015625)"/>
     </defs>
     <use xlink:href="#DejaVuSans-31"/>
     <use xlink:href="#DejaVuSans-36" x="63.623047"/>
     <use xlink:href="#DejaVuSans-2e" x="127.246094"/>
     <use xlink:href="#DejaVuSans-31" x="159.033203"/>
     <use xlink:href="#DejaVuSans-25" x="222.65625"/>
    </g>
   </g>
   <g id="text_19">
    <!-- VLNP -->
    <g transform="translate(646.525743 260.803456) scale(0.16 -0.16)">
     <use xlink:href="#DejaVuSans-56"/>
     <use xlink:href="#DejaVuSans-4c" x="68.408203"/>
     <use xlink:href="#DejaVuSans-4e" x="124.121094"/>
     <use xlink:href="#DejaVuSans-50" x="198.925781"/>
    </g>
   </g>
   <g id="text_20">
    <!-- 6.1% -->
    <g transform="translate(583.917565 240.808703) scale(0.16 -0.16)">
     <use xlink:href="#DejaVuSans-36"/>
     <use xlink:href="#DejaVuSans-2e" x="63.623047"/>
     <use xlink:href="#DejaVuSans-31" x="95.410156"/>
     <use xlink:href="#DejaVuSans-25" x="159.033203"/>
    </g>
   </g>
   <g id="text_21">
    <!-- PENP -->
    <g transform="translate(654.261617 237.692493) scale(0.16 -0.16)">
     <defs>
      <path id="DejaVuSans-45" d="M 628 4666 
L 3578 4666 
L 3578 4134 
L 1259 4134 
L 1259 2753 
L 3481 2753 
L 3481 2222 
L 1259 2222 
L 1259 531 
L 3634 531 
L 3634 0 
L 628 0 
L 628 4666 
z
" transform="scale(0.015625)"/>
     </defs>
     <use xlink:href="#DejaVuSans-50"/>
     <use xlink:href="#DejaVuSans-45" x="60.302734"/>
     <use xlink:href="#DejaVuSans-4e" x="123.486328"/>
     <use xlink:href="#DejaVuSans-50" x="198.291016"/>
    </g>
   </g>
   <g id="text_22">
    <!-- 1.4% -->
    <g transform="translate(588.137132 228.202724) scale(0.16 -0.16)">
     <use xlink:href="#DejaVuSans-31"/>
     <use xlink:href="#DejaVuSans-2e" x="63.623047"/>
     <use xlink:href="#DejaVuSans-34" x="95.410156"/>
     <use xlink:href="#DejaVuSans-25" x="159.033203"/>
    </g>
   </g>
   <g id="text_23">
    <!-- CX -->
    <g transform="translate(655.615163 229.514082) scale(0.16 -0.16)">
     <defs>
      <path id="DejaVuSans-43" d="M 4122 4306 
L 4122 3641 
Q 3803 3938 3442 4084 
Q 3081 4231 2675 4231 
Q 1875 4231 1450 3742 
Q 1025 3253 1025 2328 
Q 1025 1406 1450 917 
Q 1875 428 2675 428 
Q 3081 428 3442 575 
Q 3803 722 4122 1019 
L 4122 359 
Q 3791 134 3420 21 
Q 3050 -91 2638 -91 
Q 1578 -91 968 557 
Q 359 1206 359 2328 
Q 359 3453 968 4101 
Q 1578 4750 2638 4750 
Q 3056 4750 3426 4639 
Q 3797 4528 4122 4306 
z
" transform="scale(0.015625)"/>
     </defs>
     <use xlink:href="#DejaVuSans-43"/>
     <use xlink:href="#DejaVuSans-58" x="69.824219"/>
    </g>
   </g>
   <g id="text_24">
    <!-- 1.1% -->
    <g transform="translate(588.87543 223.741772) scale(0.16 -0.16)">
     <use xlink:href="#DejaVuSans-31"/>
     <use xlink:href="#DejaVuSans-2e" x="63.623047"/>
     <use xlink:href="#DejaVuSans-31" x="95.410156"/>
     <use xlink:href="#DejaVuSans-25" x="159.033203"/>
    </g>
   </g>
   <g id="text_25">
    <!-- Module 2 -->
    <g transform="translate(512.185781 83.311765) scale(0.18 -0.18)">
     <use xlink:href="#DejaVuSans-4d"/>
     <use xlink:href="#DejaVuSans-6f" x="86.279297"/>
     <use xlink:href="#DejaVuSans-64" x="147.460938"/>
     <use xlink:href="#DejaVuSans-75" x="210.9375"/>
     <use xlink:href="#DejaVuSans-6c" x="274.316406"/>
     <use xlink:href="#DejaVuSans-65" x="302.099609"/>
     <use xlink:href="#DejaVuSans-20" x="363.623047"/>
     <use xlink:href="#DejaVuSans-32" x="395.410156"/>
    </g>
   </g>
   <g id="text_26">
    <!-- b. -->
    <g transform="translate(430.411765 83.311765) scale(0.16 -0.16)">
     <defs>
      <path id="DejaVuSans-Bold-62" d="M 2400 722 
Q 2759 722 2948 984 
Q 3138 1247 3138 1747 
Q 3138 2247 2948 2509 
Q 2759 2772 2400 2772 
Q 2041 2772 1848 2508 
Q 1656 2244 1656 1747 
Q 1656 1250 1848 986 
Q 2041 722 2400 722 
z
M 1656 2988 
Q 1888 3294 2169 3439 
Q 2450 3584 2816 3584 
Q 3463 3584 3878 3070 
Q 4294 2556 4294 1747 
Q 4294 938 3878 423 
Q 3463 -91 2816 -91 
Q 2450 -91 2169 54 
Q 1888 200 1656 506 
L 1656 0 
L 538 0 
L 538 4863 
L 1656 4863 
L 1656 2988 
z
" transform="scale(0.015625)"/>
     </defs>
     <use xlink:href="#DejaVuSans-Bold-62"/>
     <use xlink:href="#DejaVuSans-Bold-2e" x="71.582031"/>
    </g>
   </g>
  </g>
  <g id="axes_3">
   <g id="patch_22">
    <path d="M 942.458824 212.4 
C 942.458824 199.505295 939.792677 186.748775 934.628218 174.933456 
C 929.463758 163.118137 921.911673 152.497254 912.447364 143.739386 
C 902.983054 134.981518 891.809366 128.274371 879.629676 124.040155 
C 867.449987 119.80594 854.525342 118.135408 841.66934 119.133717 
C 828.813338 120.132027 816.301519 123.777782 804.921496 129.841485 
C 793.541473 135.905187 783.537152 144.256874 775.538298 154.370813 
C 767.539444 164.484751 761.717496 176.14417 758.438943 188.615117 
C 755.160389 201.086063 754.495498 214.101248 756.486125 226.841375 
L 848.911765 212.4 
z
" style="fill: #6495ed"/>
   </g>
   <g id="patch_23">
    <path d="M 756.486125 226.841375 
C 760.038467 249.576572 771.857586 270.220534 789.665371 284.794178 
C 807.473156 299.367823 830.046911 306.870513 853.035589 305.85612 
L 848.911765 212.4 
z
" style="fill: #fa8072"/>
   </g>
   <g id="patch_24">
    <path d="M 853.035589 305.85612 
C 870.379414 305.09081 887.172551 299.512332 901.526966 289.747869 
C 915.88138 279.983406 927.238176 266.413142 934.32052 250.562767 
L 848.911765 212.4 
z
" style="fill: #008000"/>
   </g>
   <g id="patch_25">
    <path d="M 934.32052 250.562767 
C 935.416946 248.10895 936.407116 245.609022 937.288271 243.069941 
C 938.169427 240.53086 938.940751 237.954984 939.600096 235.349484 
L 848.911765 212.4 
z
" style="fill: #8a2be2"/>
   </g>
   <g id="patch_26">
    <path d="M 939.600096 235.349484 
C 939.89641 234.178554 940.170019 233.001995 940.420768 231.820469 
C 940.671517 230.638943 940.899359 229.452671 941.104167 228.262321 
L 848.911765 212.4 
z
" style="fill: #ffa500"/>
   </g>
   <g id="patch_27">
    <path d="M 941.104167 228.262321 
C 941.217092 227.605992 941.323006 226.948476 941.42189 226.289886 
C 941.520774 225.631295 941.612622 224.971667 941.697419 224.311115 
L 848.911765 212.4 
z
" style="fill: #b22222"/>
   </g>
   <g id="patch_28">
    <path d="M 941.697419 224.311115 
C 941.775198 223.705228 941.84704 223.098593 941.912936 222.491298 
C 941.978832 221.884004 942.038778 221.276078 942.092765 220.667609 
L 848.911765 212.4 
z
"/>
   </g>
   <g id="patch_29">
    <path d="M 942.092765 220.667609 
C 942.133824 220.20485 942.171435 219.741791 942.205595 219.278471 
C 942.239756 218.815151 942.270464 218.351584 942.297718 217.887806 
L 848.911765 212.4 
z
" style="fill: #008080"/>
   </g>
   <g id="patch_30">
    <path d="M 942.297718 217.887806 
C 942.314165 217.607925 942.329354 217.327971 942.343284 217.047952 
C 942.357214 216.767934 942.369885 216.487855 942.381297 216.207722 
L 848.911765 212.4 
z
" style="fill: #d2b48c"/>
   </g>
   <g id="patch_31">
    <path d="M 942.381297 216.207722 
C 942.390898 215.972055 942.399607 215.736351 942.407424 215.500618 
C 942.415242 215.264884 942.422168 215.029122 942.428203 214.793336 
L 848.911765 212.4 
z
"/>
   </g>
   <g id="patch_32">
    <path d="M 942.428203 214.793336 
C 942.433631 214.581235 942.438337 214.369116 942.442322 214.156984 
C 942.446307 213.944851 942.449571 213.732705 942.452112 213.52055 
L 848.911765 212.4 
z
" style="fill: #000080"/>
   </g>
   <g id="patch_33">
    <path d="M 942.452112 213.52055 
C 942.454349 213.333804 942.456027 213.147051 942.457146 212.960295 
C 942.458264 212.773539 942.458823 212.58678 942.458824 212.40002 
L 848.911765 212.4 
z
"/>
   </g>
   <g id="matplotlib.axis_5"/>
   <g id="matplotlib.axis_6"/>
   <g id="text_27">
    <!-- SNP -->
    <g transform="translate(809.170097 114.222089) scale(0.16 -0.16)">
     <use xlink:href="#DejaVuSans-53"/>
     <use xlink:href="#DejaVuSans-4e" x="63.476562"/>
     <use xlink:href="#DejaVuSans-50" x="138.28125"/>
    </g>
   </g>
   <g id="text_28">
    <!-- 52.5% -->
    <g transform="translate(819.15256 160.85523) scale(0.16 -0.16)">
     <use xlink:href="#DejaVuSans-35"/>
     <use xlink:href="#DejaVuSans-32" x="63.623047"/>
     <use xlink:href="#DejaVuSans-2e" x="127.246094"/>
     <use xlink:href="#DejaVuSans-35" x="159.033203"/>
     <use xlink:href="#DejaVuSans-25" x="222.65625"/>
    </g>
   </g>
   <g id="text_29">
    <!-- CX -->
    <g transform="translate(761.608232 296.448596) scale(0.16 -0.16)">
     <use xlink:href="#DejaVuSans-43"/>
     <use xlink:href="#DejaVuSans-58" x="69.824219"/>
    </g>
   </g>
   <g id="text_30">
    <!-- 23.2% -->
    <g transform="translate(787.950179 260.251507) scale(0.16 -0.16)">
     <use xlink:href="#DejaVuSans-32"/>
     <use xlink:href="#DejaVuSans-33" x="63.623047"/>
     <use xlink:href="#DejaVuSans-2e" x="127.246094"/>
     <use xlink:href="#DejaVuSans-32" x="159.033203"/>
     <use xlink:href="#DejaVuSans-25" x="222.65625"/>
    </g>
   </g>
   <g id="text_31">
    <!-- INP -->
    <g transform="translate(906.788486 301.897656) scale(0.16 -0.16)">
     <use xlink:href="#DejaVuSans-49"/>
     <use xlink:href="#DejaVuSans-4e" x="29.492188"/>
     <use xlink:href="#DejaVuSans-50" x="104.296875"/>
    </g>
   </g>
   <g id="text_32">
    <!-- 17.6% -->
    <g transform="translate(855.067135 263.223721) scale(0.16 -0.16)">
     <use xlink:href="#DejaVuSans-31"/>
     <use xlink:href="#DejaVuSans-37" x="63.623047"/>
     <use xlink:href="#DejaVuSans-2e" x="127.246094"/>
     <use xlink:href="#DejaVuSans-36" x="159.033203"/>
     <use xlink:href="#DejaVuSans-25" x="222.65625"/>
    </g>
   </g>
   <g id="text_33">
    <!-- LX -->
    <g transform="translate(946.125922 250.551935) scale(0.16 -0.16)">
     <use xlink:href="#DejaVuSans-4c"/>
     <use xlink:href="#DejaVuSans-58" x="55.712891"/>
    </g>
   </g>
   <g id="text_34">
    <!-- 2.7% -->
    <g transform="translate(881.613919 235.216965) scale(0.16 -0.16)">
     <use xlink:href="#DejaVuSans-32"/>
     <use xlink:href="#DejaVuSans-2e" x="63.623047"/>
     <use xlink:href="#DejaVuSans-37" x="95.410156"/>
     <use xlink:href="#DejaVuSans-25" x="159.033203"/>
    </g>
   </g>
   <g id="text_35">
    <!-- VLNP -->
    <g transform="translate(949.571668 238.177516) scale(0.16 -0.16)">
     <use xlink:href="#DejaVuSans-56"/>
     <use xlink:href="#DejaVuSans-4c" x="68.408203"/>
     <use xlink:href="#DejaVuSans-4e" x="124.121094"/>
     <use xlink:href="#DejaVuSans-50" x="198.925781"/>
    </g>
   </g>
   <g id="text_36">
    <!-- 1.2% -->
    <g transform="translate(883.493416 228.467281) scale(0.16 -0.16)">
     <use xlink:href="#DejaVuSans-31"/>
     <use xlink:href="#DejaVuSans-2e" x="63.623047"/>
     <use xlink:href="#DejaVuSans-32" x="95.410156"/>
     <use xlink:href="#DejaVuSans-25" x="159.033203"/>
    </g>
   </g>
   <g id="text_37">
    <!-- Module 3 -->
    <g transform="translate(807.597546 83.311765) scale(0.18 -0.18)">
     <use xlink:href="#DejaVuSans-4d"/>
     <use xlink:href="#DejaVuSans-6f" x="86.279297"/>
     <use xlink:href="#DejaVuSans-64" x="147.460938"/>
     <use xlink:href="#DejaVuSans-75" x="210.9375"/>
     <use xlink:href="#DejaVuSans-6c" x="274.316406"/>
     <use xlink:href="#DejaVuSans-65" x="302.099609"/>
     <use xlink:href="#DejaVuSans-20" x="363.623047"/>
     <use xlink:href="#DejaVuSans-33" x="395.410156"/>
    </g>
   </g>
   <g id="text_38">
    <!-- c. -->
    <g transform="translate(725.823529 83.311765) scale(0.16 -0.16)">
     <defs>
      <path id="DejaVuSans-Bold-63" d="M 3366 3391 
L 3366 2478 
Q 3138 2634 2908 2709 
Q 2678 2784 2431 2784 
Q 1963 2784 1702 2511 
Q 1441 2238 1441 1747 
Q 1441 1256 1702 982 
Q 1963 709 2431 709 
Q 2694 709 2930 787 
Q 3166 866 3366 1019 
L 3366 103 
Q 3103 6 2833 -42 
Q 2563 -91 2291 -91 
Q 1344 -91 809 395 
Q 275 881 275 1747 
Q 275 2613 809 3098 
Q 1344 3584 2291 3584 
Q 2566 3584 2833 3536 
Q 3100 3488 3366 3391 
z
" transform="scale(0.015625)"/>
     </defs>
     <use xlink:href="#DejaVuSans-Bold-63"/>
     <use xlink:href="#DejaVuSans-Bold-2e" x="59.277344"/>
    </g>
   </g>
  </g>
  <g id="axes_4">
   <g id="patch_34">
    <path d="M 475.8912 506.52 
C 475.8912 495.972298 474.107734 485.500121 470.616342 475.547021 
C 467.12495 465.593921 461.975631 456.302433 455.386485 448.066101 
C 448.797339 439.829769 440.862727 432.766542 431.918722 427.175585 
C 422.974718 421.584628 413.149404 417.546008 402.858936 415.230781 
C 392.568467 412.915554 381.96021 412.356875 371.48348 413.578409 
C 361.00675 414.799943 350.811581 417.784195 341.329792 422.404768 
C 331.848002 427.02534 323.215379 433.216063 315.797557 440.714726 
C 308.379736 448.213389 302.282946 456.912607 297.765418 466.443921 
C 293.24789 475.975235 290.374317 486.202152 289.266412 496.691507 
C 288.158507 507.180861 288.832135 517.78244 291.258764 528.047209 
C 293.685393 538.311978 297.830272 548.09294 303.517844 556.975819 
C 309.205416 565.858698 316.354231 573.716286 324.661499 580.215772 
C 332.968767 586.715257 342.315523 591.763564 352.305881 595.14687 
C 362.296239 598.530176 372.787132 600.200029 383.334214 600.085703 
C 393.881297 599.971377 404.333528 598.074509 414.2482 594.475441 
C 424.162872 590.876372 433.398001 585.626645 441.56243 578.948613 
L 382.32 506.52 
z
" style="fill: #6495ed"/>
   </g>
   <g id="patch_35">
    <path d="M 441.56243 578.948613 
C 448.484614 573.286665 454.559497 566.66149 459.601473 559.275506 
C 464.643449 551.889521 468.600641 543.818723 471.352145 535.309698 
L 382.32 506.52 
z
" style="fill: #008000"/>
   </g>
   <g id="patch_36">
    <path d="M 471.352145 535.309698 
C 472.211305 532.652744 472.951099 529.958662 473.569306 527.235542 
C 474.187512 524.512422 474.683511 521.762993 475.055813 518.995512 
L 382.32 506.52 
z
" style="fill: #b22222"/>
   </g>
   <g id="patch_37">
    <path d="M 475.055813 518.995512 
C 475.164523 518.187424 475.262666 517.37795 475.350217 516.567296 
C 475.437768 515.756643 475.514719 514.94488 475.581051 514.132215 
L 382.32 506.52 
z
" style="fill: #8a2be2"/>
   </g>
   <g id="patch_38">
    <path d="M 475.581051 514.132215 
C 475.639956 513.410541 475.690482 512.688207 475.73262 511.96536 
C 475.774757 511.242513 475.808503 510.519201 475.83385 509.795571 
L 382.32 506.52 
z
" style="fill: #d2b48c"/>
   </g>
   <g id="patch_39">
    <path d="M 475.83385 509.795571 
C 475.852965 509.249854 475.867303 508.703981 475.876862 508.158013 
C 475.886421 507.612046 475.8912 507.066005 475.8912 506.519954 
L 382.32 506.52 
z
" style="fill: #da70d6"/>
   </g>
   <g id="matplotlib.axis_7"/>
   <g id="matplotlib.axis_8"/>
   <g id="text_39">
    <!-- SNP -->
    <g transform="translate(257.53496 466.851313) scale(0.16 -0.16)">
     <use xlink:href="#DejaVuSans-53"/>
     <use xlink:href="#DejaVuSans-4e" x="63.476562"/>
     <use xlink:href="#DejaVuSans-50" x="138.28125"/>
    </g>
   </g>
   <g id="text_40">
    <!-- 85.9% -->
    <g transform="translate(306.173501 486.889353) scale(0.16 -0.16)">
     <defs>
      <path id="DejaVuSans-38" d="M 2034 2216 
Q 1584 2216 1326 1975 
Q 1069 1734 1069 1313 
Q 1069 891 1326 650 
Q 1584 409 2034 409 
Q 2484 409 2743 651 
Q 3003 894 3003 1313 
Q 3003 1734 2745 1975 
Q 2488 2216 2034 2216 
z
M 1403 2484 
Q 997 2584 770 2862 
Q 544 3141 544 3541 
Q 544 4100 942 4425 
Q 1341 4750 2034 4750 
Q 2731 4750 3128 4425 
Q 3525 4100 3525 3541 
Q 3525 3141 3298 2862 
Q 3072 2584 2669 2484 
Q 3125 2378 3379 2068 
Q 3634 1759 3634 1313 
Q 3634 634 3220 271 
Q 2806 -91 2034 -91 
Q 1263 -91 848 271 
Q 434 634 434 1313 
Q 434 1759 690 2068 
Q 947 2378 1403 2484 
z
M 1172 3481 
Q 1172 3119 1398 2916 
Q 1625 2713 2034 2713 
Q 2441 2713 2670 2916 
Q 2900 3119 2900 3481 
Q 2900 3844 2670 4047 
Q 2441 4250 2034 4250 
Q 1625 4250 1398 4047 
Q 1172 3844 1172 3481 
z
" transform="scale(0.015625)"/>
     </defs>
     <use xlink:href="#DejaVuSans-38"/>
     <use xlink:href="#DejaVuSans-35" x="63.623047"/>
     <use xlink:href="#DejaVuSans-2e" x="127.246094"/>
     <use xlink:href="#DejaVuSans-39" x="159.033203"/>
     <use xlink:href="#DejaVuSans-25" x="222.65625"/>
    </g>
   </g>
   <g id="text_41">
    <!-- INP -->
    <g transform="translate(467.32962 568.966056) scale(0.16 -0.16)">
     <use xlink:href="#DejaVuSans-49"/>
     <use xlink:href="#DejaVuSans-4e" x="29.492188"/>
     <use xlink:href="#DejaVuSans-50" x="104.296875"/>
    </g>
   </g>
   <g id="text_42">
    <!-- 9.1% -->
    <g transform="translate(408.365134 542.588303) scale(0.16 -0.16)">
     <use xlink:href="#DejaVuSans-39"/>
     <use xlink:href="#DejaVuSans-2e" x="63.623047"/>
     <use xlink:href="#DejaVuSans-31" x="95.410156"/>
     <use xlink:href="#DejaVuSans-25" x="159.033203"/>
    </g>
   </g>
   <g id="text_43">
    <!-- VMNP -->
    <g transform="translate(482.694236 533.722096) scale(0.16 -0.16)">
     <use xlink:href="#DejaVuSans-56"/>
     <use xlink:href="#DejaVuSans-4d" x="68.408203"/>
     <use xlink:href="#DejaVuSans-4e" x="154.6875"/>
     <use xlink:href="#DejaVuSans-50" x="229.492188"/>
    </g>
   </g>
   <g id="text_44">
    <!-- 2.8% -->
    <g transform="translate(416.745833 523.364325) scale(0.16 -0.16)">
     <use xlink:href="#DejaVuSans-32"/>
     <use xlink:href="#DejaVuSans-2e" x="63.623047"/>
     <use xlink:href="#DejaVuSans-38" x="95.410156"/>
     <use xlink:href="#DejaVuSans-25" x="159.033203"/>
    </g>
   </g>
   <g id="text_45">
    <!-- Module 4 -->
    <g transform="translate(341.005781 377.4) scale(0.18 -0.18)">
     <use xlink:href="#DejaVuSans-4d"/>
     <use xlink:href="#DejaVuSans-6f" x="86.279297"/>
     <use xlink:href="#DejaVuSans-64" x="147.460938"/>
     <use xlink:href="#DejaVuSans-75" x="210.9375"/>
     <use xlink:href="#DejaVuSans-6c" x="274.316406"/>
     <use xlink:href="#DejaVuSans-65" x="302.099609"/>
     <use xlink:href="#DejaVuSans-20" x="363.623047"/>
     <use xlink:href="#DejaVuSans-34" x="395.410156"/>
    </g>
   </g>
   <g id="text_46">
    <!-- d. -->
    <g transform="translate(259.2 377.4) scale(0.16 -0.16)">
     <defs>
      <path id="DejaVuSans-Bold-64" d="M 2919 2988 
L 2919 4863 
L 4044 4863 
L 4044 0 
L 2919 0 
L 2919 506 
Q 2688 197 2409 53 
Q 2131 -91 1766 -91 
Q 1119 -91 703 423 
Q 288 938 288 1747 
Q 288 2556 703 3070 
Q 1119 3584 1766 3584 
Q 2128 3584 2408 3439 
Q 2688 3294 2919 2988 
z
M 2181 722 
Q 2541 722 2730 984 
Q 2919 1247 2919 1747 
Q 2919 2247 2730 2509 
Q 2541 2772 2181 2772 
Q 1825 2772 1636 2509 
Q 1447 2247 1447 1747 
Q 1447 1247 1636 984 
Q 1825 722 2181 722 
z
" transform="scale(0.015625)"/>
     </defs>
     <use xlink:href="#DejaVuSans-Bold-64"/>
     <use xlink:href="#DejaVuSans-Bold-2e" x="71.582031"/>
    </g>
   </g>
  </g>
  <g id="axes_5">
   <g id="patch_40">
    <path d="M 810.6912 506.52 
C 810.6912 495.573302 808.770253 484.71104 805.015911 474.428282 
C 801.261568 464.145524 795.731747 454.6009 788.678479 446.229424 
C 781.625211 437.857948 773.157306 430.788765 763.660704 425.344066 
C 754.164102 419.899367 743.785305 416.163145 732.997347 414.305688 
C 722.209388 412.448231 711.178691 412.498191 700.408001 414.453293 
C 689.63731 416.408395 679.292783 420.238476 669.84589 425.768975 
C 660.398998 431.299474 651.995474 438.445072 645.018327 446.880095 
C 638.04118 455.315118 632.598044 464.909442 628.936999 475.225785 
C 625.275955 485.542129 623.453481 496.421346 623.552639 507.367595 
C 623.651797 518.313844 625.671059 529.15826 629.518391 539.406588 
C 633.365724 549.654916 638.981777 559.149058 646.110586 567.4563 
C 653.239396 575.763542 661.770988 582.75573 671.31652 588.114183 
C 680.862052 593.472636 691.274267 597.114689 702.078608 598.87435 
C 712.88295 600.634011 723.912742 600.484133 734.66528 598.431548 
C 745.417819 596.378962 755.727228 592.455334 765.123636 586.839489 
C 774.520044 581.223645 782.858496 574.002218 789.75895 565.50434 
L 717.12 506.52 
z
" style="fill: #6495ed"/>
   </g>
   <g id="patch_41">
    <path d="M 789.75895 565.50434 
C 792.730755 561.844576 795.421731 557.965446 797.80888 553.900102 
C 800.196029 549.834759 802.272533 545.594814 804.020645 541.216503 
L 717.12 506.52 
z
" style="fill: #008000"/>
   </g>
   <g id="patch_42">
    <path d="M 804.020645 541.216503 
C 804.782143 539.30926 805.480646 537.377464 806.11502 535.424255 
C 806.749393 533.471046 807.319292 531.497481 807.823792 529.506769 
L 717.12 506.52 
z
" style="fill: #008080"/>
   </g>
   <g id="patch_43">
    <path d="M 807.823792 529.506769 
C 808.300683 527.624998 808.718899 525.728842 809.077833 523.821055 
C 809.436766 521.913267 809.736243 519.994772 809.975829 518.068354 
L 717.12 506.52 
z
" style="fill: #ffa500"/>
   </g>
   <g id="patch_44">
    <path d="M 809.975829 518.068354 
C 810.058901 517.400405 810.134763 516.731579 810.203403 516.061993 
C 810.272042 515.392408 810.333454 514.722101 810.387629 514.051189 
L 717.12 506.52 
z
" style="fill: #b22222"/>
   </g>
   <g id="patch_45">
    <path d="M 810.387629 514.051189 
C 810.440225 513.399838 810.485995 512.747953 810.524934 512.095642 
C 810.563872 511.443332 810.595977 510.790631 810.621241 510.137648 
L 717.12 506.52 
z
"/>
   </g>
   <g id="patch_46">
    <path d="M 810.621241 510.137648 
C 810.634085 509.80569 810.645161 509.473667 810.654468 509.141592 
C 810.663776 508.809516 810.671314 508.477394 810.677085 508.145238 
L 717.12 506.52 
z
" style="fill: #d2b48c"/>
   </g>
   <g id="patch_47">
    <path d="M 810.677085 508.145238 
C 810.68179 507.874388 810.685319 507.603519 810.687671 507.332638 
C 810.690024 507.061757 810.6912 506.790867 810.6912 506.519976 
L 717.12 506.52 
z
" style="fill: #000080"/>
   </g>
   <g id="matplotlib.axis_9"/>
   <g id="matplotlib.axis_10"/>
   <g id="text_47">
    <!-- SNP -->
    <g transform="translate(588.343699 476.511364) scale(0.16 -0.16)">
     <use xlink:href="#DejaVuSans-53"/>
     <use xlink:href="#DejaVuSans-4e" x="63.476562"/>
     <use xlink:href="#DejaVuSans-50" x="138.28125"/>
    </g>
   </g>
   <g id="text_48">
    <!-- 89.1% -->
    <g transform="translate(638.79645 492.158471) scale(0.16 -0.16)">
     <use xlink:href="#DejaVuSans-38"/>
     <use xlink:href="#DejaVuSans-39" x="63.623047"/>
     <use xlink:href="#DejaVuSans-2e" x="127.246094"/>
     <use xlink:href="#DejaVuSans-31" x="159.033203"/>
     <use xlink:href="#DejaVuSans-25" x="222.65625"/>
    </g>
   </g>
   <g id="text_49">
    <!-- INP -->
    <g transform="translate(805.877768 563.053113) scale(0.16 -0.16)">
     <use xlink:href="#DejaVuSans-49"/>
     <use xlink:href="#DejaVuSans-4e" x="29.492188"/>
     <use xlink:href="#DejaVuSans-50" x="104.296875"/>
    </g>
   </g>
   <g id="text_50">
    <!-- 4.8% -->
    <g transform="translate(745.209578 539.363061) scale(0.16 -0.16)">
     <use xlink:href="#DejaVuSans-34"/>
     <use xlink:href="#DejaVuSans-2e" x="63.623047"/>
     <use xlink:href="#DejaVuSans-38" x="95.410156"/>
     <use xlink:href="#DejaVuSans-25" x="159.033203"/>
    </g>
   </g>
   <g id="text_51">
    <!-- LH -->
    <g transform="translate(815.014522 542.72968) scale(0.16 -0.16)">
     <defs>
      <path id="DejaVuSans-48" d="M 628 4666 
L 1259 4666 
L 1259 2753 
L 3553 2753 
L 3553 4666 
L 4184 4666 
L 4184 0 
L 3553 0 
L 3553 2222 
L 1259 2222 
L 1259 0 
L 628 0 
L 628 4666 
z
" transform="scale(0.015625)"/>
     </defs>
     <use xlink:href="#DejaVuSans-4c"/>
     <use xlink:href="#DejaVuSans-48" x="55.712891"/>
    </g>
   </g>
   <g id="text_52">
    <!-- 2.1% -->
    <g transform="translate(750.193262 528.277553) scale(0.16 -0.16)">
     <use xlink:href="#DejaVuSans-32"/>
     <use xlink:href="#DejaVuSans-2e" x="63.623047"/>
     <use xlink:href="#DejaVuSans-31" x="95.410156"/>
     <use xlink:href="#DejaVuSans-25" x="159.033203"/>
    </g>
   </g>
   <g id="text_53">
    <!-- VLNP -->
    <g transform="translate(818.273616 529.96616) scale(0.16 -0.16)">
     <use xlink:href="#DejaVuSans-56"/>
     <use xlink:href="#DejaVuSans-4c" x="68.408203"/>
     <use xlink:href="#DejaVuSans-4e" x="124.121094"/>
     <use xlink:href="#DejaVuSans-50" x="198.925781"/>
    </g>
   </g>
   <g id="text_54">
    <!-- 2.0% -->
    <g transform="translate(751.97095 521.315633) scale(0.16 -0.16)">
     <use xlink:href="#DejaVuSans-32"/>
     <use xlink:href="#DejaVuSans-2e" x="63.623047"/>
     <use xlink:href="#DejaVuSans-30" x="95.410156"/>
     <use xlink:href="#DejaVuSans-25" x="159.033203"/>
    </g>
   </g>
   <g id="text_55">
    <!-- Module 5 -->
    <g transform="translate(675.805781 377.4) scale(0.18 -0.18)">
     <use xlink:href="#DejaVuSans-4d"/>
     <use xlink:href="#DejaVuSans-6f" x="86.279297"/>
     <use xlink:href="#DejaVuSans-64" x="147.460938"/>
     <use xlink:href="#DejaVuSans-75" x="210.9375"/>
     <use xlink:href="#DejaVuSans-6c" x="274.316406"/>
     <use xlink:href="#DejaVuSans-65" x="302.099609"/>
     <use xlink:href="#DejaVuSans-20" x="363.623047"/>
     <use xlink:href="#DejaVuSans-35" x="395.410156"/>
    </g>
   </g>
   <g id="text_56">
    <!-- e. -->
    <g transform="translate(594 377.4) scale(0.16 -0.16)">
     <defs>
      <path id="DejaVuSans-Bold-65" d="M 4031 1759 
L 4031 1441 
L 1416 1441 
Q 1456 1047 1700 850 
Q 1944 653 2381 653 
Q 2734 653 3104 758 
Q 3475 863 3866 1075 
L 3866 213 
Q 3469 63 3072 -14 
Q 2675 -91 2278 -91 
Q 1328 -91 801 392 
Q 275 875 275 1747 
Q 275 2603 792 3093 
Q 1309 3584 2216 3584 
Q 3041 3584 3536 3087 
Q 4031 2591 4031 1759 
z
M 2881 2131 
Q 2881 2450 2695 2645 
Q 2509 2841 2209 2841 
Q 1884 2841 1681 2658 
Q 1478 2475 1428 2131 
L 2881 2131 
z
" transform="scale(0.015625)"/>
     </defs>
     <use xlink:href="#DejaVuSans-Bold-65"/>
     <use xlink:href="#DejaVuSans-Bold-2e" x="67.822266"/>
    </g>
   </g>
  </g>
  <g id="text_57">
   <!-- All Synapse Weights by ROI of oviINr's presynaptic partners -->
   <g transform="translate(241.85 29.596875) scale(0.2 -0.2)">
    <defs>
     <path id="DejaVuSans-41" d="M 2188 4044 
L 1331 1722 
L 3047 1722 
L 2188 4044 
z
M 1831 4666 
L 2547 4666 
L 4325 0 
L 3669 0 
L 3244 1197 
L 1141 1197 
L 716 0 
L 50 0 
L 1831 4666 
z
" transform="scale(0.015625)"/>
     <path id="DejaVuSans-79" d="M 2059 -325 
Q 1816 -950 1584 -1140 
Q 1353 -1331 966 -1331 
L 506 -1331 
L 506 -850 
L 844 -850 
Q 1081 -850 1212 -737 
Q 1344 -625 1503 -206 
L 1606 56 
L 191 3500 
L 800 3500 
L 1894 763 
L 2988 3500 
L 3597 3500 
L 2059 -325 
z
" transform="scale(0.015625)"/>
     <path id="DejaVuSans-6e" d="M 3513 2113 
L 3513 0 
L 2938 0 
L 2938 2094 
Q 2938 2591 2744 2837 
Q 2550 3084 2163 3084 
Q 1697 3084 1428 2787 
Q 1159 2491 1159 1978 
L 1159 0 
L 581 0 
L 581 3500 
L 1159 3500 
L 1159 2956 
Q 1366 3272 1645 3428 
Q 1925 3584 2291 3584 
Q 2894 3584 3203 3211 
Q 3513 2838 3513 2113 
z
" transform="scale(0.015625)"/>
     <path id="DejaVuSans-61" d="M 2194 1759 
Q 1497 1759 1228 1600 
Q 959 1441 959 1056 
Q 959 750 1161 570 
Q 1363 391 1709 391 
Q 2188 391 2477 730 
Q 2766 1069 2766 1631 
L 2766 1759 
L 2194 1759 
z
M 3341 1997 
L 3341 0 
L 2766 0 
L 2766 531 
Q 2569 213 2275 61 
Q 1981 -91 1556 -91 
Q 1019 -91 701 211 
Q 384 513 384 1019 
Q 384 1609 779 1909 
Q 1175 2209 1959 2209 
L 2766 2209 
L 2766 2266 
Q 2766 2663 2505 2880 
Q 2244 3097 1772 3097 
Q 1472 3097 1187 3025 
Q 903 2953 641 2809 
L 641 3341 
Q 956 3463 1253 3523 
Q 1550 3584 1831 3584 
Q 2591 3584 2966 3190 
Q 3341 2797 3341 1997 
z
" transform="scale(0.015625)"/>
     <path id="DejaVuSans-70" d="M 1159 525 
L 1159 -1331 
L 581 -1331 
L 581 3500 
L 1159 3500 
L 1159 2969 
Q 1341 3281 1617 3432 
Q 1894 3584 2278 3584 
Q 2916 3584 3314 3078 
Q 3713 2572 3713 1747 
Q 3713 922 3314 415 
Q 2916 -91 2278 -91 
Q 1894 -91 1617 61 
Q 1341 213 1159 525 
z
M 3116 1747 
Q 3116 2381 2855 2742 
Q 2594 3103 2138 3103 
Q 1681 3103 1420 2742 
Q 1159 2381 1159 1747 
Q 1159 1113 1420 752 
Q 1681 391 2138 391 
Q 2594 391 2855 752 
Q 3116 1113 3116 1747 
z
" transform="scale(0.015625)"/>
     <path id="DejaVuSans-73" d="M 2834 3397 
L 2834 2853 
Q 2591 2978 2328 3040 
Q 2066 3103 1784 3103 
Q 1356 3103 1142 2972 
Q 928 2841 928 2578 
Q 928 2378 1081 2264 
Q 1234 2150 1697 2047 
L 1894 2003 
Q 2506 1872 2764 1633 
Q 3022 1394 3022 966 
Q 3022 478 2636 193 
Q 2250 -91 1575 -91 
Q 1294 -91 989 -36 
Q 684 19 347 128 
L 347 722 
Q 666 556 975 473 
Q 1284 391 1588 391 
Q 1994 391 2212 530 
Q 2431 669 2431 922 
Q 2431 1156 2273 1281 
Q 2116 1406 1581 1522 
L 1381 1569 
Q 847 1681 609 1914 
Q 372 2147 372 2553 
Q 372 3047 722 3315 
Q 1072 3584 1716 3584 
Q 2034 3584 2315 3537 
Q 2597 3491 2834 3397 
z
" transform="scale(0.015625)"/>
     <path id="DejaVuSans-57" d="M 213 4666 
L 850 4666 
L 1831 722 
L 2809 4666 
L 3519 4666 
L 4500 722 
L 5478 4666 
L 6119 4666 
L 4947 0 
L 4153 0 
L 3169 4050 
L 2175 0 
L 1381 0 
L 213 4666 
z
" transform="scale(0.015625)"/>
     <path id="DejaVuSans-69" d="M 603 3500 
L 1178 3500 
L 1178 0 
L 603 0 
L 603 3500 
z
M 603 4863 
L 1178 4863 
L 1178 4134 
L 603 4134 
L 603 4863 
z
" transform="scale(0.015625)"/>
     <path id="DejaVuSans-67" d="M 2906 1791 
Q 2906 2416 2648 2759 
Q 2391 3103 1925 3103 
Q 1463 3103 1205 2759 
Q 947 2416 947 1791 
Q 947 1169 1205 825 
Q 1463 481 1925 481 
Q 2391 481 2648 825 
Q 2906 1169 2906 1791 
z
M 3481 434 
Q 3481 -459 3084 -895 
Q 2688 -1331 1869 -1331 
Q 1566 -1331 1297 -1286 
Q 1028 -1241 775 -1147 
L 775 -588 
Q 1028 -725 1275 -790 
Q 1522 -856 1778 -856 
Q 2344 -856 2625 -561 
Q 2906 -266 2906 331 
L 2906 616 
Q 2728 306 2450 153 
Q 2172 0 1784 0 
Q 1141 0 747 490 
Q 353 981 353 1791 
Q 353 2603 747 3093 
Q 1141 3584 1784 3584 
Q 2172 3584 2450 3431 
Q 2728 3278 2906 2969 
L 2906 3500 
L 3481 3500 
L 3481 434 
z
" transform="scale(0.015625)"/>
     <path id="DejaVuSans-68" d="M 3513 2113 
L 3513 0 
L 2938 0 
L 2938 2094 
Q 2938 2591 2744 2837 
Q 2550 3084 2163 3084 
Q 1697 3084 1428 2787 
Q 1159 2491 1159 1978 
L 1159 0 
L 581 0 
L 581 4863 
L 1159 4863 
L 1159 2956 
Q 1366 3272 1645 3428 
Q 1925 3584 2291 3584 
Q 2894 3584 3203 3211 
Q 3513 2838 3513 2113 
z
" transform="scale(0.015625)"/>
     <path id="DejaVuSans-74" d="M 1172 4494 
L 1172 3500 
L 2356 3500 
L 2356 3053 
L 1172 3053 
L 1172 1153 
Q 1172 725 1289 603 
Q 1406 481 1766 481 
L 2356 481 
L 2356 0 
L 1766 0 
Q 1100 0 847 248 
Q 594 497 594 1153 
L 594 3053 
L 172 3053 
L 172 3500 
L 594 3500 
L 594 4494 
L 1172 4494 
z
" transform="scale(0.015625)"/>
     <path id="DejaVuSans-62" d="M 3116 1747 
Q 3116 2381 2855 2742 
Q 2594 3103 2138 3103 
Q 1681 3103 1420 2742 
Q 1159 2381 1159 1747 
Q 1159 1113 1420 752 
Q 1681 391 2138 391 
Q 2594 391 2855 752 
Q 3116 1113 3116 1747 
z
M 1159 2969 
Q 1341 3281 1617 3432 
Q 1894 3584 2278 3584 
Q 2916 3584 3314 3078 
Q 3713 2572 3713 1747 
Q 3713 922 3314 415 
Q 2916 -91 2278 -91 
Q 1894 -91 1617 61 
Q 1341 213 1159 525 
L 1159 0 
L 581 0 
L 581 4863 
L 1159 4863 
L 1159 2969 
z
" transform="scale(0.015625)"/>
     <path id="DejaVuSans-52" d="M 2841 2188 
Q 3044 2119 3236 1894 
Q 3428 1669 3622 1275 
L 4263 0 
L 3584 0 
L 2988 1197 
Q 2756 1666 2539 1819 
Q 2322 1972 1947 1972 
L 1259 1972 
L 1259 0 
L 628 0 
L 628 4666 
L 2053 4666 
Q 2853 4666 3247 4331 
Q 3641 3997 3641 3322 
Q 3641 2881 3436 2590 
Q 3231 2300 2841 2188 
z
M 1259 4147 
L 1259 2491 
L 2053 2491 
Q 2509 2491 2742 2702 
Q 2975 2913 2975 3322 
Q 2975 3731 2742 3939 
Q 2509 4147 2053 4147 
L 1259 4147 
z
" transform="scale(0.015625)"/>
     <path id="DejaVuSans-4f" d="M 2522 4238 
Q 1834 4238 1429 3725 
Q 1025 3213 1025 2328 
Q 1025 1447 1429 934 
Q 1834 422 2522 422 
Q 3209 422 3611 934 
Q 4013 1447 4013 2328 
Q 4013 3213 3611 3725 
Q 3209 4238 2522 4238 
z
M 2522 4750 
Q 3503 4750 4090 4092 
Q 4678 3434 4678 2328 
Q 4678 1225 4090 567 
Q 3503 -91 2522 -91 
Q 1538 -91 948 565 
Q 359 1222 359 2328 
Q 359 3434 948 4092 
Q 1538 4750 2522 4750 
z
" transform="scale(0.015625)"/>
     <path id="DejaVuSans-66" d="M 2375 4863 
L 2375 4384 
L 1825 4384 
Q 1516 4384 1395 4259 
Q 1275 4134 1275 3809 
L 1275 3500 
L 2222 3500 
L 2222 3053 
L 1275 3053 
L 1275 0 
L 697 0 
L 697 3053 
L 147 3053 
L 147 3500 
L 697 3500 
L 697 3744 
Q 697 4328 969 4595 
Q 1241 4863 1831 4863 
L 2375 4863 
z
" transform="scale(0.015625)"/>
     <path id="DejaVuSans-76" d="M 191 3500 
L 800 3500 
L 1894 563 
L 2988 3500 
L 3597 3500 
L 2284 0 
L 1503 0 
L 191 3500 
z
" transform="scale(0.015625)"/>
     <path id="DejaVuSans-72" d="M 2631 2963 
Q 2534 3019 2420 3045 
Q 2306 3072 2169 3072 
Q 1681 3072 1420 2755 
Q 1159 2438 1159 1844 
L 1159 0 
L 581 0 
L 581 3500 
L 1159 3500 
L 1159 2956 
Q 1341 3275 1631 3429 
Q 1922 3584 2338 3584 
Q 2397 3584 2469 3576 
Q 2541 3569 2628 3553 
L 2631 2963 
z
" transform="scale(0.015625)"/>
     <path id="DejaVuSans-27" d="M 1147 4666 
L 1147 2931 
L 616 2931 
L 616 4666 
L 1147 4666 
z
" transform="scale(0.015625)"/>
     <path id="DejaVuSans-63" d="M 3122 3366 
L 3122 2828 
Q 2878 2963 2633 3030 
Q 2388 3097 2138 3097 
Q 1578 3097 1268 2742 
Q 959 2388 959 1747 
Q 959 1106 1268 751 
Q 1578 397 2138 397 
Q 2388 397 2633 464 
Q 2878 531 3122 666 
L 3122 134 
Q 2881 22 2623 -34 
Q 2366 -91 2075 -91 
Q 1284 -91 818 406 
Q 353 903 353 1747 
Q 353 2603 823 3093 
Q 1294 3584 2113 3584 
Q 2378 3584 2631 3529 
Q 2884 3475 3122 3366 
z
" transform="scale(0.015625)"/>
    </defs>
    <use xlink:href="#DejaVuSans-41"/>
    <use xlink:href="#DejaVuSans-6c" x="68.408203"/>
    <use xlink:href="#DejaVuSans-6c" x="96.191406"/>
    <use xlink:href="#DejaVuSans-20" x="123.974609"/>
    <use xlink:href="#DejaVuSans-53" x="155.761719"/>
    <use xlink:href="#DejaVuSans-79" x="219.238281"/>
    <use xlink:href="#DejaVuSans-6e" x="278.417969"/>
    <use xlink:href="#DejaVuSans-61" x="341.796875"/>
    <use xlink:href="#DejaVuSans-70" x="403.076172"/>
    <use xlink:href="#DejaVuSans-73" x="466.552734"/>
    <use xlink:href="#DejaVuSans-65" x="518.652344"/>
    <use xlink:href="#DejaVuSans-20" x="580.175781"/>
    <use xlink:href="#DejaVuSans-57" x="611.962891"/>
    <use xlink:href="#DejaVuSans-65" x="704.964844"/>
    <use xlink:href="#DejaVuSans-69" x="766.488281"/>
    <use xlink:href="#DejaVuSans-67" x="794.271484"/>
    <use xlink:href="#DejaVuSans-68" x="857.748047"/>
    <use xlink:href="#DejaVuSans-74" x="921.126953"/>
    <use xlink:href="#DejaVuSans-73" x="960.335938"/>
    <use xlink:href="#DejaVuSans-20" x="1012.435547"/>
    <use xlink:href="#DejaVuSans-62" x="1044.222656"/>
    <use xlink:href="#DejaVuSans-79" x="1107.699219"/>
    <use xlink:href="#DejaVuSans-20" x="1166.878906"/>
    <use xlink:href="#DejaVuSans-52" x="1198.666016"/>
    <use xlink:href="#DejaVuSans-4f" x="1268.148438"/>
    <use xlink:href="#DejaVuSans-49" x="1346.859375"/>
    <use xlink:href="#DejaVuSans-20" x="1376.351562"/>
    <use xlink:href="#DejaVuSans-6f" x="1408.138672"/>
    <use xlink:href="#DejaVuSans-66" x="1469.320312"/>
    <use xlink:href="#DejaVuSans-20" x="1504.525391"/>
    <use xlink:href="#DejaVuSans-6f" x="1536.3125"/>
    <use xlink:href="#DejaVuSans-76" x="1597.494141"/>
    <use xlink:href="#DejaVuSans-69" x="1656.673828"/>
    <use xlink:href="#DejaVuSans-49" x="1684.457031"/>
    <use xlink:href="#DejaVuSans-4e" x="1713.949219"/>
    <use xlink:href="#DejaVuSans-72" x="1788.753906"/>
    <use xlink:href="#DejaVuSans-27" x="1829.867188"/>
    <use xlink:href="#DejaVuSans-73" x="1857.357422"/>
    <use xlink:href="#DejaVuSans-20" x="1909.457031"/>
    <use xlink:href="#DejaVuSans-70" x="1941.244141"/>
    <use xlink:href="#DejaVuSans-72" x="2004.720703"/>
    <use xlink:href="#DejaVuSans-65" x="2043.583984"/>
    <use xlink:href="#DejaVuSans-73" x="2105.107422"/>
    <use xlink:href="#DejaVuSans-79" x="2157.207031"/>
    <use xlink:href="#DejaVuSans-6e" x="2216.386719"/>
    <use xlink:href="#DejaVuSans-61" x="2279.765625"/>
    <use xlink:href="#DejaVuSans-70" x="2341.044922"/>
    <use xlink:href="#DejaVuSans-74" x="2404.521484"/>
    <use xlink:href="#DejaVuSans-69" x="2443.730469"/>
    <use xlink:href="#DejaVuSans-63" x="2471.513672"/>
    <use xlink:href="#DejaVuSans-20" x="2526.494141"/>
    <use xlink:href="#DejaVuSans-70" x="2558.28125"/>
    <use xlink:href="#DejaVuSans-61" x="2621.757812"/>
    <use xlink:href="#DejaVuSans-72" x="2683.037109"/>
    <use xlink:href="#DejaVuSans-74" x="2724.150391"/>
    <use xlink:href="#DejaVuSans-6e" x="2763.359375"/>
    <use xlink:href="#DejaVuSans-65" x="2826.738281"/>
    <use xlink:href="#DejaVuSans-72" x="2888.261719"/>
    <use xlink:href="#DejaVuSans-73" x="2929.375"/>
   </g>
  </g>
 </g>
</svg>
