<?xml version="1.0" encoding="utf-8" standalone="no"?>
<!DOCTYPE svg PUBLIC "-//W3C//DTD SVG 1.1//EN"
  "http://www.w3.org/Graphics/SVG/1.1/DTD/svg11.dtd">
<svg xmlns:xlink="http://www.w3.org/1999/xlink" width="1008pt" height="360pt" viewBox="0 0 1008 360" xmlns="http://www.w3.org/2000/svg" version="1.1">
 <metadata>
  <rdf:RDF xmlns:dc="http://purl.org/dc/elements/1.1/" xmlns:cc="http://creativecommons.org/ns#" xmlns:rdf="http://www.w3.org/1999/02/22-rdf-syntax-ns#">
   <cc:Work>
    <dc:type rdf:resource="http://purl.org/dc/dcmitype/StillImage"/>
    <dc:date>2024-08-20T15:36:07.753843</dc:date>
    <dc:format>image/svg+xml</dc:format>
    <dc:creator>
     <cc:Agent>
      <dc:title>Matplotlib v3.8.4, https://matplotlib.org/</dc:title>
     </cc:Agent>
    </dc:creator>
   </cc:Work>
  </rdf:RDF>
 </metadata>
 <defs>
  <style type="text/css">*{stroke-linejoin: round; stroke-linecap: butt}</style>
 </defs>
 <g id="figure_1">
  <g id="patch_1">
   <path d="M 0 360 
L 1008 360 
L 1008 0 
L 0 0 
z
" style="fill: #ffffff"/>
  </g>
  <g id="axes_1">
   <g id="patch_2">
    <path d="M 48.840313 315.98125 
L 341.971667 315.98125 
L 341.971667 51.538125 
L 48.840313 51.538125 
z
" style="fill: #ffffff"/>
   </g>
   <g id="PathCollection_1">
    <path d="M 62.164465 88.458066 
C 68.767969 88.458066 75.101899 85.834466 79.771282 81.165084 
C 84.440664 76.495701 87.064264 70.161771 87.064264 63.558267 
C 87.064264 56.954763 84.440664 50.620833 79.771282 45.95145 
C 75.101899 41.282068 68.767969 38.658468 62.164465 38.658468 
C 55.560961 38.658468 49.227031 41.282068 44.557648 45.95145 
C 39.888266 50.620833 37.264666 56.954763 37.264666 63.558267 
C 37.264666 70.161771 39.888266 76.495701 44.557648 81.165084 
C 49.227031 85.834466 55.560961 88.458066 62.164465 88.458066 
z
" clip-path="url(#pf018c34729)" style="fill: #808080; fill-opacity: 0.5; stroke: #808080; stroke-opacity: 0.5"/>
    <path d="M 115.461075 319.209059 
C 119.504879 319.209059 123.383603 317.602438 126.243004 314.743037 
C 129.102405 311.883636 130.709025 308.004912 130.709025 303.961108 
C 130.709025 299.917304 129.102405 296.03858 126.243004 293.179179 
C 123.383603 290.319778 119.504879 288.713157 115.461075 288.713157 
C 111.417271 288.713157 107.538547 290.319778 104.679145 293.179179 
C 101.819744 296.03858 100.213124 299.917304 100.213124 303.961108 
C 100.213124 308.004912 101.819744 311.883636 104.679145 314.743037 
C 107.538547 317.602438 111.417271 319.209059 115.461075 319.209059 
z
" clip-path="url(#pf018c34729)" style="fill: #808080; fill-opacity: 0.5; stroke: #808080; stroke-opacity: 0.5"/>
    <path d="M 168.757685 314.329329 
C 171.507369 314.329329 174.144803 313.236867 176.089124 311.292547 
C 178.033444 309.348227 179.125905 306.710792 179.125905 303.961108 
C 179.125905 301.211424 178.033444 298.573989 176.089124 296.629669 
C 174.144803 294.685348 171.507369 293.592887 168.757685 293.592887 
C 166.008 293.592887 163.370566 294.685348 161.426246 296.629669 
C 159.481925 298.573989 158.389464 301.211424 158.389464 303.961108 
C 158.389464 306.710792 159.481925 309.348227 161.426246 311.292547 
C 163.370566 313.236867 166.008 314.329329 168.757685 314.329329 
z
" clip-path="url(#pf018c34729)" style="fill: #808080; fill-opacity: 0.5; stroke: #808080; stroke-opacity: 0.5"/>
    <path d="M 222.054295 313.835317 
C 224.672965 313.835317 227.184735 312.794908 229.036415 310.943228 
C 230.888094 309.091548 231.928503 306.579779 231.928503 303.961108 
C 231.928503 301.342437 230.888094 298.830668 229.036415 296.978988 
C 227.184735 295.127308 224.672965 294.086899 222.054295 294.086899 
C 219.435624 294.086899 216.923854 295.127308 215.072174 296.978988 
C 213.220495 298.830668 212.180086 301.342437 212.180086 303.961108 
C 212.180086 306.579779 213.220495 309.091548 215.072174 310.943228 
C 216.923854 312.794908 219.435624 313.835317 222.054295 313.835317 
z
" clip-path="url(#pf018c34729)" style="fill: #808080; fill-opacity: 0.5; stroke: #808080; stroke-opacity: 0.5"/>
    <path d="M 275.350904 311.866802 
C 277.447519 311.866802 279.458544 311.033808 280.941074 309.551278 
C 282.423605 308.068747 283.256599 306.057723 283.256599 303.961108 
C 283.256599 301.864493 282.423605 299.853468 280.941074 298.370938 
C 279.458544 296.888408 277.447519 296.055414 275.350904 296.055414 
C 273.25429 296.055414 271.243265 296.888408 269.760734 298.370938 
C 268.278204 299.853468 267.44521 301.864493 267.44521 303.961108 
C 267.44521 306.057723 268.278204 308.068747 269.760734 309.551278 
C 271.243265 311.033808 273.25429 311.866802 275.350904 311.866802 
z
" clip-path="url(#pf018c34729)" style="fill: #808080; fill-opacity: 0.5; stroke: #808080; stroke-opacity: 0.5"/>
    <path d="M 328.647514 308.433244 
C 329.833539 308.433244 330.971146 307.962031 331.809792 307.123386 
C 332.648438 306.28474 333.11965 305.147132 333.11965 303.961108 
C 333.11965 302.775084 332.648438 301.637476 331.809792 300.79883 
C 330.971146 299.960184 329.833539 299.488972 328.647514 299.488972 
C 327.46149 299.488972 326.323882 299.960184 325.485237 300.79883 
C 324.646591 301.637476 324.175378 302.775084 324.175378 303.961108 
C 324.175378 305.147132 324.646591 306.28474 325.485237 307.123386 
C 326.323882 307.962031 327.46149 308.433244 328.647514 308.433244 
z
" clip-path="url(#pf018c34729)" style="fill: #808080; fill-opacity: 0.5; stroke: #808080; stroke-opacity: 0.5"/>
   </g>
   <g id="matplotlib.axis_1">
    <g id="xtick_1">
     <g id="line2d_1">
      <defs>
       <path id="m544143afd5" d="M 0 0 
L 0 3.5 
" style="stroke: #000000; stroke-width: 0.8"/>
      </defs>
      <g>
       <use xlink:href="#m544143afd5" x="62.164465" y="315.98125" style="stroke: #000000; stroke-width: 0.8"/>
      </g>
     </g>
     <g id="text_1">
      <!-- 0.0 -->
      <g transform="translate(55.214465 330.154688) scale(0.1 -0.1)">
       <defs>
        <path id="Helvetica-30" d="M 1731 4475 
Q 2600 4475 2988 3759 
Q 3288 3206 3288 2244 
Q 3288 1331 3016 734 
Q 2622 -122 1728 -122 
Q 922 -122 528 578 
Q 200 1163 200 2147 
Q 200 2909 397 3456 
Q 766 4475 1731 4475 
z
M 1725 391 
Q 2163 391 2422 778 
Q 2681 1166 2681 2222 
Q 2681 2984 2493 3476 
Q 2306 3969 1766 3969 
Q 1269 3969 1039 3501 
Q 809 3034 809 2125 
Q 809 1441 956 1025 
Q 1181 391 1725 391 
z
" transform="scale(0.015625)"/>
        <path id="Helvetica-2e" d="M 547 681 
L 1200 681 
L 1200 0 
L 547 0 
L 547 681 
z
" transform="scale(0.015625)"/>
       </defs>
       <use xlink:href="#Helvetica-30"/>
       <use xlink:href="#Helvetica-2e" x="55.615234"/>
       <use xlink:href="#Helvetica-30" x="83.398438"/>
      </g>
     </g>
    </g>
    <g id="xtick_2">
     <g id="line2d_2">
      <g>
       <use xlink:href="#m544143afd5" x="115.461075" y="315.98125" style="stroke: #000000; stroke-width: 0.8"/>
      </g>
     </g>
     <g id="text_2">
      <!-- 0.05 -->
      <g transform="translate(105.730606 330.154688) scale(0.1 -0.1)">
       <defs>
        <path id="Helvetica-35" d="M 791 1141 
Q 847 659 1238 475 
Q 1438 381 1700 381 
Q 2200 381 2440 700 
Q 2681 1019 2681 1406 
Q 2681 1875 2395 2131 
Q 2109 2388 1709 2388 
Q 1419 2388 1211 2275 
Q 1003 2163 856 1963 
L 369 1991 
L 709 4400 
L 3034 4400 
L 3034 3856 
L 1131 3856 
L 941 2613 
Q 1097 2731 1238 2791 
Q 1488 2894 1816 2894 
Q 2431 2894 2859 2497 
Q 3288 2100 3288 1491 
Q 3288 856 2895 371 
Q 2503 -113 1644 -113 
Q 1097 -113 676 195 
Q 256 503 206 1141 
L 791 1141 
z
" transform="scale(0.015625)"/>
       </defs>
       <use xlink:href="#Helvetica-30"/>
       <use xlink:href="#Helvetica-2e" x="55.615234"/>
       <use xlink:href="#Helvetica-30" x="83.398438"/>
       <use xlink:href="#Helvetica-35" x="139.013672"/>
      </g>
     </g>
    </g>
    <g id="xtick_3">
     <g id="line2d_3">
      <g>
       <use xlink:href="#m544143afd5" x="168.757685" y="315.98125" style="stroke: #000000; stroke-width: 0.8"/>
      </g>
     </g>
     <g id="text_3">
      <!-- 0.1 -->
      <g transform="translate(161.807685 330.154688) scale(0.1 -0.1)">
       <defs>
        <path id="Helvetica-31" d="M 613 3169 
L 613 3600 
Q 1222 3659 1462 3798 
Q 1703 3938 1822 4456 
L 2266 4456 
L 2266 0 
L 1666 0 
L 1666 3169 
L 613 3169 
z
" transform="scale(0.015625)"/>
       </defs>
       <use xlink:href="#Helvetica-30"/>
       <use xlink:href="#Helvetica-2e" x="55.615234"/>
       <use xlink:href="#Helvetica-31" x="83.398438"/>
      </g>
     </g>
    </g>
    <g id="xtick_4">
     <g id="line2d_4">
      <g>
       <use xlink:href="#m544143afd5" x="222.054295" y="315.98125" style="stroke: #000000; stroke-width: 0.8"/>
      </g>
     </g>
     <g id="text_4">
      <!-- 0.5 -->
      <g transform="translate(215.104295 330.154688) scale(0.1 -0.1)">
       <use xlink:href="#Helvetica-30"/>
       <use xlink:href="#Helvetica-2e" x="55.615234"/>
       <use xlink:href="#Helvetica-35" x="83.398438"/>
      </g>
     </g>
    </g>
    <g id="xtick_5">
     <g id="line2d_5">
      <g>
       <use xlink:href="#m544143afd5" x="275.350904" y="315.98125" style="stroke: #000000; stroke-width: 0.8"/>
      </g>
     </g>
     <g id="text_5">
      <!-- 0.75 -->
      <g transform="translate(265.620436 330.154688) scale(0.1 -0.1)">
       <defs>
        <path id="Helvetica-37" d="M 3347 4400 
L 3347 3909 
Q 3131 3700 2773 3181 
Q 2416 2663 2141 2063 
Q 1869 1478 1728 997 
Q 1638 688 1494 0 
L 872 0 
Q 1084 1281 1809 2550 
Q 2238 3294 2709 3834 
L 234 3834 
L 234 4400 
L 3347 4400 
z
" transform="scale(0.015625)"/>
       </defs>
       <use xlink:href="#Helvetica-30"/>
       <use xlink:href="#Helvetica-2e" x="55.615234"/>
       <use xlink:href="#Helvetica-37" x="83.398438"/>
       <use xlink:href="#Helvetica-35" x="139.013672"/>
      </g>
     </g>
    </g>
    <g id="xtick_6">
     <g id="line2d_6">
      <g>
       <use xlink:href="#m544143afd5" x="328.647514" y="315.98125" style="stroke: #000000; stroke-width: 0.8"/>
      </g>
     </g>
     <g id="text_6">
      <!-- 1.0 -->
      <g transform="translate(321.697514 330.154688) scale(0.1 -0.1)">
       <use xlink:href="#Helvetica-31"/>
       <use xlink:href="#Helvetica-2e" x="55.615234"/>
       <use xlink:href="#Helvetica-30" x="83.398438"/>
      </g>
     </g>
    </g>
    <g id="text_7">
     <!-- Resolution -->
     <g transform="translate(162.332083 346.281875) scale(0.14 -0.14)">
      <defs>
       <path id="Helvetica-52" d="M 2622 2488 
Q 3059 2488 3314 2663 
Q 3569 2838 3569 3294 
Q 3569 3784 3213 3963 
Q 3022 4056 2703 4056 
L 1184 4056 
L 1184 2488 
L 2622 2488 
z
M 563 4591 
L 2688 4591 
Q 3213 4591 3553 4438 
Q 4200 4144 4200 3353 
Q 4200 2941 4029 2678 
Q 3859 2416 3553 2256 
Q 3822 2147 3958 1969 
Q 4094 1791 4109 1391 
L 4131 775 
Q 4141 513 4175 384 
Q 4231 166 4375 103 
L 4375 0 
L 3613 0 
Q 3581 59 3562 153 
Q 3544 247 3531 516 
L 3494 1281 
Q 3472 1731 3159 1884 
Q 2981 1969 2600 1969 
L 1184 1969 
L 1184 0 
L 563 0 
L 563 4591 
z
" transform="scale(0.015625)"/>
       <path id="Helvetica-65" d="M 1806 3422 
Q 2163 3422 2497 3255 
Q 2831 3088 3006 2822 
Q 3175 2569 3231 2231 
Q 3281 2000 3281 1494 
L 828 1494 
Q 844 984 1069 676 
Q 1294 369 1766 369 
Q 2206 369 2469 659 
Q 2619 828 2681 1050 
L 3234 1050 
Q 3213 866 3089 639 
Q 2966 413 2813 269 
Q 2556 19 2178 -69 
Q 1975 -119 1719 -119 
Q 1094 -119 659 336 
Q 225 791 225 1609 
Q 225 2416 662 2919 
Q 1100 3422 1806 3422 
z
M 2703 1941 
Q 2669 2306 2544 2525 
Q 2313 2931 1772 2931 
Q 1384 2931 1121 2651 
Q 859 2372 844 1941 
L 2703 1941 
z
M 1753 3428 
L 1753 3428 
z
" transform="scale(0.015625)"/>
       <path id="Helvetica-73" d="M 747 1050 
Q 772 769 888 619 
Q 1100 347 1625 347 
Q 1938 347 2175 483 
Q 2413 619 2413 903 
Q 2413 1119 2222 1231 
Q 2100 1300 1741 1391 
L 1294 1503 
Q 866 1609 663 1741 
Q 300 1969 300 2372 
Q 300 2847 642 3140 
Q 984 3434 1563 3434 
Q 2319 3434 2653 2991 
Q 2863 2709 2856 2384 
L 2325 2384 
Q 2309 2575 2191 2731 
Q 1997 2953 1519 2953 
Q 1200 2953 1036 2831 
Q 872 2709 872 2509 
Q 872 2291 1088 2159 
Q 1213 2081 1456 2022 
L 1828 1931 
Q 2434 1784 2641 1647 
Q 2969 1431 2969 969 
Q 2969 522 2630 197 
Q 2291 -128 1597 -128 
Q 850 -128 539 211 
Q 228 550 206 1050 
L 747 1050 
z
M 1578 3428 
L 1578 3428 
z
" transform="scale(0.015625)"/>
       <path id="Helvetica-6f" d="M 1741 363 
Q 2300 363 2508 786 
Q 2716 1209 2716 1728 
Q 2716 2197 2566 2491 
Q 2328 2953 1747 2953 
Q 1231 2953 997 2559 
Q 763 2166 763 1609 
Q 763 1075 997 719 
Q 1231 363 1741 363 
z
M 1763 3444 
Q 2409 3444 2856 3012 
Q 3303 2581 3303 1744 
Q 3303 934 2909 406 
Q 2516 -122 1688 -122 
Q 997 -122 590 345 
Q 184 813 184 1600 
Q 184 2444 612 2944 
Q 1041 3444 1763 3444 
z
M 1744 3428 
L 1744 3428 
z
" transform="scale(0.015625)"/>
       <path id="Helvetica-6c" d="M 428 4591 
L 991 4591 
L 991 0 
L 428 0 
L 428 4591 
z
" transform="scale(0.015625)"/>
       <path id="Helvetica-75" d="M 975 3347 
L 975 1125 
Q 975 869 1056 706 
Q 1206 406 1616 406 
Q 2203 406 2416 931 
Q 2531 1213 2531 1703 
L 2531 3347 
L 3094 3347 
L 3094 0 
L 2563 0 
L 2569 494 
Q 2459 303 2297 172 
Q 1975 -91 1516 -91 
Q 800 -91 541 388 
Q 400 644 400 1072 
L 400 3347 
L 975 3347 
z
M 1747 3428 
L 1747 3428 
z
" transform="scale(0.015625)"/>
       <path id="Helvetica-74" d="M 525 4281 
L 1094 4281 
L 1094 3347 
L 1628 3347 
L 1628 2888 
L 1094 2888 
L 1094 703 
Q 1094 528 1213 469 
Q 1278 434 1431 434 
Q 1472 434 1519 436 
Q 1566 438 1628 444 
L 1628 0 
Q 1531 -28 1426 -40 
Q 1322 -53 1200 -53 
Q 806 -53 665 148 
Q 525 350 525 672 
L 525 2888 
L 72 2888 
L 72 3347 
L 525 3347 
L 525 4281 
z
" transform="scale(0.015625)"/>
       <path id="Helvetica-69" d="M 413 3331 
L 984 3331 
L 984 0 
L 413 0 
L 413 3331 
z
M 413 4591 
L 984 4591 
L 984 3953 
L 413 3953 
L 413 4591 
z
" transform="scale(0.015625)"/>
       <path id="Helvetica-6e" d="M 413 3347 
L 947 3347 
L 947 2872 
Q 1184 3166 1450 3294 
Q 1716 3422 2041 3422 
Q 2753 3422 3003 2925 
Q 3141 2653 3141 2147 
L 3141 0 
L 2569 0 
L 2569 2109 
Q 2569 2416 2478 2603 
Q 2328 2916 1934 2916 
Q 1734 2916 1606 2875 
Q 1375 2806 1200 2600 
Q 1059 2434 1017 2257 
Q 975 2081 975 1753 
L 975 0 
L 413 0 
L 413 3347 
z
M 1734 3428 
L 1734 3428 
z
" transform="scale(0.015625)"/>
      </defs>
      <use xlink:href="#Helvetica-52"/>
      <use xlink:href="#Helvetica-65" x="72.216797"/>
      <use xlink:href="#Helvetica-73" x="127.832031"/>
      <use xlink:href="#Helvetica-6f" x="177.832031"/>
      <use xlink:href="#Helvetica-6c" x="233.447266"/>
      <use xlink:href="#Helvetica-75" x="255.664062"/>
      <use xlink:href="#Helvetica-74" x="311.279297"/>
      <use xlink:href="#Helvetica-69" x="339.0625"/>
      <use xlink:href="#Helvetica-6f" x="361.279297"/>
      <use xlink:href="#Helvetica-6e" x="416.894531"/>
     </g>
    </g>
   </g>
   <g id="matplotlib.axis_2">
    <g id="ytick_1">
     <g id="line2d_7">
      <defs>
       <path id="me427c770a5" d="M 0 0 
L -3.5 0 
" style="stroke: #000000; stroke-width: 0.8"/>
      </defs>
      <g>
       <use xlink:href="#me427c770a5" x="48.840313" y="303.961108" style="stroke: #000000; stroke-width: 0.8"/>
      </g>
     </g>
     <g id="text_8">
      <!-- 0.0 -->
      <g transform="translate(27.940313 307.547827) scale(0.1 -0.1)">
       <use xlink:href="#Helvetica-30"/>
       <use xlink:href="#Helvetica-2e" x="55.615234"/>
       <use xlink:href="#Helvetica-30" x="83.398438"/>
      </g>
     </g>
    </g>
    <g id="ytick_2">
     <g id="line2d_8">
      <g>
       <use xlink:href="#me427c770a5" x="48.840313" y="255.88054" style="stroke: #000000; stroke-width: 0.8"/>
      </g>
     </g>
     <g id="text_9">
      <!-- 0.2 -->
      <g transform="translate(27.940313 259.467259) scale(0.1 -0.1)">
       <defs>
        <path id="Helvetica-32" d="M 200 0 
Q 231 578 439 1006 
Q 647 1434 1250 1784 
L 1850 2131 
Q 2253 2366 2416 2531 
Q 2672 2791 2672 3125 
Q 2672 3516 2437 3745 
Q 2203 3975 1813 3975 
Q 1234 3975 1013 3538 
Q 894 3303 881 2888 
L 309 2888 
Q 319 3472 525 3841 
Q 891 4491 1816 4491 
Q 2584 4491 2939 4075 
Q 3294 3659 3294 3150 
Q 3294 2613 2916 2231 
Q 2697 2009 2131 1694 
L 1703 1456 
Q 1397 1288 1222 1134 
Q 909 863 828 531 
L 3272 531 
L 3272 0 
L 200 0 
z
" transform="scale(0.015625)"/>
       </defs>
       <use xlink:href="#Helvetica-30"/>
       <use xlink:href="#Helvetica-2e" x="55.615234"/>
       <use xlink:href="#Helvetica-32" x="83.398438"/>
      </g>
     </g>
    </g>
    <g id="ytick_3">
     <g id="line2d_9">
      <g>
       <use xlink:href="#me427c770a5" x="48.840313" y="207.799972" style="stroke: #000000; stroke-width: 0.8"/>
      </g>
     </g>
     <g id="text_10">
      <!-- 0.4 -->
      <g transform="translate(27.940313 211.38669) scale(0.1 -0.1)">
       <defs>
        <path id="Helvetica-34" d="M 2116 1584 
L 2116 3613 
L 681 1584 
L 2116 1584 
z
M 2125 0 
L 2125 1094 
L 163 1094 
L 163 1644 
L 2213 4488 
L 2688 4488 
L 2688 1584 
L 3347 1584 
L 3347 1094 
L 2688 1094 
L 2688 0 
L 2125 0 
z
" transform="scale(0.015625)"/>
       </defs>
       <use xlink:href="#Helvetica-30"/>
       <use xlink:href="#Helvetica-2e" x="55.615234"/>
       <use xlink:href="#Helvetica-34" x="83.398438"/>
      </g>
     </g>
    </g>
    <g id="ytick_4">
     <g id="line2d_10">
      <g>
       <use xlink:href="#me427c770a5" x="48.840313" y="159.719403" style="stroke: #000000; stroke-width: 0.8"/>
      </g>
     </g>
     <g id="text_11">
      <!-- 0.6 -->
      <g transform="translate(27.940313 163.306122) scale(0.1 -0.1)">
       <defs>
        <path id="Helvetica-36" d="M 1872 4494 
Q 2622 4494 2917 4105 
Q 3213 3716 3213 3303 
L 2656 3303 
Q 2606 3569 2497 3719 
Q 2294 4000 1881 4000 
Q 1409 4000 1131 3564 
Q 853 3128 822 2316 
Q 1016 2600 1309 2741 
Q 1578 2866 1909 2866 
Q 2472 2866 2890 2506 
Q 3309 2147 3309 1434 
Q 3309 825 2912 354 
Q 2516 -116 1781 -116 
Q 1153 -116 697 361 
Q 241 838 241 1966 
Q 241 2800 444 3381 
Q 834 4494 1872 4494 
z
M 1831 384 
Q 2275 384 2495 682 
Q 2716 981 2716 1388 
Q 2716 1731 2519 2042 
Q 2322 2353 1803 2353 
Q 1441 2353 1167 2112 
Q 894 1872 894 1388 
Q 894 963 1142 673 
Q 1391 384 1831 384 
z
" transform="scale(0.015625)"/>
       </defs>
       <use xlink:href="#Helvetica-30"/>
       <use xlink:href="#Helvetica-2e" x="55.615234"/>
       <use xlink:href="#Helvetica-36" x="83.398438"/>
      </g>
     </g>
    </g>
    <g id="ytick_5">
     <g id="line2d_11">
      <g>
       <use xlink:href="#me427c770a5" x="48.840313" y="111.638835" style="stroke: #000000; stroke-width: 0.8"/>
      </g>
     </g>
     <g id="text_12">
      <!-- 0.8 -->
      <g transform="translate(27.940313 115.225554) scale(0.1 -0.1)">
       <defs>
        <path id="Helvetica-38" d="M 1741 2600 
Q 2113 2600 2322 2808 
Q 2531 3016 2531 3303 
Q 2531 3553 2331 3762 
Q 2131 3972 1722 3972 
Q 1316 3972 1134 3762 
Q 953 3553 953 3272 
Q 953 2956 1187 2778 
Q 1422 2600 1741 2600 
z
M 1775 384 
Q 2166 384 2423 595 
Q 2681 806 2681 1225 
Q 2681 1659 2415 1884 
Q 2150 2109 1734 2109 
Q 1331 2109 1076 1879 
Q 822 1650 822 1244 
Q 822 894 1055 639 
Q 1288 384 1775 384 
z
M 975 2384 
Q 741 2484 609 2619 
Q 363 2869 363 3269 
Q 363 3769 725 4128 
Q 1088 4488 1753 4488 
Q 2397 4488 2762 4148 
Q 3128 3809 3128 3356 
Q 3128 2938 2916 2678 
Q 2797 2531 2547 2391 
Q 2825 2263 2984 2097 
Q 3281 1784 3281 1284 
Q 3281 694 2884 283 
Q 2488 -128 1763 -128 
Q 1109 -128 657 226 
Q 206 581 206 1256 
Q 206 1653 400 1942 
Q 594 2231 975 2384 
z
" transform="scale(0.015625)"/>
       </defs>
       <use xlink:href="#Helvetica-30"/>
       <use xlink:href="#Helvetica-2e" x="55.615234"/>
       <use xlink:href="#Helvetica-38" x="83.398438"/>
      </g>
     </g>
    </g>
    <g id="ytick_6">
     <g id="line2d_12">
      <g>
       <use xlink:href="#me427c770a5" x="48.840313" y="63.558267" style="stroke: #000000; stroke-width: 0.8"/>
      </g>
     </g>
     <g id="text_13">
      <!-- 1.0 -->
      <g transform="translate(27.940313 67.144986) scale(0.1 -0.1)">
       <use xlink:href="#Helvetica-31"/>
       <use xlink:href="#Helvetica-2e" x="55.615234"/>
       <use xlink:href="#Helvetica-30" x="83.398438"/>
      </g>
     </g>
    </g>
    <g id="text_14">
     <!-- Pagerank -->
     <g transform="translate(20.842813 213.722969) rotate(-90) scale(0.14 -0.14)">
      <defs>
       <path id="Helvetica-50" d="M 547 4591 
L 2613 4591 
Q 3225 4591 3600 4245 
Q 3975 3900 3975 3275 
Q 3975 2738 3640 2339 
Q 3306 1941 2613 1941 
L 1169 1941 
L 1169 0 
L 547 0 
L 547 4591 
z
M 3347 3272 
Q 3347 3778 2972 3959 
Q 2766 4056 2406 4056 
L 1169 4056 
L 1169 2466 
L 2406 2466 
Q 2825 2466 3086 2644 
Q 3347 2822 3347 3272 
z
" transform="scale(0.015625)"/>
       <path id="Helvetica-61" d="M 844 891 
Q 844 647 1022 506 
Q 1200 366 1444 366 
Q 1741 366 2019 503 
Q 2488 731 2488 1250 
L 2488 1703 
Q 2384 1638 2221 1594 
Q 2059 1550 1903 1531 
L 1563 1488 
Q 1256 1447 1103 1359 
Q 844 1213 844 891 
z
M 2206 2028 
Q 2400 2053 2466 2191 
Q 2503 2266 2503 2406 
Q 2503 2694 2298 2823 
Q 2094 2953 1713 2953 
Q 1272 2953 1088 2716 
Q 984 2584 953 2325 
L 428 2325 
Q 444 2944 830 3186 
Q 1216 3428 1725 3428 
Q 2316 3428 2684 3203 
Q 3050 2978 3050 2503 
L 3050 575 
Q 3050 488 3086 434 
Q 3122 381 3238 381 
Q 3275 381 3322 386 
Q 3369 391 3422 400 
L 3422 -16 
Q 3291 -53 3222 -62 
Q 3153 -72 3034 -72 
Q 2744 -72 2613 134 
Q 2544 244 2516 444 
Q 2344 219 2022 53 
Q 1700 -113 1313 -113 
Q 847 -113 551 170 
Q 256 453 256 878 
Q 256 1344 547 1600 
Q 838 1856 1309 1916 
L 2206 2028 
z
M 1741 3428 
L 1741 3428 
z
" transform="scale(0.015625)"/>
       <path id="Helvetica-67" d="M 1594 3406 
Q 1988 3406 2281 3213 
Q 2441 3103 2606 2894 
L 2606 3316 
L 3125 3316 
L 3125 272 
Q 3125 -366 2938 -734 
Q 2588 -1416 1616 -1416 
Q 1075 -1416 706 -1173 
Q 338 -931 294 -416 
L 866 -416 
Q 906 -641 1028 -763 
Q 1219 -950 1628 -950 
Q 2275 -950 2475 -494 
Q 2594 -225 2584 466 
Q 2416 209 2178 84 
Q 1941 -41 1550 -41 
Q 1006 -41 598 345 
Q 191 731 191 1622 
Q 191 2463 602 2934 
Q 1013 3406 1594 3406 
z
M 2606 1688 
Q 2606 2309 2350 2609 
Q 2094 2909 1697 2909 
Q 1103 2909 884 2353 
Q 769 2056 769 1575 
Q 769 1009 998 714 
Q 1228 419 1616 419 
Q 2222 419 2469 966 
Q 2606 1275 2606 1688 
z
M 1659 3428 
L 1659 3428 
z
" transform="scale(0.015625)"/>
       <path id="Helvetica-72" d="M 428 3347 
L 963 3347 
L 963 2769 
Q 1028 2938 1284 3180 
Q 1541 3422 1875 3422 
Q 1891 3422 1928 3419 
Q 1966 3416 2056 3406 
L 2056 2813 
Q 2006 2822 1964 2825 
Q 1922 2828 1872 2828 
Q 1447 2828 1219 2554 
Q 991 2281 991 1925 
L 991 0 
L 428 0 
L 428 3347 
z
" transform="scale(0.015625)"/>
       <path id="Helvetica-6b" d="M 400 4591 
L 941 4591 
L 941 1925 
L 2384 3347 
L 3103 3347 
L 1822 2094 
L 3175 0 
L 2456 0 
L 1413 1688 
L 941 1256 
L 941 0 
L 400 0 
L 400 4591 
z
" transform="scale(0.015625)"/>
      </defs>
      <use xlink:href="#Helvetica-50"/>
      <use xlink:href="#Helvetica-61" x="66.699219"/>
      <use xlink:href="#Helvetica-67" x="122.314453"/>
      <use xlink:href="#Helvetica-65" x="177.929688"/>
      <use xlink:href="#Helvetica-72" x="233.544922"/>
      <use xlink:href="#Helvetica-61" x="266.845703"/>
      <use xlink:href="#Helvetica-6e" x="322.460938"/>
      <use xlink:href="#Helvetica-6b" x="378.076172"/>
     </g>
    </g>
   </g>
   <g id="line2d_13">
    <path d="M 62.164465 63.558267 
L 115.461075 303.961108 
L 168.757685 303.961108 
L 222.054295 303.961108 
L 275.350904 303.961108 
L 328.647514 303.961108 
" clip-path="url(#pf018c34729)" style="fill: none; stroke: #ff0000; stroke-width: 1.5; stroke-linecap: square"/>
   </g>
   <g id="patch_3">
    <path d="M 48.840313 315.98125 
L 48.840313 51.538125 
" style="fill: none; stroke: #000000; stroke-width: 0.8; stroke-linejoin: miter; stroke-linecap: square"/>
   </g>
   <g id="patch_4">
    <path d="M 341.971667 315.98125 
L 341.971667 51.538125 
" style="fill: none; stroke: #000000; stroke-width: 0.8; stroke-linejoin: miter; stroke-linecap: square"/>
   </g>
   <g id="patch_5">
    <path d="M 48.840313 315.98125 
L 341.971667 315.98125 
" style="fill: none; stroke: #000000; stroke-width: 0.8; stroke-linejoin: miter; stroke-linecap: square"/>
   </g>
   <g id="patch_6">
    <path d="M 48.840313 51.538125 
L 341.971667 51.538125 
" style="fill: none; stroke: #000000; stroke-width: 0.8; stroke-linejoin: miter; stroke-linecap: square"/>
   </g>
   <g id="text_15">
    <!-- FS1A -->
    <g transform="translate(180.400365 45.538125) scale(0.12 -0.12)">
     <defs>
      <path id="Helvetica-46" d="M 547 4591 
L 3731 4591 
L 3731 4028 
L 1169 4028 
L 1169 2634 
L 3422 2634 
L 3422 2088 
L 1169 2088 
L 1169 0 
L 547 0 
L 547 4591 
z
" transform="scale(0.015625)"/>
      <path id="Helvetica-53" d="M 894 1481 
Q 916 1091 1078 847 
Q 1388 391 2169 391 
Q 2519 391 2806 491 
Q 3363 684 3363 1184 
Q 3363 1559 3128 1719 
Q 2891 1875 2384 1991 
L 1763 2131 
Q 1153 2269 900 2434 
Q 463 2722 463 3294 
Q 463 3913 891 4309 
Q 1319 4706 2103 4706 
Q 2825 4706 3329 4357 
Q 3834 4009 3834 3244 
L 3250 3244 
Q 3203 3613 3050 3809 
Q 2766 4169 2084 4169 
Q 1534 4169 1293 3937 
Q 1053 3706 1053 3400 
Q 1053 3063 1334 2906 
Q 1519 2806 2169 2656 
L 2813 2509 
Q 3278 2403 3531 2219 
Q 3969 1897 3969 1284 
Q 3969 522 3414 194 
Q 2859 -134 2125 -134 
Q 1269 -134 784 303 
Q 300 738 309 1481 
L 894 1481 
z
M 2150 4716 
L 2150 4716 
z
" transform="scale(0.015625)"/>
      <path id="Helvetica-41" d="M 2844 1881 
L 2147 3909 
L 1406 1881 
L 2844 1881 
z
M 1822 4591 
L 2525 4591 
L 4191 0 
L 3509 0 
L 3044 1375 
L 1228 1375 
L 731 0 
L 94 0 
L 1822 4591 
z
" transform="scale(0.015625)"/>
     </defs>
     <use xlink:href="#Helvetica-46"/>
     <use xlink:href="#Helvetica-53" x="61.083984"/>
     <use xlink:href="#Helvetica-31" x="127.783203"/>
     <use xlink:href="#Helvetica-41" x="183.398438"/>
    </g>
   </g>
  </g>
  <g id="axes_2">
   <g id="patch_7">
    <path d="M 376.454479 315.98125 
L 669.585833 315.98125 
L 669.585833 51.538125 
L 376.454479 51.538125 
z
" style="fill: #ffffff"/>
   </g>
   <g id="PathCollection_2">
    <path d="M 387.728762 91.352151 
C 395.099786 91.352151 402.169905 88.423612 407.382006 83.211511 
C 412.594107 77.99941 415.522646 70.929291 415.522646 63.558267 
C 415.522646 56.187243 412.594107 49.117124 407.382006 43.905023 
C 402.169905 38.692922 395.099786 35.764383 387.728762 35.764383 
C 380.357738 35.764383 373.287619 38.692922 368.075518 43.905023 
C 362.863417 49.117124 359.934878 56.187243 359.934878 63.558267 
C 359.934878 70.929291 362.863417 77.99941 368.075518 83.211511 
C 373.287619 88.423612 380.357738 91.352151 387.728762 91.352151 
z
" clip-path="url(#pfb8970f5ea)" style="fill: #808080; fill-opacity: 0.5; stroke: #808080; stroke-opacity: 0.5"/>
    <path d="M 444.100176 182.848563 
C 448.616422 182.848563 452.948303 181.05424 456.141771 177.860772 
C 459.335239 174.667303 461.129563 170.335423 461.129563 165.819177 
C 461.129563 161.302931 459.335239 156.971051 456.141771 153.777582 
C 452.948303 150.584114 448.616422 148.789791 444.100176 148.789791 
C 439.58393 148.789791 435.25205 150.584114 432.058582 153.777582 
C 428.865113 156.971051 427.07079 161.302931 427.07079 165.819177 
C 427.07079 170.335423 428.865113 174.667303 432.058582 177.860772 
C 435.25205 181.05424 439.58393 182.848563 444.100176 182.848563 
z
" clip-path="url(#pfb8970f5ea)" style="fill: #808080; fill-opacity: 0.5; stroke: #808080; stroke-opacity: 0.5"/>
    <path d="M 500.471591 199.961539 
C 504.768372 199.961539 508.889747 198.25441 511.92803 195.216127 
C 514.966313 192.177844 516.673442 188.056469 516.673442 183.759687 
C 516.673442 179.462906 514.966313 175.341531 511.92803 172.303248 
C 508.889747 169.264965 504.768372 167.557836 500.471591 167.557836 
C 496.174809 167.557836 492.053435 169.264965 489.015151 172.303248 
C 485.976868 175.341531 484.269739 179.462906 484.269739 183.759687 
C 484.269739 188.056469 485.976868 192.177844 489.015151 195.216127 
C 492.053435 198.25441 496.174809 199.961539 500.471591 199.961539 
z
" clip-path="url(#pfb8970f5ea)" style="fill: #808080; fill-opacity: 0.5; stroke: #808080; stroke-opacity: 0.5"/>
    <path d="M 556.843005 307.834091 
C 557.870132 307.834091 558.855329 307.426009 559.581618 306.699721 
C 560.307906 305.973432 560.715988 304.988235 560.715988 303.961108 
C 560.715988 302.933981 560.307906 301.948784 559.581618 301.222495 
C 558.855329 300.496207 557.870132 300.088125 556.843005 300.088125 
C 555.815878 300.088125 554.830681 300.496207 554.104392 301.222495 
C 553.378103 301.948784 552.970021 302.933981 552.970021 303.961108 
C 552.970021 304.988235 553.378103 305.973432 554.104392 306.699721 
C 554.830681 307.426009 555.815878 307.834091 556.843005 307.834091 
z
" clip-path="url(#pfb8970f5ea)" style="fill: #808080; fill-opacity: 0.5; stroke: #808080; stroke-opacity: 0.5"/>
    <path d="M 613.214419 307.496642 
C 614.152054 307.496642 615.051411 307.124116 615.714419 306.461108 
C 616.377427 305.7981 616.749953 304.898743 616.749953 303.961108 
C 616.749953 303.023473 616.377427 302.124116 615.714419 301.461108 
C 615.051411 300.7981 614.152054 300.425574 613.214419 300.425574 
C 612.276785 300.425574 611.377427 300.7981 610.714419 301.461108 
C 610.051411 302.124116 609.678885 303.023473 609.678885 303.961108 
C 609.678885 304.898743 610.051411 305.7981 610.714419 306.461108 
C 611.377427 307.124116 612.276785 307.496642 613.214419 307.496642 
z
" clip-path="url(#pfb8970f5ea)" style="fill: #808080; fill-opacity: 0.5; stroke: #808080; stroke-opacity: 0.5"/>
   </g>
   <g id="PathCollection_3"/>
   <g id="matplotlib.axis_3">
    <g id="xtick_7">
     <g id="line2d_14">
      <g>
       <use xlink:href="#m544143afd5" x="387.728762" y="315.98125" style="stroke: #000000; stroke-width: 0.8"/>
      </g>
     </g>
     <g id="text_16">
      <!-- 0.0 -->
      <g transform="translate(380.778762 330.154688) scale(0.1 -0.1)">
       <use xlink:href="#Helvetica-30"/>
       <use xlink:href="#Helvetica-2e" x="55.615234"/>
       <use xlink:href="#Helvetica-30" x="83.398438"/>
      </g>
     </g>
    </g>
    <g id="xtick_8">
     <g id="line2d_15">
      <g>
       <use xlink:href="#m544143afd5" x="444.100176" y="315.98125" style="stroke: #000000; stroke-width: 0.8"/>
      </g>
     </g>
     <g id="text_17">
      <!-- 0.05 -->
      <g transform="translate(434.369708 330.154688) scale(0.1 -0.1)">
       <use xlink:href="#Helvetica-30"/>
       <use xlink:href="#Helvetica-2e" x="55.615234"/>
       <use xlink:href="#Helvetica-30" x="83.398438"/>
       <use xlink:href="#Helvetica-35" x="139.013672"/>
      </g>
     </g>
    </g>
    <g id="xtick_9">
     <g id="line2d_16">
      <g>
       <use xlink:href="#m544143afd5" x="500.471591" y="315.98125" style="stroke: #000000; stroke-width: 0.8"/>
      </g>
     </g>
     <g id="text_18">
      <!-- 0.1 -->
      <g transform="translate(493.521591 330.154688) scale(0.1 -0.1)">
       <use xlink:href="#Helvetica-30"/>
       <use xlink:href="#Helvetica-2e" x="55.615234"/>
       <use xlink:href="#Helvetica-31" x="83.398438"/>
      </g>
     </g>
    </g>
    <g id="xtick_10">
     <g id="line2d_17">
      <g>
       <use xlink:href="#m544143afd5" x="556.843005" y="315.98125" style="stroke: #000000; stroke-width: 0.8"/>
      </g>
     </g>
     <g id="text_19">
      <!-- 0.5 -->
      <g transform="translate(549.893005 330.154688) scale(0.1 -0.1)">
       <use xlink:href="#Helvetica-30"/>
       <use xlink:href="#Helvetica-2e" x="55.615234"/>
       <use xlink:href="#Helvetica-35" x="83.398438"/>
      </g>
     </g>
    </g>
    <g id="xtick_11">
     <g id="line2d_18">
      <g>
       <use xlink:href="#m544143afd5" x="613.214419" y="315.98125" style="stroke: #000000; stroke-width: 0.8"/>
      </g>
     </g>
     <g id="text_20">
      <!-- 0.75 -->
      <g transform="translate(603.48395 330.154688) scale(0.1 -0.1)">
       <use xlink:href="#Helvetica-30"/>
       <use xlink:href="#Helvetica-2e" x="55.615234"/>
       <use xlink:href="#Helvetica-37" x="83.398438"/>
       <use xlink:href="#Helvetica-35" x="139.013672"/>
      </g>
     </g>
    </g>
    <g id="xtick_12">
     <g id="line2d_19">
      <g>
       <use xlink:href="#m544143afd5" x="669.585833" y="315.98125" style="stroke: #000000; stroke-width: 0.8"/>
      </g>
     </g>
     <g id="text_21">
      <!-- 1.0 -->
      <g transform="translate(662.635833 330.154688) scale(0.1 -0.1)">
       <use xlink:href="#Helvetica-31"/>
       <use xlink:href="#Helvetica-2e" x="55.615234"/>
       <use xlink:href="#Helvetica-30" x="83.398438"/>
      </g>
     </g>
    </g>
    <g id="text_22">
     <!-- Resolution -->
     <g transform="translate(489.94625 346.281875) scale(0.14 -0.14)">
      <use xlink:href="#Helvetica-52"/>
      <use xlink:href="#Helvetica-65" x="72.216797"/>
      <use xlink:href="#Helvetica-73" x="127.832031"/>
      <use xlink:href="#Helvetica-6f" x="177.832031"/>
      <use xlink:href="#Helvetica-6c" x="233.447266"/>
      <use xlink:href="#Helvetica-75" x="255.664062"/>
      <use xlink:href="#Helvetica-74" x="311.279297"/>
      <use xlink:href="#Helvetica-69" x="339.0625"/>
      <use xlink:href="#Helvetica-6f" x="361.279297"/>
      <use xlink:href="#Helvetica-6e" x="416.894531"/>
     </g>
    </g>
   </g>
   <g id="matplotlib.axis_4">
    <g id="ytick_7">
     <g id="line2d_20">
      <g>
       <use xlink:href="#me427c770a5" x="376.454479" y="307.54921" style="stroke: #000000; stroke-width: 0.8"/>
      </g>
     </g>
     <g id="text_23">
      <!-- 0 -->
      <g transform="translate(363.893542 311.135929) scale(0.1 -0.1)">
       <use xlink:href="#Helvetica-30"/>
      </g>
     </g>
    </g>
    <g id="ytick_8">
     <g id="line2d_21">
      <g>
       <use xlink:href="#me427c770a5" x="376.454479" y="271.668189" style="stroke: #000000; stroke-width: 0.8"/>
      </g>
     </g>
     <g id="text_24">
      <!-- 20 -->
      <g transform="translate(358.332604 275.254908) scale(0.1 -0.1)">
       <use xlink:href="#Helvetica-32"/>
       <use xlink:href="#Helvetica-30" x="55.615234"/>
      </g>
     </g>
    </g>
    <g id="ytick_9">
     <g id="line2d_22">
      <g>
       <use xlink:href="#me427c770a5" x="376.454479" y="235.787168" style="stroke: #000000; stroke-width: 0.8"/>
      </g>
     </g>
     <g id="text_25">
      <!-- 40 -->
      <g transform="translate(358.332604 239.373887) scale(0.1 -0.1)">
       <use xlink:href="#Helvetica-34"/>
       <use xlink:href="#Helvetica-30" x="55.615234"/>
      </g>
     </g>
    </g>
    <g id="ytick_10">
     <g id="line2d_23">
      <g>
       <use xlink:href="#me427c770a5" x="376.454479" y="199.906147" style="stroke: #000000; stroke-width: 0.8"/>
      </g>
     </g>
     <g id="text_26">
      <!-- 60 -->
      <g transform="translate(358.332604 203.492866) scale(0.1 -0.1)">
       <use xlink:href="#Helvetica-36"/>
       <use xlink:href="#Helvetica-30" x="55.615234"/>
      </g>
     </g>
    </g>
    <g id="ytick_11">
     <g id="line2d_24">
      <g>
       <use xlink:href="#me427c770a5" x="376.454479" y="164.025126" style="stroke: #000000; stroke-width: 0.8"/>
      </g>
     </g>
     <g id="text_27">
      <!-- 80 -->
      <g transform="translate(358.332604 167.611845) scale(0.1 -0.1)">
       <use xlink:href="#Helvetica-38"/>
       <use xlink:href="#Helvetica-30" x="55.615234"/>
      </g>
     </g>
    </g>
    <g id="ytick_12">
     <g id="line2d_25">
      <g>
       <use xlink:href="#me427c770a5" x="376.454479" y="128.144105" style="stroke: #000000; stroke-width: 0.8"/>
      </g>
     </g>
     <g id="text_28">
      <!-- 100 -->
      <g transform="translate(352.771667 131.730824) scale(0.1 -0.1)">
       <use xlink:href="#Helvetica-31"/>
       <use xlink:href="#Helvetica-30" x="55.615234"/>
       <use xlink:href="#Helvetica-30" x="111.230469"/>
      </g>
     </g>
    </g>
    <g id="ytick_13">
     <g id="line2d_26">
      <g>
       <use xlink:href="#me427c770a5" x="376.454479" y="92.263084" style="stroke: #000000; stroke-width: 0.8"/>
      </g>
     </g>
     <g id="text_29">
      <!-- 120 -->
      <g transform="translate(352.771667 95.849803) scale(0.1 -0.1)">
       <use xlink:href="#Helvetica-31"/>
       <use xlink:href="#Helvetica-32" x="55.615234"/>
       <use xlink:href="#Helvetica-30" x="111.230469"/>
      </g>
     </g>
    </g>
    <g id="ytick_14">
     <g id="line2d_27">
      <g>
       <use xlink:href="#me427c770a5" x="376.454479" y="56.382063" style="stroke: #000000; stroke-width: 0.8"/>
      </g>
     </g>
     <g id="text_30">
      <!-- 140 -->
      <g transform="translate(352.771667 59.968782) scale(0.1 -0.1)">
       <use xlink:href="#Helvetica-31"/>
       <use xlink:href="#Helvetica-34" x="55.615234"/>
       <use xlink:href="#Helvetica-30" x="111.230469"/>
      </g>
     </g>
    </g>
   </g>
   <g id="line2d_28">
    <path d="M 387.728762 63.558267 
L 444.100176 165.819177 
L 500.471591 183.759688 
L 556.843005 303.961108 
L 613.214419 303.961108 
" clip-path="url(#pfb8970f5ea)" style="fill: none; stroke: #008000; stroke-width: 1.5; stroke-linecap: square"/>
   </g>
   <g id="patch_8">
    <path d="M 376.454479 315.98125 
L 376.454479 51.538125 
" style="fill: none; stroke: #000000; stroke-width: 0.8; stroke-linejoin: miter; stroke-linecap: square"/>
   </g>
   <g id="patch_9">
    <path d="M 669.585833 315.98125 
L 669.585833 51.538125 
" style="fill: none; stroke: #000000; stroke-width: 0.8; stroke-linejoin: miter; stroke-linecap: square"/>
   </g>
   <g id="patch_10">
    <path d="M 376.454479 315.98125 
L 669.585833 315.98125 
" style="fill: none; stroke: #000000; stroke-width: 0.8; stroke-linejoin: miter; stroke-linecap: square"/>
   </g>
   <g id="patch_11">
    <path d="M 376.454479 51.538125 
L 669.585833 51.538125 
" style="fill: none; stroke: #000000; stroke-width: 0.8; stroke-linejoin: miter; stroke-linecap: square"/>
   </g>
   <g id="text_31">
    <!-- IB017 -->
    <g transform="translate(507.341406 45.538125) scale(0.12 -0.12)">
     <defs>
      <path id="Helvetica-49" d="M 628 4591 
L 1256 4591 
L 1256 0 
L 628 0 
L 628 4591 
z
" transform="scale(0.015625)"/>
      <path id="Helvetica-42" d="M 2213 2650 
Q 2606 2650 2825 2759 
Q 3169 2931 3169 3378 
Q 3169 3828 2803 3984 
Q 2597 4072 2191 4072 
L 1081 4072 
L 1081 2650 
L 2213 2650 
z
M 2422 531 
Q 2994 531 3238 863 
Q 3391 1072 3391 1369 
Q 3391 1869 2944 2050 
Q 2706 2147 2316 2147 
L 1081 2147 
L 1081 531 
L 2422 531 
z
M 472 4591 
L 2444 4591 
Q 3250 4591 3591 4109 
Q 3791 3825 3791 3453 
Q 3791 3019 3544 2741 
Q 3416 2594 3175 2472 
Q 3528 2338 3703 2169 
Q 4013 1869 4013 1341 
Q 4013 897 3734 538 
Q 3319 0 2413 0 
L 472 0 
L 472 4591 
z
" transform="scale(0.015625)"/>
     </defs>
     <use xlink:href="#Helvetica-49"/>
     <use xlink:href="#Helvetica-42" x="27.783203"/>
     <use xlink:href="#Helvetica-30" x="94.482422"/>
     <use xlink:href="#Helvetica-31" x="150.097656"/>
     <use xlink:href="#Helvetica-37" x="205.712891"/>
    </g>
   </g>
  </g>
  <g id="axes_3">
   <g id="patch_12">
    <path d="M 704.068646 315.98125 
L 997.2 315.98125 
L 997.2 51.538125 
L 704.068646 51.538125 
z
" style="fill: #ffffff"/>
   </g>
   <g id="PathCollection_4">
    <path d="M 717.392798 89.92112 
C 724.384309 89.92112 731.090406 87.143363 736.03415 82.199619 
C 740.977894 77.255875 743.755651 70.549777 743.755651 63.558267 
C 743.755651 56.566757 740.977894 49.860659 736.03415 44.916915 
C 731.090406 39.973171 724.384309 37.195414 717.392798 37.195414 
C 710.401288 37.195414 703.695191 39.973171 698.751446 44.916915 
C 693.807702 49.860659 691.029946 56.566757 691.029946 63.558267 
C 691.029946 70.549777 693.807702 77.255875 698.751446 82.199619 
C 703.695191 87.143363 710.401288 89.92112 717.392798 89.92112 
z
" clip-path="url(#p15f7ab5dd6)" style="fill: #808080; fill-opacity: 0.5; stroke: #808080; stroke-opacity: 0.5"/>
    <path d="M 770.689408 86.634229 
C 776.809225 86.634229 782.679213 84.2028 787.006577 79.875436 
C 791.333941 75.548072 793.76537 69.678084 793.76537 63.558267 
C 793.76537 57.438451 791.333941 51.568462 787.006577 47.241098 
C 782.679213 42.913734 776.809225 40.482306 770.689408 40.482306 
C 764.569592 40.482306 758.699603 42.913734 754.372239 47.241098 
C 750.044876 51.568462 747.613447 57.438451 747.613447 63.558267 
C 747.613447 69.678084 750.044876 75.548072 754.372239 79.875436 
C 758.699603 84.2028 764.569592 86.634229 770.689408 86.634229 
z
" clip-path="url(#p15f7ab5dd6)" style="fill: #808080; fill-opacity: 0.5; stroke: #808080; stroke-opacity: 0.5"/>
    <path d="M 823.986018 320.694308 
C 828.423715 320.694308 832.680252 318.931193 835.818178 315.793268 
C 838.956103 312.655342 840.719219 308.398805 840.719219 303.961108 
C 840.719219 299.523411 838.956103 295.266874 835.818178 292.128948 
C 832.680252 288.991023 828.423715 287.227907 823.986018 287.227907 
C 819.548321 287.227907 815.291784 288.991023 812.153858 292.128948 
C 809.015933 295.266874 807.252817 299.523411 807.252817 303.961108 
C 807.252817 308.398805 809.015933 312.655342 812.153858 315.793268 
C 815.291784 318.931193 819.548321 320.694308 823.986018 320.694308 
z
" clip-path="url(#p15f7ab5dd6)" style="fill: #808080; fill-opacity: 0.5; stroke: #808080; stroke-opacity: 0.5"/>
    <path d="M 877.282628 232.042666 
C 879.461494 232.042666 881.551412 231.176993 883.092103 229.636303 
C 884.632794 228.095612 885.498466 226.005693 885.498466 223.826828 
C 885.498466 221.647962 884.632794 219.558043 883.092103 218.017353 
C 881.551412 216.476662 879.461494 215.610989 877.282628 215.610989 
C 875.103762 215.610989 873.013844 216.476662 871.473153 218.017353 
C 869.932462 219.558043 869.066789 221.647962 869.066789 223.826828 
C 869.066789 226.005693 869.932462 228.095612 871.473153 229.636303 
C 873.013844 231.176993 875.103762 232.042666 877.282628 232.042666 
z
" clip-path="url(#p15f7ab5dd6)" style="fill: #808080; fill-opacity: 0.5; stroke: #808080; stroke-opacity: 0.5"/>
    <path d="M 930.579238 231.243026 
C 932.546037 231.243026 934.432545 230.461609 935.823282 229.070872 
C 937.214019 227.680135 937.995436 225.793626 937.995436 223.826828 
C 937.995436 221.860029 937.214019 219.97352 935.823282 218.582783 
C 934.432545 217.192047 932.546037 216.410629 930.579238 216.410629 
C 928.612439 216.410629 926.72593 217.192047 925.335193 218.582783 
C 923.944457 219.97352 923.163039 221.860029 923.163039 223.826828 
C 923.163039 225.793626 923.944457 227.680135 925.335193 229.070872 
C 926.72593 230.461609 928.612439 231.243026 930.579238 231.243026 
z
" clip-path="url(#p15f7ab5dd6)" style="fill: #808080; fill-opacity: 0.5; stroke: #808080; stroke-opacity: 0.5"/>
    <path d="M 983.875848 308.961108 
C 985.201863 308.961108 986.473747 308.434276 987.411381 307.496642 
C 988.349016 306.559007 988.875848 305.287123 988.875848 303.961108 
C 988.875848 302.635092 988.349016 301.363209 987.411381 300.425574 
C 986.473747 299.487939 985.201863 298.961108 983.875848 298.961108 
C 982.549832 298.961108 981.277948 299.487939 980.340314 300.425574 
C 979.402679 301.363209 978.875848 302.635092 978.875848 303.961108 
C 978.875848 305.287123 979.402679 306.559007 980.340314 307.496642 
C 981.277948 308.434276 982.549832 308.961108 983.875848 308.961108 
z
" clip-path="url(#p15f7ab5dd6)" style="fill: #808080; fill-opacity: 0.5; stroke: #808080; stroke-opacity: 0.5"/>
   </g>
   <g id="matplotlib.axis_5">
    <g id="xtick_13">
     <g id="line2d_29">
      <g>
       <use xlink:href="#m544143afd5" x="717.392798" y="315.98125" style="stroke: #000000; stroke-width: 0.8"/>
      </g>
     </g>
     <g id="text_32">
      <!-- 0.0 -->
      <g transform="translate(710.442798 330.154688) scale(0.1 -0.1)">
       <use xlink:href="#Helvetica-30"/>
       <use xlink:href="#Helvetica-2e" x="55.615234"/>
       <use xlink:href="#Helvetica-30" x="83.398438"/>
      </g>
     </g>
    </g>
    <g id="xtick_14">
     <g id="line2d_30">
      <g>
       <use xlink:href="#m544143afd5" x="770.689408" y="315.98125" style="stroke: #000000; stroke-width: 0.8"/>
      </g>
     </g>
     <g id="text_33">
      <!-- 0.05 -->
      <g transform="translate(760.958939 330.154688) scale(0.1 -0.1)">
       <use xlink:href="#Helvetica-30"/>
       <use xlink:href="#Helvetica-2e" x="55.615234"/>
       <use xlink:href="#Helvetica-30" x="83.398438"/>
       <use xlink:href="#Helvetica-35" x="139.013672"/>
      </g>
     </g>
    </g>
    <g id="xtick_15">
     <g id="line2d_31">
      <g>
       <use xlink:href="#m544143afd5" x="823.986018" y="315.98125" style="stroke: #000000; stroke-width: 0.8"/>
      </g>
     </g>
     <g id="text_34">
      <!-- 0.1 -->
      <g transform="translate(817.036018 330.154688) scale(0.1 -0.1)">
       <use xlink:href="#Helvetica-30"/>
       <use xlink:href="#Helvetica-2e" x="55.615234"/>
       <use xlink:href="#Helvetica-31" x="83.398438"/>
      </g>
     </g>
    </g>
    <g id="xtick_16">
     <g id="line2d_32">
      <g>
       <use xlink:href="#m544143afd5" x="877.282628" y="315.98125" style="stroke: #000000; stroke-width: 0.8"/>
      </g>
     </g>
     <g id="text_35">
      <!-- 0.5 -->
      <g transform="translate(870.332628 330.154688) scale(0.1 -0.1)">
       <use xlink:href="#Helvetica-30"/>
       <use xlink:href="#Helvetica-2e" x="55.615234"/>
       <use xlink:href="#Helvetica-35" x="83.398438"/>
      </g>
     </g>
    </g>
    <g id="xtick_17">
     <g id="line2d_33">
      <g>
       <use xlink:href="#m544143afd5" x="930.579238" y="315.98125" style="stroke: #000000; stroke-width: 0.8"/>
      </g>
     </g>
     <g id="text_36">
      <!-- 0.75 -->
      <g transform="translate(920.848769 330.154688) scale(0.1 -0.1)">
       <use xlink:href="#Helvetica-30"/>
       <use xlink:href="#Helvetica-2e" x="55.615234"/>
       <use xlink:href="#Helvetica-37" x="83.398438"/>
       <use xlink:href="#Helvetica-35" x="139.013672"/>
      </g>
     </g>
    </g>
    <g id="xtick_18">
     <g id="line2d_34">
      <g>
       <use xlink:href="#m544143afd5" x="983.875848" y="315.98125" style="stroke: #000000; stroke-width: 0.8"/>
      </g>
     </g>
     <g id="text_37">
      <!-- 1.0 -->
      <g transform="translate(976.925848 330.154688) scale(0.1 -0.1)">
       <use xlink:href="#Helvetica-31"/>
       <use xlink:href="#Helvetica-2e" x="55.615234"/>
       <use xlink:href="#Helvetica-30" x="83.398438"/>
      </g>
     </g>
    </g>
    <g id="text_38">
     <!-- Resolution -->
     <g transform="translate(817.560417 346.281875) scale(0.14 -0.14)">
      <use xlink:href="#Helvetica-52"/>
      <use xlink:href="#Helvetica-65" x="72.216797"/>
      <use xlink:href="#Helvetica-73" x="127.832031"/>
      <use xlink:href="#Helvetica-6f" x="177.832031"/>
      <use xlink:href="#Helvetica-6c" x="233.447266"/>
      <use xlink:href="#Helvetica-75" x="255.664062"/>
      <use xlink:href="#Helvetica-74" x="311.279297"/>
      <use xlink:href="#Helvetica-69" x="339.0625"/>
      <use xlink:href="#Helvetica-6f" x="361.279297"/>
      <use xlink:href="#Helvetica-6e" x="416.894531"/>
     </g>
    </g>
   </g>
   <g id="matplotlib.axis_6">
    <g id="ytick_15">
     <g id="line2d_35">
      <g>
       <use xlink:href="#me427c770a5" x="704.068646" y="303.961108" style="stroke: #000000; stroke-width: 0.8"/>
      </g>
     </g>
     <g id="text_39">
      <!-- 0 -->
      <g transform="translate(691.507708 307.547827) scale(0.1 -0.1)">
       <use xlink:href="#Helvetica-30"/>
      </g>
     </g>
    </g>
    <g id="ytick_16">
     <g id="line2d_36">
      <g>
       <use xlink:href="#me427c770a5" x="704.068646" y="263.893968" style="stroke: #000000; stroke-width: 0.8"/>
      </g>
     </g>
     <g id="text_40">
      <!-- 1 -->
      <g transform="translate(691.507708 267.480687) scale(0.1 -0.1)">
       <use xlink:href="#Helvetica-31"/>
      </g>
     </g>
    </g>
    <g id="ytick_17">
     <g id="line2d_37">
      <g>
       <use xlink:href="#me427c770a5" x="704.068646" y="223.826828" style="stroke: #000000; stroke-width: 0.8"/>
      </g>
     </g>
     <g id="text_41">
      <!-- 2 -->
      <g transform="translate(691.507708 227.413546) scale(0.1 -0.1)">
       <use xlink:href="#Helvetica-32"/>
      </g>
     </g>
    </g>
    <g id="ytick_18">
     <g id="line2d_38">
      <g>
       <use xlink:href="#me427c770a5" x="704.068646" y="183.759688" style="stroke: #000000; stroke-width: 0.8"/>
      </g>
     </g>
     <g id="text_42">
      <!-- 3 -->
      <g transform="translate(691.507708 187.346406) scale(0.1 -0.1)">
       <defs>
        <path id="Helvetica-33" d="M 1663 -122 
Q 869 -122 511 314 
Q 153 750 153 1375 
L 741 1375 
Q 778 941 903 744 
Q 1122 391 1694 391 
Q 2138 391 2406 628 
Q 2675 866 2675 1241 
Q 2675 1703 2392 1887 
Q 2109 2072 1606 2072 
Q 1550 2072 1492 2070 
Q 1434 2069 1375 2066 
L 1375 2563 
Q 1463 2553 1522 2550 
Q 1581 2547 1650 2547 
Q 1966 2547 2169 2647 
Q 2525 2822 2525 3272 
Q 2525 3606 2287 3787 
Q 2050 3969 1734 3969 
Q 1172 3969 956 3594 
Q 838 3388 822 3006 
L 266 3006 
Q 266 3506 466 3856 
Q 809 4481 1675 4481 
Q 2359 4481 2734 4176 
Q 3109 3872 3109 3294 
Q 3109 2881 2888 2625 
Q 2750 2466 2531 2375 
Q 2884 2278 3082 2001 
Q 3281 1725 3281 1325 
Q 3281 684 2859 281 
Q 2438 -122 1663 -122 
z
" transform="scale(0.015625)"/>
       </defs>
       <use xlink:href="#Helvetica-33"/>
      </g>
     </g>
    </g>
    <g id="ytick_19">
     <g id="line2d_39">
      <g>
       <use xlink:href="#me427c770a5" x="704.068646" y="143.692547" style="stroke: #000000; stroke-width: 0.8"/>
      </g>
     </g>
     <g id="text_43">
      <!-- 4 -->
      <g transform="translate(691.507708 147.279266) scale(0.1 -0.1)">
       <use xlink:href="#Helvetica-34"/>
      </g>
     </g>
    </g>
    <g id="ytick_20">
     <g id="line2d_40">
      <g>
       <use xlink:href="#me427c770a5" x="704.068646" y="103.625407" style="stroke: #000000; stroke-width: 0.8"/>
      </g>
     </g>
     <g id="text_44">
      <!-- 5 -->
      <g transform="translate(691.507708 107.212126) scale(0.1 -0.1)">
       <use xlink:href="#Helvetica-35"/>
      </g>
     </g>
    </g>
    <g id="ytick_21">
     <g id="line2d_41">
      <g>
       <use xlink:href="#me427c770a5" x="704.068646" y="63.558267" style="stroke: #000000; stroke-width: 0.8"/>
      </g>
     </g>
     <g id="text_45">
      <!-- 6 -->
      <g transform="translate(691.507708 67.144986) scale(0.1 -0.1)">
       <use xlink:href="#Helvetica-36"/>
      </g>
     </g>
    </g>
   </g>
   <g id="line2d_42">
    <path d="M 717.392798 63.558267 
L 770.689408 63.558267 
L 823.986018 303.961108 
L 877.282628 223.826828 
L 930.579238 223.826828 
L 983.875848 303.961108 
" clip-path="url(#p15f7ab5dd6)" style="fill: none; stroke: #0000ff; stroke-width: 1.5; stroke-linecap: square"/>
   </g>
   <g id="patch_13">
    <path d="M 704.068646 315.98125 
L 704.068646 51.538125 
" style="fill: none; stroke: #000000; stroke-width: 0.8; stroke-linejoin: miter; stroke-linecap: square"/>
   </g>
   <g id="patch_14">
    <path d="M 997.2 315.98125 
L 997.2 51.538125 
" style="fill: none; stroke: #000000; stroke-width: 0.8; stroke-linejoin: miter; stroke-linecap: square"/>
   </g>
   <g id="patch_15">
    <path d="M 704.068646 315.98125 
L 997.2 315.98125 
" style="fill: none; stroke: #000000; stroke-width: 0.8; stroke-linejoin: miter; stroke-linecap: square"/>
   </g>
   <g id="patch_16">
    <path d="M 704.068646 51.538125 
L 997.2 51.538125 
" style="fill: none; stroke: #000000; stroke-width: 0.8; stroke-linejoin: miter; stroke-linecap: square"/>
   </g>
   <g id="text_46">
    <!-- SMP052 -->
    <g transform="translate(827.622448 45.538125) scale(0.12 -0.12)">
     <defs>
      <path id="Helvetica-4d" d="M 472 4591 
L 1363 4591 
L 2681 709 
L 3991 4591 
L 4872 4591 
L 4872 0 
L 4281 0 
L 4281 2709 
Q 4281 2850 4287 3175 
Q 4294 3500 4294 3872 
L 2984 0 
L 2369 0 
L 1050 3872 
L 1050 3731 
Q 1050 3563 1058 3217 
Q 1066 2872 1066 2709 
L 1066 0 
L 472 0 
L 472 4591 
z
" transform="scale(0.015625)"/>
     </defs>
     <use xlink:href="#Helvetica-53"/>
     <use xlink:href="#Helvetica-4d" x="66.699219"/>
     <use xlink:href="#Helvetica-50" x="150"/>
     <use xlink:href="#Helvetica-30" x="216.699219"/>
     <use xlink:href="#Helvetica-35" x="272.314453"/>
     <use xlink:href="#Helvetica-32" x="327.929688"/>
    </g>
   </g>
  </g>
  <g id="text_47">
   <!-- Pagerank of FS1A, IB017, and SMP052 with Cluster Size -->
   <g transform="translate(300.79125 18.99) scale(0.16 -0.16)">
    <defs>
     <path id="Helvetica-20" transform="scale(0.015625)"/>
     <path id="Helvetica-66" d="M 553 3856 
Q 566 4206 675 4369 
Q 872 4656 1434 4656 
Q 1488 4656 1544 4653 
Q 1600 4650 1672 4644 
L 1672 4131 
Q 1584 4138 1545 4139 
Q 1506 4141 1472 4141 
Q 1216 4141 1166 4008 
Q 1116 3875 1116 3331 
L 1672 3331 
L 1672 2888 
L 1109 2888 
L 1109 0 
L 553 0 
L 553 2888 
L 88 2888 
L 88 3331 
L 553 3331 
L 553 3856 
z
" transform="scale(0.015625)"/>
     <path id="Helvetica-2c" d="M 531 -653 
Q 747 -616 834 -350 
Q 881 -209 881 -78 
Q 881 -56 879 -39 
Q 878 -22 872 0 
L 531 0 
L 531 681 
L 1200 681 
L 1200 50 
Q 1200 -322 1050 -603 
Q 900 -884 531 -950 
L 531 -653 
z
" transform="scale(0.015625)"/>
     <path id="Helvetica-64" d="M 769 1634 
Q 769 1097 997 734 
Q 1225 372 1728 372 
Q 2119 372 2370 708 
Q 2622 1044 2622 1672 
Q 2622 2306 2362 2611 
Q 2103 2916 1722 2916 
Q 1297 2916 1033 2591 
Q 769 2266 769 1634 
z
M 1616 3406 
Q 2000 3406 2259 3244 
Q 2409 3150 2600 2916 
L 2600 4606 
L 3141 4606 
L 3141 0 
L 2634 0 
L 2634 466 
Q 2438 156 2169 18 
Q 1900 -119 1553 -119 
Q 994 -119 584 351 
Q 175 822 175 1603 
Q 175 2334 548 2870 
Q 922 3406 1616 3406 
z
" transform="scale(0.015625)"/>
     <path id="Helvetica-77" d="M 672 3347 
L 1316 709 
L 1969 3347 
L 2600 3347 
L 3256 725 
L 3941 3347 
L 4503 3347 
L 3531 0 
L 2947 0 
L 2266 2591 
L 1606 0 
L 1022 0 
L 56 3347 
L 672 3347 
z
" transform="scale(0.015625)"/>
     <path id="Helvetica-68" d="M 413 4606 
L 975 4606 
L 975 2894 
Q 1175 3147 1334 3250 
Q 1606 3428 2013 3428 
Q 2741 3428 3000 2919 
Q 3141 2641 3141 2147 
L 3141 0 
L 2563 0 
L 2563 2109 
Q 2563 2478 2469 2650 
Q 2316 2925 1894 2925 
Q 1544 2925 1259 2684 
Q 975 2444 975 1775 
L 975 0 
L 413 0 
L 413 4606 
z
" transform="scale(0.015625)"/>
     <path id="Helvetica-43" d="M 2422 4716 
Q 3294 4716 3775 4256 
Q 4256 3797 4309 3213 
L 3703 3213 
Q 3600 3656 3292 3915 
Q 2984 4175 2428 4175 
Q 1750 4175 1333 3698 
Q 916 3222 916 2238 
Q 916 1431 1292 929 
Q 1669 428 2416 428 
Q 3103 428 3463 956 
Q 3653 1234 3747 1688 
L 4353 1688 
Q 4272 963 3816 472 
Q 3269 -119 2341 -119 
Q 1541 -119 997 366 
Q 281 1006 281 2344 
Q 281 3359 819 4009 
Q 1400 4716 2422 4716 
z
M 2297 4716 
L 2297 4716 
z
" transform="scale(0.015625)"/>
     <path id="Helvetica-7a" d="M 163 444 
L 2147 2844 
L 309 2844 
L 309 3347 
L 2903 3347 
L 2903 2888 
L 931 503 
L 2963 503 
L 2963 0 
L 163 0 
L 163 444 
z
M 1609 3428 
L 1609 3428 
z
" transform="scale(0.015625)"/>
    </defs>
    <use xlink:href="#Helvetica-50"/>
    <use xlink:href="#Helvetica-61" x="66.699219"/>
    <use xlink:href="#Helvetica-67" x="122.314453"/>
    <use xlink:href="#Helvetica-65" x="177.929688"/>
    <use xlink:href="#Helvetica-72" x="233.544922"/>
    <use xlink:href="#Helvetica-61" x="266.845703"/>
    <use xlink:href="#Helvetica-6e" x="322.460938"/>
    <use xlink:href="#Helvetica-6b" x="378.076172"/>
    <use xlink:href="#Helvetica-20" x="428.076172"/>
    <use xlink:href="#Helvetica-6f" x="455.859375"/>
    <use xlink:href="#Helvetica-66" x="511.474609"/>
    <use xlink:href="#Helvetica-20" x="539.257812"/>
    <use xlink:href="#Helvetica-46" x="567.041016"/>
    <use xlink:href="#Helvetica-53" x="628.125"/>
    <use xlink:href="#Helvetica-31" x="694.824219"/>
    <use xlink:href="#Helvetica-41" x="750.439453"/>
    <use xlink:href="#Helvetica-2c" x="817.138672"/>
    <use xlink:href="#Helvetica-20" x="844.921875"/>
    <use xlink:href="#Helvetica-49" x="872.705078"/>
    <use xlink:href="#Helvetica-42" x="900.488281"/>
    <use xlink:href="#Helvetica-30" x="967.1875"/>
    <use xlink:href="#Helvetica-31" x="1022.802734"/>
    <use xlink:href="#Helvetica-37" x="1078.417969"/>
    <use xlink:href="#Helvetica-2c" x="1134.033203"/>
    <use xlink:href="#Helvetica-20" x="1161.816406"/>
    <use xlink:href="#Helvetica-61" x="1189.599609"/>
    <use xlink:href="#Helvetica-6e" x="1245.214844"/>
    <use xlink:href="#Helvetica-64" x="1300.830078"/>
    <use xlink:href="#Helvetica-20" x="1356.445312"/>
    <use xlink:href="#Helvetica-53" x="1384.228516"/>
    <use xlink:href="#Helvetica-4d" x="1450.927734"/>
    <use xlink:href="#Helvetica-50" x="1534.228516"/>
    <use xlink:href="#Helvetica-30" x="1600.927734"/>
    <use xlink:href="#Helvetica-35" x="1656.542969"/>
    <use xlink:href="#Helvetica-32" x="1712.158203"/>
    <use xlink:href="#Helvetica-20" x="1767.773438"/>
    <use xlink:href="#Helvetica-77" x="1795.556641"/>
    <use xlink:href="#Helvetica-69" x="1867.773438"/>
    <use xlink:href="#Helvetica-74" x="1889.990234"/>
    <use xlink:href="#Helvetica-68" x="1917.773438"/>
    <use xlink:href="#Helvetica-20" x="1973.388672"/>
    <use xlink:href="#Helvetica-43" x="2001.171875"/>
    <use xlink:href="#Helvetica-6c" x="2073.388672"/>
    <use xlink:href="#Helvetica-75" x="2095.605469"/>
    <use xlink:href="#Helvetica-73" x="2151.220703"/>
    <use xlink:href="#Helvetica-74" x="2201.220703"/>
    <use xlink:href="#Helvetica-65" x="2229.003906"/>
    <use xlink:href="#Helvetica-72" x="2284.619141"/>
    <use xlink:href="#Helvetica-20" x="2317.919922"/>
    <use xlink:href="#Helvetica-53" x="2345.703125"/>
    <use xlink:href="#Helvetica-69" x="2412.402344"/>
    <use xlink:href="#Helvetica-7a" x="2434.619141"/>
    <use xlink:href="#Helvetica-65" x="2484.619141"/>
   </g>
  </g>
 </g>
 <defs>
  <clipPath id="pf018c34729">
   <rect x="48.840313" y="51.538125" width="293.131354" height="264.443125"/>
  </clipPath>
  <clipPath id="pfb8970f5ea">
   <rect x="376.454479" y="51.538125" width="293.131354" height="264.443125"/>
  </clipPath>
  <clipPath id="p15f7ab5dd6">
   <rect x="704.068646" y="51.538125" width="293.131354" height="264.443125"/>
  </clipPath>
 </defs>
</svg>
