<?xml version="1.0" encoding="utf-8" standalone="no"?>
<!DOCTYPE svg PUBLIC "-//W3C//DTD SVG 1.1//EN"
  "http://www.w3.org/Graphics/SVG/1.1/DTD/svg11.dtd">
<svg xmlns:xlink="http://www.w3.org/1999/xlink" width="1080pt" height="720pt" viewBox="0 0 1080 720" xmlns="http://www.w3.org/2000/svg" version="1.1">
 <metadata>
  <rdf:RDF xmlns:dc="http://purl.org/dc/elements/1.1/" xmlns:cc="http://creativecommons.org/ns#" xmlns:rdf="http://www.w3.org/1999/02/22-rdf-syntax-ns#">
   <cc:Work>
    <dc:type rdf:resource="http://purl.org/dc/dcmitype/StillImage"/>
    <dc:date>2024-08-20T16:20:36.843329</dc:date>
    <dc:format>image/svg+xml</dc:format>
    <dc:creator>
     <cc:Agent>
      <dc:title>Matplotlib v3.8.4, https://matplotlib.org/</dc:title>
     </cc:Agent>
    </dc:creator>
   </cc:Work>
  </rdf:RDF>
 </metadata>
 <defs>
  <style type="text/css">*{stroke-linejoin: round; stroke-linecap: butt}</style>
 </defs>
 <g id="figure_1">
  <g id="patch_1">
   <path d="M 0 720 
L 1080 720 
L 1080 0 
L 0 0 
z
" style="fill: #ffffff"/>
  </g>
  <g id="axes_1">
   <g id="patch_2">
    <path d="M 351.635294 212.4 
C 351.635294 201.346359 349.676126 190.379702 345.848857 180.009794 
C 342.021589 169.639886 336.386456 160.029933 329.205397 151.626638 
C 322.024339 143.223343 313.410373 136.158959 303.763906 130.761864 
C 294.117439 125.364768 283.59029 121.719901 272.671796 119.996689 
C 261.753302 118.273476 250.615302 118.499039 239.775528 120.662892 
C 228.935753 122.826745 218.564804 126.894833 209.144757 132.678057 
C 199.72471 138.461282 191.40382 145.868624 184.568872 154.555766 
C 177.733923 163.242909 172.492485 173.07313 169.088198 183.589489 
C 165.683911 194.105847 164.170352 205.142834 164.617878 216.187411 
C 165.065403 227.231989 167.466969 238.110334 171.710943 248.316786 
C 175.954916 258.523238 181.974504 267.897163 189.489896 276.002831 
C 197.005289 284.108499 205.898205 290.818339 215.755273 295.820456 
C 225.612342 300.822574 236.278428 304.038242 247.257737 305.317988 
C 258.237045 306.597734 269.356781 305.921415 280.10006 303.32047 
C 290.84334 300.719524 301.041082 296.234886 310.219262 290.075017 
C 319.397441 283.915148 327.41161 276.176994 333.889241 267.22025 
L 258.088235 212.4 
z
" style="fill: #6495ed"/>
   </g>
   <g id="patch_3">
    <path d="M 333.889241 267.22025 
C 337.450504 262.296023 340.523473 257.036469 343.064561 251.51619 
C 345.605648 245.995911 347.602783 240.241131 349.027637 234.333475 
L 258.088235 212.4 
z
" style="fill: #008000"/>
   </g>
   <g id="patch_4">
    <path d="M 349.027637 234.333475 
C 349.712329 231.494643 350.263717 228.625307 350.679989 225.734894 
C 351.096261 222.84448 351.376961 219.93616 351.521166 217.019488 
L 258.088235 212.4 
z
" style="fill: #b22222"/>
   </g>
   <g id="patch_5">
    <path d="M 351.521166 217.019488 
C 351.559201 216.25019 351.587734 215.480451 351.606758 214.710449 
C 351.625781 213.940446 351.635294 213.170237 351.635294 212.399999 
L 258.088235 212.4 
z
" style="fill: #8a2be2"/>
   </g>
   <g id="matplotlib.axis_1"/>
   <g id="matplotlib.axis_2"/>
   <g id="text_1">
    <!-- SNP -->
    <g transform="translate(128.413194 185.123438) scale(0.16 -0.16)">
     <defs>
      <path id="DejaVuSans-53" d="M 3425 4513 
L 3425 3897 
Q 3066 4069 2747 4153 
Q 2428 4238 2131 4238 
Q 1616 4238 1336 4038 
Q 1056 3838 1056 3469 
Q 1056 3159 1242 3001 
Q 1428 2844 1947 2747 
L 2328 2669 
Q 3034 2534 3370 2195 
Q 3706 1856 3706 1288 
Q 3706 609 3251 259 
Q 2797 -91 1919 -91 
Q 1588 -91 1214 -16 
Q 841 59 441 206 
L 441 856 
Q 825 641 1194 531 
Q 1563 422 1919 422 
Q 2459 422 2753 634 
Q 3047 847 3047 1241 
Q 3047 1584 2836 1778 
Q 2625 1972 2144 2069 
L 1759 2144 
Q 1053 2284 737 2584 
Q 422 2884 422 3419 
Q 422 4038 858 4394 
Q 1294 4750 2059 4750 
Q 2388 4750 2728 4690 
Q 3069 4631 3425 4513 
z
" transform="scale(0.015625)"/>
      <path id="DejaVuSans-4e" d="M 628 4666 
L 1478 4666 
L 3547 763 
L 3547 4666 
L 4159 4666 
L 4159 0 
L 3309 0 
L 1241 3903 
L 1241 0 
L 628 0 
L 628 4666 
z
" transform="scale(0.015625)"/>
      <path id="DejaVuSans-50" d="M 1259 4147 
L 1259 2394 
L 2053 2394 
Q 2494 2394 2734 2622 
Q 2975 2850 2975 3272 
Q 2975 3691 2734 3919 
Q 2494 4147 2053 4147 
L 1259 4147 
z
M 628 4666 
L 2053 4666 
Q 2838 4666 3239 4311 
Q 3641 3956 3641 3272 
Q 3641 2581 3239 2228 
Q 2838 1875 2053 1875 
L 1259 1875 
L 1259 0 
L 628 0 
L 628 4666 
z
" transform="scale(0.015625)"/>
     </defs>
     <use xlink:href="#DejaVuSans-53"/>
     <use xlink:href="#DejaVuSans-4e" x="63.476562"/>
     <use xlink:href="#DejaVuSans-50" x="138.28125"/>
    </g>
   </g>
   <g id="text_2">
    <!-- 90.0% -->
    <g transform="translate(179.274463 199.528693) scale(0.16 -0.16)">
     <defs>
      <path id="DejaVuSans-39" d="M 703 97 
L 703 672 
Q 941 559 1184 500 
Q 1428 441 1663 441 
Q 2288 441 2617 861 
Q 2947 1281 2994 2138 
Q 2813 1869 2534 1725 
Q 2256 1581 1919 1581 
Q 1219 1581 811 2004 
Q 403 2428 403 3163 
Q 403 3881 828 4315 
Q 1253 4750 1959 4750 
Q 2769 4750 3195 4129 
Q 3622 3509 3622 2328 
Q 3622 1225 3098 567 
Q 2575 -91 1691 -91 
Q 1453 -91 1209 -44 
Q 966 3 703 97 
z
M 1959 2075 
Q 2384 2075 2632 2365 
Q 2881 2656 2881 3163 
Q 2881 3666 2632 3958 
Q 2384 4250 1959 4250 
Q 1534 4250 1286 3958 
Q 1038 3666 1038 3163 
Q 1038 2656 1286 2365 
Q 1534 2075 1959 2075 
z
" transform="scale(0.015625)"/>
      <path id="DejaVuSans-30" d="M 2034 4250 
Q 1547 4250 1301 3770 
Q 1056 3291 1056 2328 
Q 1056 1369 1301 889 
Q 1547 409 2034 409 
Q 2525 409 2770 889 
Q 3016 1369 3016 2328 
Q 3016 3291 2770 3770 
Q 2525 4250 2034 4250 
z
M 2034 4750 
Q 2819 4750 3233 4129 
Q 3647 3509 3647 2328 
Q 3647 1150 3233 529 
Q 2819 -91 2034 -91 
Q 1250 -91 836 529 
Q 422 1150 422 2328 
Q 422 3509 836 4129 
Q 1250 4750 2034 4750 
z
" transform="scale(0.015625)"/>
      <path id="DejaVuSans-2e" d="M 684 794 
L 1344 794 
L 1344 0 
L 684 0 
L 684 794 
z
" transform="scale(0.015625)"/>
      <path id="DejaVuSans-25" d="M 4653 2053 
Q 4381 2053 4226 1822 
Q 4072 1591 4072 1178 
Q 4072 772 4226 539 
Q 4381 306 4653 306 
Q 4919 306 5073 539 
Q 5228 772 5228 1178 
Q 5228 1588 5073 1820 
Q 4919 2053 4653 2053 
z
M 4653 2450 
Q 5147 2450 5437 2106 
Q 5728 1763 5728 1178 
Q 5728 594 5436 251 
Q 5144 -91 4653 -91 
Q 4153 -91 3862 251 
Q 3572 594 3572 1178 
Q 3572 1766 3864 2108 
Q 4156 2450 4653 2450 
z
M 1428 4353 
Q 1159 4353 1004 4120 
Q 850 3888 850 3481 
Q 850 3069 1003 2837 
Q 1156 2606 1428 2606 
Q 1700 2606 1854 2837 
Q 2009 3069 2009 3481 
Q 2009 3884 1853 4118 
Q 1697 4353 1428 4353 
z
M 4250 4750 
L 4750 4750 
L 1831 -91 
L 1331 -91 
L 4250 4750 
z
M 1428 4750 
Q 1922 4750 2215 4408 
Q 2509 4066 2509 3481 
Q 2509 2891 2217 2550 
Q 1925 2209 1428 2209 
Q 931 2209 642 2551 
Q 353 2894 353 3481 
Q 353 4063 643 4406 
Q 934 4750 1428 4750 
z
" transform="scale(0.015625)"/>
     </defs>
     <use xlink:href="#DejaVuSans-39"/>
     <use xlink:href="#DejaVuSans-30" x="63.623047"/>
     <use xlink:href="#DejaVuSans-2e" x="127.246094"/>
     <use xlink:href="#DejaVuSans-30" x="159.033203"/>
     <use xlink:href="#DejaVuSans-25" x="222.65625"/>
    </g>
   </g>
   <g id="text_3">
    <!-- INP -->
    <g transform="translate(351.562193 259.842809) scale(0.16 -0.16)">
     <defs>
      <path id="DejaVuSans-49" d="M 628 4666 
L 1259 4666 
L 1259 0 
L 628 0 
L 628 4666 
z
" transform="scale(0.015625)"/>
     </defs>
     <use xlink:href="#DejaVuSans-49"/>
     <use xlink:href="#DejaVuSans-4e" x="29.492188"/>
     <use xlink:href="#DejaVuSans-50" x="104.296875"/>
    </g>
   </g>
   <g id="text_4">
    <!-- 6.2% -->
    <g transform="translate(288.75028 240.284714) scale(0.16 -0.16)">
     <defs>
      <path id="DejaVuSans-36" d="M 2113 2584 
Q 1688 2584 1439 2293 
Q 1191 2003 1191 1497 
Q 1191 994 1439 701 
Q 1688 409 2113 409 
Q 2538 409 2786 701 
Q 3034 994 3034 1497 
Q 3034 2003 2786 2293 
Q 2538 2584 2113 2584 
z
M 3366 4563 
L 3366 3988 
Q 3128 4100 2886 4159 
Q 2644 4219 2406 4219 
Q 1781 4219 1451 3797 
Q 1122 3375 1075 2522 
Q 1259 2794 1537 2939 
Q 1816 3084 2150 3084 
Q 2853 3084 3261 2657 
Q 3669 2231 3669 1497 
Q 3669 778 3244 343 
Q 2819 -91 2113 -91 
Q 1303 -91 875 529 
Q 447 1150 447 2328 
Q 447 3434 972 4092 
Q 1497 4750 2381 4750 
Q 2619 4750 2861 4703 
Q 3103 4656 3366 4563 
z
" transform="scale(0.015625)"/>
      <path id="DejaVuSans-32" d="M 1228 531 
L 3431 531 
L 3431 0 
L 469 0 
L 469 531 
Q 828 903 1448 1529 
Q 2069 2156 2228 2338 
Q 2531 2678 2651 2914 
Q 2772 3150 2772 3378 
Q 2772 3750 2511 3984 
Q 2250 4219 1831 4219 
Q 1534 4219 1204 4116 
Q 875 4013 500 3803 
L 500 4441 
Q 881 4594 1212 4672 
Q 1544 4750 1819 4750 
Q 2544 4750 2975 4387 
Q 3406 4025 3406 3419 
Q 3406 3131 3298 2873 
Q 3191 2616 2906 2266 
Q 2828 2175 2409 1742 
Q 1991 1309 1228 531 
z
" transform="scale(0.015625)"/>
     </defs>
     <use xlink:href="#DejaVuSans-36"/>
     <use xlink:href="#DejaVuSans-2e" x="63.623047"/>
     <use xlink:href="#DejaVuSans-32" x="95.410156"/>
     <use xlink:href="#DejaVuSans-25" x="159.033203"/>
    </g>
   </g>
   <g id="text_5">
    <!-- VMNP -->
    <g transform="translate(359.939164 231.483383) scale(0.16 -0.16)">
     <defs>
      <path id="DejaVuSans-56" d="M 1831 0 
L 50 4666 
L 709 4666 
L 2188 738 
L 3669 4666 
L 4325 4666 
L 2547 0 
L 1831 0 
z
" transform="scale(0.015625)"/>
      <path id="DejaVuSans-4d" d="M 628 4666 
L 1569 4666 
L 2759 1491 
L 3956 4666 
L 4897 4666 
L 4897 0 
L 4281 0 
L 4281 4097 
L 3078 897 
L 2444 897 
L 1241 4097 
L 1241 0 
L 628 0 
L 628 4666 
z
" transform="scale(0.015625)"/>
     </defs>
     <use xlink:href="#DejaVuSans-56"/>
     <use xlink:href="#DejaVuSans-4d" x="68.408203"/>
     <use xlink:href="#DejaVuSans-4e" x="154.6875"/>
     <use xlink:href="#DejaVuSans-50" x="229.492188"/>
    </g>
   </g>
   <g id="text_6">
    <!-- 3.0% -->
    <g transform="translate(293.319537 224.815936) scale(0.16 -0.16)">
     <defs>
      <path id="DejaVuSans-33" d="M 2597 2516 
Q 3050 2419 3304 2112 
Q 3559 1806 3559 1356 
Q 3559 666 3084 287 
Q 2609 -91 1734 -91 
Q 1441 -91 1130 -33 
Q 819 25 488 141 
L 488 750 
Q 750 597 1062 519 
Q 1375 441 1716 441 
Q 2309 441 2620 675 
Q 2931 909 2931 1356 
Q 2931 1769 2642 2001 
Q 2353 2234 1838 2234 
L 1294 2234 
L 1294 2753 
L 1863 2753 
Q 2328 2753 2575 2939 
Q 2822 3125 2822 3475 
Q 2822 3834 2567 4026 
Q 2313 4219 1838 4219 
Q 1578 4219 1281 4162 
Q 984 4106 628 3988 
L 628 4550 
Q 988 4650 1302 4700 
Q 1616 4750 1894 4750 
Q 2613 4750 3031 4423 
Q 3450 4097 3450 3541 
Q 3450 3153 3228 2886 
Q 3006 2619 2597 2516 
z
" transform="scale(0.015625)"/>
     </defs>
     <use xlink:href="#DejaVuSans-33"/>
     <use xlink:href="#DejaVuSans-2e" x="63.623047"/>
     <use xlink:href="#DejaVuSans-30" x="95.410156"/>
     <use xlink:href="#DejaVuSans-25" x="159.033203"/>
    </g>
   </g>
   <g id="text_7">
    <!-- Module 1 -->
    <g transform="translate(216.774017 83.311765) scale(0.18 -0.18)">
     <defs>
      <path id="DejaVuSans-6f" d="M 1959 3097 
Q 1497 3097 1228 2736 
Q 959 2375 959 1747 
Q 959 1119 1226 758 
Q 1494 397 1959 397 
Q 2419 397 2687 759 
Q 2956 1122 2956 1747 
Q 2956 2369 2687 2733 
Q 2419 3097 1959 3097 
z
M 1959 3584 
Q 2709 3584 3137 3096 
Q 3566 2609 3566 1747 
Q 3566 888 3137 398 
Q 2709 -91 1959 -91 
Q 1206 -91 779 398 
Q 353 888 353 1747 
Q 353 2609 779 3096 
Q 1206 3584 1959 3584 
z
" transform="scale(0.015625)"/>
      <path id="DejaVuSans-64" d="M 2906 2969 
L 2906 4863 
L 3481 4863 
L 3481 0 
L 2906 0 
L 2906 525 
Q 2725 213 2448 61 
Q 2172 -91 1784 -91 
Q 1150 -91 751 415 
Q 353 922 353 1747 
Q 353 2572 751 3078 
Q 1150 3584 1784 3584 
Q 2172 3584 2448 3432 
Q 2725 3281 2906 2969 
z
M 947 1747 
Q 947 1113 1208 752 
Q 1469 391 1925 391 
Q 2381 391 2643 752 
Q 2906 1113 2906 1747 
Q 2906 2381 2643 2742 
Q 2381 3103 1925 3103 
Q 1469 3103 1208 2742 
Q 947 2381 947 1747 
z
" transform="scale(0.015625)"/>
      <path id="DejaVuSans-75" d="M 544 1381 
L 544 3500 
L 1119 3500 
L 1119 1403 
Q 1119 906 1312 657 
Q 1506 409 1894 409 
Q 2359 409 2629 706 
Q 2900 1003 2900 1516 
L 2900 3500 
L 3475 3500 
L 3475 0 
L 2900 0 
L 2900 538 
Q 2691 219 2414 64 
Q 2138 -91 1772 -91 
Q 1169 -91 856 284 
Q 544 659 544 1381 
z
M 1991 3584 
L 1991 3584 
z
" transform="scale(0.015625)"/>
      <path id="DejaVuSans-6c" d="M 603 4863 
L 1178 4863 
L 1178 0 
L 603 0 
L 603 4863 
z
" transform="scale(0.015625)"/>
      <path id="DejaVuSans-65" d="M 3597 1894 
L 3597 1613 
L 953 1613 
Q 991 1019 1311 708 
Q 1631 397 2203 397 
Q 2534 397 2845 478 
Q 3156 559 3463 722 
L 3463 178 
Q 3153 47 2828 -22 
Q 2503 -91 2169 -91 
Q 1331 -91 842 396 
Q 353 884 353 1716 
Q 353 2575 817 3079 
Q 1281 3584 2069 3584 
Q 2775 3584 3186 3129 
Q 3597 2675 3597 1894 
z
M 3022 2063 
Q 3016 2534 2758 2815 
Q 2500 3097 2075 3097 
Q 1594 3097 1305 2825 
Q 1016 2553 972 2059 
L 3022 2063 
z
" transform="scale(0.015625)"/>
      <path id="DejaVuSans-20" transform="scale(0.015625)"/>
      <path id="DejaVuSans-31" d="M 794 531 
L 1825 531 
L 1825 4091 
L 703 3866 
L 703 4441 
L 1819 4666 
L 2450 4666 
L 2450 531 
L 3481 531 
L 3481 0 
L 794 0 
L 794 531 
z
" transform="scale(0.015625)"/>
     </defs>
     <use xlink:href="#DejaVuSans-4d"/>
     <use xlink:href="#DejaVuSans-6f" x="86.279297"/>
     <use xlink:href="#DejaVuSans-64" x="147.460938"/>
     <use xlink:href="#DejaVuSans-75" x="210.9375"/>
     <use xlink:href="#DejaVuSans-6c" x="274.316406"/>
     <use xlink:href="#DejaVuSans-65" x="302.099609"/>
     <use xlink:href="#DejaVuSans-20" x="363.623047"/>
     <use xlink:href="#DejaVuSans-31" x="395.410156"/>
    </g>
   </g>
   <g id="text_8">
    <!-- a. -->
    <g transform="translate(135 83.311765) scale(0.16 -0.16)">
     <defs>
      <path id="DejaVuSans-Bold-61" d="M 2106 1575 
Q 1756 1575 1579 1456 
Q 1403 1338 1403 1106 
Q 1403 894 1545 773 
Q 1688 653 1941 653 
Q 2256 653 2472 879 
Q 2688 1106 2688 1447 
L 2688 1575 
L 2106 1575 
z
M 3816 1997 
L 3816 0 
L 2688 0 
L 2688 519 
Q 2463 200 2181 54 
Q 1900 -91 1497 -91 
Q 953 -91 614 226 
Q 275 544 275 1050 
Q 275 1666 698 1953 
Q 1122 2241 2028 2241 
L 2688 2241 
L 2688 2328 
Q 2688 2594 2478 2717 
Q 2269 2841 1825 2841 
Q 1466 2841 1156 2769 
Q 847 2697 581 2553 
L 581 3406 
Q 941 3494 1303 3539 
Q 1666 3584 2028 3584 
Q 2975 3584 3395 3211 
Q 3816 2838 3816 1997 
z
" transform="scale(0.015625)"/>
      <path id="DejaVuSans-Bold-2e" d="M 653 1209 
L 1778 1209 
L 1778 0 
L 653 0 
L 653 1209 
z
" transform="scale(0.015625)"/>
     </defs>
     <use xlink:href="#DejaVuSans-Bold-61"/>
     <use xlink:href="#DejaVuSans-Bold-2e" x="67.480469"/>
    </g>
   </g>
  </g>
  <g id="axes_2">
   <g id="patch_6">
    <path d="M 647.047059 212.4 
C 647.047059 198.455472 643.929111 184.685782 637.922038 172.101469 
C 631.914965 159.517155 623.169402 148.433786 612.327172 139.664754 
C 601.484942 130.895722 588.81793 124.660921 575.255747 121.417916 
C 561.693565 118.17491 547.576303 118.005022 533.940007 120.920719 
L 553.5 212.4 
z
" style="fill: #008000"/>
   </g>
   <g id="patch_7">
    <path d="M 533.940007 120.920719 
C 521.497263 123.581212 509.727154 128.752584 499.351461 136.117709 
C 488.975768 143.482834 480.211007 152.88802 473.594662 163.75651 
C 466.978317 174.624999 462.648456 186.729992 460.870601 199.329171 
C 459.092745 211.92835 459.903994 224.7588 463.254599 237.033714 
L 553.5 212.4 
z
" style="fill: #6495ed"/>
   </g>
   <g id="patch_8">
    <path d="M 463.254599 237.033714 
C 469.280404 259.109196 483.201682 278.224281 502.363238 290.733159 
C 521.524793 303.242037 544.625693 308.295444 567.259914 304.929547 
L 553.5 212.4 
z
" style="fill: #b22222"/>
   </g>
   <g id="patch_9">
    <path d="M 567.259914 304.929547 
C 588.947388 301.704439 608.825555 290.954968 623.397706 274.572043 
C 637.969857 258.189117 646.328323 237.193196 647.002789 215.277609 
L 553.5 212.4 
z
" style="fill: #8a2be2"/>
   </g>
   <g id="patch_10">
    <path d="M 647.002789 215.277609 
C 647.012785 214.95282 647.021088 214.627982 647.027699 214.303106 
C 647.034309 213.978231 647.039227 213.653323 647.042452 213.328396 
L 553.5 212.4 
z
"/>
   </g>
   <g id="patch_11">
    <path d="M 647.042452 213.328396 
C 647.043987 213.17367 647.045139 213.018939 647.045907 212.864207 
C 647.046675 212.709475 647.047059 212.554741 647.047059 212.400006 
L 553.5 212.4 
z
"/>
   </g>
   <g id="matplotlib.axis_3"/>
   <g id="matplotlib.axis_4"/>
   <g id="text_9">
    <!-- INP -->
    <g transform="translate(618.209889 136.806229) scale(0.16 -0.16)">
     <use xlink:href="#DejaVuSans-49"/>
     <use xlink:href="#DejaVuSans-4e" x="29.492188"/>
     <use xlink:href="#DejaVuSans-50" x="104.296875"/>
    </g>
   </g>
   <g id="text_10">
    <!-- 28.4% -->
    <g transform="translate(563.382553 173.173852) scale(0.16 -0.16)">
     <defs>
      <path id="DejaVuSans-38" d="M 2034 2216 
Q 1584 2216 1326 1975 
Q 1069 1734 1069 1313 
Q 1069 891 1326 650 
Q 1584 409 2034 409 
Q 2484 409 2743 651 
Q 3003 894 3003 1313 
Q 3003 1734 2745 1975 
Q 2488 2216 2034 2216 
z
M 1403 2484 
Q 997 2584 770 2862 
Q 544 3141 544 3541 
Q 544 4100 942 4425 
Q 1341 4750 2034 4750 
Q 2731 4750 3128 4425 
Q 3525 4100 3525 3541 
Q 3525 3141 3298 2862 
Q 3072 2584 2669 2484 
Q 3125 2378 3379 2068 
Q 3634 1759 3634 1313 
Q 3634 634 3220 271 
Q 2806 -91 2034 -91 
Q 1263 -91 848 271 
Q 434 634 434 1313 
Q 434 1759 690 2068 
Q 947 2378 1403 2484 
z
M 1172 3481 
Q 1172 3119 1398 2916 
Q 1625 2713 2034 2713 
Q 2441 2713 2670 2916 
Q 2900 3119 2900 3481 
Q 2900 3844 2670 4047 
Q 2441 4250 2034 4250 
Q 1625 4250 1398 4047 
Q 1172 3844 1172 3481 
z
" transform="scale(0.015625)"/>
      <path id="DejaVuSans-34" d="M 2419 4116 
L 825 1625 
L 2419 1625 
L 2419 4116 
z
M 2253 4666 
L 3047 4666 
L 3047 1625 
L 3713 1625 
L 3713 1100 
L 3047 1100 
L 3047 0 
L 2419 0 
L 2419 1100 
L 313 1100 
L 313 1709 
L 2253 4666 
z
" transform="scale(0.015625)"/>
     </defs>
     <use xlink:href="#DejaVuSans-32"/>
     <use xlink:href="#DejaVuSans-38" x="63.623047"/>
     <use xlink:href="#DejaVuSans-2e" x="127.246094"/>
     <use xlink:href="#DejaVuSans-34" x="159.033203"/>
     <use xlink:href="#DejaVuSans-25" x="222.65625"/>
    </g>
   </g>
   <g id="text_11">
    <!-- SNP -->
    <g transform="translate(433.829128 163.307161) scale(0.16 -0.16)">
     <use xlink:href="#DejaVuSans-53"/>
     <use xlink:href="#DejaVuSans-4e" x="63.476562"/>
     <use xlink:href="#DejaVuSans-50" x="138.28125"/>
    </g>
   </g>
   <g id="text_12">
    <!-- 25.9% -->
    <g transform="translate(480.143047 187.628906) scale(0.16 -0.16)">
     <defs>
      <path id="DejaVuSans-35" d="M 691 4666 
L 3169 4666 
L 3169 4134 
L 1269 4134 
L 1269 2991 
Q 1406 3038 1543 3061 
Q 1681 3084 1819 3084 
Q 2600 3084 3056 2656 
Q 3513 2228 3513 1497 
Q 3513 744 3044 326 
Q 2575 -91 1722 -91 
Q 1428 -91 1123 -41 
Q 819 9 494 109 
L 494 744 
Q 775 591 1075 516 
Q 1375 441 1709 441 
Q 2250 441 2565 725 
Q 2881 1009 2881 1497 
Q 2881 1984 2565 2268 
Q 2250 2553 1709 2553 
Q 1456 2553 1204 2497 
Q 953 2441 691 2322 
L 691 4666 
z
" transform="scale(0.015625)"/>
     </defs>
     <use xlink:href="#DejaVuSans-32"/>
     <use xlink:href="#DejaVuSans-35" x="63.623047"/>
     <use xlink:href="#DejaVuSans-2e" x="127.246094"/>
     <use xlink:href="#DejaVuSans-39" x="159.033203"/>
     <use xlink:href="#DejaVuSans-25" x="222.65625"/>
    </g>
   </g>
   <g id="text_13">
    <!-- VMNP -->
    <g transform="translate(450.882062 302.981475) scale(0.16 -0.16)">
     <use xlink:href="#DejaVuSans-56"/>
     <use xlink:href="#DejaVuSans-4d" x="68.408203"/>
     <use xlink:href="#DejaVuSans-4e" x="154.6875"/>
     <use xlink:href="#DejaVuSans-50" x="229.492188"/>
    </g>
   </g>
   <g id="text_14">
    <!-- 23.1% -->
    <g transform="translate(497.404193 263.814895) scale(0.16 -0.16)">
     <use xlink:href="#DejaVuSans-32"/>
     <use xlink:href="#DejaVuSans-33" x="63.623047"/>
     <use xlink:href="#DejaVuSans-2e" x="127.246094"/>
     <use xlink:href="#DejaVuSans-31" x="159.033203"/>
     <use xlink:href="#DejaVuSans-25" x="222.65625"/>
    </g>
   </g>
   <g id="text_15">
    <!-- LX -->
    <g transform="translate(630.387477 285.204247) scale(0.16 -0.16)">
     <defs>
      <path id="DejaVuSans-4c" d="M 628 4666 
L 1259 4666 
L 1259 531 
L 3531 531 
L 3531 0 
L 628 0 
L 628 4666 
z
" transform="scale(0.015625)"/>
      <path id="DejaVuSans-58" d="M 403 4666 
L 1081 4666 
L 2241 2931 
L 3406 4666 
L 4084 4666 
L 2584 2425 
L 4184 0 
L 3506 0 
L 2194 1984 
L 872 0 
L 191 0 
L 1856 2491 
L 403 4666 
z
" transform="scale(0.015625)"/>
     </defs>
     <use xlink:href="#DejaVuSans-4c"/>
     <use xlink:href="#DejaVuSans-58" x="55.712891"/>
    </g>
   </g>
   <g id="text_16">
    <!-- 22.2% -->
    <g transform="translate(570.024874 254.118226) scale(0.16 -0.16)">
     <use xlink:href="#DejaVuSans-32"/>
     <use xlink:href="#DejaVuSans-32" x="63.623047"/>
     <use xlink:href="#DejaVuSans-2e" x="127.246094"/>
     <use xlink:href="#DejaVuSans-32" x="159.033203"/>
     <use xlink:href="#DejaVuSans-25" x="222.65625"/>
    </g>
   </g>
   <g id="text_17">
    <!-- Module 2 -->
    <g transform="translate(512.185781 83.311765) scale(0.18 -0.18)">
     <use xlink:href="#DejaVuSans-4d"/>
     <use xlink:href="#DejaVuSans-6f" x="86.279297"/>
     <use xlink:href="#DejaVuSans-64" x="147.460938"/>
     <use xlink:href="#DejaVuSans-75" x="210.9375"/>
     <use xlink:href="#DejaVuSans-6c" x="274.316406"/>
     <use xlink:href="#DejaVuSans-65" x="302.099609"/>
     <use xlink:href="#DejaVuSans-20" x="363.623047"/>
     <use xlink:href="#DejaVuSans-32" x="395.410156"/>
    </g>
   </g>
   <g id="text_18">
    <!-- b. -->
    <g transform="translate(430.411765 83.311765) scale(0.16 -0.16)">
     <defs>
      <path id="DejaVuSans-Bold-62" d="M 2400 722 
Q 2759 722 2948 984 
Q 3138 1247 3138 1747 
Q 3138 2247 2948 2509 
Q 2759 2772 2400 2772 
Q 2041 2772 1848 2508 
Q 1656 2244 1656 1747 
Q 1656 1250 1848 986 
Q 2041 722 2400 722 
z
M 1656 2988 
Q 1888 3294 2169 3439 
Q 2450 3584 2816 3584 
Q 3463 3584 3878 3070 
Q 4294 2556 4294 1747 
Q 4294 938 3878 423 
Q 3463 -91 2816 -91 
Q 2450 -91 2169 54 
Q 1888 200 1656 506 
L 1656 0 
L 538 0 
L 538 4863 
L 1656 4863 
L 1656 2988 
z
" transform="scale(0.015625)"/>
     </defs>
     <use xlink:href="#DejaVuSans-Bold-62"/>
     <use xlink:href="#DejaVuSans-Bold-2e" x="71.582031"/>
    </g>
   </g>
  </g>
  <g id="axes_3">
   <g id="patch_12">
    <path d="M 942.458824 212.4 
C 942.458824 195.777167 938.028135 179.450898 929.6247 165.108623 
C 921.221264 150.766348 909.14493 138.919822 894.643866 130.793462 
C 880.142802 122.667101 863.73443 118.550869 847.114665 118.870205 
C 830.494899 119.18954 814.25676 123.933049 800.078567 132.610458 
C 785.900374 141.287867 774.288028 153.589553 766.441742 168.244053 
C 758.595457 182.898554 754.7952 199.382973 755.433753 215.993537 
C 756.072306 232.604101 761.126885 248.748118 770.075065 262.756995 
C 779.023245 276.765873 791.545741 288.139753 806.34827 295.703068 
L 848.911765 212.4 
z
" style="fill: #6495ed"/>
   </g>
   <g id="patch_13">
    <path d="M 806.34827 295.703068 
C 818.35929 301.840069 831.556734 305.307387 845.033182 305.866619 
C 858.50963 306.425851 871.948972 304.063879 884.427156 298.943106 
C 896.90534 293.822333 908.129672 286.062875 917.328397 276.198249 
C 926.527123 266.333623 933.484473 254.595221 937.722079 241.79014 
L 848.911765 212.4 
z
" style="fill: #008000"/>
   </g>
   <g id="patch_14">
    <path d="M 937.722079 241.79014 
C 938.983241 237.979195 939.997799 234.091021 940.759459 230.149739 
C 941.521119 226.208457 942.028303 222.222232 942.277865 218.215794 
L 848.911765 212.4 
z
" style="fill: #8a2be2"/>
   </g>
   <g id="patch_15">
    <path d="M 942.277865 218.215794 
C 942.338166 217.247727 942.383408 216.278781 942.413573 215.309308 
C 942.443738 214.339834 942.458823 213.36995 942.458824 212.400007 
L 848.911765 212.4 
z
" style="fill: #b22222"/>
   </g>
   <g id="matplotlib.axis_5"/>
   <g id="matplotlib.axis_6"/>
   <g id="text_19">
    <!-- SNP -->
    <g transform="translate(763.420247 129.046504) scale(0.16 -0.16)">
     <use xlink:href="#DejaVuSans-53"/>
     <use xlink:href="#DejaVuSans-4e" x="63.476562"/>
     <use xlink:href="#DejaVuSans-50" x="138.28125"/>
    </g>
   </g>
   <g id="text_20">
    <!-- 67.5% -->
    <g transform="translate(794.198096 168.941275) scale(0.16 -0.16)">
     <defs>
      <path id="DejaVuSans-37" d="M 525 4666 
L 3525 4666 
L 3525 4397 
L 1831 0 
L 1172 0 
L 2766 4134 
L 525 4134 
L 525 4666 
z
" transform="scale(0.015625)"/>
     </defs>
     <use xlink:href="#DejaVuSans-36"/>
     <use xlink:href="#DejaVuSans-37" x="63.623047"/>
     <use xlink:href="#DejaVuSans-2e" x="127.246094"/>
     <use xlink:href="#DejaVuSans-35" x="159.033203"/>
     <use xlink:href="#DejaVuSans-25" x="222.65625"/>
    </g>
   </g>
   <g id="text_21">
    <!-- INP -->
    <g transform="translate(887.978695 312.012417) scale(0.16 -0.16)">
     <use xlink:href="#DejaVuSans-49"/>
     <use xlink:href="#DejaVuSans-4e" x="29.492188"/>
     <use xlink:href="#DejaVuSans-50" x="104.296875"/>
    </g>
   </g>
   <g id="text_22">
    <!-- 27.4% -->
    <g transform="translate(844.807249 268.740864) scale(0.16 -0.16)">
     <use xlink:href="#DejaVuSans-32"/>
     <use xlink:href="#DejaVuSans-37" x="63.623047"/>
     <use xlink:href="#DejaVuSans-2e" x="127.246094"/>
     <use xlink:href="#DejaVuSans-34" x="159.033203"/>
     <use xlink:href="#DejaVuSans-25" x="222.65625"/>
    </g>
   </g>
   <g id="text_23">
    <!-- LX -->
    <g transform="translate(949.944229 236.339713) scale(0.16 -0.16)">
     <use xlink:href="#DejaVuSans-4c"/>
     <use xlink:href="#DejaVuSans-58" x="55.712891"/>
    </g>
   </g>
   <g id="text_24">
    <!-- 4.1% -->
    <g transform="translate(883.696631 227.464843) scale(0.16 -0.16)">
     <use xlink:href="#DejaVuSans-34"/>
     <use xlink:href="#DejaVuSans-2e" x="63.623047"/>
     <use xlink:href="#DejaVuSans-31" x="95.410156"/>
     <use xlink:href="#DejaVuSans-25" x="159.033203"/>
    </g>
   </g>
   <g id="text_25">
    <!-- Module 3 -->
    <g transform="translate(807.597546 83.311765) scale(0.18 -0.18)">
     <use xlink:href="#DejaVuSans-4d"/>
     <use xlink:href="#DejaVuSans-6f" x="86.279297"/>
     <use xlink:href="#DejaVuSans-64" x="147.460938"/>
     <use xlink:href="#DejaVuSans-75" x="210.9375"/>
     <use xlink:href="#DejaVuSans-6c" x="274.316406"/>
     <use xlink:href="#DejaVuSans-65" x="302.099609"/>
     <use xlink:href="#DejaVuSans-20" x="363.623047"/>
     <use xlink:href="#DejaVuSans-33" x="395.410156"/>
    </g>
   </g>
   <g id="text_26">
    <!-- c. -->
    <g transform="translate(725.823529 83.311765) scale(0.16 -0.16)">
     <defs>
      <path id="DejaVuSans-Bold-63" d="M 3366 3391 
L 3366 2478 
Q 3138 2634 2908 2709 
Q 2678 2784 2431 2784 
Q 1963 2784 1702 2511 
Q 1441 2238 1441 1747 
Q 1441 1256 1702 982 
Q 1963 709 2431 709 
Q 2694 709 2930 787 
Q 3166 866 3366 1019 
L 3366 103 
Q 3103 6 2833 -42 
Q 2563 -91 2291 -91 
Q 1344 -91 809 395 
Q 275 881 275 1747 
Q 275 2613 809 3098 
Q 1344 3584 2291 3584 
Q 2566 3584 2833 3536 
Q 3100 3488 3366 3391 
z
" transform="scale(0.015625)"/>
     </defs>
     <use xlink:href="#DejaVuSans-Bold-63"/>
     <use xlink:href="#DejaVuSans-Bold-2e" x="59.277344"/>
    </g>
   </g>
  </g>
  <g id="axes_4">
   <g id="patch_16">
    <path d="M 475.8912 506.52 
C 475.8912 496.353771 474.234405 486.255157 470.986062 476.621857 
C 467.737718 466.988556 462.941036 457.94871 456.784916 449.858321 
C 450.628795 441.767933 443.195124 434.734618 434.776651 429.035361 
C 426.358179 423.336104 417.066886 419.046715 407.268679 416.336116 
C 397.470472 413.625517 387.295684 412.529765 377.145015 413.092012 
C 366.994345 413.654258 357.002817 415.867025 347.563911 419.643169 
C 338.125005 423.419313 329.364277 428.708606 321.626737 435.302746 
C 313.889197 441.896886 307.277768 449.70816 302.052821 458.428947 
C 296.827873 467.149734 293.058906 476.664032 290.894349 486.597154 
C 288.729792 496.530275 288.198436 506.750091 289.321208 516.85413 
C 290.443981 526.958168 293.205945 536.812027 297.498332 546.027646 
C 301.790718 555.243264 307.55643 563.698058 314.568405 571.059065 
C 321.58038 578.420071 329.745346 584.589376 338.741753 589.324021 
C 347.73816 594.058666 357.446341 597.295673 367.483971 598.907563 
C 377.521601 600.519452 387.755163 600.484784 397.781641 598.804924 
C 407.80812 597.125063 417.494146 593.822355 426.458268 589.026865 
L 382.32 506.52 
z
" style="fill: #6495ed"/>
   </g>
   <g id="patch_17">
    <path d="M 426.458268 589.026865 
C 434.610052 584.665948 442.070716 579.120899 448.596804 572.572667 
C 455.122891 566.024434 460.642634 558.545028 464.975912 550.378519 
L 382.32 506.52 
z
" style="fill: #008000"/>
   </g>
   <g id="patch_18">
    <path d="M 464.975912 550.378519 
C 467.486846 545.646404 469.586773 540.707387 471.252538 535.61593 
C 472.918303 530.524473 474.14376 525.299358 474.915397 519.9982 
L 382.32 506.52 
z
" style="fill: #b22222"/>
   </g>
   <g id="patch_19">
    <path d="M 474.915397 519.9982 
C 475.128492 518.534235 475.306838 517.065423 475.450286 515.593002 
C 475.593733 514.12058 475.702241 512.644964 475.775718 511.167398 
L 382.32 506.52 
z
" style="fill: #8a2be2"/>
   </g>
   <g id="patch_20">
    <path d="M 475.775718 511.167398 
C 475.814204 510.393461 475.843076 509.619075 475.862325 508.844421 
C 475.881574 508.069767 475.8912 507.294903 475.8912 506.52001 
L 382.32 506.52 
z
"/>
   </g>
   <g id="matplotlib.axis_7"/>
   <g id="matplotlib.axis_8"/>
   <g id="text_27">
    <!-- SNP -->
    <g transform="translate(262.251103 458.034842) scale(0.16 -0.16)">
     <use xlink:href="#DejaVuSans-53"/>
     <use xlink:href="#DejaVuSans-4e" x="63.476562"/>
     <use xlink:href="#DejaVuSans-50" x="138.28125"/>
    </g>
   </g>
   <g id="text_28">
    <!-- 82.8% -->
    <g transform="translate(308.745942 482.080368) scale(0.16 -0.16)">
     <use xlink:href="#DejaVuSans-38"/>
     <use xlink:href="#DejaVuSans-32" x="63.623047"/>
     <use xlink:href="#DejaVuSans-2e" x="127.246094"/>
     <use xlink:href="#DejaVuSans-38" x="159.033203"/>
     <use xlink:href="#DejaVuSans-25" x="222.65625"/>
    </g>
   </g>
   <g id="text_29">
    <!-- INP -->
    <g transform="translate(455.224484 583.592933) scale(0.16 -0.16)">
     <use xlink:href="#DejaVuSans-49"/>
     <use xlink:href="#DejaVuSans-4e" x="29.492188"/>
     <use xlink:href="#DejaVuSans-50" x="104.296875"/>
    </g>
   </g>
   <g id="text_30">
    <!-- 9.4% -->
    <g transform="translate(401.762332 550.5666) scale(0.16 -0.16)">
     <use xlink:href="#DejaVuSans-39"/>
     <use xlink:href="#DejaVuSans-2e" x="63.623047"/>
     <use xlink:href="#DejaVuSans-34" x="95.410156"/>
     <use xlink:href="#DejaVuSans-25" x="159.033203"/>
    </g>
   </g>
   <g id="text_31">
    <!-- VMNP -->
    <g transform="translate(480.145792 542.940523) scale(0.16 -0.16)">
     <use xlink:href="#DejaVuSans-56"/>
     <use xlink:href="#DejaVuSans-4d" x="68.408203"/>
     <use xlink:href="#DejaVuSans-4e" x="154.6875"/>
     <use xlink:href="#DejaVuSans-50" x="229.492188"/>
    </g>
   </g>
   <g id="text_32">
    <!-- 5.5% -->
    <g transform="translate(415.355773 528.392558) scale(0.16 -0.16)">
     <use xlink:href="#DejaVuSans-35"/>
     <use xlink:href="#DejaVuSans-2e" x="63.623047"/>
     <use xlink:href="#DejaVuSans-35" x="95.410156"/>
     <use xlink:href="#DejaVuSans-25" x="159.033203"/>
    </g>
   </g>
   <g id="text_33">
    <!-- LX -->
    <g transform="translate(484.763314 520.915302) scale(0.16 -0.16)">
     <use xlink:href="#DejaVuSans-4c"/>
     <use xlink:href="#DejaVuSans-58" x="55.712891"/>
    </g>
   </g>
   <g id="text_34">
    <!-- 1.5% -->
    <g transform="translate(417.874421 516.378801) scale(0.16 -0.16)">
     <use xlink:href="#DejaVuSans-31"/>
     <use xlink:href="#DejaVuSans-2e" x="63.623047"/>
     <use xlink:href="#DejaVuSans-35" x="95.410156"/>
     <use xlink:href="#DejaVuSans-25" x="159.033203"/>
    </g>
   </g>
   <g id="text_35">
    <!-- Module 4 -->
    <g transform="translate(341.005781 377.4) scale(0.18 -0.18)">
     <use xlink:href="#DejaVuSans-4d"/>
     <use xlink:href="#DejaVuSans-6f" x="86.279297"/>
     <use xlink:href="#DejaVuSans-64" x="147.460938"/>
     <use xlink:href="#DejaVuSans-75" x="210.9375"/>
     <use xlink:href="#DejaVuSans-6c" x="274.316406"/>
     <use xlink:href="#DejaVuSans-65" x="302.099609"/>
     <use xlink:href="#DejaVuSans-20" x="363.623047"/>
     <use xlink:href="#DejaVuSans-34" x="395.410156"/>
    </g>
   </g>
   <g id="text_36">
    <!-- d. -->
    <g transform="translate(259.2 377.4) scale(0.16 -0.16)">
     <defs>
      <path id="DejaVuSans-Bold-64" d="M 2919 2988 
L 2919 4863 
L 4044 4863 
L 4044 0 
L 2919 0 
L 2919 506 
Q 2688 197 2409 53 
Q 2131 -91 1766 -91 
Q 1119 -91 703 423 
Q 288 938 288 1747 
Q 288 2556 703 3070 
Q 1119 3584 1766 3584 
Q 2128 3584 2408 3439 
Q 2688 3294 2919 2988 
z
M 2181 722 
Q 2541 722 2730 984 
Q 2919 1247 2919 1747 
Q 2919 2247 2730 2509 
Q 2541 2772 2181 2772 
Q 1825 2772 1636 2509 
Q 1447 2247 1447 1747 
Q 1447 1247 1636 984 
Q 1825 722 2181 722 
z
" transform="scale(0.015625)"/>
     </defs>
     <use xlink:href="#DejaVuSans-Bold-64"/>
     <use xlink:href="#DejaVuSans-Bold-2e" x="71.582031"/>
    </g>
   </g>
  </g>
  <g id="axes_5">
   <g id="patch_21">
    <path d="M 810.6912 506.52 
C 810.6912 494.832686 808.501531 483.24816 804.235741 472.367152 
C 799.969952 461.486143 793.703075 451.500045 785.760087 442.9267 
C 777.8171 434.353354 768.337716 427.343562 757.813501 422.260826 
C 747.289287 417.17809 735.905357 414.111812 724.252042 413.221 
C 712.598727 412.330187 700.881002 413.630508 689.706506 417.054533 
C 678.532011 420.478557 668.097298 425.966059 658.943474 433.232475 
C 649.78965 440.498892 642.077726 449.416411 636.207615 459.522602 
C 630.337504 469.628793 626.412458 480.745893 624.636015 492.29741 
C 622.859573 503.848928 623.26298 515.631676 625.825319 527.034646 
C 628.387658 538.437616 633.063857 549.260234 639.611427 558.941279 
C 646.158996 568.622324 654.462767 576.991512 664.092137 583.614845 
C 673.721506 590.238179 684.507097 594.999158 695.88961 597.650895 
C 707.272122 600.302632 719.051343 600.798485 730.616444 599.11274 
C 742.181545 597.426995 753.329103 593.589304 763.481044 587.798675 
C 773.632986 582.008047 782.610745 574.366335 789.948766 565.269811 
C 797.286787 556.173288 802.856 545.781955 806.367603 534.634671 
L 717.12 506.52 
z
" style="fill: #6495ed"/>
   </g>
   <g id="patch_22">
    <path d="M 806.367603 534.634671 
C 807.499272 531.042286 808.413009 527.384848 809.103825 523.682324 
C 809.794641 519.979801 810.261277 516.238943 810.501186 512.480173 
L 717.12 506.52 
z
" style="fill: #008000"/>
   </g>
   <g id="patch_23">
    <path d="M 810.501186 512.480173 
C 810.543397 511.818824 810.578581 511.157045 810.606733 510.494948 
C 810.634885 509.832852 810.656002 509.170475 810.670081 508.50793 
L 717.12 506.52 
z
" style="fill: #8a2be2"/>
   </g>
   <g id="patch_24">
    <path d="M 810.670081 508.50793 
C 810.67712 508.17666 810.6824 507.845354 810.68592 507.514028 
C 810.68944 507.182702 810.6912 506.851359 810.6912 506.520014 
L 717.12 506.52 
z
" style="fill: #b22222"/>
   </g>
   <g id="matplotlib.axis_9"/>
   <g id="matplotlib.axis_10"/>
   <g id="text_37">
    <!-- SNP -->
    <g transform="translate(583.612617 495.290151) scale(0.16 -0.16)">
     <use xlink:href="#DejaVuSans-53"/>
     <use xlink:href="#DejaVuSans-4e" x="63.476562"/>
     <use xlink:href="#DejaVuSans-50" x="138.28125"/>
    </g>
   </g>
   <g id="text_38">
    <!-- 95.1% -->
    <g transform="translate(636.215859 502.401446) scale(0.16 -0.16)">
     <use xlink:href="#DejaVuSans-39"/>
     <use xlink:href="#DejaVuSans-35" x="63.623047"/>
     <use xlink:href="#DejaVuSans-2e" x="127.246094"/>
     <use xlink:href="#DejaVuSans-31" x="159.033203"/>
     <use xlink:href="#DejaVuSans-25" x="222.65625"/>
    </g>
   </g>
   <g id="text_39">
    <!-- INP -->
    <g transform="translate(818.302208 529.813557) scale(0.16 -0.16)">
     <use xlink:href="#DejaVuSans-49"/>
     <use xlink:href="#DejaVuSans-4e" x="29.492188"/>
     <use xlink:href="#DejaVuSans-50" x="104.296875"/>
    </g>
   </g>
   <g id="text_40">
    <!-- 3.8% -->
    <g transform="translate(751.986545 521.232395) scale(0.16 -0.16)">
     <use xlink:href="#DejaVuSans-33"/>
     <use xlink:href="#DejaVuSans-2e" x="63.623047"/>
     <use xlink:href="#DejaVuSans-38" x="95.410156"/>
     <use xlink:href="#DejaVuSans-25" x="159.033203"/>
    </g>
   </g>
   <g id="text_41">
    <!-- Module 5 -->
    <g transform="translate(675.805781 377.4) scale(0.18 -0.18)">
     <use xlink:href="#DejaVuSans-4d"/>
     <use xlink:href="#DejaVuSans-6f" x="86.279297"/>
     <use xlink:href="#DejaVuSans-64" x="147.460938"/>
     <use xlink:href="#DejaVuSans-75" x="210.9375"/>
     <use xlink:href="#DejaVuSans-6c" x="274.316406"/>
     <use xlink:href="#DejaVuSans-65" x="302.099609"/>
     <use xlink:href="#DejaVuSans-20" x="363.623047"/>
     <use xlink:href="#DejaVuSans-35" x="395.410156"/>
    </g>
   </g>
   <g id="text_42">
    <!-- e. -->
    <g transform="translate(594 377.4) scale(0.16 -0.16)">
     <defs>
      <path id="DejaVuSans-Bold-65" d="M 4031 1759 
L 4031 1441 
L 1416 1441 
Q 1456 1047 1700 850 
Q 1944 653 2381 653 
Q 2734 653 3104 758 
Q 3475 863 3866 1075 
L 3866 213 
Q 3469 63 3072 -14 
Q 2675 -91 2278 -91 
Q 1328 -91 801 392 
Q 275 875 275 1747 
Q 275 2603 792 3093 
Q 1309 3584 2216 3584 
Q 3041 3584 3536 3087 
Q 4031 2591 4031 1759 
z
M 2881 2131 
Q 2881 2450 2695 2645 
Q 2509 2841 2209 2841 
Q 1884 2841 1681 2658 
Q 1478 2475 1428 2131 
L 2881 2131 
z
" transform="scale(0.015625)"/>
     </defs>
     <use xlink:href="#DejaVuSans-Bold-65"/>
     <use xlink:href="#DejaVuSans-Bold-2e" x="67.822266"/>
    </g>
   </g>
  </g>
  <g id="text_43">
   <!-- OviINr Input Connectome -->
   <g transform="translate(413.278125 29.596875) scale(0.2 -0.2)">
    <defs>
     <path id="DejaVuSans-4f" d="M 2522 4238 
Q 1834 4238 1429 3725 
Q 1025 3213 1025 2328 
Q 1025 1447 1429 934 
Q 1834 422 2522 422 
Q 3209 422 3611 934 
Q 4013 1447 4013 2328 
Q 4013 3213 3611 3725 
Q 3209 4238 2522 4238 
z
M 2522 4750 
Q 3503 4750 4090 4092 
Q 4678 3434 4678 2328 
Q 4678 1225 4090 567 
Q 3503 -91 2522 -91 
Q 1538 -91 948 565 
Q 359 1222 359 2328 
Q 359 3434 948 4092 
Q 1538 4750 2522 4750 
z
" transform="scale(0.015625)"/>
     <path id="DejaVuSans-76" d="M 191 3500 
L 800 3500 
L 1894 563 
L 2988 3500 
L 3597 3500 
L 2284 0 
L 1503 0 
L 191 3500 
z
" transform="scale(0.015625)"/>
     <path id="DejaVuSans-69" d="M 603 3500 
L 1178 3500 
L 1178 0 
L 603 0 
L 603 3500 
z
M 603 4863 
L 1178 4863 
L 1178 4134 
L 603 4134 
L 603 4863 
z
" transform="scale(0.015625)"/>
     <path id="DejaVuSans-72" d="M 2631 2963 
Q 2534 3019 2420 3045 
Q 2306 3072 2169 3072 
Q 1681 3072 1420 2755 
Q 1159 2438 1159 1844 
L 1159 0 
L 581 0 
L 581 3500 
L 1159 3500 
L 1159 2956 
Q 1341 3275 1631 3429 
Q 1922 3584 2338 3584 
Q 2397 3584 2469 3576 
Q 2541 3569 2628 3553 
L 2631 2963 
z
" transform="scale(0.015625)"/>
     <path id="DejaVuSans-6e" d="M 3513 2113 
L 3513 0 
L 2938 0 
L 2938 2094 
Q 2938 2591 2744 2837 
Q 2550 3084 2163 3084 
Q 1697 3084 1428 2787 
Q 1159 2491 1159 1978 
L 1159 0 
L 581 0 
L 581 3500 
L 1159 3500 
L 1159 2956 
Q 1366 3272 1645 3428 
Q 1925 3584 2291 3584 
Q 2894 3584 3203 3211 
Q 3513 2838 3513 2113 
z
" transform="scale(0.015625)"/>
     <path id="DejaVuSans-70" d="M 1159 525 
L 1159 -1331 
L 581 -1331 
L 581 3500 
L 1159 3500 
L 1159 2969 
Q 1341 3281 1617 3432 
Q 1894 3584 2278 3584 
Q 2916 3584 3314 3078 
Q 3713 2572 3713 1747 
Q 3713 922 3314 415 
Q 2916 -91 2278 -91 
Q 1894 -91 1617 61 
Q 1341 213 1159 525 
z
M 3116 1747 
Q 3116 2381 2855 2742 
Q 2594 3103 2138 3103 
Q 1681 3103 1420 2742 
Q 1159 2381 1159 1747 
Q 1159 1113 1420 752 
Q 1681 391 2138 391 
Q 2594 391 2855 752 
Q 3116 1113 3116 1747 
z
" transform="scale(0.015625)"/>
     <path id="DejaVuSans-74" d="M 1172 4494 
L 1172 3500 
L 2356 3500 
L 2356 3053 
L 1172 3053 
L 1172 1153 
Q 1172 725 1289 603 
Q 1406 481 1766 481 
L 2356 481 
L 2356 0 
L 1766 0 
Q 1100 0 847 248 
Q 594 497 594 1153 
L 594 3053 
L 172 3053 
L 172 3500 
L 594 3500 
L 594 4494 
L 1172 4494 
z
" transform="scale(0.015625)"/>
     <path id="DejaVuSans-43" d="M 4122 4306 
L 4122 3641 
Q 3803 3938 3442 4084 
Q 3081 4231 2675 4231 
Q 1875 4231 1450 3742 
Q 1025 3253 1025 2328 
Q 1025 1406 1450 917 
Q 1875 428 2675 428 
Q 3081 428 3442 575 
Q 3803 722 4122 1019 
L 4122 359 
Q 3791 134 3420 21 
Q 3050 -91 2638 -91 
Q 1578 -91 968 557 
Q 359 1206 359 2328 
Q 359 3453 968 4101 
Q 1578 4750 2638 4750 
Q 3056 4750 3426 4639 
Q 3797 4528 4122 4306 
z
" transform="scale(0.015625)"/>
     <path id="DejaVuSans-63" d="M 3122 3366 
L 3122 2828 
Q 2878 2963 2633 3030 
Q 2388 3097 2138 3097 
Q 1578 3097 1268 2742 
Q 959 2388 959 1747 
Q 959 1106 1268 751 
Q 1578 397 2138 397 
Q 2388 397 2633 464 
Q 2878 531 3122 666 
L 3122 134 
Q 2881 22 2623 -34 
Q 2366 -91 2075 -91 
Q 1284 -91 818 406 
Q 353 903 353 1747 
Q 353 2603 823 3093 
Q 1294 3584 2113 3584 
Q 2378 3584 2631 3529 
Q 2884 3475 3122 3366 
z
" transform="scale(0.015625)"/>
     <path id="DejaVuSans-6d" d="M 3328 2828 
Q 3544 3216 3844 3400 
Q 4144 3584 4550 3584 
Q 5097 3584 5394 3201 
Q 5691 2819 5691 2113 
L 5691 0 
L 5113 0 
L 5113 2094 
Q 5113 2597 4934 2840 
Q 4756 3084 4391 3084 
Q 3944 3084 3684 2787 
Q 3425 2491 3425 1978 
L 3425 0 
L 2847 0 
L 2847 2094 
Q 2847 2600 2669 2842 
Q 2491 3084 2119 3084 
Q 1678 3084 1418 2786 
Q 1159 2488 1159 1978 
L 1159 0 
L 581 0 
L 581 3500 
L 1159 3500 
L 1159 2956 
Q 1356 3278 1631 3431 
Q 1906 3584 2284 3584 
Q 2666 3584 2933 3390 
Q 3200 3197 3328 2828 
z
" transform="scale(0.015625)"/>
    </defs>
    <use xlink:href="#DejaVuSans-4f"/>
    <use xlink:href="#DejaVuSans-76" x="78.710938"/>
    <use xlink:href="#DejaVuSans-69" x="137.890625"/>
    <use xlink:href="#DejaVuSans-49" x="165.673828"/>
    <use xlink:href="#DejaVuSans-4e" x="195.166016"/>
    <use xlink:href="#DejaVuSans-72" x="269.970703"/>
    <use xlink:href="#DejaVuSans-20" x="311.083984"/>
    <use xlink:href="#DejaVuSans-49" x="342.871094"/>
    <use xlink:href="#DejaVuSans-6e" x="372.363281"/>
    <use xlink:href="#DejaVuSans-70" x="435.742188"/>
    <use xlink:href="#DejaVuSans-75" x="499.21875"/>
    <use xlink:href="#DejaVuSans-74" x="562.597656"/>
    <use xlink:href="#DejaVuSans-20" x="601.806641"/>
    <use xlink:href="#DejaVuSans-43" x="633.59375"/>
    <use xlink:href="#DejaVuSans-6f" x="703.417969"/>
    <use xlink:href="#DejaVuSans-6e" x="764.599609"/>
    <use xlink:href="#DejaVuSans-6e" x="827.978516"/>
    <use xlink:href="#DejaVuSans-65" x="891.357422"/>
    <use xlink:href="#DejaVuSans-63" x="952.880859"/>
    <use xlink:href="#DejaVuSans-74" x="1007.861328"/>
    <use xlink:href="#DejaVuSans-6f" x="1047.070312"/>
    <use xlink:href="#DejaVuSans-6d" x="1108.251953"/>
    <use xlink:href="#DejaVuSans-65" x="1205.664062"/>
   </g>
  </g>
 </g>
</svg>
